<svg width="30" height="30" viewBox="0 0 30 30" fill="none" xmlns="http://www.w3.org/2000/svg">
<g clip-path="url(#clip0_23_30)">
<path d="M27.56 0.684006H2.383C1.065 0.684006 0 1.74801 0 3.06401V26.877C0 28.189 1.065 29.256 2.383 29.256H27.56C28.872 29.256 29.94 28.19 29.94 26.877V3.06401C29.939 1.74801 28.871 0.684006 27.56 0.684006ZM20.125 9.16701C19.506 8.80501 19.015 8.51901 18.398 8.51901C17.794 8.51901 17.278 8.67001 17.014 8.92401C16.75 9.17601 16.619 9.66401 16.619 10.385V11.452H19.848L19.149 14.42H16.619V24.282H12.563V14.42H10.67V11.452H12.565V10.319C12.565 9.12601 12.708 8.41201 12.99 7.82301C13.271 7.23601 13.816 6.58201 14.574 6.21201C15.331 5.84301 16.451 5.65701 17.61 5.65701C18.798 5.65701 19.726 6.05301 20.864 6.37201L20.125 9.16701Z" fill="#E6E6E6"/>
</g>
<defs>
<clipPath id="clip0_23_30">
<rect width="29.94" height="29.94" fill="white"/>
</clipPath>
</defs>
</svg>
