<svg width="24" height="24" viewBox="0 0 24 24" fill="none" xmlns="http://www.w3.org/2000/svg">
<path d="M23.456 5.784C23.186 6.633 22.822 7.372 22.366 8.043L22.385 8.013C21.937 8.75967 21.402 9.62234 20.78 10.601C20.2467 11.3737 19.9643 11.7737 19.933 11.801C19.795 11.974 19.699 12.186 19.666 12.419L19.665 12.426C19.692 12.638 19.79 12.823 19.933 12.961L20.333 13.407C22.473 15.6063 23.6767 17.1223 23.944 17.955C23.979 18.047 23.999 18.153 23.999 18.264C23.999 18.458 23.937 18.637 23.832 18.784L23.834 18.781C23.658 18.962 23.412 19.074 23.14 19.074C23.11 19.074 23.079 19.073 23.05 19.07H23.054H20.423C20.422 19.07 20.42 19.07 20.418 19.07C20.081 19.07 19.771 18.952 19.528 18.756L19.531 18.758C19.177 18.467 18.862 18.152 18.58 17.81L18.571 17.798C18.1103 17.2773 17.7017 16.839 17.345 16.483C16.157 15.3537 15.2803 14.789 14.715 14.789C14.694 14.787 14.67 14.786 14.645 14.786C14.48 14.786 14.326 14.837 14.199 14.924L14.202 14.922C14.098 15.052 14.035 15.22 14.035 15.401C14.035 15.437 14.037 15.471 14.042 15.506V15.502C14.015 15.816 13.999 16.181 13.999 16.55C13.999 16.669 14.001 16.787 14.004 16.905V16.888V18.047C14.014 18.094 14.02 18.148 14.02 18.203C14.02 18.445 13.91 18.661 13.738 18.804L13.737 18.805C13.35 18.982 12.898 19.086 12.421 19.086C12.319 19.086 12.219 19.081 12.12 19.072L12.133 19.073C10.559 19.043 9.09899 18.582 7.85799 17.805L7.89299 17.825C6.38199 16.907 5.12999 15.712 4.17599 14.3L4.14899 14.258C3.24299 13.056 2.39799 11.698 1.67799 10.266L1.60799 10.112C1.18699 9.31 0.750991 8.324 0.374991 7.31L0.314991 7.125C0.161991 6.669 0.0509907 6.139 0.00499072 5.59L0.00299072 5.565C0.00299072 5.05967 0.300324 4.807 0.894991 4.807H3.52499C3.54899 4.805 3.57699 4.804 3.60599 4.804C3.85399 4.804 4.08299 4.889 4.26399 5.032L4.26199 5.03C4.46199 5.249 4.60999 5.518 4.68299 5.818L4.68599 5.83C5.16999 7.197 5.68299 8.345 6.27299 9.445L6.20599 9.308C6.68799 10.278 7.22099 11.113 7.82899 11.884L7.80599 11.853C8.33932 12.5077 8.75532 12.835 9.05399 12.835C9.06299 12.836 9.07399 12.836 9.08599 12.836C9.23399 12.836 9.36299 12.756 9.43299 12.636L9.43399 12.634C9.50799 12.444 9.55099 12.223 9.55099 11.993C9.55099 11.944 9.54899 11.895 9.54499 11.847V11.853V7.974C9.52399 7.517 9.41199 7.09 9.22499 6.707L9.23299 6.726C9.10899 6.462 8.95999 6.234 8.78299 6.031L8.78599 6.035C8.62199 5.871 8.50999 5.656 8.47499 5.416L8.47399 5.41C8.47399 5.24 8.55199 5.087 8.67399 4.987L8.67499 4.986C8.79599 4.875 8.95799 4.808 9.13499 4.808H9.14299H13.289C13.311 4.805 13.336 4.804 13.362 4.804C13.557 4.804 13.732 4.892 13.848 5.03L13.849 5.031C13.952 5.219 14.013 5.444 14.013 5.682C14.013 5.72 14.011 5.757 14.008 5.794V5.789V10.962C14.006 10.986 14.005 11.014 14.005 11.042C14.005 11.226 14.056 11.399 14.144 11.546L14.142 11.542C14.215 11.65 14.337 11.72 14.475 11.72H14.476C14.652 11.708 14.812 11.65 14.947 11.558L14.944 11.56C15.216 11.373 15.45 11.16 15.653 10.919L15.657 10.914C16.264 10.228 16.824 9.47 17.312 8.664L17.351 8.594C17.695 8.024 18.067 7.322 18.404 6.601L18.466 6.454L18.912 5.562C19.067 5.116 19.483 4.802 19.972 4.802C19.991 4.802 20.01 4.802 20.029 4.803H20.026H22.657C23.3677 4.803 23.6343 5.13 23.457 5.784H23.456Z" fill="#E6E6E6"/>
</svg>
