<svg width="132" height="132" viewBox="0 0 132 132" fill="none" xmlns="http://www.w3.org/2000/svg">
<circle cx="66" cy="66" r="65" fill="white" stroke="#00327F" stroke-width="2"/>
<path d="M107.625 42.1437C107.422 41.9398 107.107 41.9398 106.904 41.9398L104.001 42.6629V38.1946C104.001 37.6754 103.595 37.3603 103.169 37.3603H103.058C100.988 37.3603 98.5105 37.6754 95.7003 38.2873V33.8375C95.7003 33.5223 95.5894 33.3184 95.386 33.1145C95.1827 32.9105 94.8684 32.9105 94.665 32.9105C86.0681 34.9871 78.6175 39.8632 73.8477 43.4972C70.6308 45.9817 68.2643 48.3734 66.8038 49.7269C66.397 49.2077 63.4944 45.5738 58.5212 41.6246C53.6959 37.7867 45.82 33.0032 35.9845 31.761C35.7811 31.761 35.4668 31.761 35.2634 31.9649C35.0601 32.1689 34.9492 32.3728 34.9492 32.5953V37.1563C33.0819 36.8597 31.1222 36.7484 29.2549 36.7484C28.7372 36.7484 28.4229 37.1563 28.4229 37.5827V42.4589L25.4279 41.7358C25.1136 41.6246 24.9102 41.7358 24.7069 41.9398C24.5035 42.1437 24.3926 42.3477 24.3926 42.6629V91.6658C24.3926 92.0737 24.7069 92.3889 25.0212 92.5001L59.3901 101.01H72.9602L107.218 92.6114C107.625 92.5001 107.847 92.2035 107.847 91.777V42.7741C107.939 42.5702 107.847 42.255 107.625 42.1437ZM74.9199 45.0546C79.2646 41.6246 86.1051 37.1563 93.9625 35.0798V38.7137C93.6482 38.825 93.6482 38.825 93.6482 38.825C89.5069 39.9745 84.6446 41.7358 79.2646 44.2203C76.2696 45.5738 73.4594 47.0199 71.1854 48.1694C72.3316 47.2424 73.5703 46.0929 74.9199 45.0546ZM36.7055 33.8375C45.6167 35.191 52.8639 39.6593 57.4119 43.182C60.5179 45.5738 62.6995 47.8543 64.0306 49.4117C61.9599 48.0582 58.6506 46.0929 54.7127 44.109C49.9428 41.7173 43.4351 39.0289 36.5946 37.6754V33.8375H36.7055ZM58.7615 99.0449L26.1489 91.0539V43.9051L58.7615 51.8961V99.0449ZM59.5935 50.246L30.1978 43.0893V38.7137C31.8617 38.7137 33.618 38.9177 35.2634 39.2329C35.3744 39.2329 35.6702 39.3441 35.6702 39.3441C42.6031 40.4936 49.2403 43.2933 53.9917 45.685C57.4119 47.3537 60.2036 49.115 62.2742 50.3572H59.575L59.5935 50.246ZM71.9064 99.1562H60.5179V63.0205H71.9064V99.1562ZM71.9064 61.2591H60.5179V58.0331H71.9064V61.2591ZM71.9064 56.3644H60.5179V52.0074H71.9064V56.3644ZM72.8493 50.246H70.982C78.1184 46.5008 92.7238 39.4553 102.356 39.0289V42.9781L72.8493 50.246ZM106.294 91.0539L73.6813 99.0449V51.9147L103.077 44.758H103.188C103.391 44.758 103.502 44.6467 103.706 44.6467L106.294 44.0163V91.0539Z" fill="#00327F"/>
<path d="M56.5979 33.8381C56.1912 34.1533 56.1912 34.7651 56.487 35.1915L58.9644 38.1024C59.1677 38.3064 59.3711 38.4176 59.6854 38.4176C59.8887 38.4176 60.0921 38.3064 60.314 38.2137C60.7207 37.8985 60.7207 37.2866 60.4249 36.8602L57.9475 33.9493C57.6332 33.5229 57.0046 33.5229 56.5979 33.8381Z" fill="#00327F"/>
<path d="M66.7301 30C66.2124 30 65.8057 30.4079 65.8057 30.927V34.7649C65.8057 35.2841 66.2124 35.692 66.7301 35.692C67.2477 35.692 67.6545 35.2841 67.6545 34.7649V30.927C67.7654 30.4079 67.3586 30 66.7301 30Z" fill="#00327F"/>
<path d="M75.7519 34.0419L73.3669 37.0454C73.0526 37.4533 73.1636 38.0837 73.5703 38.3989C73.7737 38.5101 73.977 38.6028 74.1989 38.6028C74.5132 38.6028 74.8275 38.4916 74.9199 38.195L77.3049 35.1914C77.6191 34.7835 77.5082 34.1531 77.1015 33.8379C76.6763 33.5227 76.0477 33.634 75.7519 34.0419Z" fill="#00327F"/>
</svg>
