<svg width="132" height="133" viewBox="0 0 132 133" fill="none" xmlns="http://www.w3.org/2000/svg">
<circle cx="66" cy="66.0977" r="65" fill="white" stroke="#00327F" stroke-width="2"/>
<path d="M66.0982 52.2467H31.9958C31.5385 52.2467 31.1644 52.6199 31.1644 53.076C31.1644 53.5322 31.5385 53.9054 31.9958 53.9054H66.0982C66.5555 53.9054 66.9297 53.5322 66.9297 53.076C66.9297 52.6199 66.5555 52.2467 66.0982 52.2467Z" fill="#00327F"/>
<path d="M31.9958 61.5357H49.0401C49.4974 61.5357 49.8715 61.1624 49.8715 60.7063C49.8715 60.2501 49.4974 59.8769 49.0401 59.8769H31.9958C31.5385 59.8769 31.1644 60.2501 31.1644 60.7063C31.1644 61.1624 31.5385 61.5357 31.9958 61.5357Z" fill="#00327F"/>
<path d="M31.9958 69.1659H61.0404C61.4977 69.1659 61.8718 68.7927 61.8718 68.3365C61.8718 67.8804 61.4977 67.5072 61.0404 67.5072H31.9958C31.5385 67.5072 31.1644 67.8804 31.1644 68.3365C31.1644 68.7927 31.5385 69.1659 31.9958 69.1659Z" fill="#00327F"/>
<path d="M66.0982 75.1374H31.9958C31.5385 75.1374 31.1644 75.5106 31.1644 75.9668C31.1644 76.4229 31.5385 76.7961 31.9958 76.7961H66.0982C66.5555 76.7961 66.9297 76.4229 66.9297 75.9668C66.9297 75.5106 66.5555 75.1374 66.0982 75.1374Z" fill="#00327F"/>
<path d="M110.552 37H57.7561C55.3034 37 53.2941 38.9905 53.2941 41.4372V42.5983H22.4481C21.2564 42.5983 20.1479 43.0544 19.3026 43.8976C18.4711 44.7546 18 45.8605 18 47.0492V81.1918C18 83.6385 19.9954 85.6428 22.462 85.6428H27.215L27.8247 94.3236C27.8524 94.6139 28.0187 94.8765 28.2959 95.0147C28.4067 95.07 28.5314 95.0977 28.6561 95.0977C28.8224 95.0977 28.9749 95.0562 29.1273 94.9594L42.9151 85.6566H75.23C77.6827 85.6566 79.692 83.6661 79.692 81.2056V80.0445H90.0849L103.887 89.3335C104.025 89.4303 104.191 89.4717 104.344 89.4717C104.469 89.4717 104.593 89.4441 104.704 89.3888C104.967 89.2644 105.148 89.0018 105.175 88.6977L105.799 80.0307H110.552C113.005 80.0307 115 78.0402 115 75.5797V41.4372C115 38.9905 113.005 37 110.552 37ZM78.0291 81.1918C78.0291 82.7262 76.7681 83.984 75.23 83.984H42.6519C42.4856 83.984 42.3193 84.0393 42.1946 84.1223L29.3767 92.7616L28.864 85.6013L28.8086 84.7443C28.7809 84.3158 28.4206 83.9702 27.9771 83.9702H22.462C20.9239 83.9702 19.6629 82.7123 19.6629 81.178V47.0354C19.6629 46.289 19.9539 45.5978 20.4804 45.0726C21.007 44.5473 21.7137 44.257 22.462 44.257H75.23C76.7681 44.257 78.0291 45.5149 78.0291 47.0492V79.1875V81.1918ZM113.337 75.5797C113.337 77.1141 112.09 78.3719 110.538 78.3719H105.023C104.593 78.3719 104.233 78.7037 104.191 79.146L103.623 87.1495L90.8054 78.5102C90.6669 78.4134 90.5006 78.3719 90.3481 78.3719H79.692V47.0492V47.0354C79.692 44.5888 77.6966 42.5983 75.23 42.5983H54.957V41.4372C54.957 39.9028 56.218 38.6587 57.7561 38.6587H110.538C112.09 38.6587 113.337 39.9028 113.337 41.4372V75.5797Z" fill="#00327F"/>
</svg>
