<svg width="130" height="130" viewBox="0 0 130 130" fill="none" xmlns="http://www.w3.org/2000/svg">
<circle cx="65" cy="65" r="64" fill="white" stroke="#00327F" stroke-width="2"/>
<g clip-path="url(#clip0_8_19)">
<path fill-rule="evenodd" clip-rule="evenodd" d="M65.0939 35.903C49.4246 35.903 36.6862 48.5422 36.6862 64.1312C36.6862 79.7015 49.4058 92.3594 65.0939 92.3594C80.7633 92.3594 93.5016 79.7202 93.5016 64.1312C93.4828 48.5422 80.7633 35.903 65.0939 35.903ZM65.0939 37.5459C79.8614 37.5459 91.8483 49.457 91.8483 64.1312C91.8483 78.8054 79.8614 90.7165 65.0939 90.7165C50.3264 90.7165 38.3396 78.8054 38.3396 64.1312C38.3396 49.457 50.3264 37.5459 65.0939 37.5459Z" fill="#00327F"/>
<path fill-rule="evenodd" clip-rule="evenodd" d="M93.7802 64.1308V64.1312C93.7802 79.8758 80.9154 92.6379 65.094 92.6379C49.2535 92.6379 36.4077 79.8569 36.4077 64.1312C36.4077 48.3865 49.2725 35.6244 65.094 35.6244C80.9157 35.6244 93.7613 48.3868 93.7802 64.1308ZM93.5017 64.1312C93.5017 79.7201 80.7633 92.3594 65.094 92.3594C49.4058 92.3594 36.6862 79.7015 36.6862 64.1312C36.6862 48.5422 49.4246 35.903 65.094 35.903C80.7633 35.903 93.4829 48.5422 93.5017 64.1312ZM91.5697 64.1312C91.5697 49.6125 79.7093 37.8245 65.094 37.8245C50.4787 37.8245 38.6182 49.6125 38.6182 64.1312C38.6182 78.6498 50.4787 90.4379 65.094 90.4379C79.7093 90.4379 91.5697 78.6498 91.5697 64.1312ZM91.8483 64.1312C91.8483 49.457 79.8614 37.5459 65.094 37.5459C50.3265 37.5459 38.3396 49.457 38.3396 64.1312C38.3396 78.8053 50.3265 90.7164 65.094 90.7164C79.8614 90.7164 91.8483 78.8053 91.8483 64.1312Z" fill="#00327F"/>
<path fill-rule="evenodd" clip-rule="evenodd" d="M64.2109 27.5017C61.3175 25.4854 56.9587 24.7013 52.8253 26.0082C48.6919 27.315 45.6106 30.4701 44.427 33.7933C40.8948 33.644 36.799 35.3242 34.0371 38.6474C31.2752 41.9705 30.3734 46.2832 31.2001 49.6997C28.1376 51.4733 25.62 55.0952 25.0939 59.3705C24.5866 63.6458 26.1836 67.753 28.72 70.1987C27.1231 73.3352 26.954 77.7225 28.8516 81.6058C30.7492 85.489 34.3189 88.0654 37.7947 88.7562C38.1517 92.266 40.4063 96.0372 44.1076 98.2776C47.8088 100.518 52.224 100.779 55.5308 99.4911C57.7478 102.235 61.6933 104.214 66.0333 104.121C70.3734 104.009 74.225 101.862 76.3105 99.0057C79.6548 100.145 84.07 99.6778 87.6585 97.2508C91.2471 94.8424 93.3138 90.9405 93.5204 87.4306C96.9587 86.5718 100.397 83.8274 102.107 79.8508C103.816 75.8929 103.441 71.5056 101.693 68.4438C104.117 65.8861 105.526 61.7041 104.812 57.4475C104.098 53.1909 101.393 49.7183 98.2551 48.0754C98.8938 44.6216 97.8041 40.3463 94.892 37.1538C91.9798 33.9613 87.8088 32.4864 84.2767 32.7852C82.9427 29.518 79.7111 26.5309 75.5214 25.4107C71.3128 24.3466 67.0103 25.3361 64.2109 27.5017ZM63.7224 29.1633C64.0418 29.4247 64.4927 29.406 64.7933 29.1446C67.1982 27.0163 71.2189 26.0082 75.0892 27.035C78.9784 28.0618 81.9469 30.9369 82.9615 33.98C83.093 34.3534 83.4688 34.5961 83.8633 34.5401C87.0573 34.036 90.9652 35.3429 93.6707 38.3113C96.3762 41.2611 97.3156 45.275 96.5078 48.3741C96.4138 48.7662 96.6017 49.1583 96.9775 49.3263C99.9272 50.6145 102.52 53.8256 103.178 57.7649C103.854 61.7041 102.464 65.5874 100.096 67.753C99.7957 68.0331 99.7393 68.4625 99.9648 68.7985C101.75 71.4683 102.182 75.5569 100.604 79.2347C99.0254 82.9126 95.7374 85.4143 92.5622 85.9744C92.1677 86.0491 91.8859 86.3851 91.8859 86.7959C91.9422 90.007 90.0634 93.6662 86.7379 95.9066C83.4124 98.1469 79.279 98.5016 76.3105 97.2694C75.9347 97.1201 75.5026 97.2508 75.2959 97.5868C73.5862 100.313 70.0352 102.404 66.0146 102.497C61.9939 102.59 58.3302 100.686 56.5077 98.0349C56.2823 97.6988 55.8502 97.5868 55.4744 97.7548C52.5622 99.1364 48.4288 98.9683 44.9906 96.896C41.5524 94.8237 39.5232 91.2392 39.4105 88.0281C39.3917 87.636 39.0911 87.2999 38.6966 87.2439C35.5026 86.8332 32.1019 84.4809 30.3546 80.8777C28.5885 77.2744 28.8328 73.1858 30.4861 70.4228C30.6928 70.0867 30.6176 69.6386 30.317 69.3773C27.8558 67.305 26.2776 63.5151 26.7473 59.5385C27.217 55.5619 29.6595 52.2387 32.534 50.8198C32.891 50.6332 33.0789 50.2224 32.9474 49.849C31.9892 46.7872 32.7407 42.736 35.2959 39.6555C37.8511 36.5937 41.7215 35.1002 44.9154 35.4549C45.31 35.4922 45.6858 35.2495 45.7985 34.8575C46.6627 31.7583 49.481 28.7712 53.3138 27.5577C57.1465 26.3442 61.2048 27.147 63.7224 29.1633Z" fill="#00327F"/>
<path fill-rule="evenodd" clip-rule="evenodd" d="M25.0939 59.3705C25.62 55.0952 28.1376 51.4733 31.2001 49.6997C30.3734 46.2832 31.2753 41.9705 34.0371 38.6474C36.799 35.3242 40.8948 33.644 44.427 33.7933C45.6106 30.4701 48.6919 27.315 52.8253 26.0081C56.9587 24.7013 61.3175 25.4854 64.2109 27.5017C67.0103 25.336 71.3128 24.3466 75.5214 25.4107C79.7111 26.5309 82.9427 29.518 84.2767 32.7852C87.8089 32.4864 91.9798 33.9613 94.892 37.1538C97.8042 40.3463 98.8939 44.6216 98.2551 48.0754C101.393 49.7183 104.098 53.1909 104.812 57.4475C105.526 61.7041 104.117 65.8861 101.693 68.4438C103.441 71.5056 103.816 75.8929 102.107 79.8508C100.397 83.8274 96.9587 86.5718 93.5205 87.4306C93.3138 90.9405 91.2471 94.8424 87.6585 97.2508C84.07 99.6778 79.6548 100.145 76.3105 99.0057C74.225 101.862 70.3734 104.009 66.0334 104.121C61.6933 104.214 57.7478 102.236 55.5308 99.4911C52.2241 100.779 47.8088 100.518 44.1076 98.2776C40.4063 96.0372 38.1517 92.266 37.7947 88.7562C34.3189 88.0654 30.7492 85.489 28.8516 81.6058C26.954 77.7225 27.1231 73.3352 28.7201 70.1987C26.1837 67.753 24.5867 63.6458 25.0939 59.3705ZM28.3807 70.2557C25.8652 67.7331 24.3098 63.6147 24.8173 59.3376L24.8174 59.3364C25.3436 55.0605 27.823 51.418 30.8828 49.5639C30.1169 46.0915 31.0612 41.7922 33.8229 38.4693C36.5859 35.1447 40.6612 33.4268 44.2348 33.5083C45.4968 30.1722 48.6062 27.0499 52.7413 25.7425C56.8754 24.4354 61.2372 25.1767 64.2024 27.1586C67.0745 25.024 71.3822 24.0768 75.5897 25.1406L75.5915 25.1411L75.5933 25.1416C79.7837 26.2619 83.0425 29.2153 84.4559 32.4924C88.0307 32.2582 92.1834 33.7711 95.0978 36.9661C98.0109 40.1596 99.1414 44.4198 98.5642 47.925C101.703 49.6454 104.372 53.141 105.087 57.4014C105.801 61.6597 104.435 65.851 102.035 68.485C103.741 71.6145 104.073 76.001 102.363 79.9609C100.652 83.9401 97.2423 86.7158 93.7846 87.6498C93.5069 91.1941 91.4047 95.0717 87.8146 97.4815C84.2245 99.9096 79.8182 100.419 76.414 99.3331C74.2501 102.18 70.3811 104.288 66.0406 104.4L66.0394 104.4C61.6978 104.493 57.7368 102.554 55.4427 99.8223C52.0757 101.061 47.6666 100.757 43.9633 98.5159C40.2612 96.2751 37.971 92.5288 37.5403 88.9876C34.0418 88.2223 30.5 85.6137 28.6013 81.7281C26.7028 77.8431 26.8284 73.4577 28.3807 70.2557ZM64.7933 29.1446C64.4927 29.406 64.0418 29.4247 63.7224 29.1633C61.2048 27.147 57.1466 26.3442 53.3138 27.5577C49.481 28.7712 46.6628 31.7583 45.7985 34.8575C45.6858 35.2495 45.31 35.4922 44.9155 35.4549C41.7215 35.1002 37.8511 36.5937 35.2959 39.6555C32.7407 42.736 31.9892 46.7872 32.9474 49.849C33.0789 50.2224 32.891 50.6332 32.5341 50.8198C29.6595 52.2387 27.217 55.5619 26.7473 59.5385C26.2776 63.5151 27.8558 67.305 30.3171 69.3773C30.6177 69.6387 30.6928 70.0867 30.4862 70.4228C28.8328 73.1858 28.5885 77.2744 30.3546 80.8777C32.1019 84.4809 35.5026 86.8332 38.6966 87.2439C39.0911 87.2999 39.3917 87.636 39.4105 88.0281C39.5233 91.2392 41.5524 94.8237 44.9906 96.896C48.4289 98.9684 52.5622 99.1364 55.4744 97.7548C55.8502 97.5868 56.2823 97.6988 56.5078 98.0349C58.3302 100.686 61.9939 102.59 66.0146 102.497C70.0352 102.404 73.5862 100.313 75.2959 97.5868C75.5026 97.2508 75.9347 97.1201 76.3105 97.2694C79.279 98.5016 83.4124 98.1469 86.7379 95.9066C90.0634 93.6662 91.9422 90.007 91.8859 86.7959C91.8859 86.3851 92.1677 86.0491 92.5623 85.9744C95.7375 85.4143 99.0254 82.9126 100.604 79.2347C102.182 75.5569 101.75 71.4683 99.9648 68.7985C99.7393 68.4625 99.7957 68.0331 100.096 67.753C102.464 65.5874 103.854 61.7041 103.178 57.7649C102.52 53.8256 99.9272 50.6145 96.9775 49.3263C96.6017 49.1583 96.4138 48.7662 96.5078 48.3741C97.3157 45.275 96.3763 41.2611 93.6708 38.3113C90.9653 35.3429 87.0573 34.036 83.8633 34.5401C83.4688 34.5961 83.093 34.3534 82.9615 33.98C81.9469 30.9369 78.9784 28.0618 75.0893 27.035C71.2189 26.0081 67.1982 27.0163 64.7933 29.1446ZM99.7334 68.9537C99.4286 68.4993 99.5099 67.9186 99.9064 67.5492L99.9083 67.5475C102.2 65.4509 103.565 61.6655 102.903 57.812L102.903 57.8108C102.26 53.9578 99.7234 50.8295 96.866 49.5816L96.8637 49.5806C96.3645 49.3574 96.112 48.8304 96.2368 48.3092L96.2375 48.3065L96.2382 48.3039C97.0203 45.3037 96.1124 41.3856 93.4655 38.4996L93.4649 38.499C90.8176 35.5944 87.0012 34.3269 83.9068 34.8153L83.9046 34.8156L83.9025 34.8159C83.3692 34.8916 82.8719 34.5641 82.6987 34.0726L82.698 34.0703L82.6972 34.0681C81.7147 31.121 78.8237 28.3091 75.0181 27.3043L75.0178 27.3042C71.2301 26.2993 67.3074 27.2917 64.978 29.3532L64.9761 29.3549C64.577 29.7019 63.9752 29.7291 63.5472 29.3799C61.1084 27.4274 57.1493 26.6356 53.3979 27.8233C49.6467 29.011 46.9037 31.9316 46.0669 34.9323L46.0663 34.9345C45.9152 35.4598 45.4125 35.7818 44.8892 35.7322L44.887 35.732L44.8847 35.7318C41.7907 35.3882 38.01 36.8383 35.51 39.8337C33.0112 42.8466 32.2865 46.7983 33.2119 49.7615C33.3916 50.2801 33.1257 50.8248 32.6632 51.0667L32.6603 51.0682L32.6574 51.0697C29.8731 52.4439 27.4834 55.6817 27.024 59.5712C26.5645 63.4613 28.1119 67.1564 30.4965 69.1642L30.4982 69.1656L30.4999 69.167C30.8991 69.5141 31.0039 70.111 30.7244 70.5672C29.1236 73.2436 28.8775 77.231 30.6048 80.755L30.6053 80.7561C32.3144 84.2805 35.6376 86.5697 38.7321 86.9676L38.7339 86.9678L38.7357 86.9681C39.264 87.0431 39.6637 87.4905 39.6888 88.0147L39.6889 88.0165L39.689 88.0183C39.7981 91.1283 41.7707 94.63 45.1344 96.6574C48.5002 98.6861 52.5349 98.841 55.355 97.5031L55.3578 97.5018L55.3607 97.5005C55.8515 97.281 56.4318 97.4233 56.738 97.878C58.5022 100.443 62.0723 102.31 66.0081 102.218C69.9421 102.127 73.4028 100.08 75.0592 97.4399C75.342 96.981 75.9214 96.815 76.4134 97.0105L76.4154 97.0113L76.4173 97.0121C79.2927 98.2056 83.328 97.8678 86.5823 95.6755C89.8377 93.4824 91.6619 89.9081 91.6073 86.8008L91.6073 86.7983V86.7959C91.6073 86.2515 91.9842 85.8003 92.5104 85.7007L92.5122 85.7004L92.5139 85.7001C95.5907 85.1573 98.804 82.722 100.348 79.1249C101.892 75.5266 101.461 71.5387 99.7334 68.9537Z" fill="#00327F"/>
<path fill-rule="evenodd" clip-rule="evenodd" d="M49.2743 60.0799C48.9549 59.8559 48.504 59.8932 48.2222 60.1733C47.9404 60.4533 47.9028 60.9014 48.1283 61.2187L59.2884 76.9384C59.4387 77.1438 59.6642 77.2745 59.9272 77.2745C60.1903 77.2931 60.4345 77.1811 60.5848 76.9944L82.0033 52.2947C82.2851 51.9774 82.2663 51.5106 81.9657 51.1933C81.6651 50.8945 81.1954 50.8572 80.8572 51.1186L60.0212 67.4357L49.2743 60.0799ZM52.1301 64.0192L59.589 69.1346C59.8896 69.34 60.2842 69.3213 60.566 69.0972L75.1832 57.6529L60.0212 75.1461L52.1301 64.0192Z" fill="#00327F"/>
<path fill-rule="evenodd" clip-rule="evenodd" d="M59.2884 76.9384L48.1282 61.2187C47.9028 60.9013 47.9403 60.4533 48.2222 60.1732C48.504 59.8932 48.9549 59.8559 49.2743 60.0799L60.0211 67.4357L80.8572 51.1186C81.1954 50.8572 81.6651 50.8945 81.9657 51.1932C82.2663 51.5106 82.2851 51.9774 82.0033 52.2947L60.5848 76.9944C60.4345 77.1811 60.1902 77.2931 59.9272 77.2744C59.6641 77.2744 59.4387 77.1438 59.2884 76.9384ZM59.9173 77.553C59.5593 77.5497 59.2581 77.3687 59.0636 77.1029L59.0624 77.1013L47.9011 61.3801C47.9011 61.38 47.9011 61.3801 47.9011 61.3801C47.5961 60.9507 47.6482 60.3509 48.0258 59.9756C48.4024 59.6014 49.0025 59.55 49.4328 59.8508C49.4333 59.8511 49.4338 59.8515 49.4343 59.8518L60.01 67.0905L80.6868 50.8981C81.139 50.5486 81.7653 50.6014 82.1621 50.9956L82.165 50.9986L82.1679 51.0017C82.5606 51.4162 82.5959 52.0457 82.2127 52.4785C82.2123 52.4789 82.2119 52.4793 82.2116 52.4797L60.7983 77.1734C60.5922 77.4265 60.2653 77.5745 59.9173 77.553ZM59.589 69.1346L52.1301 64.0191L60.0211 75.1461L75.1832 57.6529L60.566 69.0972C60.2842 69.3213 59.8896 69.3399 59.589 69.1346ZM73.0819 59.6519L60.7393 69.3153C60.739 69.3156 60.7387 69.3158 60.7384 69.316C60.3627 69.6141 59.8348 69.6399 59.4318 69.3646L59.4314 69.3643L53.2615 65.1329L60.0431 74.6955L73.0819 59.6519Z" fill="#00327F"/>
</g>
<defs>
<clipPath id="clip0_8_19">
<rect width="80" height="79.1398" fill="white" transform="translate(25 25)"/>
</clipPath>
</defs>
</svg>
