<svg width="30" height="30" viewBox="0 0 30 30" fill="none" xmlns="http://www.w3.org/2000/svg">
<g id="Icon set">
<path id="Vector" d="M12.8547 20.25L7.62067 14.9492C7.53846 14.8519 7.4955 14.7267 7.50037 14.5987C7.50525 14.4707 7.55761 14.3492 7.64698 14.2586C7.73635 14.168 7.85616 14.115 7.98246 14.11C8.10875 14.1051 8.23224 14.1486 8.32824 14.232L12.8447 18.8104L21.6718 9.87232C21.7678 9.78898 21.8912 9.74543 22.0175 9.75038C22.1438 9.75532 22.2636 9.8084 22.353 9.899C22.4424 9.9896 22.4947 10.111 22.4996 10.2391C22.5045 10.3671 22.4615 10.4923 22.3793 10.5896L12.8547 20.25Z" fill="#3076BD" stroke="#3076BD"/>
</g>
</svg>
