<svg width="132" height="132" viewBox="0 0 132 132" fill="none" xmlns="http://www.w3.org/2000/svg">
<circle cx="66" cy="66" r="65" fill="white" stroke="#00327F" stroke-width="2"/>
<path d="M62.702 25C59.8859 25 57.5886 26.9634 57.5886 29.3713V91.9964C57.5886 92.1446 57.6257 92.2743 57.6812 92.4225L64.0174 106.796C64.0545 106.907 64.1286 107 64.2027 107.074C64.7399 107.648 65.5366 107.981 66.3703 107.981C67.204 107.981 68.0192 107.648 68.5379 107.074C68.612 106.981 68.6862 106.889 68.7232 106.796L75.0779 92.4225C75.1335 92.2928 75.1705 92.1446 75.1705 91.9964V29.3713C75.1705 26.9634 72.8732 25 70.0571 25H62.702ZM73.1141 90.5331H67.4263V39.2254H73.1141V90.5331ZM69.4457 100.054H63.3134L60.0341 92.6077H72.7435L69.4457 100.054ZM65.3513 90.5331H59.6636V39.2254H65.3513V90.5331ZM65.833 105.759L64.2397 102.128H68.5379L66.9446 105.759C66.6482 105.944 66.1109 105.944 65.833 105.759ZM73.1141 29.3713V37.1509H59.6636V29.3713C59.6636 28.1118 61.0346 27.0745 62.702 27.0745H70.0571C71.7431 27.0745 73.1141 28.1118 73.1141 29.3713Z" fill="#00327F"/>
<path d="M30.3127 83.652L29.8866 91.6538C29.868 92.0057 30.0348 92.3391 30.3127 92.5428C30.4979 92.6725 30.7017 92.7466 30.9241 92.7466C31.0537 92.7466 31.1834 92.7281 31.2946 92.6725L38.8165 89.8015L46.3383 92.6725C46.6718 92.8022 47.0424 92.7466 47.3203 92.5428C47.5982 92.3391 47.7649 92.0057 47.7464 91.6538L47.3203 83.652L52.3966 77.4098C52.6189 77.132 52.693 76.7615 52.5819 76.4281C52.4707 76.0947 52.2113 75.8354 51.8593 75.7428L44.0781 73.6683L39.6872 66.9445C39.2982 66.3518 38.3348 66.3518 37.9457 66.9445L33.5549 73.6683L25.7736 75.7428C25.4401 75.8354 25.1622 76.0947 25.0511 76.4281C24.9399 76.7615 25.014 77.132 25.2363 77.4098L30.3127 83.652ZM34.4812 75.5761C34.7221 75.502 34.9444 75.3538 35.0741 75.1316L38.8165 69.4081L42.5589 75.1501C42.7071 75.3723 42.9109 75.5205 43.1517 75.5946L49.7658 77.3543L45.4491 82.6517C45.2823 82.8555 45.2082 83.0963 45.2267 83.3556L45.5787 90.1719L39.1685 87.727C39.0573 87.6899 38.9276 87.6529 38.7979 87.6529C38.6683 87.6529 38.5386 87.6714 38.4274 87.727L32.0542 90.1719L32.4062 83.3556C32.4247 83.0963 32.3321 82.837 32.1839 82.6517L27.8671 77.3543L34.4812 75.5761Z" fill="#00327F"/>
<path d="M107.944 32.0571C107.833 31.7237 107.574 31.4644 107.222 31.3718L102.034 29.9826L99.1072 25.5001C98.7181 24.9074 97.7547 24.9074 97.3656 25.5001L94.4384 29.9826L89.2509 31.3718C88.9174 31.4644 88.6395 31.7237 88.5284 32.0571C88.4172 32.3905 88.4913 32.761 88.7136 33.0388L92.0855 37.1879L91.8076 42.5224C91.7891 42.8744 91.9558 43.2078 92.2337 43.4115C92.5116 43.6153 92.8822 43.6708 93.2156 43.5412L98.2364 41.6148L103.257 43.5412C103.368 43.5782 103.498 43.6153 103.628 43.6153C103.85 43.6153 104.054 43.5412 104.239 43.4115C104.517 43.2078 104.684 42.8744 104.665 42.5224L104.387 37.1879L107.759 33.0388C108 32.7425 108.056 32.3905 107.944 32.0571ZM102.535 36.1877C102.368 36.3914 102.294 36.6322 102.312 36.8915L102.535 41.0406L98.644 39.5403C98.5328 39.5032 98.4031 39.4662 98.2735 39.4662C98.1438 39.4662 98.0141 39.4847 97.9029 39.5403L94.0123 41.0406L94.2346 36.8915C94.2531 36.6322 94.1605 36.3729 94.0123 36.1877L91.3444 32.9647L95.3647 31.8904C95.6056 31.8163 95.8279 31.6682 95.9576 31.4459L98.2549 27.9636L100.534 31.4459C100.682 31.6682 100.886 31.8163 101.127 31.8904L105.147 32.9647L102.535 36.1877Z" fill="#00327F"/>
<path d="M88.1852 57.068C87.6108 57.068 87.1477 57.5311 87.1477 58.1053V61.6431H83.572C82.9977 61.6431 82.5345 62.1062 82.5345 62.6804C82.5345 63.2546 82.9977 63.7177 83.572 63.7177H87.1477V67.2555C87.1477 67.8297 87.6108 68.2928 88.1852 68.2928C88.7595 68.2928 89.2227 67.8297 89.2227 67.2555V63.7177H92.7983C93.3727 63.7177 93.8358 63.2546 93.8358 62.6804C93.8358 62.1062 93.3727 61.6431 92.7983 61.6431H89.2227V58.1053C89.2227 57.5496 88.7595 57.0866 88.1852 57.068Z" fill="#00327F"/>
<path d="M98.5608 92.8158C99.1351 92.8158 99.5983 92.3527 99.5983 91.7785V88.2407H103.174C103.748 88.2407 104.211 87.7776 104.211 87.2034C104.211 86.6292 103.748 86.1661 103.174 86.1661H99.5983V82.6283C99.5983 82.0541 99.1351 81.591 98.5608 81.591C97.9864 81.591 97.5233 82.0541 97.5233 82.6283V86.1661H93.9476C93.3733 86.1661 92.9101 86.6292 92.9101 87.2034C92.9101 87.7776 93.3733 88.2407 93.9476 88.2407H97.5233V91.7785C97.5233 92.3527 97.9864 92.8158 98.5608 92.8158Z" fill="#00327F"/>
<path d="M45.6764 25.0183C45.102 25.0183 44.6389 25.4814 44.6389 26.0556V29.5934H41.0632C40.4889 29.5934 40.0257 30.0565 40.0257 30.6307C40.0257 31.2049 40.4889 31.668 41.0632 31.668H44.6389V35.2058C44.6389 35.78 45.102 36.243 45.6764 36.243C46.2507 36.243 46.7139 35.78 46.7139 35.2058V31.668H50.2895C50.8639 31.668 51.327 31.2049 51.327 30.6307C51.327 30.0565 50.8639 29.5934 50.2895 29.5934H46.7139V26.0556C46.7139 25.4814 46.2507 25.0183 45.6764 25.0183Z" fill="#00327F"/>
</svg>
