<svg width="130" height="130" viewBox="0 0 130 130" fill="none" xmlns="http://www.w3.org/2000/svg">
<circle cx="65" cy="65" r="64" fill="white" stroke="#00327F" stroke-width="2"/>
<path d="M99.1995 49.8295H76.6627C82.5398 48.5683 88.5324 46.3181 90.6471 42.3105C91.8132 40.1005 91.7136 37.5814 90.3522 34.8222C88.9099 31.9008 86.9095 30.2907 84.4058 30.0358C77.8976 29.37 69.8973 38.1388 65.5331 43.6889C65.1941 43.6559 64.8507 43.6328 64.5002 43.6328C64.1497 43.6328 63.8068 43.6548 63.4673 43.6889C59.1035 38.1392 51.1079 29.372 44.596 30.0364C42.0911 30.2912 40.0908 31.9018 38.6484 34.8228C37.287 37.5825 37.1875 40.1012 38.3535 42.3099C40.4683 46.3181 46.462 48.5683 52.3389 49.8295H29.8007C29.3588 49.8295 29 50.1883 29 50.6302V61.6116C29 62.054 29.3588 62.4123 29.8007 62.4123L32.8894 62.4117V100.199C32.8894 100.641 33.2482 101 33.6901 101H95.3093C95.7512 101 96.11 100.641 96.11 100.199V62.4117H99.1993C99.6418 62.4117 100 62.0529 100 61.6111V50.6302C99.9995 50.1883 99.6407 49.8295 99.1988 49.8295L99.1995 49.8295ZM84.2431 31.6288C86.1894 31.8269 87.7181 33.103 88.9155 35.5308C90.0524 37.8354 90.1559 39.8081 89.2298 41.5624C87.438 44.961 81.5429 47.566 72.6096 48.9368C72.1088 46.6609 70.0496 44.7976 67.312 44.0228C70.5901 39.9655 78.4966 31.0388 84.2421 31.6288H84.2431ZM39.7695 41.5631C38.8439 39.8088 38.9474 37.8355 40.0837 35.5315C41.2822 33.1032 42.8103 31.8276 44.7573 31.6295C50.4941 31.0468 58.4082 39.9679 61.686 44.0246C58.9483 44.7983 56.8903 46.6621 56.3895 48.9375C47.4573 47.5668 41.5614 44.9617 39.7695 41.5631ZM57.6758 99.3997H34.491V62.4137H57.6758V99.3997ZM57.6758 60.8119H30.6015V51.4318H57.6744V60.8119H57.6758ZM69.7243 99.3997H59.2766V51.4312H69.7237L69.7243 99.3997ZM57.8777 49.8295C58.012 47.2806 60.9269 45.2352 64.5004 45.2352C68.0739 45.2352 70.9889 47.2807 71.1231 49.8295H57.8777ZM94.5103 99.3997H71.3254V62.4137H94.5103V99.3997ZM98.3997 60.8119H71.3253V51.4318H98.3997V60.8119Z" fill="#00327F"/>
</svg>
