<svg width="42" height="42" viewBox="0 0 42 42" fill="none" xmlns="http://www.w3.org/2000/svg">
<path d="M30.7715 12.25H11.7285C10.3653 12.25 9.25 13.4099 9.25 14.8276V27.6724C9.25 29.0901 10.3653 30.25 11.7285 30.25H30.7715C32.1347 30.25 33.25 29.0901 33.25 27.6724V14.8276C33.25 13.4099 32.1347 12.25 30.7715 12.25ZM11.7285 12.9803H30.7715C31.5151 12.9803 32.176 13.4529 32.4238 14.1832L21.4359 22.0877L10.0762 14.2261C10.324 13.4958 10.9849 12.9803 11.7285 12.9803ZM30.7715 29.4767H11.7285C10.7371 29.4767 9.95224 28.6605 9.95224 27.6295V14.9994L21.2293 22.818C21.3533 22.9039 21.5185 22.9039 21.6424 22.818L32.5065 15.0424V27.6724C32.5065 28.6605 31.7216 29.4767 30.7715 29.4767Z" fill="#00327F"/>
<path d="M21.25 41.5C10.0892 41.5 1 32.4108 1 21.25C1 10.0892 10.0892 1 21.25 1C32.4108 1 41.5 10.0892 41.5 21.25C41.5 32.4108 32.4108 41.5 21.25 41.5ZM21.25 1.63413C10.4275 1.63413 1.63413 10.4275 1.63413 21.25C1.63413 32.0725 10.4275 40.8659 21.25 40.8659C32.0725 40.8659 40.8659 32.0725 40.8659 21.25C40.8659 10.4275 32.0725 1.63413 21.25 1.63413Z" fill="#00327F"/>
<path d="M30.7715 12.25H11.7285C10.3653 12.25 9.25 13.4099 9.25 14.8276V27.6724C9.25 29.0901 10.3653 30.25 11.7285 30.25H30.7715C32.1347 30.25 33.25 29.0901 33.25 27.6724V14.8276C33.25 13.4099 32.1347 12.25 30.7715 12.25ZM11.7285 12.9803H30.7715C31.5151 12.9803 32.176 13.4529 32.4238 14.1832L21.4359 22.0877L10.0762 14.2261C10.324 13.4958 10.9849 12.9803 11.7285 12.9803ZM30.7715 29.4767H11.7285C10.7371 29.4767 9.95224 28.6605 9.95224 27.6295V14.9994L21.2293 22.818C21.3533 22.9039 21.5185 22.9039 21.6424 22.818L32.5065 15.0424V27.6724C32.5065 28.6605 31.7216 29.4767 30.7715 29.4767Z" stroke="#00327F" stroke-width="0.5"/>
<path d="M21.25 41.5C10.0892 41.5 1 32.4108 1 21.25C1 10.0892 10.0892 1 21.25 1C32.4108 1 41.5 10.0892 41.5 21.25C41.5 32.4108 32.4108 41.5 21.25 41.5ZM21.25 1.63413C10.4275 1.63413 1.63413 10.4275 1.63413 21.25C1.63413 32.0725 10.4275 40.8659 21.25 40.8659C32.0725 40.8659 40.8659 32.0725 40.8659 21.25C40.8659 10.4275 32.0725 1.63413 21.25 1.63413Z" stroke="#00327F" stroke-width="0.5"/>
</svg>
