<svg width="42" height="41" viewBox="0 0 42 41" fill="none" xmlns="http://www.w3.org/2000/svg">
<path d="M15.4096 26.7777C19.6322 31.0003 23.9392 33.3649 27.4017 33.3649C27.824 33.3649 28.204 33.3227 28.584 33.2805C30.4419 32.9427 31.8354 31.887 32.6799 30.198L33.44 28.5934C33.4822 28.4668 33.44 28.3401 33.3133 28.2556L25.966 24.4553C25.8394 24.4131 25.7127 24.4553 25.6282 24.582L24.9526 26.1866C24.8259 26.4399 24.5726 26.6088 24.277 26.6511C23.7703 26.7355 22.208 26.5666 18.9566 23.273C15.7052 20.0216 15.5363 18.4593 15.5785 17.9526C15.6208 17.657 15.7897 17.4037 16.043 17.277L17.6476 16.5591C17.7743 16.5169 17.8165 16.348 17.7743 16.2213L13.974 8.91631C13.9318 8.78964 13.7628 8.74741 13.6362 8.78964L12.0316 9.5497C10.3426 10.352 9.24471 11.7877 8.94913 13.6456C8.31575 17.2348 10.6804 22.0485 15.4096 26.7777ZM12.4961 9.8875L13.6362 9.33857L17.2253 16.2213L16.043 16.728L12.4961 9.8875ZM32.3421 29.7335L25.5016 26.1866L26.0083 25.0043L32.891 28.5934L32.3421 29.7335ZM9.45584 13.73C9.75142 12.1255 10.6382 10.8587 12.0738 10.0986L15.663 16.9814C15.3674 17.1925 15.1985 17.5303 15.1141 17.8681C14.9029 19.1349 16.1275 21.1617 18.6188 23.6108C20.9412 25.9332 22.7991 27.1155 24.1081 27.1155C24.1926 27.1155 24.277 27.1155 24.3615 27.1155C24.7415 27.0733 25.0371 26.8622 25.2482 26.6088L32.131 30.198C31.3709 31.6337 30.1464 32.5204 28.4996 32.816C25.0371 33.4072 20.3923 31.0847 15.7475 26.4822C11.1449 21.8373 8.82246 17.1925 9.45584 13.73Z" fill="#00327F"/>
<path d="M27.4017 33.4071C23.897 33.4071 19.6322 31.0847 15.3674 26.8199C10.6382 22.0907 8.27352 17.277 8.90691 13.6033C9.24471 11.7454 10.3003 10.3097 12.0316 9.46522L13.6362 8.70516C13.7628 8.66294 13.9317 8.70516 14.0162 8.78962V8.83184L17.8165 16.1791C17.8587 16.2635 17.8587 16.3058 17.8165 16.3902C17.7743 16.4747 17.7321 16.5169 17.6476 16.5591L16.0853 17.3192C15.8319 17.4459 15.663 17.657 15.6208 17.9526C15.5363 18.4593 15.7052 19.9794 18.9566 23.2308C22.208 26.4821 23.7281 26.651 24.2348 26.5666C24.5304 26.5244 24.7415 26.3977 24.8682 26.1443L25.586 24.5398C25.6705 24.3709 25.8394 24.3286 25.966 24.3709L33.3133 28.1712C33.3977 28.2134 33.44 28.2556 33.4822 28.3401C33.5244 28.4245 33.5244 28.509 33.4822 28.5512L32.7221 30.1558C31.9198 31.887 30.4842 32.9427 28.584 33.2805C28.2462 33.4072 27.824 33.4071 27.4017 33.4071ZM15.4519 26.7777C19.6744 31.0003 23.9392 33.3227 27.4017 33.3227C27.824 33.3227 28.204 33.2805 28.584 33.2382C30.4419 32.9004 31.8354 31.8448 32.6377 30.1558L33.3977 28.5512C33.44 28.509 33.44 28.4667 33.3977 28.4245C33.3977 28.3823 33.3555 28.3401 33.3133 28.2978L25.966 24.4975C25.8816 24.4553 25.7549 24.4975 25.7127 24.582L24.9949 26.1866C24.8259 26.4821 24.6148 26.6088 24.277 26.6933C23.7703 26.7777 22.1657 26.6088 18.9144 23.3152C15.6208 20.0216 15.4519 18.4593 15.5363 17.9526C15.5785 17.6148 15.7475 17.4036 16.043 17.2347L17.6476 16.5169C17.6898 16.5169 17.7321 16.4747 17.7321 16.3902C17.7321 16.348 17.7321 16.3058 17.7321 16.2213V16.1791L13.9317 8.87407C13.8895 8.78961 13.7628 8.74739 13.6784 8.78962L12.0738 9.54968C10.3848 10.352 9.32916 11.7454 8.99136 13.6033C8.4002 17.2347 10.7226 22.0062 15.4519 26.7777ZM27.4017 32.9426C24.0659 32.9426 19.8856 30.6625 15.7475 26.4822C11.1026 21.8373 8.78023 17.1925 9.37139 13.6878C9.66697 12.041 10.5537 10.8164 12.0316 10.0564L12.0738 10.0142L12.116 10.0564L15.7052 16.9814L15.663 17.0236C15.3674 17.2347 15.1985 17.5303 15.1563 17.9103C14.9874 19.1771 16.1697 21.1617 18.661 23.6108C21.1101 26.0599 23.0947 27.2844 24.3615 27.1155C24.7415 27.0733 25.0371 26.9044 25.2482 26.6088L25.2904 26.5666H25.3327L32.2154 30.1558L32.1732 30.198C31.4131 31.6337 30.1464 32.5626 28.5418 32.816C28.1618 32.9004 27.7817 32.9426 27.4017 32.9426ZM9.45584 13.73L9.49806 13.73C8.90691 17.1925 11.2293 21.7951 15.8319 26.4399C20.4345 31.0425 25.0793 33.3649 28.5418 32.7737C30.1041 32.5204 31.3287 31.6337 32.0887 30.2402L25.2904 26.6933C25.0793 26.9888 24.7415 27.1577 24.3615 27.2C24.277 27.2 24.1926 27.2 24.0659 27.2C22.7569 27.2 20.8567 25.9754 18.5343 23.653C16.043 21.1617 14.8185 19.1349 15.0296 17.8681C15.0718 17.4881 15.2407 17.1925 15.5363 16.9392L11.9894 10.1408C10.5959 10.9009 9.70919 12.1254 9.45584 13.6878L9.45584 13.73ZM32.3843 29.818L32.3421 29.7757L25.4593 26.1866L26.0083 24.9198L26.0505 24.962L32.9755 28.5512L32.3843 29.818ZM25.5438 26.1443L32.2999 29.6491L32.8066 28.5934L26.0083 25.0887L25.5438 26.1443ZM16.043 16.8125L16.0008 16.7702L12.4116 9.88748L13.6784 9.29632L17.3098 16.2635L16.043 16.8125ZM12.5805 9.88748L16.0853 16.6436L17.1409 16.1791L13.6362 9.38077L12.5805 9.88748Z" fill="#00327F"/>
<path d="M21.25 40.75C10.0761 40.75 1 31.842 1 20.875C1 9.90803 10.0761 1 21.25 1C32.4239 1 41.5 9.90803 41.5 20.875C41.5 31.7999 32.4239 40.75 21.25 40.75ZM21.25 1.63029C10.4614 1.63029 1.64218 10.2442 1.64218 20.875C1.64218 31.4638 10.4186 40.1197 21.25 40.1197C32.0386 40.1197 40.8578 31.5058 40.8578 20.875C40.8578 10.2862 32.0386 1.63029 21.25 1.63029Z" fill="#00327F"/>
<path d="M28.584 33.2805C28.204 33.3227 27.824 33.3649 27.4017 33.3649C23.9392 33.3649 19.6322 31.0003 15.4096 26.7777C10.6804 22.0485 8.31575 17.2348 8.94913 13.6456C9.24471 11.7877 10.3426 10.352 12.0316 9.5497L13.6362 8.78964C13.7628 8.74741 13.9318 8.78964 13.974 8.91631L17.7743 16.2213C17.8165 16.348 17.7743 16.5169 17.6476 16.5591M28.584 33.2805C30.4419 32.9427 31.8354 31.887 32.6799 30.198L33.44 28.5934C33.4822 28.4668 33.44 28.3401 33.3133 28.2556L25.966 24.4553C25.8394 24.4131 25.7127 24.4553 25.6282 24.582L24.9526 26.1866C24.8259 26.4399 24.5726 26.6088 24.277 26.6511C23.7703 26.7355 22.208 26.5666 18.9566 23.273C15.7052 20.0216 15.5363 18.4593 15.5785 17.9526C15.6208 17.657 15.7897 17.4037 16.043 17.277L17.6476 16.5591M28.584 33.2805C30.4842 32.9427 31.9198 31.887 32.7221 30.1558L33.4822 28.5512C33.5244 28.509 33.5244 28.4245 33.4822 28.3401C33.44 28.2556 33.3977 28.2134 33.3133 28.1712L25.966 24.3709C25.8394 24.3286 25.6705 24.3709 25.586 24.5398L24.8682 26.1443C24.7415 26.3977 24.5304 26.5244 24.2348 26.5666C23.7281 26.651 22.208 26.4821 18.9566 23.2308C15.7052 19.9794 15.5363 18.4593 15.6208 17.9526C15.663 17.657 15.8319 17.4459 16.0853 17.3192L17.6476 16.5591M28.584 33.2805C28.2462 33.4071 27.824 33.4071 27.4017 33.4071C23.897 33.4071 19.6322 31.0847 15.3674 26.8199C10.6382 22.0907 8.27352 17.277 8.90691 13.6033C9.24471 11.7454 10.3003 10.3097 12.0316 9.46522L13.6362 8.70516C13.7628 8.66294 13.9317 8.70516 14.0162 8.78962V8.83184L17.8165 16.1791C17.8587 16.2635 17.8587 16.3058 17.8165 16.3902C17.7743 16.4747 17.7321 16.5169 17.6476 16.5591M9.45584 13.73C9.75142 12.1255 10.6382 10.8587 12.0738 10.0986L15.663 16.9814C15.3674 17.1925 15.1985 17.5303 15.1141 17.8681C14.9029 19.1349 16.1275 21.1617 18.6188 23.6108C20.9412 25.9332 22.7991 27.1155 24.1081 27.1155C24.1926 27.1155 24.277 27.1155 24.3615 27.1155M9.45584 13.73C8.82246 17.1925 11.1449 21.8373 15.7475 26.4822M9.45584 13.73L9.49806 13.73C8.90691 17.1925 11.2293 21.7951 15.8319 26.4399C20.4345 31.0425 25.0793 33.3649 28.5418 32.7737C30.1041 32.5204 31.3287 31.6337 32.0887 30.2402L25.2904 26.6933C25.0793 26.9888 24.7415 27.1577 24.3615 27.2C24.277 27.2 24.1926 27.2 24.0659 27.2C22.7569 27.2 20.8567 25.9754 18.5343 23.653C16.043 21.1617 14.8185 19.1349 15.0296 17.8681C15.0718 17.4881 15.2407 17.1925 15.5363 16.9392L11.9894 10.1408C10.5959 10.9009 9.70919 12.1254 9.45584 13.6878L9.45584 13.73ZM24.3615 27.1155C24.7415 27.0733 25.0371 26.8622 25.2482 26.6088M24.3615 27.1155C23.0947 27.2844 21.1101 26.0599 18.661 23.6108C16.1697 21.1617 14.9874 19.1771 15.1563 17.9103C15.1985 17.5303 15.3674 17.2347 15.663 17.0236L15.7052 16.9814L12.116 10.0564L12.0738 10.0142L12.0316 10.0564C10.5537 10.8164 9.66697 12.041 9.37139 13.6878C8.78023 17.1925 11.1026 21.8373 15.7475 26.4822M24.3615 27.1155C24.7415 27.0733 25.0371 26.9044 25.2482 26.6088M25.2482 26.6088L32.131 30.198C31.3709 31.6337 30.1464 32.5204 28.4996 32.816C25.0371 33.4071 20.3923 31.0847 15.7475 26.4822M25.2482 26.6088L25.2904 26.5666H25.3327L32.2154 30.1558L32.1732 30.198C31.4131 31.6337 30.1464 32.5626 28.5418 32.816C28.1618 32.9004 27.7817 32.9426 27.4017 32.9426C24.0659 32.9426 19.8856 30.6625 15.7475 26.4822M12.4961 9.8875L13.6362 9.33857L17.2253 16.2213L16.043 16.728L12.4961 9.8875ZM32.3421 29.7335L25.5016 26.1866L26.0083 25.0043L32.891 28.5934L32.3421 29.7335ZM15.4519 26.7777C19.6744 31.0003 23.9392 33.3227 27.4017 33.3227C27.824 33.3227 28.204 33.2805 28.584 33.2382C30.4419 32.9004 31.8354 31.8448 32.6377 30.1558L33.3977 28.5512C33.44 28.509 33.44 28.4667 33.3977 28.4245C33.3977 28.3823 33.3555 28.3401 33.3133 28.2978L25.966 24.4975C25.8816 24.4553 25.7549 24.4975 25.7127 24.582L24.9949 26.1866C24.8259 26.4821 24.6148 26.6088 24.277 26.6933C23.7703 26.7777 22.1657 26.6088 18.9144 23.3152C15.6208 20.0216 15.4519 18.4593 15.5363 17.9526C15.5785 17.6148 15.7475 17.4036 16.043 17.2347L17.6476 16.5169C17.6898 16.5169 17.7321 16.4747 17.7321 16.3902C17.7321 16.348 17.7321 16.3058 17.7321 16.2213V16.1791L13.9317 8.87407C13.8895 8.78961 13.7628 8.74739 13.6784 8.78962L12.0738 9.54968C10.3848 10.352 9.32916 11.7454 8.99136 13.6033C8.4002 17.2347 10.7226 22.0062 15.4519 26.7777ZM32.3843 29.818L32.3421 29.7757L25.4593 26.1866L26.0083 24.9198L26.0505 24.962L32.9755 28.5512L32.3843 29.818ZM25.5438 26.1443L32.2999 29.6491L32.8066 28.5934L26.0083 25.0887L25.5438 26.1443ZM16.043 16.8125L16.0008 16.7702L12.4116 9.88748L13.6784 9.29632L17.3098 16.2635L16.043 16.8125ZM12.5805 9.88748L16.0853 16.6436L17.1409 16.1791L13.6362 9.38077L12.5805 9.88748ZM21.25 40.75C10.0761 40.75 1 31.842 1 20.875C1 9.90803 10.0761 1 21.25 1C32.4239 1 41.5 9.90803 41.5 20.875C41.5 31.7999 32.4239 40.75 21.25 40.75ZM21.25 1.63029C10.4614 1.63029 1.64218 10.2442 1.64218 20.875C1.64218 31.4638 10.4186 40.1197 21.25 40.1197C32.0386 40.1197 40.8578 31.5058 40.8578 20.875C40.8578 10.2862 32.0386 1.63029 21.25 1.63029Z" stroke="#00327F" stroke-width="0.5"/>
</svg>
