<svg width="127" height="50" viewBox="0 0 127 50" fill="none" xmlns="http://www.w3.org/2000/svg">
<rect width="127" height="50" fill="white"/>
<path d="M26.5801 47.45C14.8591 47.45 4.67676 37.0814 4.67676 25.1459C4.67676 13.2719 14.8591 2.9032 26.5801 2.9032C38.2407 2.9032 48.423 13.2719 48.423 25.1459C48.4381 37.0814 38.2558 47.45 26.5801 47.45ZM26.5801 16.6666C22.13 16.6666 18.1929 20.6298 18.1929 25.1613C18.1929 29.6928 22.13 33.702 26.5801 33.702C30.9849 33.702 34.922 29.6928 34.922 25.1613C34.922 20.6298 30.9849 16.6666 26.5801 16.6666Z" fill="#00327F"/>
<path d="M70.2212 16.6667V46.682H56.7202V16.6667H49.042V3.68665H77.9447V16.6667H70.2212Z" fill="#00327F"/>
<path d="M100.466 47.45C88.7448 47.45 78.5625 37.0814 78.5625 25.1459C78.5625 13.2719 88.7448 2.9032 100.466 2.9032C112.126 2.9032 122.309 13.2719 122.309 25.1459C122.309 37.0814 112.126 47.45 100.466 47.45ZM100.466 16.6666C96.0158 16.6666 92.0786 20.6298 92.0786 25.1613C92.0786 29.6928 96.0158 33.702 100.466 33.702C104.871 33.702 108.808 29.6928 108.808 25.1613C108.808 20.6298 104.871 16.6666 100.466 16.6666Z" fill="#00327F"/>
</svg>
