<svg width="130" height="130" viewBox="0 0 130 130" fill="none" xmlns="http://www.w3.org/2000/svg">
<circle cx="65" cy="65" r="64" fill="white" stroke="#00327F" stroke-width="2"/>
<g clip-path="url(#clip0_8_10)">
<path d="M29 93.6519C29 95.6055 29.7647 97.4717 31.1355 98.8422C32.5062 100.213 34.3531 101 36.2721 101H93.7279C95.6613 101 97.5082 100.227 98.8645 98.8422C100.221 97.4572 101 95.591 101 93.6519V56.0949C101 55.8908 100.986 55.6866 100.957 55.4825C100.798 54.4474 100.25 53.5143 99.4417 52.8728L69.4297 29.5309C68.1599 28.5394 66.6016 28 64.9856 28C63.384 28 61.8112 28.5394 60.5415 29.5309L30.5727 52.8436C29.7503 53.4851 29.2164 54.4182 29.0577 55.4534C29.0289 55.6575 29.0144 55.847 29.0144 56.0511L29 93.6519ZM93.7279 99.3671H36.2721C34.5551 99.3671 32.9391 98.5798 31.8713 97.2385L62.8068 70.8203C63.3984 70.2516 64.192 69.9309 65.0144 69.9309C65.8369 69.9309 66.6305 70.2516 67.222 70.8203L98.1287 97.2385C97.0465 98.5798 95.4305 99.3671 93.7279 99.3671ZM99.384 93.6519C99.3695 94.3954 99.2253 95.1244 98.9367 95.8097L79.0681 78.8244L99.384 57.1592V93.6519ZM31.5683 54.1412L61.5515 30.8284C62.5471 30.0557 63.7591 29.6475 65 29.6475C66.2409 29.6475 67.4673 30.0703 68.4485 30.8284L98.4317 54.1412C98.7347 54.3745 98.9655 54.6806 99.1387 55.016L77.8417 77.7456L78.1447 78.0371L68.2754 69.6101C67.3808 68.7791 66.212 68.3271 65 68.3271C63.788 68.3271 62.6192 68.7937 61.7247 69.6101L52.2449 77.6872L30.8613 55.0306C31.02 54.6806 31.2653 54.3745 31.5683 54.1412ZM30.616 57.1592L51.004 78.7515L31.0489 95.8097C30.7747 95.1244 30.6305 94.3809 30.6305 93.6519L30.616 57.1592Z" fill="#00327F"/>
<path d="M63.8024 58.3401C63.5715 58.3401 63.3407 58.2381 63.1964 58.0485L56.992 50.4526C56.7178 50.1172 56.7611 49.6069 57.093 49.3299C57.4248 49.0529 57.9299 49.0967 58.204 49.432L64.4084 57.028C64.6826 57.3633 64.6393 57.8736 64.3074 58.1506C64.1487 58.2818 63.9755 58.3401 63.8024 58.3401Z" fill="#00327F"/>
<path d="M63.788 58.3401C63.6004 58.3401 63.4128 58.2818 63.2685 58.136C62.9367 57.8444 62.9078 57.3341 63.1964 56.9988L73.0657 45.6121C73.3543 45.2768 73.8593 45.2476 74.1912 45.5392C74.523 45.8308 74.5519 46.3411 74.2633 46.6764L64.394 58.0631C64.2353 58.2526 64.0188 58.3401 63.788 58.3401Z" fill="#00327F"/>
<path d="M65 65.3092C57.1218 65.3092 50.701 58.8212 50.701 50.8608C50.701 42.9003 57.1218 36.4124 65 36.4124C72.8782 36.4124 79.299 42.9003 79.299 50.8608C79.299 58.8212 72.8782 65.3092 65 65.3092ZM65 38.0162C57.9876 38.0162 52.2882 43.7751 52.2882 50.8608C52.2882 57.9465 57.9876 63.7054 65 63.7054C72.0124 63.7054 77.7118 57.9465 77.7118 50.8608C77.7118 43.7751 72.0124 38.0162 65 38.0162Z" fill="#00327F"/>
</g>
<defs>
<clipPath id="clip0_8_10">
<rect width="72" height="73" fill="white" transform="translate(29 28)"/>
</clipPath>
</defs>
</svg>
