<svg width="443" height="162" viewBox="0 0 443 162" fill="none" xmlns="http://www.w3.org/2000/svg">
<path d="M82.4873 162C38.3464 162 0 124.293 0 80.8883C0 37.7069 38.3464 9.07499e-07 82.4873 9.07499e-07C126.401 9.07499e-07 164.747 37.7069 164.747 80.8883C164.804 124.293 126.458 162 82.4873 162ZM82.4873 50.0524C65.7285 50.0524 50.9013 64.4648 50.9013 80.9441C50.9013 97.4235 65.7285 112.003 82.4873 112.003C99.0757 112.003 113.903 97.4235 113.903 80.9441C113.903 64.4648 99.0757 50.0524 82.4873 50.0524Z" fill="white" fill-opacity="0.2"/>
<path d="M246.837 50.0524V159.207H195.993V50.0524H167.077V2.84897H275.923V50.0524H246.837Z" fill="white" fill-opacity="0.2"/>
<path d="M360.74 162C316.599 162 278.253 124.293 278.253 80.8883C278.253 37.7069 316.599 0 360.74 0C404.654 0 443 37.7069 443 80.8883C443 124.293 404.654 162 360.74 162ZM360.74 50.0524C343.981 50.0524 329.154 64.4648 329.154 80.9441C329.154 97.4235 343.981 112.003 360.74 112.003C377.328 112.003 392.156 97.4235 392.156 80.9441C392.156 64.4648 377.328 50.0524 360.74 50.0524Z" fill="white" fill-opacity="0.2"/>
</svg>
