<svg width="130" height="130" viewBox="0 0 130 130" fill="none" xmlns="http://www.w3.org/2000/svg">
<g id="person">
<circle id="Ellipse 2615" cx="65" cy="65" r="64" fill="white" stroke="#00327F" stroke-width="2"/>
<g id="Vector">
<path fill-rule="evenodd" clip-rule="evenodd" d="M80.7184 78.2987C73.6166 78.2987 67.8391 72.3453 67.8391 65.026C67.8391 57.7073 73.616 51.7532 80.7184 51.7532C87.8208 51.7532 93.5977 57.7067 93.5977 65.026C93.5977 72.3447 87.8202 78.2987 80.7184 78.2987ZM80.7184 53.6764C74.6459 53.6764 69.7051 58.7676 69.7051 65.0261C69.7051 71.2847 74.6453 76.3746 80.7184 76.3746C86.7914 76.3746 91.7305 71.2841 91.7305 65.0261C91.7305 58.7682 86.7909 53.6764 80.7184 53.6764Z" fill="#00327F"/>
<path fill-rule="evenodd" clip-rule="evenodd" d="M47.6035 71.66H41.3298C40.8385 71.66 40.4286 71.2919 40.3769 70.8066L39.8198 65.5016C38.832 65.2046 37.8714 64.81 36.9515 64.32L32.7902 67.6867C32.4088 67.9964 31.8541 67.9664 31.507 67.6209L27.0735 63.2061C26.7258 62.8606 26.6985 62.3123 27.0078 61.9338L30.3877 57.7982C29.8923 56.8801 29.494 55.9251 29.1975 54.9469L23.8588 54.394C23.371 54.3437 23 53.9358 23 53.4476V47.2136C23 46.7254 23.3715 46.3163 23.8588 46.2666L29.1975 45.7131C29.4964 44.7315 29.8941 43.777 30.3877 42.8629L27.0078 38.7273C26.6973 38.3482 26.7264 37.7982 27.0741 37.4533L31.5075 33.0478C31.8547 32.7029 32.4082 32.6752 32.7885 32.982L36.9504 36.3405C37.8708 35.85 38.8308 35.4559 39.8187 35.159L40.3757 29.8539C40.4275 29.3686 40.838 29.0006 41.3287 29.0006L47.6029 29C48.0942 29 48.5041 29.368 48.5559 29.8534L49.1129 35.1572C50.0973 35.453 51.0572 35.8488 51.9812 36.3399L56.1431 32.9813C56.524 32.674 57.0769 32.7023 57.424 33.0472L61.8657 37.4527C62.2145 37.7982 62.243 38.3488 61.932 38.7272L58.5439 42.8629C59.0375 43.7775 59.4352 44.7314 59.7329 45.7131L65.0728 46.2666C65.5607 46.3169 65.931 46.7259 65.931 47.2136V53.4476C65.931 53.9358 65.5607 54.3437 65.0728 54.394L59.7341 54.9475C59.437 55.9256 59.0393 56.8812 58.5439 57.7977L61.932 61.9334C62.2436 62.3118 62.2134 62.8624 61.8663 63.2079L57.4253 67.6227C57.0764 67.9676 56.5234 67.9953 56.1414 67.688L51.9807 64.3213C51.0568 64.8135 50.0969 65.2082 49.1119 65.504L48.5555 70.8078C48.5043 71.2943 48.0933 71.6623 47.6025 71.6623L47.6035 71.66ZM42.1931 69.7545H46.7394L47.2743 64.6586C47.3168 64.2605 47.6034 63.9317 47.993 63.8347C49.2407 63.5204 50.453 63.0212 51.5927 62.3516C51.9387 62.1482 52.3748 62.1817 52.6852 62.4331L56.6825 65.6662L59.9026 62.4677L56.6477 58.4956C56.3948 58.1859 56.3611 57.7526 56.5657 57.41C57.2408 56.2764 57.7426 55.0729 58.0582 53.8319C58.1577 53.4442 58.4885 53.16 58.8885 53.1189L64.0168 52.5874V48.0686L58.8885 47.5377C58.4879 47.4967 58.1582 47.2118 58.0582 46.8259C57.7396 45.579 57.2361 44.375 56.5657 43.2466C56.3611 42.904 56.3954 42.4695 56.6477 42.161L59.9008 38.19L56.682 34.9978L52.6829 38.224C52.3724 38.4753 51.9375 38.5071 51.5915 38.3037C50.4519 37.6341 49.2396 37.136 47.9918 36.8206C47.6016 36.7236 47.3155 36.3942 47.2725 35.9967L46.7382 30.9008L42.1925 30.902L41.6582 35.9979C41.6157 36.3942 41.3303 36.7236 40.9419 36.8218C39.686 37.1396 38.4737 37.6387 37.3399 38.3049C36.9945 38.5082 36.5579 38.4747 36.2474 38.2246L32.2501 34.9988L29.0394 38.191L32.2861 42.1631C32.539 42.4728 32.571 42.9043 32.3663 43.2475C31.6954 44.3753 31.1924 45.58 30.8738 46.8268C30.7738 47.2127 30.4436 47.4976 30.0435 47.5386L24.9153 48.0701V52.5889L30.0435 53.1199C30.4436 53.1609 30.775 53.4457 30.8738 53.8328C31.189 55.0739 31.6913 56.2773 32.3663 57.4109C32.571 57.7535 32.5373 58.1868 32.2861 58.4953L29.0382 62.4686L32.2507 65.6677L36.248 62.4346C36.5596 62.1815 36.994 62.1497 37.3405 62.3531C38.4749 63.0199 39.6866 63.5191 40.9425 63.8362C41.3309 63.935 41.6163 64.2637 41.6588 64.6601L42.1931 69.7545Z" fill="#00327F"/>
<path fill-rule="evenodd" clip-rule="evenodd" d="M43.9931 60.2857C38.73 60.2857 34.4483 56.0349 34.4483 50.8094C34.4483 45.5805 38.7294 41.3247 43.9931 41.3247C49.251 41.3247 53.5287 45.58 53.5287 50.8094C53.5299 56.0343 49.2522 60.2857 43.9931 60.2857ZM43.9931 43.2118C39.777 43.2118 36.3467 46.6208 36.3467 50.8092C36.3467 54.9946 39.7771 58.3984 43.9931 58.3984C48.2034 58.3984 51.6304 54.9948 51.6304 50.8092C51.6315 46.6208 48.2046 43.2118 43.9931 43.2118Z" fill="#00327F"/>
<path fill-rule="evenodd" clip-rule="evenodd" d="M32.5408 97.2597C28.3312 97.2597 24.908 93.858 24.908 89.6759C24.908 85.4938 28.3312 82.0909 32.5408 82.0909C36.7493 82.0909 40.1724 85.4936 40.1724 89.6759C40.1724 93.858 36.7482 97.2597 32.5408 97.2597ZM32.5408 83.9873C29.3834 83.9873 26.8164 86.5394 26.8164 89.6759C26.8164 92.8124 29.3828 95.3645 32.5408 95.3645C35.6971 95.3645 38.2641 92.8124 38.2641 89.6759C38.2641 86.5394 35.6959 83.9873 32.5408 83.9873Z" fill="#00327F"/>
<path fill-rule="evenodd" clip-rule="evenodd" d="M92.6437 40.3766C89.4876 40.3766 86.9195 37.8247 86.9195 34.6883C86.9195 31.552 89.4876 29 92.6437 29C95.7998 29 98.3678 31.552 98.3678 34.6883C98.3678 37.8247 95.7992 40.3766 92.6437 40.3766ZM92.6437 30.8969C90.5399 30.8969 88.8278 32.5977 88.8278 34.6889C88.8278 36.7796 90.5393 38.4809 92.6437 38.4809C94.7475 38.4809 96.4596 36.7796 96.4596 34.6889C96.4596 32.5982 94.7465 30.8969 92.6437 30.8969Z" fill="#00327F"/>
<path fill-rule="evenodd" clip-rule="evenodd" d="M105.052 102H56.3882C56.1351 102 55.8917 101.901 55.7141 101.727C55.536 101.551 55.4356 101.313 55.4368 101.065C55.4668 94.4715 58.1099 88.2759 62.8785 83.6232C67.6506 78.9672 73.9846 76.4026 80.719 76.4026C87.4514 76.4026 93.7885 78.967 98.5594 83.6232C103.329 88.2776 105.971 94.4721 106 101.065C106.001 101.313 105.901 101.551 105.724 101.727C105.546 101.901 105.303 102 105.05 102H105.052ZM57.3624 100.137H104.079C103.521 87.9928 93.2363 78.2646 80.7206 78.2646C68.203 78.2646 57.9189 87.9926 57.3624 100.137Z" fill="#00327F"/>
</g>
</g>
</svg>
