<svg width="130" height="130" viewBox="0 0 130 130" fill="none" xmlns="http://www.w3.org/2000/svg">
<g id="rebranding">
<circle id="Ellipse 2615" cx="65" cy="65" r="64" fill="white" stroke="#00327F" stroke-width="2"/>
<g id="Vector">
<path d="M104.98 74.1232H102.293V32.0763C102.293 31.5366 101.83 31.1013 101.256 31.1013H81.6871V26.975C81.6871 26.4353 81.2238 26 80.6493 26H48.3687C47.7942 26 47.3309 26.4353 47.3309 26.975V31.1013H27.7624C27.188 31.1013 26.7247 31.5366 26.7247 32.0763V74.1406H24.0377C23.4633 74.1406 23 74.5759 23 75.1156V84.3259C23 84.8656 23.4633 85.3009 24.0377 85.3009H36.6757L30.8756 102.729C30.7829 103.025 30.8385 103.356 31.0238 103.6C31.2277 103.843 31.5242 104 31.8577 104H40.456C40.9008 104 41.3084 103.721 41.4381 103.321L47.4421 85.3009H81.5573L87.5613 103.321C87.691 103.721 88.0987 104 88.5434 104H97.1417C97.4753 104 97.7903 103.861 97.9756 103.6C98.1795 103.356 98.2351 103.025 98.1239 102.729L92.3237 85.2835H104.962C105.536 85.2835 105.999 84.8482 105.999 84.3085V75.0982C106.018 74.5585 105.555 74.1232 104.98 74.1232ZM49.4064 27.95H79.6116V35.158H49.4064V27.95ZM28.8001 33.0513H47.3309V36.133C47.3309 36.6728 47.7942 37.108 48.3687 37.108H80.6493C81.2238 37.108 81.6871 36.6728 81.6871 36.133V33.0513H100.218V74.1406H28.8001V33.0513ZM39.6963 102.05H33.2846L38.8624 85.2835H45.274L39.6963 102.05ZM95.7334 102.05H89.3217L83.744 85.2835H90.1556L95.7334 102.05ZM103.943 83.3335H25.0754V76.0732H103.943V83.3335Z" fill="#00327F"/>
<path d="M64.5002 42.6514C56.539 42.6514 50.0508 48.7475 50.0508 56.2275C50.0508 63.7239 56.539 69.8035 64.5002 69.8035C72.4614 69.8035 78.9496 63.7075 78.9496 56.2275C78.9496 48.7475 72.4789 42.6514 64.5002 42.6514ZM64.5002 67.9747C57.6086 67.9747 52.0148 62.7025 52.0148 56.244C52.0148 49.7854 57.6262 44.5132 64.5002 44.5132C71.3742 44.5132 76.9856 49.7854 76.9856 56.244C76.9856 62.7025 71.3917 67.9747 64.5002 67.9747Z" fill="#00327F"/>
<path d="M72.777 52.9982L68.0249 51.812L65.3244 47.9402C64.9561 47.413 64.0443 47.413 63.676 47.9402L60.993 51.812L56.2409 52.9982C55.9252 53.0806 55.6622 53.3113 55.557 53.6078C55.4518 53.9044 55.5219 54.2339 55.7323 54.4811L58.8362 58.0728L58.5731 62.6695C58.5556 62.9826 58.7134 63.2791 58.9764 63.4604C59.2395 63.6416 59.5902 63.691 59.9058 63.5757L64.5002 61.9281L69.0945 63.5757C69.1998 63.6086 69.3225 63.6416 69.4453 63.6416C69.6557 63.6416 69.8486 63.5757 70.0239 63.4604C70.287 63.2791 70.4448 62.9826 70.4273 62.6695L70.1642 58.0728L73.268 54.4811C73.4785 54.2339 73.5486 53.9044 73.4434 53.6078C73.3557 53.3113 73.0927 53.0806 72.777 52.9982ZM68.4106 57.1666C68.2528 57.3478 68.1827 57.562 68.2002 57.7927L68.3931 61.335L64.8509 60.0663C64.7457 60.0334 64.6229 60.0004 64.5002 60.0004C64.3774 60.0004 64.2547 60.0169 64.1495 60.0663L60.6073 61.335L60.8177 57.8092C60.8352 57.5785 60.7475 57.3478 60.6073 57.1831L58.2049 54.4152L61.8698 53.4925C62.0978 53.4266 62.3082 53.2948 62.431 53.0971L64.5002 50.115L66.5694 53.0971C66.7097 53.2948 66.9026 53.4266 67.1305 53.4925L70.7955 54.4152L68.4106 57.1666Z" fill="#00327F"/>
</g>
</g>
</svg>
