<svg width="32" height="32" viewBox="0 0 32 32" fill="none" xmlns="http://www.w3.org/2000/svg">
<g id="Artboard">
<path id="Oval" d="M15.964 31.0725C24.5444 31.0725 31.5002 24.1167 31.5002 15.5362C31.5002 6.95581 24.5444 0 15.964 0C7.38354 0 0.427734 6.95581 0.427734 15.5362C0.427734 24.1167 7.38354 31.0725 15.964 31.0725Z" fill="white" fill-opacity="0.5"/>
<path id="Path-3" fill-rule="evenodd" clip-rule="evenodd" d="M7.45969 15.372C11.9888 13.3987 15.0089 12.0978 16.5201 11.4693C20.8347 9.67468 21.7312 9.36294 22.3155 9.35265C22.4441 9.35038 22.7314 9.38224 22.9176 9.53328C23.0747 9.66082 23.118 9.8331 23.1387 9.95402C23.1594 10.0749 23.1851 10.3504 23.1647 10.5656C22.9308 13.0223 21.9192 18.9839 21.4045 21.7354C21.1867 22.8997 20.7579 23.29 20.3427 23.3282C19.4405 23.4112 18.7554 22.732 17.8816 22.1592C16.5142 21.2628 15.7417 20.7048 14.4144 19.8302C12.8805 18.8194 13.8748 18.2638 14.749 17.3558C14.9778 17.1182 18.953 13.5025 19.0299 13.1745C19.0395 13.1334 19.0485 12.9805 18.9576 12.8998C18.8668 12.819 18.7327 12.8467 18.636 12.8686C18.4988 12.8997 16.3144 14.3436 12.0827 17.2001C11.4626 17.6259 10.901 17.8333 10.3978 17.8224C9.84312 17.8104 8.77606 17.5088 7.9828 17.2509C7.00984 16.9347 6.23656 16.7674 6.30389 16.2303C6.33896 15.9505 6.72423 15.6644 7.45969 15.372Z" fill="#00327F"/>
</g>
</svg>
