<svg width="32" height="32" viewBox="0 0 32 32" fill="none" xmlns="http://www.w3.org/2000/svg">
<g id="Group 995460367">
<g id="Icon">
<path id="&#208;&#146;&#208;&#186;&#208;&#190;&#208;&#189;&#209;&#130;&#208;&#176;&#208;&#186;&#209;&#130;&#208;&#181;" d="M16.0357 0C7.45586 0 0.5 6.95554 0.5 15.5357C0.5 24.1159 7.45586 31.0714 16.0357 31.0714C24.6155 31.0714 31.5714 24.1159 31.5714 15.5357C31.5714 6.95554 24.6155 0 16.0357 0ZM23.9162 17.2159C24.6403 17.9232 25.4064 18.5888 26.0564 19.3692C26.3444 19.7144 26.6159 20.0713 26.8225 20.4728C27.1175 21.0453 26.8511 21.6731 26.3387 21.7071L23.1559 21.7064C22.3339 21.7745 21.6797 21.4429 21.1282 20.8809C20.688 20.4331 20.2795 19.9547 19.8555 19.4915C19.6823 19.3015 19.4998 19.1225 19.2824 18.9817C18.8485 18.6994 18.4715 18.7859 18.2229 19.2392C17.9696 19.7004 17.9117 20.2115 17.8876 20.7249C17.8529 21.4753 17.6266 21.6715 16.8736 21.7067C15.2646 21.7821 13.7378 21.538 12.3189 20.7268C11.0671 20.0113 10.0983 19.0014 9.25403 17.858C7.61003 15.6292 6.35096 13.1829 5.21967 10.6663C4.96506 10.0996 5.15133 9.79631 5.77658 9.78455C6.81536 9.76452 7.85415 9.76707 8.89293 9.7836C9.31569 9.79027 9.59542 10.0322 9.75785 10.4311C10.3192 11.8122 11.0074 13.1263 11.8697 14.345C12.0996 14.6695 12.3341 14.9931 12.6682 15.2223C13.037 15.4753 13.3179 15.3917 13.4918 14.9801C13.6031 14.7185 13.6511 14.4387 13.6752 14.1584C13.7579 13.1981 13.7677 12.2382 13.6247 11.2817C13.5357 10.6832 13.1991 10.2966 12.6024 10.1835C12.2985 10.1259 12.3431 10.0134 12.4909 9.83986C12.7474 9.53979 12.9877 9.35416 13.468 9.35416L17.064 9.35352C17.6308 9.46478 17.7579 9.71907 17.8348 10.29L17.838 14.2862C17.8313 14.5071 17.9489 15.1619 18.3456 15.3065C18.6635 15.4114 18.8733 15.1565 19.0634 14.9553C19.9257 14.0401 20.5402 12.96 21.0904 11.8421C21.3333 11.3491 21.5427 10.8389 21.7462 10.3278C21.8975 9.94984 22.1327 9.76389 22.5593 9.77025L26.0221 9.77438C26.1241 9.77438 26.2278 9.77533 26.3288 9.79282C26.9124 9.89262 27.0723 10.1437 26.8918 10.713C26.6076 11.6075 26.0555 12.3526 25.5157 13.0996C24.9372 13.8993 24.3202 14.6711 23.7474 15.4744C23.2211 16.2086 23.2627 16.5783 23.9162 17.2159Z" fill="white" fill-opacity="0.5"/>
</g>
</g>
</svg>
