<?xml version="1.0" encoding="UTF-8" standalone="no"?>
<svg
   xmlns:dc="http://purl.org/dc/elements/1.1/"
   xmlns:cc="http://creativecommons.org/ns#"
   xmlns:rdf="http://www.w3.org/1999/02/22-rdf-syntax-ns#"
   xmlns:svg="http://www.w3.org/2000/svg"
   xmlns="http://www.w3.org/2000/svg"
   viewBox="0 0 5669.2915 2645.6692"
   height="2645.6692"
   width="5669.2915"
   xml:space="preserve"
   id="svg2"
   version="1.1"><metadata
     id="metadata8"><rdf:RDF><cc:Work
         rdf:about=""><dc:format>image/svg+xml</dc:format><dc:type
           rdf:resource="http://purl.org/dc/dcmitype/StillImage" /></cc:Work></rdf:RDF></metadata><defs
     id="defs6" /><g
     transform="matrix(1.3333333,0,0,-1.3333333,0,2645.6693)"
     id="g10"><g
       id="g12"><path
         id="path14"
         style="fill:#36a995;fill-opacity:1;fill-rule:evenodd;stroke:none"
         d="M 1026.3353,1054.6656 1545.476,732.7658 v 681.9211 l -519.1407,310.2046 z" /><path
         id="path16"
         style="fill:#42bfa7;fill-opacity:1;fill-rule:evenodd;stroke:none"
         d="M 1026.3353,1054.6656 507.1949,732.7658 v 681.9211 l 519.1404,310.2046 z" /></g><path
       id="path18"
       style="fill:#ffffff;fill-opacity:1;fill-rule:evenodd;stroke:none"
       d="m 610.8962,796.0907 137.1246,83.6611 0.1352,0.4224 v 231.1175 l 133.8329,-149.8048 145.1926,89.5456 -188.2639,177.7963 187.418,380.4449 -156.9965,-98.6777 -124.9096,-281.7672 v 203.6537 l -133.3108,-83.3672 -0.1465,0.094 -0.076,-0.094 z" /><path
       id="path20"
       style="fill:#ffffff;fill-opacity:1;fill-rule:evenodd;stroke:none"
       d="m 1154.111,973.6671 -127.7757,77.2877 v 558.3186 l 416.2853,-260.1581 v -131.4368 l -287.2944,176.358 v -107.3849 l 209.9063,-130.5813 v -145.0058 l -209.2867,128.1325 z" /><path
       id="path22"
       style="fill:#231f20;fill-opacity:1;fill-rule:nonzero;stroke:none"
       d="M 664.7593,394.1717 H 535.0028 c 1.5729,-16.1774 7.9764,-29.2094 19.2107,-39.0955 11.2342,-9.8861 24.94,-14.8294 41.1174,-14.8294 18.6491,0 35.3882,7.4148 50.2174,22.2443 l 15.1665,-17.5258 c -18.4243,-19.0981 -40.3313,-28.6475 -65.7207,-28.6475 -24.491,0 -45.106,8.2573 -61.8449,24.7717 -16.7391,16.5147 -25.1087,36.7926 -25.1087,60.8338 0,23.8167 8.1451,44.0946 24.4346,60.8337 16.2896,16.7392 36.1183,25.1088 59.4857,25.1088 21.3451,0 39.1515,-6.965 53.4191,-20.8959 14.2674,-13.9303 21.4013,-31.6806 21.4013,-53.2505 0,-6.2912 -0.6741,-12.8072 -2.0219,-19.5477 z M 536.0139,417.0895 H 640.156 c -0.2245,14.3801 -4.9431,25.8389 -14.1554,34.3771 -9.212,8.538 -20.7833,12.807 -34.7139,12.807 -13.7058,0 -25.6142,-4.3251 -35.7251,-12.9753 -10.1109,-8.6505 -16.6269,-20.0534 -19.5477,-34.2088 z M 879.3794,320.0253 H 849.384 l -46.8471,67.4058 -46.51,-67.4058 h -30.3327 l 61.0025,85.6051 -55.9469,78.5282 h 29.9954 l 41.7917,-60.3283 42.1285,60.3283 h 29.9957 l -56.9577,-78.5282 z m 218.8335,143.2374 c 15.391,-16.4021 23.0865,-36.7361 23.0865,-61.0024 0,-24.266 -7.8078,-44.6561 -23.4236,-61.1708 -15.6155,-16.5144 -34.8825,-24.7714 -57.8004,-24.7714 -25.8389,-3e-4 -45.9484,9.0998 -60.3283,27.2993 v -84.2572 h -25.9512 v 224.7984 h 24.266 v -26.2885 c 6.2912,9.4368 14.9417,16.7953 25.9512,22.0757 11.0097,5.2798 23.0306,7.92 36.0623,7.92 23.3672,0 42.7465,-8.2009 58.1375,-24.6031 z m -20.2218,-105.4902 c 11.122,11.6839 16.683,26.4008 16.683,44.1508 0,17.7502 -5.561,32.5233 -16.683,44.3194 -11.122,11.7961 -24.9962,17.6941 -41.6231,17.6941 -15.728,0 -29.1529,-5.3926 -40.2749,-16.1773 -11.122,-10.7853 -16.6831,-25.9512 -16.6831,-45.4992 0,-19.997 5.4488,-35.3316 16.346,-46.0043 10.8973,-10.6727 24.4344,-16.0092 40.612,-16.0092 16.6269,0 30.5011,5.8419 41.6231,17.5257 z m 115.702,44.4878 c -0.4493,23.3674 7.9203,43.5892 25.109,60.6654 17.1882,17.0762 37.4661,25.3896 60.8338,24.9403 23.5919,0.4493 43.9259,-7.8641 61.0021,-24.9403 17.0762,-17.0762 25.3897,-37.298 24.9401,-60.6654 0.4496,-23.1426 -7.9761,-43.308 -25.2771,-60.4967 -17.3007,-17.1885 -37.635,-25.558 -61.0022,-25.1087 -23.3674,-0.4493 -43.5892,7.9202 -60.6654,25.1087 -17.0761,17.1884 -25.3896,37.3541 -24.9403,60.4967 z m 145.26,-0.337 c 0,17.5257 -5.6733,32.2427 -17.0201,44.1507 -11.3468,11.9086 -25.4457,17.8628 -42.2971,17.8628 -16.8514,0 -30.9504,-5.898 -42.2972,-17.6941 -11.3468,-11.7961 -17.0201,-26.5692 -17.0201,-44.3194 0,-17.3007 5.6733,-31.849 17.0201,-43.6451 11.3468,-11.7961 25.3335,-17.6941 41.9601,-17.6941 16.6266,0 30.7259,5.9542 42.2972,17.8625 11.5713,11.9084 17.3571,26.4008 17.3571,43.4767 z m 95.3118,-53.5876 16.5147,17.1887 c 8.5379,-8.763 16.3457,-15.1664 23.4235,-19.2109 7.0776,-4.0442 14.9978,-6.0664 23.7606,-6.0664 9.212,0 16.7389,2.0783 22.5808,6.235 5.8419,4.1568 8.7627,9.83 8.7627,17.0201 0,6.2912 -2.0781,11.1781 -6.2351,14.6605 -4.1564,3.4827 -11.6274,7.3587 -22.4124,11.6277 l -15.8406,6.7408 c -14.155,5.8414 -24.4904,12.2451 -31.0064,19.2104 -6.516,6.9653 -9.7739,15.728 -9.7739,26.2882 0,13.9309 5.224,25.0526 15.6719,33.3661 10.4479,8.3131 23.6483,12.4701 39.6009,12.4701 22.244,0 40.5558,-8.6504 54.936,-25.9514 l -15.8403,-16.1773 c -12.1332,12.1331 -25.6144,18.1995 -40.4436,18.1995 -8.3135,0 -14.9417,-1.7974 -19.8851,-5.3926 -4.9427,-3.5949 -7.4145,-8.6502 -7.4145,-15.1659 0,-5.1682 1.8538,-9.381 5.561,-12.6389 3.7074,-3.2578 10.7288,-7.0214 21.0642,-11.2904 l 15.1665,-6.4034 c 15.728,-6.7408 26.9062,-13.7622 33.5344,-21.0643 6.6283,-7.3026 9.9423,-16.4585 9.9423,-27.4683 0,-15.2787 -5.6172,-27.1868 -16.8514,-35.725 -11.0098,-8.3134 -24.6031,-12.4699 -40.7804,-12.4699 -26.2885,0 -47.6336,10.6725 -64.0358,32.0176 z m 207.2058,-28.3104 v 164.1333 h 25.9512 V 320.0253 Z m -6.4037,226.8209 c 0,5.1676 1.91,9.6052 5.7297,13.3124 3.8196,3.7074 8.4257,5.5613 13.818,5.5613 5.1679,0 9.6616,-1.8539 13.4813,-5.5613 3.8197,-3.7072 5.7297,-8.1448 5.7297,-13.3124 0,-5.3926 -1.8539,-9.8861 -5.5613,-13.4815 -3.7072,-3.5949 -8.2571,-5.3921 -13.6497,-5.3921 -5.3923,0 -9.9984,1.7972 -13.818,5.3921 -3.8197,3.5951 -5.7297,8.0889 -5.7297,13.4815 z m 217.654,-204.9139 v -21.907 c -11.0098,-2.4716 -20.1095,-3.7072 -27.2996,-3.7072 -17.5252,0 -31.119,4.4935 -40.7804,13.481 -9.6616,8.9875 -14.4924,22.244 -14.4924,39.7695 v 91.3349 h -27.6361 v 23.2551 h 27.6361 v 44.8248 h 25.9515 v -44.8248 h 51.2283 v -23.2551 h -51.2283 v -89.6497 c 0,-11.2342 2.8647,-19.2668 8.5941,-24.0976 5.7296,-4.8308 14.436,-7.2462 26.1198,-7.2462 6.2912,0 13.5936,0.6744 21.907,2.0223 z m 77.4493,-21.907 v 164.1333 h 25.9512 V 320.0253 Z m -6.4037,226.8209 c 0,5.1676 1.91,9.6052 5.7297,13.3124 3.8196,3.7077 8.4257,5.5613 13.818,5.5613 5.1678,0 9.6616,-1.8536 13.4813,-5.5613 3.8197,-3.7072 5.7297,-8.1448 5.7297,-13.3124 0,-5.3926 -1.8539,-9.8861 -5.5613,-13.4813 -3.7072,-3.5951 -8.2571,-5.3923 -13.6497,-5.3923 -5.3923,0 -9.9984,1.7972 -13.818,5.3923 -3.8197,3.5952 -5.7297,8.0887 -5.7297,13.4813 z m 116.208,-144.5859 c -0.4493,23.3677 7.92,43.5892 25.1087,60.6657 17.1884,17.0759 37.4664,25.3893 60.8338,24.94 23.5919,0.4493 43.9262,-7.8641 61.0021,-24.94 17.0765,-17.0765 25.3899,-37.298 24.9404,-60.6654 0.4495,-23.1426 -7.9765,-43.3083 -25.2774,-60.497 -17.3007,-17.1882 -37.6348,-25.5577 -61.0022,-25.1085 -23.3674,-0.4492 -43.5889,7.9203 -60.6654,25.1085 -17.0759,17.1887 -25.3893,37.3544 -24.94,60.4967 z m 145.2597,-0.3367 c 0,17.5254 -5.6733,32.2426 -17.0201,44.1507 -11.3468,11.9083 -25.4457,17.8625 -42.2971,17.8625 -16.8514,0 -30.9504,-5.8977 -42.2972,-17.6938 -11.3468,-11.7961 -17.0201,-26.5692 -17.0201,-44.3194 0,-17.3007 5.6733,-31.8493 17.0201,-43.6454 11.3468,-11.7961 25.3335,-17.6938 41.9601,-17.6938 16.6269,0 30.7259,5.9539 42.2972,17.8622 11.5716,11.9084 17.3571,26.4008 17.3571,43.477 z m 246.6383,21.2329 v -103.131 h -25.9515 v 100.0976 c 0,13.0317 -3.651,23.5922 -10.9534,31.6809 -7.3023,8.0886 -17.2448,12.1328 -29.8272,12.1328 -12.5825,0 -22.9179,-4.1006 -31.0065,-12.3012 -8.0887,-8.2012 -12.1331,-18.7053 -12.1331,-31.5125 V 320.0255 h -25.9512 v 164.1334 h 24.266 v -17.5258 c 12.8072,14.1554 29.6586,21.2329 50.5544,21.2329 18.8737,0 33.759,-5.898 44.6565,-17.6938 10.8972,-11.7961 16.346,-27.4683 16.346,-47.0157 z m 133.8003,-74.8205 16.5147,17.1884 c 8.5379,-8.7627 16.3457,-15.1662 23.4235,-19.2106 7.0776,-4.0445 14.9978,-6.0667 23.7606,-6.0667 9.212,0 16.7389,2.0786 22.5808,6.235 5.8419,4.1568 8.763,9.8303 8.763,17.0201 0,6.2912 -2.0784,11.1781 -6.2354,14.6608 -4.1564,3.4826 -11.6274,7.3584 -22.4124,11.6274 l -15.8403,6.7408 c -14.1553,5.8417 -24.4907,12.2451 -31.0067,19.2107 -6.516,6.9653 -9.7739,15.728 -9.7739,26.2882 0,13.9306 5.2243,25.0523 15.6719,33.3661 10.4479,8.3131 23.6483,12.4698 39.6009,12.4698 22.244,0 40.5558,-8.6504 54.936,-25.9514 l -15.8403,-16.1773 c -12.1332,12.1331 -25.6144,18.1995 -40.4436,18.1995 -8.3135,0 -14.9417,-1.7971 -19.8851,-5.3923 -4.9427,-3.5949 -7.4145,-8.6502 -7.4145,-15.1662 0,-5.1679 1.8538,-9.3807 5.561,-12.6386 3.7074,-3.2581 10.7288,-7.0217 21.0642,-11.2907 l 15.1665,-6.4034 c 15.728,-6.7405 26.9062,-13.7619 33.5344,-21.0643 6.6283,-7.3023 9.9423,-16.4582 9.9423,-27.468 0,-15.2787 -5.6172,-27.1868 -16.8514,-35.725 -11.0098,-8.3135 -24.6031,-12.4702 -40.7804,-12.4702 -26.2885,0 -47.6336,10.6725 -64.0358,32.0179 z m 296.8558,-6.4035 v -21.907 c -11.0098,-2.4715 -20.1096,-3.7074 -27.2997,-3.7074 -17.5252,0 -31.119,4.4938 -40.7803,13.4813 -9.6616,8.9872 -14.4924,22.2437 -14.4924,39.7695 v 91.3348 h -27.6364 v 23.2552 h 27.6364 v 44.8248 h 25.9514 v -44.8248 h 51.2283 v -23.2552 h -51.2283 v -89.6499 c 0,-11.2342 2.8645,-19.2665 8.5941,-24.0976 5.7297,-4.8305 14.436,-7.2462 26.1199,-7.2462 6.2912,0 13.5932,0.6744 21.907,2.0225 z m 200.465,79.2017 V 320.0255 h -24.266 v 21.233 c -12.5824,-16.6269 -31.0068,-24.9404 -55.2731,-24.9404 -17.0759,0 -30.8942,4.2131 -41.4544,12.6386 -10.5605,8.4257 -15.8405,19.6038 -15.8405,33.5347 0,13.9303 5.3923,25.0523 16.1776,33.3657 10.7847,8.3135 25.0523,12.4699 42.8025,12.4699 h 51.9024 v 14.1554 c 0,13.2565 -3.5385,23.4796 -10.6163,30.6697 -7.0776,7.1901 -16.7953,10.785 -29.1529,10.785 -18.4244,0 -34.3769,-8.763 -47.8582,-26.2882 l -17.1884,14.1551 c 14.6043,24.0414 36.8484,36.062 66.7315,36.062 19.7725,0 35.388,-5.7857 46.847,-17.3568 11.4594,-11.5716 17.1888,-28.0298 17.1888,-49.375 z m -25.9515,-38.0843 v 4.0442 h -48.869 c -23.5922,0 -35.3883,-7.7513 -35.3883,-23.2549 0,-8.0886 3.202,-14.436 9.6055,-19.0423 6.4035,-4.6057 14.5485,-6.9088 24.4346,-6.9088 13.7058,0 25.5016,4.3812 35.3883,13.1442 9.8861,8.7628 14.8289,19.4352 14.8289,32.0176 z m 255.401,40.1066 v -103.131 h -25.9512 v 100.0976 c 0,13.032 -3.651,23.5922 -10.9536,31.6809 -7.3021,8.0886 -17.2446,12.1331 -29.827,12.1331 -12.5824,0 -22.9178,-4.1006 -31.0068,-12.3015 -8.0886,-8.2012 -12.1331,-18.7053 -12.1331,-31.5125 V 320.0255 h -25.9512 v 164.1334 h 24.2663 v -17.5255 c 12.8069,14.1554 29.6583,21.2329 50.5542,21.2329 18.8736,0 33.7592,-5.8983 44.6564,-17.6941 10.8973,-11.7961 16.346,-27.468 16.346,-47.0157 z m 223.7202,149.6412 h 25.9512 V 320.0255 h -24.6031 v 25.9512 c -6.2912,-9.212 -14.9978,-16.4579 -26.1198,-21.7383 -11.122,-5.2801 -23.0862,-7.92 -35.8937,-7.92 -23.1426,0 -42.4656,8.257 -57.9688,24.7714 -15.5035,16.5146 -23.2552,36.7926 -23.2552,60.8338 0,24.2662 7.8078,44.6564 23.4236,61.1708 15.6155,16.5146 34.8826,24.7719 57.8004,24.7719 12.3576,0 23.9292,-2.4718 34.7142,-7.4148 10.785,-4.9431 19.4355,-11.7958 25.9512,-20.5586 z m 0.337,-170.8741 c 0,19.7727 -5.561,35.0509 -16.683,45.8362 -11.1217,10.7847 -24.6592,16.1773 -40.612,16.1773 -16.6269,0 -30.5013,-5.8419 -41.6231,-17.5258 -11.122,-11.6832 -16.683,-26.4004 -16.683,-44.1507 0,-17.75 5.561,-32.5233 16.683,-44.3191 11.1218,-11.7961 24.9962,-17.6942 41.6231,-17.6942 15.9528,0 29.4903,5.3924 40.612,16.1776 11.122,10.7847 16.683,25.9512 16.683,45.4987 z m 105.7598,-53.5876 16.5146,17.1887 c 8.538,-8.7627 16.3457,-15.1665 23.4236,-19.2109 7.0775,-4.0442 14.9978,-6.0665 23.7605,-6.0665 9.2121,0 16.7389,2.0784 22.5808,6.2351 5.8419,4.1567 8.763,9.83 8.763,17.0201 0,6.2912 -2.0783,11.1781 -6.2353,14.6608 -4.1565,3.4823 -11.6275,7.3584 -22.4124,11.6274 l -15.8403,6.7408 c -14.1554,5.8416 -24.4908,12.2451 -31.0068,19.2104 -6.516,6.9653 -9.7739,15.728 -9.7739,26.2882 0,13.9309 5.2243,25.0526 15.672,33.3661 10.4479,8.3131 23.6483,12.4701 39.6008,12.4701 22.244,0 40.5558,-8.6505 54.936,-25.9514 l -15.8403,-16.1774 c -12.1331,12.1332 -25.6144,18.1996 -40.4436,18.1996 -8.3134,0 -14.9417,-1.7974 -19.885,-5.3926 -4.9428,-3.5949 -7.4146,-8.6502 -7.4146,-15.1659 0,-5.1679 1.8539,-9.381 5.561,-12.6389 3.7074,-3.2578 10.7289,-7.0214 21.0643,-11.2904 l 15.1665,-6.4034 c 15.728,-6.7408 26.9061,-13.7622 33.5344,-21.0643 6.6282,-7.3026 9.9422,-16.4585 9.9422,-27.4683 0,-15.2784 -5.6171,-27.1868 -16.8514,-35.7247 -11.0097,-8.3138 -24.603,-12.4702 -40.7803,-12.4702 -26.2885,0 -47.6337,10.6724 -64.0358,32.0176" /><path
       id="path24"
       style="fill:#231f20;fill-opacity:1;fill-rule:nonzero;stroke:none"
       d="m 2137.1204,941.2702 c 0.6852,-10.9644 1.0282,-18.8612 1.0282,-23.6892 0,-59.5119 -17.3603,-107.5047 -52.0801,-143.9781 -17.5059,-18.3904 -38.0104,-32.1801 -61.511,-41.3683 -23.2608,-9.0944 -49.2956,-13.642 -78.1021,-13.642 -29.5453,0 -56.3556,4.549 -80.4286,13.6471 -24.3708,9.2106 -45.7276,22.9873 -64.0698,41.3294 -18.3373,18.3376 -32.1139,39.6539 -41.3291,63.9482 -9.0981,23.9859 -13.6471,50.6738 -13.6471,80.0637 0,29.382 4.5289,56.0705 13.5864,80.0638 9.1421,24.218 22.8581,45.5161 41.1469,63.8926 18.311,18.3991 39.6476,32.1945 64.0089,41.385 24.116,9.098 51.0273,13.6471 80.7324,13.6471 27.1664,0 52.0764,-3.545 74.7292,-10.6348 22.9243,-7.1747 43.4242,-17.9574 61.499,-32.3467 l 12.7151,-10.1225 -66.6955,-63.11 -9.6869,9.0071 c -7.6606,7.1229 -17.2598,12.5158 -28.7963,16.1771 -12.1408,3.8528 -26.405,5.7795 -42.7918,5.7795 -30.5263,0 -54.9045,-10.1664 -73.1341,-30.4994 -9.2279,-10.2926 -16.172,-22.2667 -20.8307,-35.9212 -4.752,-13.9271 -7.1283,-29.7002 -7.1283,-47.3176 0,-17.7834 2.3763,-33.6577 7.1283,-47.6214 4.6358,-13.6225 11.5795,-25.5581 20.8307,-35.8053 18.2429,-20.2073 42.4593,-30.3114 72.6477,-30.3114 13.3911,0 25.3582,1.851 35.8994,5.5528 10.2554,3.6014 19.3521,9.0255 27.288,16.2714 7.948,7.257 14.216,15.7309 18.8022,25.4208 2.6764,5.6548 4.8007,11.7468 6.3737,18.275 h -90.3776 v 85.25 h 191.3587 z m 297.027,-211.1148 -78.0316,125.5895 H 2304.701 V 723.4563 h -96.9228 v 388.2495 h 164.9435 c 20.5251,0 39.1612,-2.8726 55.9058,-8.6176 17.0572,-5.8519 32.0748,-14.6727 45.0518,-26.4617 26.121,-23.7297 39.1816,-54.6973 39.1816,-92.901 0,-25.8812 -6.6299,-48.7672 -19.8892,-68.6562 -6.5753,-9.8629 -14.5469,-18.5976 -23.914,-26.2024 -5.1363,-4.1703 -10.6429,-7.9571 -16.5186,-11.3607 l 100.4672,-154.0499 h -114.6968 z m -129.4464,296.3004 v -85.4609 h 55.3757 c 8.8129,0 16.6311,1.0755 23.4535,3.2264 6.488,2.0455 12.1176,5.0508 16.8872,9.015 4.5374,3.7713 7.927,8.1312 10.1678,13.0788 2.2717,5.0156 3.4078,10.8196 3.4078,17.4104 0,12.956 -4.2494,23.2115 -12.7474,30.7656 -4.4197,3.9285 -9.5244,6.8788 -15.3119,8.8489 -6.1015,2.0772 -13.1,3.1158 -20.9936,3.1158 z m 476.7783,-307.8632 c -30.0251,0 -57.2643,4.5306 -81.7163,13.5918 -24.7405,9.1679 -46.504,22.9264 -65.2909,41.2742 -18.8124,18.373 -32.9304,39.6893 -42.3516,63.9479 -9.3376,24.0423 -14.0069,50.7674 -14.0069,80.1745 0,29.4072 4.6693,56.1323 14.0069,80.1746 9.4212,24.2586 23.5392,45.5749 42.3516,63.9479 18.7869,18.3478 40.5504,32.1063 65.2909,41.2741 24.452,9.0613 51.6912,13.5919 81.7163,13.5919 29.8066,0 56.9424,-4.5491 81.4068,-13.6471 24.6645,-9.1724 46.3697,-22.9125 65.1141,-41.2189 18.8124,-18.3728 32.9301,-39.6893 42.3516,-63.9479 9.3373,-24.0421 14.0065,-50.7674 14.0065,-80.1746 0,-59.3872 -18.7863,-107.4282 -56.3581,-144.1224 -18.7444,-18.3064 -40.4496,-32.0465 -65.1141,-41.2189 -24.4644,-9.0981 -51.6002,-13.6471 -81.4068,-13.6471 z m -75.1901,115.9157 c 9.4564,-10.2327 20.3414,-17.8857 32.6543,-22.9575 12.4744,-5.1383 26.6533,-7.7079 42.5358,-7.7079 31.2126,0 56.1952,10.222 74.9469,30.6654 9.474,10.3286 16.5821,22.2846 21.3228,35.8657 4.8365,13.8552 7.255,29.5911 7.255,47.207 0,17.6157 -2.4185,33.3519 -7.255,47.2071 -4.7407,13.5811 -11.8488,25.537 -21.3228,35.8656 -9.396,10.2436 -20.2201,17.8963 -32.472,22.9575 -12.439,5.1384 -26.5974,7.708 -42.4749,7.708 -31.2338,0 -56.2974,-10.222 -75.1901,-30.6655 -9.5689,-10.3544 -16.7377,-22.31 -21.505,-35.8656 -4.877,-13.8674 -7.3159,-29.6033 -7.3159,-47.2071 0,-17.6037 2.4389,-33.3396 7.3159,-47.207 4.7673,-13.5556 11.9361,-25.5113 21.505,-35.8657 z m 523.3425,-115.9157 c -25.1748,0 -48.0679,3.5008 -68.6781,10.5021 -20.8641,7.0877 -39.2884,17.7749 -55.2705,32.0607 -16.0982,14.3892 -28.18,31.0467 -36.2451,49.9705 -8.0297,18.8411 -12.045,39.7358 -12.045,62.6831 v 237.8968 h 96.9225 V 876.7273 c 0,-11.2238 1.7351,-21.2414 5.2044,-30.0512 3.3865,-8.5992 8.4804,-16.1995 15.2813,-22.8002 6.8564,-6.6549 14.739,-11.6408 23.646,-14.9556 9.0947,-3.3849 19.4902,-5.0774 31.1845,-5.0774 22.7395,0 40.8178,6.641 54.2333,19.9224 6.6935,6.6263 11.7031,14.2455 15.0273,22.8555 3.3883,8.7761 5.0828,18.8118 5.0828,30.1065 v 234.9785 h 96.9225 V 873.809 c 0,-23.0576 -3.9949,-44.0356 -11.9843,-62.9317 -8.0399,-19.0159 -20.0611,-35.6714 -36.0627,-49.9651 -15.9026,-14.2053 -34.2249,-24.8315 -54.9666,-31.8782 -20.4882,-6.9607 -43.2394,-10.4414 -68.2523,-10.4414 z m 426.2664,393.1132 c 20.4908,0 39.1447,-2.952 55.9607,-8.8554 17.1315,-6.014 32.1676,-15.0358 45.1072,-27.0644 13.0062,-12.09 22.7837,-26.113 29.3312,-42.0673 6.493,-15.8215 9.7401,-33.2971 9.7401,-52.425 0,-40.3552 -13.2486,-73.0503 -39.7451,-98.085 -13.2095,-12.4807 -28.4908,-21.8251 -45.8422,-28.0315 -17.0705,-6.1061 -36.0655,-9.1593 -56.9838,-9.1593 h -60.7254 V 723.4563 h -96.9228 v 388.2495 z m -7.2955,-180.438 c 7.9259,0 14.8943,1.1033 20.9046,3.3089 5.7283,2.1025 10.6963,5.2274 14.9026,9.3736 4.1913,4.1312 7.34,8.9796 9.445,14.5432 2.2096,5.8396 3.3146,12.6295 3.3146,20.3683 0,7.5668 -1.1069,14.2186 -3.32,19.9537 -2.1455,5.5607 -5.3736,10.4663 -9.6828,14.7146 -4.3481,4.2871 -9.3549,7.4914 -15.0185,9.6112 -5.9026,2.2096 -12.7514,3.3145 -20.5455,3.3145 h -55.8618 v -95.188 z" /><path
       id="path26"
       style="fill:#231f20;fill-opacity:1;fill-rule:nonzero;stroke:none"
       d="m 1858.6052,1348.1895 h 198.7781 V 1267.903 H 1761.154 v 409.7375 h 291.7996 v -80.2862 h -194.3484 v -81.9476 h 174.9688 v -80.2865 h -174.9688 z m 622.9117,-80.2865 h -111.8472 l -89.1457,136.2101 -88.0384,-136.2101 h -112.4008 l 146.7303,212.6205 -137.3176,197.117 h 111.8475 l 79.179,-120.7063 78.6252,120.7063 h 111.8474 l -136.7637,-196.5631 z m 215.943,409.7375 c 44.6649,0 80.5632,-12.4579 107.6944,-37.3745 27.1315,-24.9165 40.697,-57.8616 40.697,-98.8356 0,-42.8193 -14.027,-77.4255 -42.0812,-103.8186 -28.0542,-26.3928 -65.152,-39.5895 -111.2935,-39.5895 h -73.0883 V 1267.903 h -97.4511 v 409.7375 z m -10.5202,-199.3317 c 18.4566,0 32.8526,5.3524 43.1883,16.0574 10.3357,10.7048 15.5038,25.2856 15.5038,43.7423 0,17.7182 -5.3526,32.0221 -16.0574,42.9117 -10.7047,10.8893 -24.9165,16.3341 -42.6347,16.3341 h -67.5514 v -119.0455 z m 414.7208,-215.9427 c -66.4438,0 -119.9682,19.2872 -160.5728,57.8616 -40.6046,38.5744 -60.9071,89.4223 -60.9071,152.5442 0,63.1216 20.3025,113.9698 60.9071,152.5442 40.6046,38.5744 94.129,57.8616 160.5728,57.8616 65.7057,0 118.7685,-19.2872 159.1886,-57.8616 40.4201,-38.5744 60.6302,-89.4226 60.6302,-152.5442 0,-63.1219 -20.2101,-113.9698 -60.6302,-152.5442 -40.4201,-38.5744 -93.4829,-57.8616 -159.1886,-57.8616 z m 0,80.2862 c 35.8058,0 64.6906,11.9047 86.654,35.7137 21.9634,23.8091 32.9451,55.2776 32.9451,94.4059 0,39.128 -10.9817,70.5966 -32.9451,94.4056 -21.9634,23.8091 -50.8482,35.7137 -86.654,35.7137 -36.1749,0 -65.3366,-11.9046 -87.4845,-35.7137 -22.148,-23.809 -33.2221,-55.2776 -33.2221,-94.4056 0,-39.1283 11.0741,-70.5968 33.2221,-94.4059 22.1479,-23.809 51.3096,-35.7137 87.4845,-35.7137" /><path
       id="path28"
       style="fill:#52c4ab;fill-opacity:1;fill-rule:evenodd;stroke:none"
       d="m 659.0324,732.7661 h 734.6047 l -367.0413,224.3364 z" /></g></svg>