<svg xmlns="http://www.w3.org/2000/svg" viewBox="0 0 80 80" width="30" height="30"><path fill="#8bb7f0" d="M57.472 20h3.083v10h-3.083zM45.571 60.69a50.095 50.095 0 0020.422-6.92l-1.624-2.54c-4.276 2.58-10.781 5.57-19.106 6.49a30.31 30.31 0 01-.123-1.34 98.486 98.486 0 010-15.76l.122-1.62h-9.178a137.43 137.43 0 017.791-31c.062-.17.123-.33.195-.5H8.653c-2.837 0-5.139 2.24-5.139 5v55.92c0 2.25 1.881 4.08 4.193 4.08H47.76c-.051-.17-.082-.33-.134-.5a103.06 103.06 0 01-2.055-11.31z"/><path fill="#4e7ab5" d="M47.76 72.5c-.051-.17-.082-.33-.134-.5H7.707c-2.025 0-3.679-1.61-3.679-3.58V12.5c0-2.48 2.076-4.5 4.625-4.5h35.222c.062-.17.123-.33.195-.5.062-.17.123-.33.195-.5H8.653C5.539 7 3 9.47 3 12.5v55.92C3 70.94 5.117 73 7.707 73h40.176l-.123-.5z"/><path fill="#788b9c" d="M77 11.58v56.84c0 2.52-2.117 4.58-4.707 4.58h-24.41l-.123-.5h24.533c2.313 0 4.193-1.83 4.193-4.08V11.58c0-2.25-1.881-4.08-4.193-4.08H44.07c.062-.17.123-.33.195-.5h28.027C74.883 7 77 9.06 77 11.58z"/><path fill="#788b9c" d="M76.486 11.58v56.84c0 2.25-1.881 4.08-4.193 4.08H47.76c-.051-.17-.082-.33-.134-.5h24.667c2.025 0 3.679-1.61 3.679-3.58V11.58c0-1.97-1.655-3.58-3.679-3.58H43.875c.062-.17.123-.33.195-.5h28.223c2.312 0 4.193 1.83 4.193 4.08z"/><path fill="#e1ebf2" d="M72.293 8H43.875a137.627 137.627 0 00-4.944 15.85A135.84 135.84 0 0036.084 39h9.178l-.123 1.62a98.486 98.486 0 000 15.76c.031.45.072.89.123 1.34 8.325-.92 14.831-3.91 19.106-6.49l1.624 2.54a50.095 50.095 0 01-20.422 6.92c.473 3.8 1.161 7.58 2.056 11.31h24.667c2.025 0 3.679-1.61 3.679-3.58V11.58c0-1.97-1.654-3.58-3.679-3.58zM60.556 30h-3.083V20h3.083v10z"/><path fill="#4e7ab5" d="M47.883 73h-3.176c-.041-.16-.082-.33-.123-.5-.041-.16-.072-.33-.113-.5a100.57 100.57 0 01-1.973-11.06c-.123-.99-.236-1.99-.319-2.99-.051-.44-.092-.89-.123-1.33-.38-4.85-.421-9.75-.113-14.62h-9.322l.195-1.67c.678-5.76 1.727-11.54 3.114-17.18A138.697 138.697 0 0140.586 8c.062-.17.123-.34.195-.5.051-.17.123-.34.185-.5h3.299a9.37 9.37 0 00-.195.5 9.37 9.37 0 00-.195.5 137.627 137.627 0 00-4.944 15.85A135.84 135.84 0 0036.084 39h9.178l-.123 1.62a98.486 98.486 0 000 15.76c.031.45.072.89.123 1.34.082.99.195 1.98.308 2.97.473 3.8 1.161 7.58 2.056 11.31.051.17.082.33.134.5l.123.5z"/><path fill="#4e7ab5" d="M65.992 53.77a50.095 50.095 0 01-20.422 6.92c-.997.12-2.025.2-3.073.25-.811.04-1.644.06-2.487.06h-.545a50.261 50.261 0 01-25.458-7.23l1.624-2.54c5.016 3.02 13.217 6.66 23.875 6.77.904.01 1.799 0 2.672-.05 1.048-.04 2.086-.12 3.083-.23 8.325-.92 14.831-3.91 19.106-6.49l1.625 2.54zM19.444 20h3.083v10h-3.083zm38.028 0h3.083v10h-3.083z"/></svg>