<svg preserveAspectRatio="xMidYMid meet" data-bbox="25 25 150.1 150" viewBox="25 25 150.1 150" xmlns="http://www.w3.org/2000/svg" data-type="color" role="presentation" aria-hidden="true" aria-label=""><defs><style>
path{
    fill: #384B03
}
</style></defs>
    <g>
        <path d="M100 76c-1.6 2.2-2.9 4.2-3.7 6.1-.3.6-.4 1-.6 1.6.3.3.6.5.9.8.9 1 1.5 2.3 1.5 3.7v.3c.6.1 1.2.2 2.1.2.8 0 1.5-.1 2.1-.2v-.3c0-1.4.6-2.7 1.5-3.7.3-.3.5-.5.9-.8-.5-1.6-1.5-3.5-2.9-5.5-.8-.8-1.3-1.5-1.8-2.2z" fill="#9b049b" data-color="1"></path>
        <path d="M81.5 55.3v4.2c0 5.9.2 13.2 1 19.5 2.8.4 5.4 1 7.6 1.6.9.3 1.7.6 2.4.9.2-.3.3-.8.4-1.1.9-1.9 2.1-3.9 3.6-6 .3-.5.9-1.1 1.2-1.7-1.4-1.7-2.9-3.6-4.4-5.3-4.1-4.4-8.5-8.8-11.8-12.1z" fill="#9b049b" data-color="1"></path>
        <path d="M118.5 59.5v-4.2c-1.8 1.8-4 3.9-6.3 6.2-3.4 3.5-6.9 7.4-9.8 11.2 2 2.7 3.7 5.3 4.8 7.7.2.4.3.8.4 1.1 2.4-1 5.5-1.8 8.8-2.4.3-.1.7-.1 1-.2.8-6.2 1.1-13.4 1.1-19.4z" fill="#9b049b" data-color="1"></path>
        <path d="M76 100c2.2 1.6 4.3 2.9 6.1 3.7.6.3 1 .4 1.6.6.3-.3.5-.6.8-.9 1-.9 2.4-1.5 3.7-1.5h.3c.1-.6.2-1.2.2-2.1 0-.8-.1-1.5-.2-2.1h-.3c-1.4 0-2.7-.6-3.7-1.5-.3-.3-.5-.5-.8-.9-1.6.7-3.6 1.7-5.7 3.1-.6.6-1.3 1.1-2 1.6z" fill="#9b049b" data-color="1"></path>
        <path d="M114.6 91.5c1-2 1.8-5 2.4-8.5-2.2.3-4.2.8-5.9 1.3-1 .3-1.8.7-2.6 1 0 .2.1.4.1.6 0 1.6-.6 3.2-1.8 4.3.3.5.8 1 1.3 1.6.6.6 1.1 1 1.6 1.3 1.1-1.2 2.8-1.9 4.4-1.8.2.1.4.2.5.2z" fill="#9b049b" data-color="1"></path>
        <path d="M81.5 144.7c1.8-1.8 4-3.9 6.3-6.2 3.4-3.5 6.9-7.4 9.8-11.2-2-2.7-3.7-5.3-4.8-7.7-.2-.4-.3-.8-.4-1.1-2.4 1-5.5 1.8-8.8 2.4-.3.1-.7.1-1 .2-.8 6.4-1 13.6-1 19.6-.1 1.3-.1 2.7-.1 4z" fill="#9b049b" data-color="1"></path>
        <path d="M96.7 108c1-.3 2.1-.3 3.3-.3 1.2 0 2.4.1 3.3.3.5-.9 1.2-1.7 2.1-2.6.9-.9 1.7-1.6 2.6-2.1-.3-1-.3-2.1-.3-3.3s.1-2.3.3-3.4c-.9-.5-1.7-1.2-2.6-2.1-.9-.9-1.6-1.7-2.1-2.6-1 .3-2.1.3-3.3.3-1.2 0-2.4-.1-3.3-.3-.5.9-1.2 1.7-2.1 2.6-.9.9-1.7 1.6-2.6 2.1.3 1 .3 2.1.3 3.4 0 1.2-.1 2.3-.3 3.3.9.5 1.7 1.2 2.6 2.1.9.8 1.6 1.7 2.1 2.6z" fill="#9b049b" data-color="1"></path>
        <path d="M119.5 92.8c1.9.9 3.9 2.1 6 3.6.5.3 1.1.9 1.7 1.2 1.7-1.4 3.6-2.9 5.3-4.4 4.6-4 8.9-8.3 12.1-11.7h-4.2c-5.9 0-13.2.2-19.5 1-.4 2.8-1 5.4-1.7 7.5-.3.9-.6 1.6-.9 2.4.4.1.8.2 1.2.4z" fill="#9b049b" data-color="1"></path>
        <path d="M117 117c-.3-2.2-.8-4.2-1.3-5.9-.3-1-.7-1.8-1-2.6-.2 0-.4.1-.6.1-1.6 0-3.2-.6-4.4-1.8-.5.3-1 .8-1.6 1.3-.6.6-1 1.1-1.3 1.6 1.2 1.1 1.9 2.8 1.8 4.3 0 .2-.1.4-.1.6 2.1 1 5 1.8 8.5 2.4z" fill="#9b049b" data-color="1"></path>
        <path d="M100 124c1.6-2.2 2.9-4.2 3.7-6.1.3-.5.4-1 .6-1.6-.3-.3-.6-.5-.9-.8-.9-1-1.5-2.3-1.5-3.7v-.3c-.6-.1-1.2-.2-2.1-.2-.8 0-1.5.1-2.1.2v.3c0 1.4-.6 2.7-1.5 3.7-.3.3-.5.5-.9.8.5 1.6 1.5 3.5 2.9 5.5.8.8 1.3 1.5 1.8 2.2z" fill="#9b049b" data-color="1"></path>
        <path d="M140.4 77.7c3.1 0 5.7.1 7.8.1.3-.3.5-.6.7-.8.8-.8 1.1-1.2 1.1-1.2.3-.3.6-.4 1-.5l2-28.3-28.2 2c-.1.3-.3.8-.5 1 0 0-.3.3-1 .9-.3.3-.7.6-1 1 .1 2.1.1 4.7.1 7.7 0 5.7-.2 12.7-.9 19.1 6.3-.8 13.2-1 18.9-1z" fill="#9b049b" data-color="1"></path>
        <path d="M83 83c.3 2.2.8 4.2 1.3 5.9.3 1 .7 1.9 1 2.6.2 0 .4-.1.6-.1 1.6 0 3.2.6 4.4 1.8.5-.3 1-.8 1.6-1.3.6-.6 1-1.1 1.3-1.6-1.2-1.1-1.9-2.8-1.8-4.3 0-.2.1-.4.1-.6-2-1-5-1.9-8.5-2.4z" fill="#9b049b" data-color="1"></path>
        <path d="M91.9 108.1c-.6-.6-1.1-1-1.6-1.3-1.1 1.2-2.8 1.9-4.4 1.8-.2 0-.4-.1-.6-.1-1 2-1.8 5-2.4 8.5 2.2-.3 4.2-.8 5.9-1.3 1-.3 1.8-.7 2.6-1 0-.2-.1-.4-.1-.6 0-1.6.6-3.2 1.8-4.3-.2-.6-.6-1.1-1.2-1.7z" fill="#9b049b" data-color="1"></path>
        <path d="M124.1 100c-2.2-1.6-4.3-2.9-6.1-3.7-.6-.3-1-.4-1.6-.6-.3.3-.5.6-.8.9-1 .9-2.4 1.5-3.7 1.5h-.3c-.1.6-.2 1.2-.2 2.1 0 .8.1 1.5.2 2.1h.3c1.4 0 2.7.6 3.7 1.5.3.3.5.5.8.9 1.6-.5 3.5-1.5 5.6-2.9.6-.8 1.3-1.3 2.1-1.8z" fill="#9b049b" data-color="1"></path>
        <path d="M144.6 118.5c-1.8-1.8-3.9-4-6.3-6.2-3.5-3.4-7.4-6.8-11.2-9.9-2.7 2-5.3 3.6-7.8 4.8-.4.2-.8.3-1.1.4 1 2.4 1.8 5.5 2.4 8.8.1.3.1.7.2 1 6.4.8 13.6 1 19.6 1 1.5.1 2.9.1 4.2.1z" fill="#9b049b" data-color="1"></path>
        <path d="M118.3 149.8c-2.3-2.2-5.5-5.2-8.8-8.8-3.2-3.4-6.6-7-9.5-10.8-2.1 2.6-4.4 5.3-6.8 7.8-4.4 4.8-8.7 8.9-11.6 11.7.1 1.7.1 2.8.1 2.8 0 .4-.1.8-.3 1.1L99.9 175l18.6-21.3c-.2-.3-.3-.7-.3-1.1 0-.1 0-1.1.1-2.8z" fill="#9b049b" data-color="1"></path>
        <path d="M150 124.3s-.3-.3-.9-1c-.3-.3-.6-.7-1-1-2.1.1-4.7.1-7.8.1-5.8 0-12.6-.2-19.1-.9.7 6.4.9 13.3.9 19.1 0 2.9-.1 5.6-.1 7.7.3.3.5.5.8.7.8.8 1.2 1.1 1.2 1.1.3.3.4.6.5 1l28.2 2-2-28.3c-.1-.1-.4-.3-.7-.5z" fill="#9b049b" data-color="1"></path>
        <path d="M118.5 144.7v-4.2c0-5.9-.2-13.2-1-19.5-2.8-.4-5.4-1-7.6-1.6-.9-.3-1.7-.6-2.4-.9-.2.3-.3.8-.4 1.1-.9 1.9-2.1 3.9-3.6 6-.3.5-.9 1.1-1.2 1.7 1.4 1.7 2.9 3.6 4.4 5.3 4.1 4.4 8.5 8.8 11.8 12.1z" fill="#9b049b" data-color="1"></path>
        <path d="M80.5 107.1c-1.9-.9-3.9-2.1-6-3.6-.5-.3-1.1-.9-1.7-1.2-1.7 1.4-3.6 2.9-5.3 4.4-4.6 4-8.9 8.3-12.1 11.7h4.2c5.9 0 13.2-.2 19.5-1 .4-2.8 1-5.4 1.7-7.5.3-.9.6-1.6.9-2.4-.4 0-.8-.1-1.2-.4z" fill="#9b049b" data-color="1"></path>
        <path d="M152.5 81.8s-1-.1-2.8-.1c-2.2 2.3-5.2 5.5-8.7 8.8-3.4 3.2-7.1 6.6-10.7 9.5 2.6 2.1 5.3 4.4 7.8 6.8 4.8 4.4 8.9 8.8 11.7 11.6 1.7-.1 2.8-.1 2.8-.1.4 0 .8.1 1.1.3l21.4-18.6-21.4-18.6c-.4.2-.8.4-1.2.4z" fill="#9b049b" data-color="1"></path>
        <path d="M81.7 50.2c2.3 2.2 5.5 5.2 8.8 8.8 3.2 3.4 6.6 7 9.5 10.8 2.1-2.6 4.4-5.3 6.8-7.8 4.4-4.8 8.7-8.9 11.6-11.7-.1-1.7-.1-2.8-.1-2.8 0-.4.1-.8.3-1.1L100.1 25 81.4 46.3c.2.3.3.7.3 1.1.1.1.1 1.1 0 2.8z" fill="#9b049b" data-color="1"></path>
        <path d="M59.6 122.3c-3 0-5.7-.1-7.8-.1-.3.3-.5.6-.7.8-.8.8-1.1 1.2-1.1 1.2-.3.3-.6.4-1 .5L47 153l28.2-2c.1-.3.3-.7.5-1 0 0 .3-.3 1-.9.3-.3.7-.6 1-1-.1-2.1-.1-4.7-.1-7.7 0-5.7.2-12.7.9-19.1-6.3.8-13.2 1-18.9 1z" fill="#9b049b" data-color="1"></path>
        <path d="M55.4 81.5c1.8 1.8 3.9 4 6.3 6.2 3.5 3.4 7.4 6.8 11.2 9.9 2.7-2 5.3-3.6 7.8-4.8.4-.2.8-.3 1.1-.4-1-2.4-1.8-5.5-2.4-8.8-.1-.3-.1-.7-.2-1-6.4-.8-13.6-1-19.6-1-1.5-.2-2.9-.1-4.2-.1z" fill="#9b049b" data-color="1"></path>
        <path d="M50 75.7s.3.3.9 1c.3.3.6.7 1 1 2.1-.1 4.7-.1 7.8-.1 5.8 0 12.6.2 19.1.9-.7-6.4-.9-13.3-.9-19.1 0-2.9.1-5.6.1-7.7-.3-.3-.6-.5-.8-.7-.8-.8-1.2-1.1-1.2-1.1-.3-.3-.4-.6-.5-1L47.3 47l2 28.3c.1 0 .4.2.7.4z" fill="#9b049b" data-color="1"></path>
        <path d="M50.2 118.4c2.2-2.3 5.2-5.5 8.7-8.8 3.3-3.2 7.1-6.6 10.7-9.5-2.6-2.1-5.3-4.4-7.8-6.8-4.6-4.4-8.9-8.8-11.6-11.6-1.7.1-2.8.1-2.8.1-.4 0-.8-.1-1.1-.3L25 99.9l21.4 18.6c.3-.2.7-.3 1.1-.3 0 0 1.1.1 2.7.2z" fill="#9b049b" data-color="1"></path>
    </g>
</svg>