<svg preserveAspectRatio="xMidYMid meet" data-bbox="25 25 150 150" viewBox="25 25 150 150" xmlns="http://www.w3.org/2000/svg" data-type="color" role="presentation" aria-hidden="true" aria-label=""><defs><style>
path{
    fill: #fff
}
</style></defs>
    <g>
        <path d="M174.8 79.9c-1.2-2.4-3.2-4.7-6.2-7-1.5-1.1-3.2-2.2-5.2-3.3-1.3 4-3.1 8.1-5.4 12-.4 1-.7 2-1.1 3 .8.7 1.6 1.4 2.4 2 4 2.3 7.6 4.9 10.7 7.8v-.1c3.4-5.4 4.7-9.9 4.7-13.7.2-.1.2-.4.1-.7z" fill="#9b049b" data-color="1"></path>
        <path d="M163.5 130.4c2-1.1 3.7-2.2 5.2-3.3 3-2.3 5-4.6 6.2-7 0-.3.1-.5.1-.9 0-3.7-1.4-8.4-4.7-13.7v-.1c-1.9 1.8-4 3.5-6.3 5-1.4.9-2.9 1.8-4.4 2.7-.8.6-1.6 1.4-2.5 2.1.4 1 .7 2 1 3 2.4 4 4.2 8.1 5.4 12.2z" fill="#9b049b" data-color="1"></path>
        <path d="M152.5 83.2c.5-.8 1.2-1.7 1.7-2.6 1.5-5.2 2.6-9.8 3.3-13.9-3.8-1.5-8.3-2.8-13.4-4.1-1.1 0-2.2.1-3.3.2-.7 5.5-2.2 11-4.4 16.1 5.4.7 10.9 2.3 16.1 4.3z" fill="#9b049b" data-color="1"></path>
        <path d="M141.8 58.2c1.1.2 2.1.4 3.1.5h.5c4.4 0 8.6.5 12.6 1.4 0-.5.1-1.1.1-1.5 0-6.1-1.3-10.4-3.3-13.5-3.1-2-7.5-3.3-13.5-3.3-.5 0-1 .1-1.5.1.9 4 1.4 8.2 1.4 12.6v.5c.3 1.1.4 2.1.6 3.2z" fill="#9b049b" data-color="1"></path>
        <path d="M111.5 51.5c-3.5 3-6.6 6.4-9.2 10 2.3 3.6 3.9 7.5 4.9 11.5 2.2-2.3 4.6-4.3 7.4-6 .8-.5 1.7-1 2.5-1.5-.5-5.2-1.7-10.5-3.7-15.5-.7.5-1.3 1-1.9 1.5z" fill="#9b049b" data-color="1"></path>
        <path d="M148.5 88.5c.5-.6 1-1.3 1.5-1.9-5-2-10.3-3.4-15.5-3.8-.5.9-1 1.8-1.5 2.6-1.7 2.7-3.7 5.2-6 7.4 4 .9 7.8 2.6 11.5 4.9 3.6-2.6 7-5.8 10-9.2z" fill="#9b049b" data-color="1"></path>
        <path d="M114.6 90.2c.2.1.3.1.5.2l.5.5c.1.3.2.5.3.7v.5c1.5-.3 2.9-.4 4.4-.4.5 0 1.1.1 1.6.1 3.1-2.3 5.7-5.2 7.9-8.6.1-.2.3-.5.4-.6-4.4.1-8.5.8-12.2 2.5-1 1.8-2.1 3.4-3.4 5.1z" fill="#9b049b" data-color="1"></path>
        <path d="M122.9 103.9c4-.5 7.9-1.8 11.7-3.9-3.8-2.1-7.8-3.5-11.7-3.9-1.7 1.1-3.5 2-5.5 2.7.2.3.4.6.5 1 .1.5-.1 1-.4 1.5 1.9.6 3.7 1.5 5.4 2.6z" fill="#9b049b" data-color="1"></path>
        <path d="M108 78.3c0 .5.1 1.1.1 1.6 0 1.5-.2 2.9-.4 4.4.5 0 .8 0 1.2.2.4.2.6.5.8.9 1.6-1.3 3.4-2.4 5.2-3.3 1.5-3.6 2.4-7.7 2.5-12.1-.2.1-.5.3-.6.4a29.2 29.2 0 0 0-8.8 7.9z" fill="#9b049b" data-color="1"></path>
        <path d="M63.4 63.4c.8 5.4 2.3 10.6 4.5 15.3.5 0 1-.1 1.5-.1 3.7 0 7.4.5 10.9 1.5-1-3.5-1.5-7.1-1.5-10.9 0-.5 0-1 .1-1.5-4.9-2-10.2-3.5-15.5-4.3z" fill="#9b049b" data-color="1"></path>
        <path d="M69.3 121.4c-.5 0-1 0-1.5-.1-2.2 4.7-3.6 9.9-4.5 15.3 5.4-.8 10.6-2.3 15.3-4.5 0-.5-.1-1-.1-1.5 0-3.7.5-7.4 1.5-10.8-3.4 1-7 1.6-10.7 1.6z" fill="#9b049b" data-color="1"></path>
        <path d="M136.5 136.6c-.8-5.4-2.3-10.6-4.5-15.3-.5 0-1 .1-1.5.1-3.7 0-7.4-.5-10.9-1.5 1 3.5 1.5 7.1 1.5 10.8 0 .5 0 1-.1 1.5 4.9 2.1 10.2 3.6 15.5 4.4z" fill="#9b049b" data-color="1"></path>
        <path d="M130.6 78.6c.5 0 1 0 1.5.1 2.2-4.7 3.6-9.9 4.5-15.3-5.4.8-10.6 2.3-15.3 4.5 0 .5.1 1 .1 1.5 0 3.7-.5 7.4-1.5 10.8 3.4-1 7-1.6 10.7-1.6z" fill="#9b049b" data-color="1"></path>
        <path d="M154.8 154.9c2-3.1 3.3-7.4 3.3-13.5 0-.5-.1-1-.1-1.5-4 .9-8.2 1.4-12.6 1.4h-.5c-1 .2-2 .4-3.1.5-.2 1.1-.4 2.1-.5 3.1v.5c0 4.4-.5 8.6-1.4 12.5.5 0 1 .1 1.5.1 6.1.1 10.4-1.2 13.4-3.1z" fill="#9b049b" data-color="1"></path>
        <path d="M56 62.8c-5.2 1.2-9.6 2.5-13.5 4.1.6 4.1 1.6 8.7 3.3 13.9.5.9 1.1 1.7 1.7 2.5 5.2-2.2 10.6-3.6 16.1-4.3-2.2-5-3.6-10.5-4.4-16.1-1.1-.1-2.1-.1-3.2-.1z" fill="#9b049b" data-color="1"></path>
        <path d="M45.1 45.1c-2 3.1-3.3 7.5-3.3 13.5 0 .5.1 1 .1 1.5 4-.9 8.3-1.4 12.6-1.4h.5c1-.2 2-.4 3.1-.5.2-1.1.4-2.1.5-3.1v-.5c0-4.4.5-8.6 1.4-12.5-.5 0-1-.1-1.5-.1-6-.1-10.3 1.2-13.4 3.1z" fill="#9b049b" data-color="1"></path>
        <path d="M119.3 45.8c-.9.5-1.7 1.1-2.5 1.7 2.2 5.2 3.6 10.6 4.3 16.1 5-2.2 10.5-3.6 16.1-4.4.1-1.1.1-2.2.2-3.3-1.2-5.2-2.5-9.6-4.1-13.4-4.3.8-8.8 1.8-14 3.3z" fill="#9b049b" data-color="1"></path>
        <path d="M31.3 127.1c1.5 1.1 3.2 2.2 5.2 3.3 1.3-4 3.1-8.1 5.4-12 .4-1 .7-2 1.1-3.1-.8-.7-1.6-1.4-2.4-2-4-2.3-7.6-4.9-10.7-7.8l-.1.1c-3.4 5.4-4.6 9.9-4.6 13.7 0 .3 0 .5.1.9 1 2.3 3 4.6 6 6.9z" fill="#9b049b" data-color="1"></path>
        <path d="M36.5 69.6c-2 1.1-3.7 2.2-5.2 3.3-3 2.3-5 4.6-6.2 7 0 .3-.1.5-.1.8 0 3.7 1.4 8.4 4.6 13.7v.1c1.9-1.8 4-3.5 6.3-5 1.4-.9 2.9-1.8 4.4-2.7.8-.6 1.6-1.4 2.5-2.1-.4-1-.7-2.1-1.1-3-2.2-3.9-4.1-8-5.2-12.1z" fill="#9b049b" data-color="1"></path>
        <path d="M120 25.1c-.3 0-.5-.1-.8-.1-3.7 0-8.4 1.4-13.7 4.6 0 0-.1 0-.1.1 1.8 1.9 3.5 4 5 6.3.9 1.4 1.8 2.8 2.7 4.4.7.8 1.4 1.6 2.1 2.5 1.1-.4 2.1-.7 3-1.1 3.9-2.3 8-4.2 12-5.4-1.1-2-2.2-3.7-3.3-5.2-2.2-2.9-4.5-4.9-6.9-6.1z" fill="#9b049b" data-color="1"></path>
        <path d="M80.7 25c-.3 0-.5 0-.9.1-2.4 1.2-4.7 3.2-7 6.2-1.1 1.5-2.2 3.2-3.3 5.2 4.1 1.3 8.1 3.1 12.1 5.4 1 .4 2 .7 3 1 .7-.8 1.4-1.6 2-2.4 2.3-4 4.9-7.6 7.8-10.7 0 0-.1 0-.1-.1C89 26.4 84.5 25 80.7 25z" fill="#9b049b" data-color="1"></path>
        <path d="M89.6 43.5c-.5.9-1 1.9-1.5 2.8 1 .7 1.9 1.5 2.8 2.3 3.4 2.9 6.4 6.1 8.9 9.5 2.5-3.5 5.6-6.6 8.9-9.5.9-.8 1.8-1.5 2.8-2.3-.1-.3-.2-.5-.4-.8-.4-.6-.7-1.4-1-2-3.6-3.9-7.1-7.2-10.4-9.7-3 2.5-6.4 5.7-10.1 9.7z" fill="#9b049b" data-color="1"></path>
        <path d="M62.7 56c0 1.1.1 2.2.2 3.3 5.5.7 11 2.2 16.1 4.3.6-5.5 2.2-10.9 4.3-16.1-.8-.5-1.7-1.2-2.5-1.7-5.2-1.5-9.8-2.6-13.9-3.3-1.6 3.9-3 8.3-4.2 13.5z" fill="#9b049b" data-color="1"></path>
        <path d="M96 77.1c1.1 1.7 2 3.5 2.7 5.5.4-.3.7-.5 1.2-.5s.8.2 1.2.5c.7-1.9 1.6-3.7 2.7-5.5-.5-4-1.8-7.9-3.9-11.7-2.1 3.7-3.4 7.7-3.9 11.7z" fill="#9b049b" data-color="1"></path>
        <path d="M119.2 175c.3 0 .5-.1.9-.1 2.4-1.2 4.7-3.2 7-6.2 1.1-1.5 2.2-3.2 3.3-5.2-4.1-1.3-8.1-3.1-12.1-5.4-1-.4-2-.7-3-1.1-.7.8-1.4 1.6-2.1 2.5-2.3 4-4.9 7.6-7.7 10.7 0 0 .1 0 .1.1 5.3 3.3 9.9 4.7 13.6 4.7z" fill="#9b049b" data-color="1"></path>
        <path d="M137.2 144c0-1.1-.1-2.2-.2-3.3-5.5-.7-11-2.2-16.1-4.4-.6 5.5-2.2 10.9-4.3 16.1.8.5 1.7 1.2 2.5 1.7 5.2 1.5 9.8 2.6 13.9 3.3 1.6-3.8 3-8.2 4.2-13.4z" fill="#9b049b" data-color="1"></path>
        <path d="M58.5 158.1c.5 0 1-.1 1.5-.1-.9-4-1.4-8.2-1.4-12.5v-.5c-.2-1-.4-2-.5-3.1-1.1-.2-2.1-.4-3.1-.5h-.5c-4.4 0-8.6-.5-12.6-1.4 0 .5-.1 1-.1 1.5 0 6.1 1.3 10.5 3.3 13.5 3.1 1.8 7.4 3.1 13.4 3.1z" fill="#9b049b" data-color="1"></path>
        <path d="M47.5 116.8c-.6.8-1.2 1.7-1.7 2.6-1.5 5.2-2.6 9.8-3.3 13.9 3.8 1.5 8.3 2.8 13.5 4.1 1.1 0 2.2-.1 3.3-.2.7-5.5 2.2-11 4.4-16.1-5.6-.7-11.1-2.3-16.2-4.3z" fill="#9b049b" data-color="1"></path>
        <path d="M80.6 154.2c.9-.5 1.7-1.1 2.5-1.7-2.2-5.2-3.6-10.6-4.3-16.1-5 2.2-10.5 3.6-16.1 4.4-.1 1.1-.1 2.2-.2 3.3 1.2 5.2 2.5 9.6 4.1 13.5 4.3-.9 8.9-1.9 14-3.4z" fill="#9b049b" data-color="1"></path>
        <path d="M79.9 174.9c.3 0 .5.1.8.1 3.7 0 8.4-1.4 13.7-4.6h.1c-1.8-1.9-3.5-4-5-6.3-.9-1.4-1.8-2.9-2.7-4.4-.6-.8-1.4-1.6-2.1-2.5-1 .4-2.1.7-3 1.1-3.9 2.3-8 4.1-12 5.4 1.1 2 2.2 3.7 3.3 5.2 2.2 2.8 4.5 4.8 6.9 6z" fill="#9b049b" data-color="1"></path>
        <path d="M110.3 156.5c.5-.9 1-1.9 1.5-2.9-.9-.7-1.9-1.5-2.8-2.3-3.4-2.9-6.4-6.1-8.9-9.5-2.5 3.5-5.6 6.7-8.9 9.5-.9.8-1.8 1.5-2.8 2.3.1.3.2.5.4.8.4.6.7 1.4 1 2 3.6 3.9 7.1 7.2 10.4 9.7 3-2.4 6.4-5.6 10.1-9.6z" fill="#9b049b" data-color="1"></path>
        <path d="M51.5 88.5c3 3.5 6.4 6.6 10 9.2 3.6-2.3 7.5-3.9 11.5-4.9-2.3-2.2-4.3-4.6-6-7.4-.5-.8-1-1.7-1.5-2.5-5.2.4-10.5 1.6-15.5 3.6.5.7.9 1.3 1.5 2z" fill="#9b049b" data-color="1"></path>
        <path d="M46.2 88.3c-.3.1-.5.2-.8.4-.6.4-1.4.7-2 1-3.9 3.6-7.2 7.1-9.7 10.4 2.5 3.2 5.7 6.6 9.6 10.3.9.5 1.9 1 2.8 1.5.7-.9 1.5-1.9 2.3-2.8 2.8-3.4 6.1-6.4 9.5-8.9-3.5-2.5-6.6-5.6-9.5-8.9-.8-1.1-1.5-2.1-2.2-3z" fill="#9b049b" data-color="1"></path>
        <path d="M66.9 114.5c1.7-2.7 3.7-5.2 6-7.4-4-.9-7.8-2.6-11.5-4.9-3.6 2.5-7 5.6-10 9.2-.5.6-1 1.3-1.5 1.9 5 2 10.3 3.4 15.5 3.8.5-.7 1-1.6 1.5-2.6z" fill="#9b049b" data-color="1"></path>
        <path d="M77.1 96.1c-4 .5-7.9 1.8-11.7 3.9 3.8 2.1 7.8 3.5 11.7 3.9 1.7-1.1 3.5-2 5.5-2.7-.3-.4-.5-.7-.5-1.2s.2-.8.5-1.2c-2.1-.7-3.9-1.6-5.5-2.7z" fill="#9b049b" data-color="1"></path>
        <path d="M88.4 51.5c-.6-.5-1.3-1-1.9-1.5-2 5-3.4 10.3-3.8 15.5.9.5 1.8 1 2.6 1.5 2.7 1.7 5.2 3.7 7.4 6 .9-4 2.6-7.8 4.9-11.5-2.6-3.6-5.7-7-9.2-10z" fill="#9b049b" data-color="1"></path>
        <path d="M85.3 109.8c-.4-.2-.7-.5-.9-.8s-.3-.8-.2-1.2c-1.5.3-2.9.4-4.4.4-.5 0-1.1-.1-1.6-.1-3.1 2.3-5.7 5.2-7.9 8.6-.1.2-.3.5-.4.6 4.4-.1 8.5-.8 12.2-2.5.8-1.7 1.9-3.4 3.2-5z" fill="#9b049b" data-color="1"></path>
        <path d="M69.9 82.6c.1.2.3.5.4.6 2.2 3.5 4.8 6.5 7.9 8.6.5 0 1.1-.1 1.6-.1 1.5 0 2.9.2 4.4.4 0-.5 0-.8.2-1.2s.5-.6.9-.8c-1.2-1.5-2.3-3.3-3.2-5.1-3.6-1.5-7.8-2.4-12.2-2.4z" fill="#9b049b" data-color="1"></path>
        <path d="M85 82c1.8.9 3.5 2 5.2 3.3.2-.4.5-.7.8-.9s.8-.3 1.2-.2c-.3-1.5-.4-2.9-.4-4.3 0-.5.1-1.1.1-1.6-2.3-3.1-5.2-5.7-8.6-7.9-.2-.1-.5-.3-.6-.4-.1 4.4.8 8.5 2.3 12z" fill="#9b049b" data-color="1"></path>
        <path d="M103.9 122.9c-1.1-1.7-2-3.5-2.7-5.5-.4.3-.7.5-1.2.5s-.8-.2-1.2-.5c-.7 1.9-1.6 3.7-2.7 5.5.5 4 1.8 7.9 3.9 11.7 2.1-3.7 3.5-7.7 3.9-11.7z" fill="#9b049b" data-color="1"></path>
        <path d="M114.9 118c-1.8-.9-3.5-2-5.2-3.3-.2.4-.5.7-.8.9-.4.2-.8.3-1.2.2.3 1.5.4 2.9.4 4.4 0 .5-.1 1.1-.1 1.6 2.3 3.1 5.2 5.7 8.6 7.9.2.2.5.3.6.4.1-4.5-.7-8.6-2.3-12.1z" fill="#9b049b" data-color="1"></path>
        <path d="M91.9 121.7c0-.5-.1-1.1-.1-1.6 0-1.5.2-2.9.4-4.4-.5 0-.8 0-1.2-.2s-.6-.5-.8-.9c-1.6 1.3-3.4 2.5-5.2 3.4-1.5 3.6-2.4 7.8-2.5 12.1.2-.1.5-.3.6-.4 3.6-2.2 6.5-4.9 8.8-8z" fill="#9b049b" data-color="1"></path>
        <path d="M148.5 111.5c-3-3.5-6.4-6.6-10-9.2-3.6 2.3-7.5 3.9-11.5 4.9 2.3 2.2 4.3 4.6 6 7.4.5.8 1 1.7 1.5 2.5 5.2-.5 10.5-1.7 15.5-3.7-.5-.6-1-1.2-1.5-1.9z" fill="#9b049b" data-color="1"></path>
        <path d="M130 117.4c-.1-.2-.3-.5-.4-.6-2.2-3.5-4.8-6.5-7.9-8.6-.5 0-1.1.1-1.6.1-1.5 0-2.9-.2-4.4-.4 0 .4 0 .8-.2 1.2-.2.4-.5.6-.9.8 1.3 1.6 2.4 3.4 3.3 5.2 3.6 1.4 7.7 2.3 12.1 2.3z" fill="#9b049b" data-color="1"></path>
        <path d="M88.4 148.5c3.5-3 6.6-6.4 9.2-10-2.3-3.6-3.9-7.5-4.9-11.5-2.2 2.3-4.6 4.3-7.4 6-.8.5-1.7 1-2.5 1.5.5 5.2 1.7 10.5 3.7 15.5.7-.5 1.3-1 1.9-1.5z" fill="#9b049b" data-color="1"></path>
        <path d="M111.5 148.5c.6.5 1.3 1 1.9 1.5 2-5 3.4-10.3 3.8-15.5-.9-.5-1.8-1-2.6-1.5-2.7-1.7-5.2-3.7-7.4-6-.9 4-2.6 7.8-4.9 11.5 2.6 3.6 5.7 7 9.2 10z" fill="#9b049b" data-color="1"></path>
        <path d="M153.7 111.7c.3-.1.5-.2.8-.4.6-.4 1.4-.7 2-1 3.9-3.6 7.2-7.1 9.7-10.4-2.5-3.2-5.7-6.6-9.6-10.3-.9-.5-1.9-1-2.8-1.5-.7 1-1.5 1.9-2.3 2.8-2.9 3.4-6.1 6.4-9.5 8.9 3.5 2.5 6.7 5.6 9.5 8.9.9 1.1 1.5 2.1 2.2 3z" fill="#9b049b" data-color="1"></path>
        <path d="M144 137.2c5.2-1.2 9.6-2.5 13.5-4.1-.6-4.1-1.6-8.7-3.3-13.9-.5-.9-1.1-1.7-1.7-2.5-5.2 2.2-10.6 3.6-16.1 4.3 2.2 5 3.6 10.5 4.4 16.1 1 .1 2.1.1 3.2.1z" fill="#9b049b" data-color="1"></path>
        <path fill="#9b049b" d="M109.7 100c0 5.357-4.343 9.7-9.7 9.7-5.357 0-9.7-4.343-9.7-9.7 0-5.357 4.343-9.7 9.7-9.7 5.357 0 9.7 4.343 9.7 9.7z" data-color="1"></path>
    </g>
</svg>