<svg preserveAspectRatio="xMidYMid meet" data-bbox="25 24.4 150.2 151.2" viewBox="25 24.4 150.2 151.2" xmlns="http://www.w3.org/2000/svg" data-type="color" role="presentation" aria-hidden="true" aria-label=""><defs><style>
path{
    fill: #fff
}
</style></defs>
    <g>
        <path d="M116.2 89.5c-.1 1.2-.2 2.5-.3 3.7 1 .9 1.9 1.6 2.9 2.5 4.3-3.4 8.6-6.4 13-9.1-4.9 1.4-10.2 2.3-15.6 2.9z" fill="#9b049b" data-color="1"></path>
        <path d="M99.7 75.6c.1.1.2.3.3.3 5.2-6.4 9.8-12.8 14-18.5 1.6-3.8 2.4-7.5 2.4-10.9 0-4.2-1.2-8.1-3.9-11.9-2.6-3.6-6.7-7-12.5-10.2-5.8 3.2-9.8 6.7-12.4 10.3-2.7 3.8-3.9 7.7-3.9 11.9 0 3.5.9 7.2 2.4 11 4 5.6 8.6 11.8 13.6 18z" fill="#9b049b" data-color="1"></path>
        <path d="M116.2 110.3c5.5.6 10.7 1.6 15.7 2.9-4.4-2.6-8.8-5.7-13.1-9.1-1 .8-1.9 1.6-2.9 2.4.2 1.3.2 2.5.3 3.8z" fill="#9b049b" data-color="1"></path>
        <path d="M151.5 71c2.3-3.3 3.6-7.4 3.6-12.6 0-3.5-.6-7.5-1.9-11.9-4.5-1.3-8.4-1.9-11.8-1.9-5.2 0-9.2 1.3-12.5 3.6-3.3 2.3-6 5.6-8 9.9-.3.6-.6 1.3-.9 2-1.1 6.9-2.3 14.7-3.1 22.9 8.2-.9 16-2.1 22.9-3.1 5.1-2.1 9.1-5 11.7-8.9z" fill="#9b049b" data-color="1"></path>
        <path d="M95.9 118.7c-.8-1-1.6-1.9-2.4-2.9-1.2.1-2.5.2-3.7.3-.6 5.5-1.6 10.7-2.9 15.7 2.6-4.3 5.6-8.7 9-13.1z" fill="#9b049b" data-color="1"></path>
        <path d="M110.4 116.1c-1.2-.1-2.5-.2-3.7-.3-.9 1-1.6 1.9-2.4 2.9 3.4 4.3 6.4 8.7 9 13.2-1.3-5-2.3-10.3-2.9-15.8z" fill="#9b049b" data-color="1"></path>
        <path d="M83.9 110.3c.1-1.2.2-2.5.3-3.7-1-.9-1.9-1.6-2.9-2.5-4.3 3.4-8.6 6.4-13.1 9.1 5-1.3 10.3-2.3 15.7-2.9z" fill="#9b049b" data-color="1"></path>
        <path d="M83.8 89.5c-5.5-.6-10.6-1.6-15.6-2.9 4.4 2.6 8.8 5.6 13 9.1 1-.8 1.9-1.6 2.9-2.4-.1-1.3-.1-2.5-.3-3.8z" fill="#9b049b" data-color="1"></path>
        <path d="M113.3 68c-2.6 4.4-5.6 8.8-9 13.1.8 1 1.6 1.9 2.4 2.9 1.3-.1 2.5-.2 3.7-.3.6-5.5 1.6-10.7 2.9-15.7z" fill="#9b049b" data-color="1"></path>
        <path d="M93.4 84c.8-1 1.6-1.9 2.4-2.9-3.4-4.2-6.4-8.7-9-13.1 1.3 5 2.3 10.2 2.9 15.7 1.3.1 2.5.2 3.7.3z" fill="#9b049b" data-color="1"></path>
        <path d="M100 109.4c1.3 0 2.6.1 4 .1.9-1 1.8-1.9 2.7-2.9 1-1 1.9-1.8 2.9-2.7 0-1.3-.1-2.6-.1-4 0-1.3.1-2.6.1-4-1-1-1.9-1.8-2.9-2.7-1-1-1.8-1.9-2.7-2.9-1.3 0-2.6.1-4 .1s-2.6-.1-4-.1c-.9 1-1.8 1.9-2.7 2.9-1 1-1.9 1.8-2.9 2.7 0 1.3.1 2.6.1 4s-.1 2.6-.1 4c1 .9 1.9 1.8 2.9 2.7 1 1 1.8 1.9 2.7 2.9 1.4-.1 2.8-.1 4-.1z" fill="#9b049b" data-color="1"></path>
        <path d="M58.5 79c.6.3 1.4.6 2 .9 6.9 1.1 14.7 2.3 22.7 3.1-.9-8.1-2.1-16-3.1-22.9-2.1-5.1-5-9.2-8.7-11.8-3.3-2.3-7.4-3.6-12.5-3.6-3.5 0-7.5.6-11.8 1.9-1.3 4.5-1.9 8.4-1.9 11.9 0 5.2 1.3 9.3 3.6 12.6 2.1 3.3 5.4 5.9 9.7 7.9z" fill="#9b049b" data-color="1"></path>
        <path d="M57.9 113.9c5.6-4 11.7-8.7 18-13.7.1-.1.3-.2.3-.3-6.4-5.2-12.8-9.9-18.4-14-3.8-1.6-7.5-2.4-10.8-2.4-4.2 0-8.1 1.2-11.8 3.9-3.6 2.6-7 6.7-10.2 12.6 3.2 5.9 6.7 10 10.2 12.6 3.8 2.7 7.7 3.9 11.8 3.9 3.5-.1 7.1-1.1 10.9-2.6z" fill="#9b049b" data-color="1"></path>
        <path d="M164.9 87.3c-3.8-2.7-7.7-3.9-11.8-3.9-3.5 0-7.1.9-10.8 2.4-5.6 4.1-11.7 8.7-18 13.7-.1.1-.3.2-.3.3 6.4 5.1 12.7 9.9 18.3 14 3.8 1.6 7.5 2.5 10.9 2.5 4.2 0 8.1-1.2 11.8-3.9 3.6-2.6 7-6.7 10.2-12.6-3.3-5.8-6.7-9.9-10.3-12.5z" fill="#9b049b" data-color="1"></path>
        <path d="M48.6 128.8c-2.3 3.3-3.6 7.4-3.6 12.6 0 3.5.6 7.5 1.9 11.9 4.5 1.3 8.3 1.9 11.8 1.9 5.2 0 9.2-1.3 12.5-3.6s5.9-5.6 8-9.9l.9-2.1c1.1-6.8 2.3-14.6 3.1-22.8-8.2.9-16 2.1-22.9 3.2-5.1 2.1-9.1 5-11.7 8.8z" fill="#9b049b" data-color="1"></path>
        <path d="M141.6 120.8c-.6-.3-1.3-.6-2-.9-6.9-1.1-14.7-2.3-22.8-3.1.9 8.1 2.1 16 3.1 23 2.1 5.1 5 9.2 8.8 11.8 3.3 2.3 7.4 3.6 12.5 3.6 3.5 0 7.5-.6 11.8-1.9 1.3-4.5 1.9-8.4 1.9-11.9 0-5.2-1.3-9.3-3.6-12.6-2.1-3.4-5.4-6-9.7-8z" fill="#9b049b" data-color="1"></path>
        <path d="M100.3 124.2c-.1-.1-.2-.3-.3-.3-5.1 6.4-9.8 12.7-13.9 18.5-1.6 3.8-2.5 7.5-2.5 11 0 4.2 1.2 8.1 3.9 11.9 2.6 3.6 6.7 7 12.5 10.3 5.9-3.2 9.9-6.7 12.5-10.3 2.7-3.8 3.9-7.7 3.9-11.9 0-3.5-.9-7.2-2.4-10.9-4-5.8-8.6-12.1-13.7-18.3z" fill="#9b049b" data-color="1"></path>
    </g>
</svg>