<svg width="135" height="108" viewBox="0 0 135 108" fill="none" xmlns="http://www.w3.org/2000/svg">
<path d="M61.4851 108C59.8062 108 58.1121 107.913 56.4519 107.743C55.2127 107.616 54.3092 106.489 54.4342 105.226C54.5581 103.964 55.6634 103.042 56.9032 103.17C60.0164 103.489 63.2279 103.479 66.3447 103.14C67.584 102.999 68.6935 103.92 68.8263 105.182C68.9586 106.443 68.0619 107.576 66.8237 107.71C65.0611 107.903 63.265 108 61.4851 108ZM46.9769 105.696C46.7489 105.696 46.5163 105.661 46.2872 105.586C42.9926 104.508 39.7973 103.069 36.7897 101.309C35.71 100.677 35.3367 99.2724 35.9573 98.1724C36.5769 97.0719 37.9552 96.6925 39.0344 97.3229C41.768 98.9228 44.6721 100.23 47.6655 101.209C48.8509 101.597 49.5029 102.891 49.1228 104.1C48.8159 105.075 47.9301 105.696 46.9769 105.696ZM76.2705 105.606C75.3225 105.606 74.4399 104.991 74.1288 104.024C73.7408 102.817 74.385 101.519 75.5683 101.124C78.5565 100.125 81.4517 98.7986 84.1743 97.1833C85.2483 96.5448 86.6302 96.9163 87.2571 98.0131C87.8836 99.1098 87.5191 100.516 86.443 101.155C83.4485 102.933 80.2626 104.391 76.9743 105.491C76.7405 105.568 76.5032 105.606 76.2705 105.606ZM29.8799 95.699C29.3445 95.699 28.8075 95.5061 28.3772 95.1139C25.7952 92.7594 23.4496 90.124 21.4046 87.2808C20.6679 86.257 20.8859 84.8191 21.8899 84.0693C22.8948 83.32 24.3061 83.5406 25.0407 84.5633C26.9016 87.1497 29.035 89.5468 31.3837 91.6882C32.3118 92.535 32.3913 93.9878 31.5615 94.9332C31.1155 95.4411 30.4985 95.699 29.8799 95.699ZM93.3042 95.5035C92.6898 95.5035 92.077 95.2487 91.6326 94.7478C90.7965 93.8071 90.8676 92.3538 91.7905 91.5027C94.1251 89.3475 96.2454 86.9376 98.0911 84.3379C98.8221 83.3104 100.232 83.0818 101.24 83.8242C102.249 84.5687 102.474 86.0055 101.744 87.0335C99.7141 89.8906 97.3837 92.5403 94.8169 94.9092C94.385 95.3073 93.8438 95.5035 93.3042 95.5035ZM18.2318 79.5004C17.3722 79.5004 16.5508 78.9968 16.1748 78.1457C14.7526 74.9273 13.6609 71.5453 12.9304 68.0951C12.6679 66.8549 13.4418 65.6318 14.6585 65.3643C15.8768 65.0968 17.0752 65.8855 17.3377 67.1257C18.0018 70.2615 18.9937 73.3338 20.2862 76.2586C20.7976 77.4156 20.2914 78.7767 19.1563 79.2974C18.8556 79.4354 18.5414 79.5004 18.2318 79.5004ZM104.858 79.2292C104.552 79.2292 104.242 79.1663 103.946 79.032C102.807 78.5172 102.293 77.1603 102.798 76.0001C104.073 73.0674 105.046 69.9875 105.69 66.8469C105.945 65.6052 107.142 64.8101 108.358 65.0685C109.577 65.3286 110.358 66.5458 110.104 67.7881C109.394 71.2447 108.323 74.6337 106.919 77.8617C106.547 78.7197 105.723 79.2292 104.858 79.2292ZM14.0677 59.8692C12.8222 59.8692 11.8125 58.8401 11.8125 57.5706V57.3718C11.8125 53.8289 12.1738 50.2897 12.887 46.8533C13.1448 45.611 14.3395 44.8164 15.5589 45.0802C16.7767 45.3419 17.5557 46.5618 17.298 47.8035C16.6501 50.9287 16.3218 54.1476 16.3218 57.3718V57.5706C16.3223 58.8401 15.3126 59.8692 14.0677 59.8692ZM108.902 59.5702C107.659 59.5702 106.65 58.5448 106.648 57.277C106.642 54.0527 106.307 50.8348 105.652 47.7118C105.393 46.4706 106.169 45.2497 107.386 44.9837C108.612 44.7199 109.803 45.5108 110.063 46.751C110.782 50.1863 111.151 53.7244 111.157 57.2674C111.159 58.5363 110.152 59.5675 108.907 59.5697C108.905 59.5702 108.903 59.5702 108.902 59.5702ZM18.1497 40.0205C17.8439 40.0205 17.5322 39.9566 17.2337 39.8212C16.0954 39.3048 15.5845 37.9458 16.0917 36.7872C17.4988 33.5677 19.2467 30.4863 21.287 27.626C22.0201 26.599 23.4292 26.372 24.4368 27.1186C25.4433 27.8648 25.6666 29.3026 24.9346 30.3291C23.0794 32.9293 21.4904 35.732 20.2104 38.6573C19.8365 39.5126 19.0125 40.0205 18.1497 40.0205ZM104.781 39.9315C103.92 39.9315 103.097 39.4252 102.722 38.5731C101.438 35.6504 99.8438 32.8525 97.985 30.2571C97.2504 29.2323 97.471 27.7944 98.4765 27.0462C99.4809 26.2979 100.892 26.5212 101.626 27.5477C103.671 30.4015 105.424 33.4792 106.837 36.6939C107.347 37.8525 106.838 39.2115 105.702 39.7306C105.402 39.8676 105.089 39.9315 104.781 39.9315ZM29.7398 23.7697C29.1238 23.7697 28.51 23.5139 28.0645 23.0108C27.2305 22.0685 27.3042 20.6152 28.2292 19.7652C30.8028 17.3995 33.6248 15.304 36.6167 13.5373C37.6933 12.8999 39.0726 13.2762 39.6974 14.374C40.3217 15.4719 39.9542 16.8783 38.8765 17.5141C36.157 19.1203 33.5903 21.0261 31.2488 23.1786C30.818 23.5746 30.2778 23.7697 29.7398 23.7697ZM93.162 23.7079C92.625 23.7079 92.0864 23.5139 91.6561 23.119C89.3105 20.9712 86.74 19.0708 84.0153 17.4682C82.9371 16.8346 82.5675 15.4287 83.1892 14.3292C83.8104 13.2298 85.1881 12.8519 86.2684 13.4877C89.2645 15.2491 92.0911 17.3393 94.6689 19.7002C95.5949 20.5486 95.6718 22.0014 94.8394 22.9452C94.3944 23.4504 93.78 23.7079 93.162 23.7079ZM46.7923 13.7057C45.8423 13.7057 44.9586 13.0891 44.6491 12.1186C44.2637 10.9121 44.911 9.61542 46.0948 9.22211C49.3847 8.13066 52.8007 7.39094 56.2491 7.02268C57.4888 6.8969 58.5957 7.80769 58.7259 9.06969C58.8551 10.3317 57.9562 11.4615 56.7181 11.5942C53.5845 11.9289 50.4802 12.6009 47.4909 13.5927C47.2593 13.6689 47.024 13.7057 46.7923 13.7057ZM76.0875 13.6759C75.8574 13.6759 75.6242 13.6396 75.3936 13.5634C72.4033 12.578 69.2964 11.9124 66.1602 11.5841C64.9215 11.4541 64.0205 10.3258 64.1476 9.06276C64.2752 7.80077 65.3743 6.88465 66.6213 7.01149C70.0713 7.37335 73.4898 8.10615 76.7808 9.19067C77.9651 9.58078 78.6151 10.8758 78.2323 12.084C77.9238 13.0571 77.0391 13.6759 76.0875 13.6759Z" fill="#FFDC0D"/>
<path d="M133.858 0C104.9 13.8958 81.7052 35.9493 61.3466 60.0858C50.133 52.9151 38.5259 46.5025 25.7577 42.2122L24.7273 43.359C36.0737 53.9343 52.3445 68.5203 64.049 79C87.0364 54.4444 112.765 26.1568 135 1.03751L133.858 0Z" fill="#FFDC0D"/>
</svg>
