<svg width="265" height="26" viewBox="0 0 265 26" fill="none" xmlns="http://www.w3.org/2000/svg">
<path d="M16.6406 9.29666L16.933 6.89912L14.8862 6.686C14.0622 6.60608 13.2382 6.52617 12.4142 6.49953C11.7231 6.47289 10.9522 6.52617 10.2345 6.71264C9.38391 6.92576 8.58647 7.35199 8.08143 8.07125C7.54981 8.84379 7.44348 9.88273 7.44348 11.1614V14.9708C7.44348 16.3028 7.78904 17.2885 8.50673 17.9544C9.46365 18.8335 10.9522 19.0999 12.2015 19.0467L17.2519 18.7536V13.7987C18.9531 13.559 20.7607 13.0262 20.7607 12.6799C20.7607 12.2003 17.4646 11.4012 15.5773 11.4012H12.0686C11.9357 11.4012 11.856 11.5077 11.856 11.6143V12.6532V13.6922C11.856 13.8253 11.9623 13.9053 12.0686 13.9053H14.7267V16.436L11.5636 16.5426C10.7395 16.5426 10.1813 16.0098 10.1813 15.2905C10.1813 14.8643 10.1813 11.4012 10.1813 10.6553C10.1813 9.64297 10.6066 9.11018 11.6167 9.00363C12.5737 8.89707 13.7698 9.03027 14.7267 9.11018L16.6406 9.29666Z" fill="#090909"/>
<path d="M25.9432 13C25.9432 5.80738 20.122 0 12.9716 0C5.82128 0 0 5.83402 0 13C0 20.1926 5.82128 26 12.9716 26C20.122 26 25.9432 20.1926 25.9432 13ZM23.1788 13C23.1788 18.6475 18.6068 23.2295 12.9716 23.2295C7.33641 23.2295 2.79102 18.6475 2.79102 13C2.79102 7.35246 7.36299 2.77049 12.9982 2.77049C18.6334 2.77049 23.1788 7.35246 23.1788 13Z" fill="#090909"/>
<path d="M181.684 3.77418V21.7047H182.283V3.77418H181.684Z" fill="#090909"/>
<path d="M219.514 3.77418V21.7047H220.113V3.77418H219.514Z" fill="#090909"/>
<path d="M170.454 13.1829V9.17618H168.031C167.626 9.17618 167.187 9.21662 166.807 9.36684C166.519 9.48239 166.308 9.67016 166.154 9.9417C165.951 10.2999 165.906 10.7852 165.906 11.1896C165.906 11.5912 165.954 12.0707 166.157 12.426C166.311 12.6976 166.53 12.8825 166.819 12.9951C167.195 13.1453 167.632 13.1858 168.034 13.1858H170.454V13.1829ZM170.454 15.3639H168.825L165.977 20.0061H162.864L166.057 15.1212C165.586 15.0201 165.132 14.8439 164.727 14.5724C164.182 14.2026 163.771 13.7058 163.508 13.0991C163.232 12.4607 163.126 11.7645 163.126 11.0683C163.123 10.297 163.263 9.53439 163.634 8.85264C164.005 8.16511 164.584 7.67692 165.281 7.35049C166.122 6.95473 167.113 6.83917 168.034 6.83917H173.148V20.009H170.454V15.3639ZM151.66 15.5372L157.61 6.83629H159.876V20.0061H157.182V11.3052L151.232 20.0061H148.966V6.83629H151.66V15.5372ZM140.525 9.31773V20.0061H137.832V6.83629H145.719V9.31773H140.525ZM125.706 11.8396V15.0201C125.706 15.5719 125.801 16.1352 126.072 16.6205C126.309 17.0452 126.645 17.3571 127.079 17.5709C127.601 17.828 128.195 17.9118 128.771 17.9118C129.576 17.9118 130.481 17.7616 131.088 17.1752C131.671 16.6118 131.836 15.8088 131.836 15.0201V11.8396C131.836 11.3023 131.745 10.7708 131.494 10.2912C131.265 9.85504 130.929 9.53439 130.501 9.30328C129.975 9.02019 129.356 8.92775 128.771 8.92775C128.206 8.92775 127.633 9.02019 127.125 9.27729C126.685 9.49972 126.337 9.82037 126.086 10.2479C125.806 10.7332 125.706 11.285 125.706 11.8396ZM122.961 14.8959V11.9956C122.961 11.2648 123.078 10.5455 123.349 9.86659C123.606 9.21662 123.989 8.64176 124.491 8.15934C125.019 7.65381 125.646 7.2956 126.331 7.05005C127.11 6.76984 127.947 6.65718 128.771 6.65718C129.599 6.65718 130.432 6.76695 131.211 7.05005C131.893 7.2956 132.524 7.65381 133.052 8.15934C133.554 8.64176 133.936 9.21373 134.193 9.8637C134.461 10.5426 134.578 11.2619 134.578 11.9927V14.893C134.578 15.621 134.461 16.3374 134.196 17.0134C133.939 17.6605 133.56 18.2238 133.055 18.7004C132.524 19.2002 131.899 19.5555 131.217 19.7953C130.432 20.0697 129.596 20.1766 128.771 20.1766C127.944 20.1766 127.108 20.0697 126.326 19.7953C125.644 19.5555 125.016 19.2002 124.488 18.7004C123.986 18.2238 123.603 17.6605 123.346 17.0134C123.078 16.3403 122.961 15.6239 122.961 14.8959ZM116.886 9.28307H112.956V15.2946C112.956 16.8198 112.163 18.7986 111.09 19.8819L110.965 20.0061H107.674L108.405 19.2695C109.484 18.1833 110.317 16.8834 110.317 15.2946C110.317 12.6196 110.317 9.94459 110.317 7.26671V6.83629H110.742C113.59 6.83629 116.438 6.83629 119.286 6.83629H119.711V20.0061H116.883V9.28307H116.886Z" fill="#090909"/>
<path d="M46.29 14.8988V11.9985C46.29 11.2676 46.407 10.5483 46.6753 9.86948C46.9321 9.21951 47.3145 8.64465 47.8167 8.16222C48.3447 7.65669 48.9753 7.29848 49.6573 7.05294C50.4392 6.77273 51.2725 6.66296 52.0972 6.66296C52.9247 6.66296 53.758 6.77273 54.537 7.05294C55.2191 7.29848 55.8497 7.65669 56.3776 8.16222C56.8799 8.64465 57.2623 9.21662 57.5191 9.86948C57.7873 10.5483 57.9043 11.2676 57.9043 11.9985V14.8988C57.9043 15.6268 57.7873 16.3432 57.5219 17.0192C57.2651 17.6662 56.8856 18.2295 56.3805 18.7062C55.8497 19.2059 55.2248 19.5613 54.5427 19.801C53.7608 20.0755 52.9247 20.1823 52.0972 20.1823C51.2696 20.1823 50.4335 20.0755 49.6516 19.801C48.9696 19.5613 48.3418 19.2059 47.8139 18.7062C47.3116 18.2295 46.9293 17.6662 46.6724 17.0192C46.407 16.3403 46.29 15.6239 46.29 14.8988ZM49.0381 11.8396V15.0201C49.0381 15.5719 49.1323 16.1352 49.4034 16.6205C49.6402 17.0452 49.9769 17.3571 50.4107 17.5709C50.9329 17.828 51.5265 17.9118 52.1029 17.9118C52.9105 17.9118 53.8122 17.7616 54.42 17.1751C55.0022 16.6118 55.1677 15.8088 55.1677 15.0201V11.8396C55.1677 11.3023 55.0764 10.7708 54.8253 10.2912C54.597 9.85504 54.2602 9.53438 53.8322 9.30328C53.3071 9.02018 52.6907 8.92774 52.1029 8.92774C51.5379 8.92774 50.9643 9.02307 50.4535 9.27728C50.014 9.49972 49.6659 9.82037 49.4148 10.2479C49.138 10.7332 49.0381 11.2879 49.0381 11.8396Z" fill="#090909"/>
<path d="M69.199 17.2069L69.7098 19.359L69.3445 19.4861C69.0164 19.6017 68.6853 19.7028 68.3515 19.7981C67.9748 19.905 67.5895 19.9975 67.2043 20.0668C66.7991 20.139 66.3882 20.1766 65.9772 20.1794C64.5276 20.1823 63.0466 19.8588 61.9821 18.7957C60.9235 17.7384 60.5981 16.2507 60.5981 14.7919V12.0505C60.5981 10.5917 60.9263 9.11261 61.9793 8.05243C63.0408 6.98359 64.5219 6.65716 65.9744 6.66005C66.3824 6.66005 66.7905 6.69472 67.1957 6.75827C67.5838 6.82182 67.9719 6.9056 68.3515 7.01248C68.6939 7.1107 69.0363 7.22336 69.3645 7.35913L69.7184 7.50357L69.1248 9.64992L68.6882 9.47948C68.3971 9.36682 68.0975 9.2686 67.7978 9.18483C67.4897 9.09816 67.1758 9.02595 66.859 8.97106C66.5679 8.92195 66.274 8.89306 65.9772 8.89306C65.455 8.89306 64.8928 8.97972 64.442 9.27149C64.051 9.5257 63.7856 9.88102 63.6116 10.3172C63.3947 10.8661 63.3262 11.4814 63.3262 12.0678V14.7919C63.3262 15.2281 63.3662 15.6672 63.4774 16.089C63.5716 16.4472 63.7172 16.7823 63.9398 17.0798C64.1481 17.3571 64.4134 17.5651 64.7273 17.7096C65.1154 17.8887 65.552 17.9493 65.9772 17.9493C66.274 17.9493 66.5736 17.9118 66.8676 17.8598C67.1957 17.7991 67.5211 17.724 67.8435 17.6344C68.1517 17.5478 68.4599 17.4553 68.7652 17.3571L69.199 17.2069Z" fill="#090909"/>
<path d="M75.6621 9.31772V20.0061H72.9683V6.83628H80.8557V9.31772H75.6621Z" fill="#090909"/>
<path d="M86.5176 14.1506V17.7182H92.1963V20.0061H83.8237V6.83628H92.1963V9.12418H86.5176V11.9003H91.3973V14.1506H86.5176Z" fill="#090909"/>
<path d="M95.4463 14.8988V11.9985C95.4463 11.2676 95.5633 10.5483 95.8315 9.86948C96.0883 9.21951 96.4707 8.64465 96.973 8.16222C97.5009 7.65669 98.1316 7.29848 98.8136 7.05294C99.5955 6.77273 100.429 6.66296 101.253 6.66296C102.081 6.66296 102.914 6.77273 103.693 7.05294C104.375 7.29848 105.006 7.65669 105.534 8.16222C106.036 8.64465 106.418 9.21662 106.675 9.86948C106.944 10.5483 107.061 11.2676 107.061 11.9985V14.8988C107.061 15.6268 106.944 16.3432 106.675 17.0192C106.418 17.6662 106.039 18.2295 105.534 18.7062C105.003 19.2059 104.378 19.5613 103.696 19.801C102.914 20.0755 102.075 20.1823 101.251 20.1823C100.423 20.1823 99.5869 20.0755 98.805 19.801C98.123 19.5613 97.4952 19.2059 96.9673 18.7062C96.465 18.2295 96.0827 17.6662 95.8258 17.0192C95.5604 16.3403 95.4463 15.6239 95.4463 14.8988ZM98.1915 11.8396V15.0201C98.1915 15.5719 98.2857 16.1352 98.5568 16.6205C98.7936 17.0452 99.1303 17.3571 99.5641 17.5709C100.086 17.828 100.68 17.9118 101.256 17.9118C102.064 17.9118 102.966 17.7616 103.573 17.1751C104.156 16.6118 104.321 15.8088 104.321 15.0201V11.8396C104.321 11.3023 104.23 10.7708 103.979 10.2912C103.75 9.85504 103.414 9.53438 102.986 9.30328C102.461 9.02018 101.841 8.92774 101.256 8.92774C100.691 8.92774 100.118 9.02307 99.6069 9.27728C99.1674 9.49972 98.8193 9.82037 98.5682 10.2479C98.2914 10.7332 98.1915 11.2879 98.1915 11.8396Z" fill="#090909"/>
<path d="M37.0727 15.7683V20.0061H34.3789V6.83628H38.7478C39.4327 6.83628 40.1461 6.87961 40.8138 7.02983C41.3789 7.15693 41.9153 7.37937 42.3691 7.75202C42.8171 8.11889 43.1224 8.60131 43.3136 9.14729C43.5391 9.78859 43.6018 10.5108 43.6018 11.1867C43.6018 11.8772 43.5362 12.5994 43.3165 13.2551C43.1281 13.8184 42.8285 14.3239 42.3862 14.7226C41.941 15.1241 41.4045 15.3783 40.831 15.5314C40.1604 15.7105 39.4384 15.7654 38.7478 15.7654H37.0727V15.7683ZM37.0727 9.03463V13.57H38.7478C39.0389 13.57 39.3271 13.544 39.6096 13.4746C39.8493 13.414 40.0633 13.3042 40.2517 13.1453C40.46 12.972 40.597 12.7236 40.6883 12.4694C40.8338 12.0765 40.8709 11.6056 40.8709 11.1896C40.8709 10.7563 40.8224 10.2392 40.6169 9.85215C40.4628 9.56616 40.2517 9.36106 39.9549 9.23684C39.5811 9.08085 39.1473 9.03751 38.7478 9.03751H37.0727V9.03463Z" fill="#090909"/>
<path d="M195.338 6.51564V18.2324H191.928V6.51564H190.821V19.2984H196.083V21.7047H197.082V18.2324H196.448V6.51564H195.338ZM204.047 7.54403V6.51564H198.968V19.2984H200.075V7.54403H204.047ZM205.389 16.9845C205.486 17.7933 205.777 18.4029 206.259 18.8131C206.741 19.2233 207.372 19.4284 208.145 19.4284C209.076 19.4284 209.78 19.1742 210.26 18.6658C210.736 18.1573 210.976 17.3658 210.976 16.2883V9.60372C210.976 9.13863 210.927 8.71109 210.833 8.31822C210.739 7.92535 210.588 7.59025 210.38 7.30715C210.171 7.02694 209.892 6.80451 209.543 6.64563C209.192 6.48675 208.764 6.40586 208.256 6.40586C207.435 6.40586 206.775 6.61674 206.279 7.0385C205.782 7.46026 205.486 8.06979 205.389 8.86708L206.476 9.12418C206.536 8.58687 206.718 8.168 207.021 7.87624C207.323 7.58158 207.711 7.43426 208.182 7.43426C209.307 7.43426 209.869 8.10445 209.869 9.44484V12.2094H206.804V13.31H209.869V16.2392C209.869 16.5194 209.84 16.7881 209.786 17.0452C209.732 17.3023 209.638 17.5305 209.506 17.7327C209.372 17.9349 209.201 18.0967 208.99 18.218C208.779 18.3393 208.508 18.4 208.182 18.4C207.723 18.4 207.343 18.2671 207.049 18.0042C206.753 17.7413 206.576 17.3225 206.513 16.7476L205.389 16.9845Z" fill="#090909"/>
<path d="M230.892 19.4255C230.047 19.4255 229.43 19.1828 229.04 18.7004C228.649 18.218 228.44 17.5333 228.415 16.6522L229.522 16.4876C229.522 17.0624 229.613 17.5247 229.793 17.8742C229.976 18.2237 230.349 18.3971 230.917 18.3971C231.305 18.3971 231.619 18.2815 231.862 18.0475C232.104 17.8135 232.23 17.4149 232.244 16.8516L232.281 13.4255C232.281 12.9575 232.164 12.6224 231.927 12.4115C231.691 12.2036 231.374 12.0996 230.974 12.0996C230.672 12.0996 230.406 12.166 230.175 12.3018C229.944 12.4375 229.776 12.6195 229.667 12.8535H228.689V6.51848H233.351V7.54688H229.667V11.7154H229.736C229.916 11.5305 230.147 11.3918 230.424 11.2936C230.7 11.1954 230.997 11.1463 231.308 11.1463C231.996 11.1463 232.51 11.3427 232.852 11.7327C233.194 12.1256 233.368 12.6195 233.368 13.2204L233.331 16.8025C233.32 17.6835 233.095 18.3422 232.652 18.7755C232.213 19.2088 231.625 19.4255 230.892 19.4255Z" fill="#090909"/>
<path d="M237.549 19.4255C236.704 19.4255 236.088 19.1828 235.697 18.7004C235.306 18.218 235.097 17.5333 235.072 16.6522L236.179 16.4876C236.179 17.0624 236.27 17.5247 236.45 17.8742C236.633 18.2237 237.007 18.3971 237.574 18.3971C237.963 18.3971 238.276 18.2815 238.519 18.0475C238.762 17.8135 238.887 17.4149 238.901 16.8516L238.938 13.4255C238.938 12.9575 238.821 12.6224 238.585 12.4115C238.348 12.2036 238.031 12.0996 237.631 12.0996C237.329 12.0996 237.064 12.166 236.832 12.3018C236.601 12.4375 236.433 12.6195 236.325 12.8535H235.346V6.51848H240.009V7.54688H236.325V11.7154H236.393C236.573 11.5305 236.804 11.3918 237.081 11.2936C237.358 11.1954 237.654 11.1463 237.965 11.1463C238.653 11.1463 239.167 11.3427 239.509 11.7327C239.852 12.1256 240.026 12.6195 240.026 13.2204L239.989 16.8025C239.977 17.6835 239.752 18.3422 239.309 18.7755C238.87 19.2088 238.282 19.4255 237.549 19.4255Z" fill="#090909"/>
<path d="M246.9 12.9344C246.9 14.0871 246.866 15.0375 246.801 15.7856C246.735 16.5338 246.621 17.152 246.464 17.6431C246.307 18.1342 246.093 18.53 245.819 18.8304C245.548 19.1308 245.211 19.4024 244.812 19.6479L244.304 18.8217C244.558 18.6369 244.78 18.4404 244.974 18.2238C245.168 18.01 245.334 17.7182 245.474 17.3514C245.613 16.9845 245.716 16.5078 245.782 15.9185C245.847 15.3321 245.882 14.5724 245.882 13.6422V6.51562H251.09V19.2984H249.982V7.54401H246.898V12.9344H246.9Z" fill="#090909"/>
<path d="M253.013 19.2984V6.51562H258.292V7.54401H254.12V12.2642H257.767V13.2926H254.12V18.27H258.292V19.2984H253.013Z" fill="#090909"/>
<path d="M262.067 7.54401V19.2984H260.923V7.54401H258.654V6.51562H264.333V7.54401H262.067Z" fill="#090909"/>
</svg>
