<svg width="734" height="716" viewBox="0 0 734 716" fill="none" xmlns="http://www.w3.org/2000/svg">
<path d="M344.572 318.076L348.483 286.035L321.107 283.187C310.086 282.119 299.064 281.051 288.043 280.695C278.799 280.339 268.488 281.051 258.889 283.543C247.512 286.391 236.846 292.087 230.091 301.699C222.98 312.024 221.558 325.908 221.558 342.996V393.905C221.558 411.706 226.18 424.878 235.779 433.778C248.579 445.527 268.488 449.087 285.198 448.375L352.75 444.459V378.241C375.504 375.037 399.68 367.917 399.68 363.289C399.68 356.881 355.594 346.2 330.351 346.2H283.421C281.643 346.2 280.577 347.624 280.577 349.048V362.933V376.817C280.577 378.597 281.999 379.665 283.421 379.665H318.974V413.486L276.666 414.91C265.644 414.91 258.178 407.79 258.178 398.178C258.178 392.481 258.178 346.2 258.178 336.232C258.178 322.704 263.867 315.584 277.377 314.16C290.176 312.736 306.175 314.516 318.974 315.584L344.572 318.076Z" fill="#090909"/>
<path d="M469 367.567C469 271.445 391.138 193.835 295.5 193.835C199.862 193.835 122 271.801 122 367.567C122 463.689 199.862 541.299 295.5 541.299C391.138 541.299 469 463.689 469 367.567ZM432.025 367.567C432.025 443.041 370.873 504.274 295.5 504.274C220.127 504.274 159.331 443.041 159.331 367.567C159.331 292.093 220.483 230.86 295.856 230.86C371.228 230.86 432.025 292.093 432.025 367.567Z" fill="#090909"/>
<path d="M0 0L734 0V588H408.544C398.52 588 389.158 582.993 383.592 574.656L0 0Z" fill="#FFDC0D"/>
<path fill-rule="evenodd" clip-rule="evenodd" d="M0 0H734V588H408.544C398.52 588 389.158 582.993 383.592 574.656L354.455 531.005C421.178 506.86 469 442.899 469 367.567C469 271.445 391.138 193.835 295.5 193.835C244.783 193.835 199.064 215.761 167.306 250.64L0 0ZM333.103 499.018L298.772 447.588L352.75 444.459V378.241C375.504 375.037 399.68 367.917 399.68 363.289C399.68 356.881 355.594 346.2 330.351 346.2H283.421C281.643 346.2 280.577 347.624 280.577 349.048V362.933V376.817C280.577 378.597 281.999 379.665 283.421 379.665H318.974V413.486L276.953 414.9L258.178 386.774V336.232C258.178 322.704 263.867 315.584 277.377 314.16C288.531 312.919 302.115 314.111 313.893 315.145C315.631 315.297 317.329 315.446 318.974 315.584L344.572 318.076L348.483 286.035L321.107 283.187C310.086 282.119 299.064 281.051 288.043 280.695C278.799 280.339 268.488 281.051 258.889 283.543C247.512 286.391 236.846 292.087 230.091 301.699C224.53 309.773 222.448 320.025 221.805 332.284L188.765 282.788C213.776 251.159 252.459 230.86 295.856 230.86C371.228 230.86 432.025 292.093 432.025 367.567C432.025 429.982 390.203 482.658 333.103 499.018Z" fill="#090909"/>
<path d="M182.492 153.098L182.492 172.139L189.742 172.139L189.742 153.098L182.492 153.098Z" fill="#FFDC0D"/>
<path d="M271.794 59.2252L258.33 72.6893L263.456 77.8158L276.92 64.3518L271.794 59.2252Z" fill="#FFDC0D"/>
<path d="M661.396 146.863L670.916 163.353L677.195 159.728L667.674 143.238L661.396 146.863Z" fill="#FFDC0D"/>
<path d="M651.862 33.9232L646.934 52.3154L653.937 54.1918L658.865 35.7996L651.862 33.9232Z" fill="#FFDC0D"/>
<path d="M508.398 223.235L491.908 232.755L495.533 239.034L512.023 229.513L508.398 223.235Z" fill="#FFDC0D"/>
<path d="M499 421.003L517.392 425.931L519.269 418.928L500.876 414L499 421.003Z" fill="#FFDC0D"/>
<path d="M491 716H488.6C488.6 706.967 486.331 702.565 483.929 697.904C481.505 693.202 479 688.341 479 678.748C479 669.155 481.505 664.293 483.929 659.592C486.331 654.931 488.6 650.529 488.6 641.496C488.6 632.464 486.331 628.062 483.929 623.402C481.505 618.701 479 613.84 479 604.248C479 594.656 481.505 589.795 483.929 585.094C486.331 580.434 488.6 576.032 488.6 567H491C491 576.592 488.495 581.453 486.071 586.154C483.669 590.814 481.4 595.216 481.4 604.248C481.4 613.28 483.669 617.682 486.071 622.342C488.494 627.043 491 631.904 491 641.496C491 651.089 488.495 655.95 486.071 660.652C483.669 665.312 481.4 669.715 481.4 678.748C481.4 687.781 483.669 692.183 486.071 696.844C488.495 701.546 491 706.407 491 716Z" fill="white"/>
<path d="M524 512.038C524 534.958 509.001 562 490.5 562C471.998 562 457 534.958 457 512.038C457 489.119 471.998 479 490.5 479C509.002 479 524 489.119 524 512.038Z" fill="#FFDC0D"/>
<path d="M496.34 571.093H483L486.214 561H493.127L496.34 571.093Z" fill="#FFDC0D"/>
<path d="M679.56 596.181H676.797C676.797 585.567 674.185 580.394 671.42 574.917C668.631 569.393 665.747 563.68 665.747 552.408C665.747 541.136 668.631 535.423 671.42 529.899C674.185 524.422 676.797 519.249 676.797 508.635C676.797 498.022 674.185 492.85 671.42 487.374C668.631 481.85 665.747 476.138 665.747 464.868C665.747 453.596 668.631 447.885 671.42 442.36C674.185 436.884 676.797 431.712 676.797 421.099H679.56C679.56 432.37 676.676 438.082 673.886 443.606C671.121 449.082 668.51 454.254 668.51 464.868C668.51 475.48 671.121 480.653 673.886 486.128C676.675 491.652 679.56 497.364 679.56 508.635C679.56 519.907 676.676 525.62 673.886 531.144C671.121 536.621 668.51 541.794 668.51 552.408C668.51 563.022 671.121 568.195 673.886 573.672C676.676 579.196 679.56 584.909 679.56 596.181Z" fill="white"/>
<path d="M718.081 355.747C718.081 382.627 700.602 414.342 679.041 414.342C657.479 414.342 640 382.627 640 355.747C640 328.867 657.479 317 679.041 317C700.602 317 718.081 328.867 718.081 355.747Z" fill="#FFDC0D"/>
<path d="M687.587 425.149H672.335L676.01 413.609H683.914L687.587 425.149Z" fill="#FFDC0D"/>
<path d="M582.6 631.181H580.184C580.184 621.897 577.899 617.373 575.481 612.583C573.041 607.751 570.519 602.755 570.519 592.896C570.519 583.037 573.041 578.04 575.481 573.208C577.899 568.418 580.184 563.894 580.184 554.61C580.184 545.328 577.899 540.804 575.481 536.014C573.041 531.183 570.519 526.187 570.519 516.33C570.519 506.472 573.041 501.476 575.481 496.644C577.899 491.855 580.184 487.331 580.184 478.048H582.6C582.6 487.907 580.078 492.902 577.638 497.734C575.22 502.523 572.935 507.047 572.935 516.33C572.935 525.612 575.22 530.136 577.638 534.925C580.077 539.756 582.6 544.752 582.6 554.61C582.6 564.469 580.078 569.466 577.638 574.298C575.22 579.087 572.935 583.612 572.935 592.896C572.935 602.179 575.22 606.704 577.638 611.494C580.078 616.326 582.6 621.322 582.6 631.181Z" fill="white"/>
<path d="M616.292 420.89C616.292 444.4 601.005 472.138 582.146 472.138C563.288 472.138 548 444.4 548 420.89C548 397.379 563.288 387 582.146 387C601.005 387 616.292 397.379 616.292 420.89Z" fill="#FFDC0D"/>
<path d="M589.529 481.465H576.189L579.402 471.372H586.316L589.529 481.465Z" fill="#FFDC0D"/>
<path d="M552 113.979L555.357 117.684C556.495 116.653 557.494 116.702 559.466 116.898L559.467 116.898C561.632 117.114 564.596 117.409 567.429 114.842C570.261 112.276 570.258 109.297 570.257 107.122L570.257 107.12C570.255 105.139 570.304 104.14 571.442 103.109C572.578 102.079 573.576 102.128 575.548 102.326L575.549 102.326C577.713 102.542 580.676 102.838 583.508 100.272C586.34 97.706 586.337 94.7271 586.334 92.5522L586.334 92.5515C586.332 90.57 586.381 89.5714 587.518 88.5413C588.654 87.5119 589.652 87.5607 591.624 87.7586L591.624 87.7587C593.788 87.9749 596.752 88.271 599.583 85.7051L596.226 82C595.09 83.0294 594.093 82.9806 592.121 82.7834C589.957 82.5665 586.993 82.2701 584.161 84.8362C581.329 87.4025 581.332 90.3814 581.334 92.5565L581.334 92.557C581.336 94.5385 581.287 95.5371 580.15 96.5672C579.014 97.5966 578.017 97.5479 576.045 97.35L576.044 97.3499C573.88 97.1337 570.916 96.8376 568.085 99.4036C565.252 101.97 565.255 104.949 565.257 107.125L565.257 107.126C565.258 109.107 565.209 110.106 564.071 111.137C562.933 112.168 561.935 112.119 559.962 111.923L559.962 111.923C557.797 111.707 554.833 111.412 552 113.979Z" fill="white"/>
<path d="M422.276 198.205L426.478 200.914C427.311 199.624 428.288 199.413 430.244 199.092L430.245 199.092C432.391 198.74 435.331 198.258 437.403 195.046C439.475 191.833 438.701 188.957 438.136 186.856L438.136 186.855C437.621 184.941 437.41 183.963 438.243 182.673C439.074 181.385 440.05 181.173 442.006 180.854L442.007 180.854C444.153 180.503 447.092 180.022 449.163 176.81C451.234 173.599 450.46 170.722 449.895 168.622L449.895 168.621C449.38 166.708 449.169 165.73 450.001 164.441C450.832 163.153 451.808 162.942 453.764 162.623L453.764 162.622C455.91 162.271 458.85 161.79 460.921 158.579L456.719 155.869C455.888 157.157 454.912 157.368 452.957 157.688C450.81 158.039 447.87 158.52 445.799 161.731C443.727 164.943 444.501 167.82 445.066 169.92L445.067 169.921C445.581 171.834 445.793 172.811 444.961 174.101C444.13 175.389 443.154 175.6 441.198 175.919L441.197 175.919C439.051 176.271 436.112 176.752 434.041 179.963C431.969 183.176 432.743 186.052 433.308 188.153L433.308 188.154C433.822 190.068 434.033 191.046 433.201 192.336C432.369 193.626 431.391 193.837 429.436 194.158L429.435 194.158C427.288 194.51 424.348 194.992 422.276 198.205Z" fill="white"/>
<path d="M524.959 324.889L527.243 329.337C528.609 328.636 529.561 328.941 531.415 329.641L531.416 329.642C533.451 330.41 536.238 331.463 539.638 329.717C543.038 327.97 543.807 325.092 544.368 322.991L544.368 322.99C544.88 321.075 545.186 320.123 546.552 319.421C547.916 318.721 548.867 319.026 550.72 319.728L550.721 319.728C552.755 320.497 555.541 321.55 558.94 319.804C562.34 318.059 563.108 315.18 563.669 313.079L563.669 313.078C564.18 311.164 564.486 310.212 565.85 309.511C567.214 308.811 568.165 309.116 570.019 309.818L570.019 309.818C572.054 310.587 574.84 311.64 578.239 309.894L575.955 305.447C574.591 306.147 573.64 305.842 571.787 305.141C569.752 304.371 566.966 303.318 563.566 305.063C560.167 306.809 559.399 309.687 558.838 311.789L558.838 311.789C558.327 313.704 558.021 314.656 556.656 315.357C555.293 316.057 554.342 315.752 552.488 315.05L552.487 315.05C550.453 314.281 547.667 313.228 544.268 314.974C540.867 316.72 540.099 319.598 539.538 321.7L539.538 321.7C539.026 323.615 538.72 324.567 537.354 325.269C535.988 325.97 535.036 325.664 533.182 324.964L533.181 324.964C531.146 324.195 528.359 323.143 524.959 324.889Z" fill="white"/>
<path d="M568.807 227.529L572.165 231.234C573.302 230.203 574.301 230.252 576.273 230.448L576.274 230.448C578.439 230.664 581.403 230.959 584.236 228.392C587.068 225.826 587.066 222.847 587.064 220.671L587.064 220.67C587.062 218.688 587.111 217.69 588.249 216.659C589.385 215.629 590.383 215.678 592.355 215.876L592.356 215.876C594.52 216.092 597.483 216.388 600.315 213.822C603.147 211.256 603.144 208.277 603.141 206.102L603.141 206.101C603.139 204.12 603.188 203.121 604.325 202.091C605.461 201.062 606.459 201.111 608.431 201.308L608.431 201.308C610.595 201.525 613.559 201.821 616.391 199.255L613.033 195.55C611.897 196.579 610.9 196.53 608.928 196.333C606.764 196.116 603.8 195.82 600.968 198.386C598.136 200.952 598.139 203.931 598.141 206.106L598.141 206.107C598.143 208.088 598.094 209.087 596.957 210.117C595.821 211.146 594.824 211.098 592.852 210.9L592.851 210.9C590.687 210.684 587.723 210.387 584.892 212.953C582.059 215.52 582.062 218.499 582.064 220.674L582.064 220.675C582.065 222.657 582.016 223.656 580.878 224.687C579.741 225.718 578.742 225.669 576.77 225.473L576.769 225.473C574.604 225.257 571.64 224.962 568.807 227.529Z" fill="white"/>
<path d="M398.47 69.6547L402.672 72.3646C403.504 71.0744 404.481 70.8631 406.437 70.5422L406.438 70.5421C408.584 70.1902 411.524 69.7083 413.596 66.4958C415.668 63.2835 414.894 60.4068 414.329 58.3061L414.329 58.305C413.814 56.3911 413.604 55.4135 414.436 54.1232C415.267 52.8348 416.243 52.6236 418.199 52.3044L418.2 52.3042C420.346 51.9529 423.285 51.4718 425.356 48.2606C427.428 45.0487 426.654 42.1722 426.088 40.072L426.088 40.0713C425.573 38.1579 425.362 37.1806 426.194 35.8914C427.025 34.603 428.001 34.3919 429.957 34.0727L429.957 34.0726C432.104 33.7214 435.043 33.2403 437.114 30.029L432.912 27.3191C432.081 28.6075 431.105 28.8186 429.15 29.1383C427.003 29.489 424.063 29.9699 421.992 33.1815C419.92 36.3933 420.694 39.2699 421.26 41.3703L421.26 41.3708C421.775 43.2842 421.986 44.2615 421.154 45.5507C420.323 46.8391 419.347 47.0502 417.391 47.3695L417.39 47.3696C415.244 47.7208 412.305 48.2019 410.234 51.4133C408.162 54.6257 408.936 57.5026 409.501 59.6031L409.501 59.604C410.015 61.5179 410.226 62.4957 409.394 63.7859C408.562 65.0762 407.584 65.2874 405.629 65.6083L405.628 65.6084C403.481 65.9603 400.541 66.4422 398.47 69.6547Z" fill="white"/>
<path d="M144.845 104.165L149.293 101.881C148.592 100.515 148.897 99.5632 149.597 97.7089L149.598 97.7081C150.366 95.6732 151.419 92.8863 149.672 89.4859C147.926 86.0856 145.048 85.3171 142.947 84.7559L142.946 84.7556C141.031 84.2442 140.079 83.9381 139.377 82.5722C138.677 81.2085 138.982 80.2574 139.684 78.4039L139.684 78.4028C140.453 76.3686 141.506 73.5826 139.76 70.1836C138.015 66.7838 135.136 66.0159 133.035 65.4552L133.034 65.455C131.12 64.9442 130.168 64.6383 129.467 63.2736C128.767 61.9099 129.072 60.9589 129.774 59.1054L129.774 59.1048C130.543 57.0706 131.596 54.2845 129.85 50.8853L125.403 53.1693C126.103 54.533 125.798 55.484 125.097 57.337C124.327 59.3718 123.274 62.1581 125.019 65.5577C126.765 68.9575 129.643 69.7255 131.745 70.2862L131.745 70.2863C133.66 70.7972 134.612 71.103 135.313 72.4677C136.013 73.8314 135.708 74.7825 135.006 76.636L135.006 76.6366C134.237 78.6708 133.184 81.457 134.93 84.8563C136.676 88.2567 139.554 89.0251 141.656 89.5862L141.656 89.5864C143.571 90.0978 144.523 90.4042 145.225 91.7699C145.926 93.1357 145.62 94.0879 144.92 95.942L144.92 95.9426C144.151 97.9777 143.099 100.765 144.845 104.165Z" fill="white"/>
<path d="M293.612 156.259L298.606 156.505C298.682 154.971 299.423 154.3 300.956 153.044L300.957 153.043C302.64 151.665 304.945 149.778 305.133 145.96C305.321 142.142 303.212 140.038 301.673 138.501L301.672 138.5C300.269 137.1 299.598 136.359 299.674 134.825C299.749 133.294 300.489 132.623 302.023 131.369L302.024 131.368C303.707 129.99 306.012 128.104 306.2 124.288C306.388 120.471 304.279 118.366 302.739 116.83L302.739 116.83C301.336 115.43 300.665 114.689 300.74 113.157C300.816 111.626 301.556 110.955 303.09 109.7L303.09 109.7C304.773 108.323 307.078 106.436 307.266 102.62L302.272 102.374C302.197 103.905 301.457 104.576 299.924 105.831C298.24 107.208 295.934 109.094 295.746 112.911C295.558 116.728 297.667 118.833 299.207 120.369L299.207 120.369C300.61 121.769 301.281 122.51 301.206 124.042C301.13 125.573 300.39 126.244 298.856 127.499L298.856 127.499C297.173 128.876 294.867 130.763 294.68 134.579C294.492 138.397 296.6 140.502 298.14 142.038L298.14 142.039C299.543 143.439 300.214 144.181 300.139 145.714C300.063 147.248 299.322 147.919 297.789 149.175L297.788 149.176C296.105 150.554 293.8 152.441 293.612 156.259Z" fill="white"/>
</svg>
