<svg width="526" height="336" viewBox="0 0 526 336" fill="none" xmlns="http://www.w3.org/2000/svg">
<path d="M87.9062 173.287H86.5794C86.5794 168.191 85.3249 165.708 83.9969 163.079C82.6571 160.427 81.272 157.684 81.272 152.273C81.272 146.862 82.6571 144.119 83.9969 141.467C85.3249 138.838 86.5794 136.355 86.5794 131.259C86.5794 126.164 85.3249 123.681 83.9969 121.052C82.6573 118.401 81.272 115.659 81.272 110.248C81.272 104.837 82.6571 102.095 83.9969 99.4432C85.3249 96.8144 86.5794 94.3313 86.5794 89.2363H87.9062C87.9062 94.6472 86.5211 97.3892 85.1813 100.041C83.8533 102.67 82.5988 105.153 82.5988 110.248C82.5988 115.343 83.8533 117.826 85.1813 120.455C86.5209 123.106 87.9062 125.848 87.9062 131.259C87.9062 136.67 86.5209 139.413 85.1813 142.065C83.8533 144.694 82.5988 147.177 82.5988 152.273C82.5988 157.369 83.8533 159.852 85.1813 162.481C86.5211 165.133 87.9062 167.876 87.9062 173.287Z" fill="#090909"/>
<path d="M106.411 57.8633C106.411 70.7676 98.0147 85.9925 87.6579 85.9925C77.3012 85.9925 68.9053 70.7676 68.9053 57.8633C68.9053 44.9591 77.3011 39.2622 87.6579 39.2622C98.0148 39.2622 106.411 44.9592 106.411 57.8633Z" fill="#FFDC0D"/>
<path d="M91.3203 90.1123H83.9948L85.7595 84.5724H89.556L91.3203 90.1123Z" fill="#FFDC0D"/>
<path d="M76.0786 334.977V334.314C76.0804 332.706 76.7205 331.164 77.8584 330.027C78.9962 328.89 80.539 328.25 82.1481 328.248H117.665V270.749H129.967V328.248H165.484C167.094 328.25 168.636 328.89 169.774 330.027C170.912 331.164 171.552 332.706 171.554 334.314V334.977L76.0786 334.977Z" fill="white"/>
<path d="M129.304 271.412V328.911H165.484C166.918 328.911 168.293 329.48 169.307 330.494C170.321 331.507 170.89 332.881 170.89 334.314H76.742C76.742 332.881 77.3115 331.507 78.3254 330.494C79.3392 329.48 80.7143 328.911 82.148 328.911H118.329V271.412H129.304ZM130.631 270.086H117.002V327.585H82.148C80.3629 327.587 78.6516 328.297 77.3893 329.558C76.1271 330.82 75.4171 332.53 75.415 334.314V335.64H172.217V334.314C172.215 332.53 171.505 330.82 170.243 329.558C168.981 328.297 167.269 327.587 165.484 327.585H130.631V270.086Z" fill="#090909"/>
<path d="M184.559 291.802H147.457C146.138 291.802 144.863 291.326 143.867 290.461C142.872 289.596 142.222 288.402 142.037 287.096L140.297 274.779C140.22 274.231 139.951 273.729 139.539 273.36C139.127 272.991 138.598 272.78 138.045 272.763C137.492 272.746 136.951 272.925 136.518 273.268C136.084 273.611 135.785 274.096 135.675 274.638L133.083 287.336C132.826 288.596 132.141 289.729 131.143 290.543C130.146 291.357 128.898 291.802 127.611 291.802H104.124C102.846 291.802 101.607 291.364 100.614 290.561C99.6201 289.759 98.9318 288.64 98.6635 287.392L98.0141 284.371C97.8318 283.522 97.3761 282.757 96.7169 282.193C96.0578 281.628 95.2317 281.296 94.3652 281.245C93.4988 281.195 92.6397 281.431 91.9199 281.915C91.2 282.4 90.6591 283.108 90.38 283.929L88.7351 288.773C88.4352 289.656 87.8661 290.423 87.1076 290.966C86.349 291.509 85.4392 291.802 84.5059 291.802H63.0753L72.3657 208.203H175.462L184.559 291.802Z" fill="white" stroke="#090909" stroke-width="1.5"/>
<path d="M132.383 157.26H128.446V173.858H132.383V157.26Z" fill="#FFDC0D"/>
<path d="M131.42 157.26L128.446 160.232V161.189L132.377 157.26H131.42Z" fill="#FFFFF2"/>
<path d="M132.384 160.069L128.446 164.006V164.962L132.384 161.026V160.069Z" fill="#FFFFF2"/>
<path d="M128.446 168.735L132.384 164.8V163.843L128.446 167.779V168.735Z" fill="#FFFFF2"/>
<path d="M128.446 172.509L132.384 168.573V167.616L128.446 171.552V172.509Z" fill="#FFFFF2"/>
<path d="M130.871 173.858L132.384 172.346V171.389L129.914 173.858H130.871Z" fill="#FFFFF2"/>
<path d="M134.322 153.997C134.322 155.033 133.911 156.026 133.178 156.758C132.445 157.491 131.451 157.902 130.415 157.902C129.378 157.902 128.384 157.491 127.651 156.758C126.919 156.026 126.507 155.033 126.507 153.997C126.507 151.84 128.342 147.807 130.415 145.735C132.605 147.925 134.322 151.84 134.322 153.997Z" fill="#FFDC0D"/>
<path d="M133.109 154.922C133.109 155.638 132.825 156.324 132.319 156.83C131.813 157.336 131.126 157.62 130.41 157.62C129.695 157.62 129.008 157.336 128.502 156.83C127.996 156.324 127.711 155.638 127.711 154.922C127.711 153.433 128.979 150.648 130.41 149.217C131.923 150.729 133.109 153.433 133.109 154.922Z" fill="white"/>
<path d="M132.174 155.536C132.174 156.003 131.988 156.45 131.659 156.779C131.329 157.109 130.881 157.294 130.415 157.294C129.949 157.294 129.502 157.109 129.172 156.779C128.842 156.45 128.657 156.003 128.657 155.536C128.657 154.566 129.482 152.751 130.415 151.819C131.401 152.804 132.174 154.566 132.174 155.536Z" fill="#FFDC0D"/>
<path d="M152.424 197.211H108.292V206.791H152.424V197.211Z" fill="#090909"/>
<path d="M151.761 197.874V206.127H108.955V197.874H151.761ZM153.088 196.548H107.628V207.453H153.088V196.548Z" fill="white"/>
<path d="M153.088 188.579H107.628V196.548H153.088V188.579Z" fill="#FFDC0D"/>
<path d="M152.424 178.337H108.292V187.916H152.424V178.337Z" fill="#090909"/>
<path d="M151.761 179V187.253H108.955V179H151.761ZM153.088 177.674H107.628V188.579H153.088V177.674Z" fill="white"/>
<path d="M119.691 200.863C118.833 200.862 118.011 200.521 117.404 199.914C116.797 199.308 116.456 198.486 116.455 197.629V184.393C116.455 183.923 116.268 183.472 115.936 183.14C115.603 182.807 115.152 182.62 114.682 182.62C114.211 182.62 113.76 182.807 113.427 183.14C113.095 183.472 112.908 183.923 112.908 184.393V189.296C112.908 190.084 112.595 190.839 112.038 191.396C111.48 191.953 110.724 192.266 109.936 192.266C109.148 192.266 108.392 191.953 107.835 191.396C107.277 190.839 106.964 190.084 106.964 189.296V177.473C106.966 176.339 107.417 175.252 108.22 174.45C109.022 173.648 110.11 173.197 111.245 173.195H149.471C150.605 173.197 151.693 173.648 152.496 174.45C153.298 175.252 153.75 176.339 153.751 177.473V194.945C153.751 195.797 153.413 196.614 152.81 197.216C152.207 197.818 151.39 198.156 150.538 198.156C149.686 198.156 148.868 197.818 148.266 197.216C147.663 196.614 147.324 195.797 147.324 194.945V187.53C147.326 187.273 147.276 187.018 147.178 186.78C147.081 186.542 146.937 186.326 146.755 186.143C146.574 185.961 146.358 185.816 146.12 185.718C145.883 185.619 145.628 185.568 145.37 185.568C145.113 185.568 144.858 185.619 144.62 185.718C144.383 185.816 144.167 185.961 143.985 186.143C143.804 186.326 143.66 186.542 143.562 186.78C143.465 187.018 143.415 187.273 143.416 187.53V189.442C143.416 190.342 143.059 191.204 142.422 191.841C141.786 192.477 140.922 192.834 140.022 192.834C139.122 192.834 138.259 192.477 137.622 191.841C136.986 191.204 136.628 190.342 136.628 189.442V184.446C136.628 183.962 136.436 183.498 136.093 183.155C135.751 182.813 135.286 182.62 134.801 182.62C134.317 182.62 133.852 182.813 133.509 183.155C133.167 183.498 132.974 183.962 132.974 184.446V194.547C132.974 195.433 132.622 196.282 131.996 196.908C131.369 197.534 130.52 197.886 129.634 197.886C128.748 197.886 127.898 197.534 127.272 196.908C126.645 196.282 126.294 195.433 126.294 194.547V191.63C126.294 191.183 126.116 190.756 125.801 190.44C125.485 190.125 125.057 189.947 124.61 189.947C124.164 189.947 123.736 190.125 123.42 190.44C123.104 190.756 122.927 191.183 122.927 191.63V197.629C122.926 198.486 122.585 199.308 121.978 199.914C121.372 200.521 120.549 200.862 119.691 200.863Z" fill="#090909"/>
<path d="M149.47 173.858C150.43 173.858 151.35 174.239 152.028 174.917C152.706 175.595 153.088 176.515 153.088 177.473V194.945C153.088 195.621 152.819 196.269 152.341 196.747C151.862 197.225 151.214 197.493 150.538 197.493C149.861 197.493 149.213 197.225 148.735 196.747C148.256 196.269 147.988 195.621 147.988 194.945V187.53C147.988 186.837 147.712 186.171 147.221 185.681C146.73 185.19 146.064 184.914 145.37 184.914C144.676 184.914 144.01 185.19 143.519 185.681C143.028 186.171 142.753 186.837 142.753 187.53V189.442C142.753 190.166 142.465 190.86 141.953 191.372C141.441 191.883 140.746 192.171 140.022 192.171C139.298 192.171 138.604 191.883 138.092 191.372C137.579 190.86 137.292 190.166 137.292 189.442V184.446C137.292 183.786 137.029 183.153 136.562 182.686C136.095 182.219 135.462 181.957 134.801 181.957C134.141 181.957 133.507 182.219 133.04 182.686C132.573 183.153 132.311 183.786 132.311 184.446V194.547C132.311 195.257 132.029 195.937 131.527 196.439C131.025 196.941 130.344 197.223 129.634 197.223C128.924 197.223 128.243 196.941 127.741 196.439C127.239 195.937 126.957 195.257 126.957 194.547V191.63C126.957 191.008 126.71 190.411 126.27 189.971C125.829 189.531 125.233 189.284 124.61 189.284C123.988 189.284 123.391 189.531 122.951 189.971C122.511 190.411 122.263 191.008 122.263 191.63V197.628C122.263 198.31 121.992 198.964 121.51 199.446C121.027 199.929 120.373 200.199 119.691 200.199C119.009 200.199 118.354 199.929 117.872 199.446C117.389 198.964 117.118 198.31 117.118 197.628V184.393C117.118 183.747 116.862 183.127 116.405 182.671C115.948 182.214 115.328 181.957 114.681 181.957C114.035 181.957 113.415 182.214 112.958 182.671C112.501 183.127 112.244 183.747 112.244 184.393V189.296C112.244 189.908 112.001 190.495 111.568 190.927C111.135 191.36 110.548 191.603 109.936 191.603C109.324 191.603 108.737 191.36 108.304 190.927C107.871 190.495 107.628 189.908 107.628 189.296V177.473C107.628 176.515 108.009 175.595 108.687 174.917C109.365 174.239 110.286 173.858 111.245 173.858H149.47ZM149.47 172.532H111.245C109.934 172.534 108.677 173.055 107.751 173.981C106.824 174.907 106.302 176.163 106.301 177.473V189.296C106.301 190.26 106.684 191.184 107.366 191.865C108.047 192.546 108.972 192.929 109.936 192.929C110.9 192.929 111.825 192.546 112.507 191.865C113.188 191.184 113.571 190.26 113.571 189.296V184.393C113.571 184.247 113.6 184.103 113.656 183.968C113.712 183.834 113.793 183.711 113.896 183.608C114 183.505 114.122 183.424 114.257 183.368C114.391 183.312 114.536 183.283 114.681 183.283C114.827 183.283 114.972 183.312 115.106 183.368C115.241 183.424 115.363 183.505 115.466 183.608C115.569 183.711 115.651 183.834 115.707 183.968C115.763 184.103 115.792 184.247 115.792 184.393V197.628C115.792 198.662 116.202 199.653 116.934 200.384C117.665 201.115 118.657 201.526 119.691 201.526C120.725 201.526 121.717 201.115 122.448 200.384C123.179 199.653 123.59 198.662 123.59 197.628V191.63C123.59 191.359 123.698 191.1 123.889 190.909C124.08 190.718 124.34 190.61 124.61 190.61C124.881 190.61 125.14 190.718 125.331 190.909C125.523 191.1 125.63 191.359 125.63 191.63V194.547C125.63 195.608 126.052 196.626 126.803 197.377C127.554 198.127 128.572 198.549 129.634 198.549C130.696 198.549 131.714 198.127 132.465 197.377C133.216 196.626 133.638 195.608 133.638 194.547V184.446C133.638 184.138 133.76 183.842 133.979 183.624C134.197 183.406 134.493 183.283 134.801 183.283C135.11 183.283 135.406 183.406 135.624 183.624C135.842 183.842 135.965 184.138 135.965 184.446V189.442C135.965 190.517 136.392 191.549 137.153 192.309C137.914 193.07 138.946 193.497 140.022 193.497C141.098 193.497 142.13 193.07 142.891 192.309C143.652 191.549 144.08 190.517 144.08 189.442V187.53C144.08 187.188 144.216 186.86 144.458 186.618C144.7 186.376 145.028 186.24 145.37 186.24C145.712 186.24 146.041 186.376 146.283 186.618C146.525 186.86 146.661 187.188 146.661 187.53V194.945C146.661 195.972 147.069 196.958 147.796 197.685C148.523 198.411 149.509 198.819 150.538 198.819C151.566 198.819 152.552 198.411 153.279 197.685C154.006 196.958 154.414 195.972 154.414 194.945V177.473C154.413 176.163 153.892 174.907 152.965 173.981C152.038 173.055 150.781 172.534 149.47 172.532Z" fill="white"/>
<path d="M309.32 96.8754C308.271 96.9521 307.269 97.3378 306.44 97.9837C305.611 98.6296 304.992 99.5067 304.662 100.504C304.331 101.502 304.305 102.575 304.584 103.587C304.864 104.6 305.438 105.507 306.234 106.194C307.029 106.881 308.011 107.316 309.054 107.445C310.097 107.575 311.155 107.392 312.094 106.92C313.034 106.448 313.812 105.709 314.33 104.795C314.849 103.881 315.085 102.834 315.008 101.786C314.957 101.09 314.77 100.411 314.456 99.7879C314.143 99.1646 313.71 98.6091 313.181 98.1531C312.653 97.6971 312.04 97.3496 311.378 97.1304C310.715 96.9111 310.016 96.8245 309.32 96.8754Z" fill="#BF6675"/>
<path d="M273.061 174.545C273.061 174.545 269.074 174.958 266.711 176.697C265.713 177.355 265.007 178.374 264.742 179.54L263.999 183.423C263.951 183.674 264.243 183.865 264.409 183.692L267.52 180.452C267.679 180.287 267.886 180.175 268.111 180.131C268.337 180.087 268.57 180.114 268.78 180.207C269.254 180.415 269.775 180.491 270.288 180.427C270.801 180.363 271.288 180.161 271.696 179.844L275.012 178.177L273.061 174.545Z" fill="white"/>
<path d="M264.256 184.421C264.113 184.421 263.971 184.386 263.844 184.32C263.663 184.225 263.517 184.075 263.427 183.891C263.338 183.707 263.31 183.499 263.347 183.298L264.09 179.416C264.385 178.085 265.183 176.919 266.318 176.163C268.798 174.338 272.823 173.903 272.993 173.885L273.436 173.839L275.919 178.464L272.052 180.407C271.553 180.781 270.964 181.017 270.345 181.089C269.725 181.161 269.098 181.068 268.526 180.819C268.44 180.778 268.342 180.764 268.248 180.781C268.153 180.797 268.066 180.843 267.998 180.911L264.888 184.151C264.806 184.236 264.708 184.304 264.6 184.351C264.491 184.397 264.374 184.421 264.256 184.421ZM272.694 175.263C271.628 175.423 268.851 175.945 267.105 177.231C266.239 177.789 265.625 178.662 265.393 179.665L264.905 182.217L267.041 179.993C267.294 179.732 267.62 179.555 267.976 179.483C268.332 179.412 268.701 179.451 269.035 179.594C269.399 179.756 269.8 179.816 270.196 179.769C270.592 179.721 270.968 179.567 271.284 179.324L271.398 179.251L274.106 177.891L272.694 175.263Z" fill="#090909"/>
<path d="M297.432 327.291L291.5 203.165L335.099 208.068L336.272 325.508L332.744 326.367L314.514 217.12H311.685L301.071 327.291H297.432Z" fill="#090909"/>
<path d="M292.2 203.911L334.442 208.661L335.604 324.988L333.282 325.554L315.262 217.565L315.077 216.457H311.083L310.967 217.656L300.468 326.628H298.065L292.2 203.911ZM290.8 202.419L296.799 327.955H301.673L312.288 217.783H313.953L332.208 327.18L336.941 326.028L335.757 207.475L290.8 202.419Z" fill="white"/>
<path d="M296.614 328.605L298.109 330.974L292.165 332.895H288.189V332.655L296.614 328.605ZM297.706 328.461H301.17V332.895H298.893L299.277 331.648L299.642 331.53L299.421 331.179L299.298 330.985L297.706 328.461Z" fill="#090909" stroke="white"/>
<path d="M296.931 331.002L296.842 328.859L298.157 328.8L299.721 330.085L296.931 331.002Z" fill="#090909"/>
<path d="M328.873 333.069L325.009 334.009L324.953 333.776L332.179 327.849L334.193 329.797L328.873 333.069Z" fill="#090909" stroke="white"/>
<path d="M335.503 329.916L335.517 329.686L335.352 329.527L333.207 327.451L336.573 326.632L337.622 330.94L335.41 331.478L335.503 329.916Z" fill="#090909" stroke="white"/>
<path d="M369.317 80.9448C369.317 80.9448 370.414 77.0913 369.676 74.2527C369.435 73.0812 368.75 72.048 367.765 71.3687L364.435 69.2382C364.219 69.1004 363.933 69.3001 364.033 69.519L365.887 73.6083C365.981 73.8178 366.008 74.0511 365.965 74.2767C365.922 74.5022 365.811 74.7092 365.647 74.8696C365.278 75.2319 365.014 75.6871 364.883 76.1872C364.752 76.6872 364.758 77.2134 364.902 77.71L365.219 81.4068L369.317 80.9448Z" fill="white"/>
<path d="M364.615 82.1419L364.246 77.8309C364.083 77.2293 364.083 76.5953 364.246 75.9937C364.408 75.392 364.728 74.8443 365.172 74.4065C365.243 74.3414 365.291 74.2559 365.311 74.1619C365.331 74.0679 365.321 73.97 365.282 73.882L363.428 69.7927C363.349 69.6191 363.329 69.4245 363.37 69.2384C363.412 69.0523 363.513 68.8847 363.658 68.7611C363.813 68.628 364.007 68.5482 364.211 68.5335C364.415 68.5188 364.619 68.57 364.792 68.6795L368.123 70.81C369.25 71.5779 370.037 72.7516 370.318 74.0857C371.093 77.0649 370.002 80.9618 369.955 81.1263L369.834 81.5539L364.615 82.1419ZM365.217 70.5264L366.491 73.3345C366.639 73.6658 366.683 74.0343 366.617 74.3911C366.551 74.748 366.379 75.0764 366.122 75.3329C365.836 75.6108 365.63 75.961 365.528 76.3461C365.425 76.7313 365.428 77.1371 365.537 77.5205L365.563 77.6535L365.821 80.6715L368.786 80.3374C369.034 79.2886 369.579 76.5175 369.034 74.4194C368.837 73.4088 368.253 72.5148 367.408 71.9272L365.217 70.5264ZM320.893 113.617C319.928 113.62 318.977 113.387 318.122 112.939C317.267 112.491 316.535 111.842 315.988 111.047C313.375 110.691 310.889 109.696 308.752 108.152C306.615 106.607 304.891 104.56 303.734 102.191C302.562 101.312 301.756 100.033 301.467 98.5982C301.178 97.1632 301.427 95.6722 302.167 94.4091C302.174 94.299 302.181 94.1893 302.189 94.0799C301.749 92.8777 301.707 91.5661 302.07 90.3383C302.432 89.1105 303.179 88.0314 304.201 87.2601C304.132 86.9627 304.085 86.6602 304.062 86.3555C303.947 84.775 304.464 83.2133 305.501 82.014C306.537 80.8147 308.008 80.0759 309.589 79.9603C309.737 79.9495 309.884 79.9441 310.03 79.9441C310.51 79.9439 310.988 80.0018 311.454 80.1163C311.965 79.4118 312.624 78.8271 313.384 78.4031C314.144 77.979 314.988 77.7257 315.856 77.6608C316.004 77.65 316.15 77.6447 316.296 77.6449C317.086 77.646 317.868 77.8038 318.597 78.1093C319.325 78.4147 319.986 78.8616 320.541 79.4241C320.775 79.3764 321.012 79.3436 321.251 79.3259C321.399 79.3151 321.545 79.3098 321.691 79.3099C322.61 79.3128 323.516 79.5268 324.339 79.9353C325.162 80.3438 325.88 80.936 326.438 81.6659C326.958 81.987 327.459 82.3374 327.939 82.7156C329.184 83.0025 330.305 83.6797 331.138 84.6484C331.971 85.6171 332.472 86.8266 332.569 88.1002C332.58 88.2602 332.585 88.4223 332.583 88.5919C332.631 88.6955 332.678 88.7994 332.724 88.9043C333.366 89.591 333.836 90.4197 334.097 91.3229C334.357 92.226 334.4 93.1778 334.221 94.1006C334.697 94.7882 335.023 95.5681 335.178 96.3896C335.333 97.2111 335.314 98.056 335.122 98.8696C334.93 99.6832 334.569 100.447 334.062 101.113C333.556 101.778 332.915 102.33 332.182 102.732C332.186 104.217 331.634 105.65 330.635 106.75C329.636 107.85 328.262 108.537 326.783 108.676C326.554 109.987 325.893 111.183 324.906 112.076C323.919 112.968 322.661 113.505 321.334 113.601C321.186 113.612 321.039 113.617 320.893 113.617H320.893Z" fill="#090909"/>
<path d="M316.297 78.308C317.055 78.309 317.804 78.4725 318.494 78.7874C319.184 79.1023 319.798 79.5613 320.295 80.1335C320.32 80.1371 320.346 80.1393 320.371 80.1431C320.675 80.0639 320.986 80.0118 321.3 79.9873C321.431 79.9777 321.562 79.973 321.692 79.973C322.529 79.9743 323.355 80.1736 324.1 80.5546C324.846 80.9356 325.491 81.4875 325.983 82.1653C326.563 82.5167 327.119 82.9063 327.648 83.3314C328.887 83.575 329.998 84.2531 330.781 85.2434C331.563 86.2337 331.966 87.471 331.916 88.732C332.001 88.9117 332.084 89.0924 332.162 89.2757C332.792 89.9217 333.246 90.7177 333.482 91.5883C333.718 92.459 333.728 93.3753 333.51 94.2506C333.99 94.8715 334.326 95.591 334.495 96.3574C334.663 97.1238 334.66 97.918 334.485 98.6828C334.309 99.4477 333.966 100.164 333.481 100.781C332.995 101.397 332.378 101.898 331.676 102.248C331.622 102.352 331.571 102.456 331.515 102.558C331.561 103.927 331.074 105.262 330.157 106.281C329.241 107.301 327.965 107.926 326.597 108.027C326.551 108.03 326.506 108.028 326.46 108.03C326.367 108.091 326.273 108.151 326.179 108.21C326.046 109.446 325.484 110.596 324.59 111.461C323.696 112.325 322.526 112.849 321.286 112.94C321.154 112.95 321.023 112.954 320.893 112.954C319.987 112.953 319.096 112.72 318.305 112.278C317.514 111.835 316.85 111.198 316.375 110.427C313.783 110.134 311.309 109.183 309.189 107.665C307.069 106.147 305.372 104.112 304.26 101.754C303.152 100.973 302.385 99.7967 302.118 98.4676C301.85 97.1385 302.102 95.7575 302.823 94.6086C302.831 94.3989 302.846 94.1909 302.863 93.9835C302.415 92.8527 302.368 91.6024 302.732 90.4416C303.095 89.2808 303.846 88.2798 304.859 87.6059C304.887 87.558 304.914 87.5094 304.942 87.4618C304.709 86.6995 304.65 85.8944 304.771 85.1064C304.891 84.3183 305.189 83.5676 305.64 82.9102C306.091 82.2528 306.685 81.7056 307.377 81.3094C308.069 80.9132 308.842 80.6781 309.638 80.6217C309.769 80.612 309.9 80.6072 310.031 80.6073C310.611 80.607 311.188 80.7024 311.738 80.8896C312.175 80.1587 312.782 79.5438 313.507 79.0969C314.233 78.65 315.055 78.3843 315.905 78.3223C316.036 78.3127 316.167 78.308 316.297 78.308ZM316.297 76.9818C316.135 76.9818 315.97 76.9878 315.808 76.9997C314.917 77.066 314.048 77.3111 313.254 77.7205C312.46 78.1299 311.757 78.695 311.186 79.3822C310.804 79.3148 310.418 79.281 310.031 79.2811C309.868 79.2811 309.703 79.2871 309.541 79.299C307.784 79.4275 306.15 80.2483 304.999 81.5807C303.847 82.9132 303.273 84.6483 303.401 86.4042C303.415 86.6009 303.439 86.7984 303.473 86.9967C302.467 87.8608 301.744 89.0058 301.396 90.2844C301.047 91.5629 301.09 92.9165 301.518 94.1706L301.515 94.2153C300.754 95.5895 300.507 97.1891 300.817 98.7288C301.126 100.269 301.973 101.648 303.206 102.622C304.402 105.01 306.153 107.078 308.312 108.651C310.471 110.224 312.976 111.258 315.617 111.665C316.233 112.48 317.031 113.141 317.946 113.595C318.862 114.049 319.871 114.283 320.893 114.28C321.055 114.28 321.22 114.274 321.383 114.263C322.774 114.162 324.097 113.625 325.166 112.729C326.234 111.833 326.993 110.623 327.334 109.272C328.813 109.021 330.163 108.275 331.163 107.157C332.162 106.039 332.752 104.615 332.835 103.117C333.575 102.654 334.216 102.048 334.721 101.336C335.227 100.624 335.587 99.8193 335.78 98.968C335.974 98.1167 335.998 97.2355 335.85 96.375C335.703 95.5145 335.386 94.6916 334.92 93.9534C335.065 92.9861 334.994 91.9985 334.712 91.0619C334.429 90.1253 333.943 89.2629 333.287 88.5367C333.274 88.5068 333.26 88.4769 333.247 88.4472C333.245 88.3125 333.24 88.1815 333.231 88.0518C333.125 86.6625 332.587 85.3413 331.69 84.2743C330.794 83.2073 329.585 82.4484 328.234 82.1046C327.796 81.7658 327.345 81.4511 326.889 81.1652C326.267 80.3825 325.477 79.7497 324.577 79.3137C323.678 78.8778 322.692 78.6498 321.692 78.6468C321.53 78.6468 321.365 78.6529 321.203 78.6647C321.055 78.6755 320.907 78.6917 320.758 78.7135C319.539 77.6012 317.948 76.9836 316.297 76.9818Z" fill="white"/>
<path d="M364.935 80.3051L352.628 114.804L319.134 118.769C318.696 118.739 318.253 118.718 317.811 118.718H306.051C303.063 118.718 300.187 119.851 298.003 121.89C295.82 123.928 294.492 126.719 294.289 129.698L290.904 164.717L272.943 174.532L275.013 178.177L289.956 174.517L284.622 229.694L340.665 231.116L332.942 134L358.955 128.182C360.102 127.926 361.143 127.327 361.941 126.465C362.738 125.603 363.254 124.518 363.421 123.356L369.492 80.8606L364.935 80.3051Z" fill="white"/>
<path d="M341.385 231.797L283.893 230.339L289.206 175.383L274.684 178.94L272.034 174.274L290.277 164.303L293.628 129.634C293.855 126.493 295.261 123.555 297.565 121.407C299.869 119.26 302.9 118.062 306.051 118.055H317.811C318.201 118.055 318.618 118.07 319.117 118.103L352.141 114.194L364.489 79.5825L370.245 80.2842L364.077 123.449C363.888 124.743 363.311 125.95 362.423 126.91C361.534 127.87 360.376 128.539 359.1 128.829L333.649 134.522L341.385 231.797ZM285.351 229.049L339.945 230.434L332.234 133.479L358.81 127.535C359.824 127.305 360.744 126.773 361.449 126.011C362.155 125.248 362.613 124.29 362.764 123.262L368.74 81.4369L365.382 81.0274L353.115 115.414L319.15 119.435L319.089 119.431C318.592 119.397 318.186 119.381 317.811 119.381H306.051C303.233 119.388 300.523 120.461 298.464 122.383C296.405 124.305 295.15 126.934 294.951 129.743L291.53 165.13L273.853 174.791L275.342 177.414L290.707 173.65L285.351 229.049Z" fill="#090909"/>
<path d="M268.311 177.434C268.621 177.4 268.92 177.306 269.194 177.156C269.467 177.006 269.708 176.805 269.903 176.562C270.098 176.319 270.243 176.041 270.33 175.742C270.418 175.443 270.445 175.13 270.411 174.821L269.144 163.198L264.429 163.711L265.697 175.334C265.765 175.959 266.079 176.531 266.569 176.925C267.059 177.319 267.686 177.502 268.311 177.434Z" fill="#FFDC0D"/>
<path d="M268.496 174.712L267.554 174.814L268.636 184.828L269.579 184.726L268.496 174.712Z" fill="#FFDC0D"/>
<path d="M271.055 184.267L267.106 184.697L267.209 185.64L271.158 185.21L271.055 184.267Z" fill="#FFDC0D"/>
<path d="M315.94 107.85L321.407 96.5687L307.34 89.7599L302.493 99.7632C302.097 100.58 301.866 101.466 301.814 102.372C301.761 103.278 301.887 104.185 302.185 105.042C302.483 105.899 302.947 106.689 303.55 107.367C304.153 108.045 304.884 108.598 305.702 108.993L306.412 109.337L305.543 119.044C305.532 119.173 305.542 119.303 305.573 119.429L306.743 124.118C306.811 124.39 306.942 124.643 307.125 124.855C307.309 125.068 307.54 125.234 307.8 125.341C308.059 125.448 308.341 125.492 308.621 125.471C308.901 125.449 309.172 125.362 309.412 125.216L318.853 119.493C318.973 119.42 319.066 119.31 319.117 119.179C319.168 119.048 319.174 118.904 319.134 118.769L315.94 107.85Z" fill="white"/>
<path d="M308.487 126.142C308.164 126.141 307.845 126.078 307.547 125.954C307.191 125.809 306.873 125.582 306.621 125.29C306.37 124.999 306.191 124.652 306.099 124.278L304.93 119.59C304.881 119.392 304.865 119.187 304.883 118.984L305.71 109.734L305.413 109.59C303.604 108.714 302.218 107.157 301.558 105.26C300.899 103.363 301.02 101.282 301.896 99.474L307.033 88.8741L322.294 96.2607L316.649 107.909L319.772 118.583C319.852 118.858 319.839 119.152 319.735 119.419C319.631 119.686 319.442 119.911 319.198 120.06L309.756 125.783C309.374 126.017 308.935 126.141 308.487 126.142ZM307.649 90.6458L303.091 100.052C302.733 100.79 302.524 101.592 302.476 102.411C302.428 103.229 302.542 104.05 302.812 104.825C303.081 105.599 303.5 106.314 304.046 106.926C304.592 107.539 305.253 108.039 305.991 108.396L307.114 108.94L306.205 119.103C306.2 119.158 306.204 119.214 306.218 119.268L307.387 123.957C307.43 124.129 307.512 124.288 307.628 124.422C307.744 124.556 307.889 124.661 308.053 124.728C308.216 124.795 308.393 124.823 308.57 124.81C308.746 124.796 308.917 124.741 309.068 124.65L318.509 118.926L315.232 107.791L320.521 96.8763L307.649 90.6458Z" fill="#090909"/>
<path d="M316.883 101.4C316.705 101.767 316.64 102.179 316.696 102.583C316.753 102.986 316.927 103.365 317.198 103.669C317.47 103.974 317.825 104.191 318.22 104.294C318.615 104.397 319.031 104.38 319.416 104.246C319.802 104.113 320.139 103.867 320.385 103.542C320.631 103.217 320.775 102.826 320.799 102.419C320.823 102.012 320.725 101.607 320.518 101.255C320.312 100.904 320.006 100.621 319.639 100.443C319.146 100.205 318.579 100.172 318.063 100.351C317.546 100.531 317.121 100.908 316.883 101.4Z" fill="white"/>
<path d="M219.574 327.302L209.867 252.391L200.875 206.272H194.175L190.054 251.355C189.995 252 189.849 252.634 189.622 253.24L161.786 327.302H157.241L176.648 252.562L176.738 198.304H216.96L222.525 252.518L224.174 327.302H219.574Z" fill="#090909"/>
<path d="M216.36 198.967L221.862 252.559L223.495 326.639H220.156L210.525 252.306L210.519 252.264L210.511 252.223L201.63 206.682L201.421 205.609H193.569L193.459 206.815L189.393 251.295C189.339 251.881 189.207 252.456 189 253.007L161.326 326.639H158.098L177.269 252.81L177.311 252.647L177.312 252.479L177.4 198.967H216.36ZM217.558 197.641H176.075L175.985 252.477L156.383 327.965H162.245L190.243 253.473C190.491 252.811 190.65 252.119 190.714 251.416L194.781 206.935H200.328L209.209 252.476L218.99 327.965H224.852L223.188 252.477L217.558 197.641Z" fill="white"/>
<path d="M167.801 334L162.744 332.37V328.762L167.505 331.064L167.555 331.088L167.608 331.101L172.701 332.302V334H167.801ZM160.328 334H156.885V328.465H161.744V332.532L160.328 334Z" fill="#090909" stroke="white"/>
<path d="M230.408 334L225.352 332.37V328.762L230.112 331.064L230.162 331.088L230.215 331.101L235.308 332.302V334H230.408ZM222.935 334H219.493V328.465H224.352V332.532L222.935 334Z" fill="#090909" stroke="white"/>
<path d="M248.683 165.945L253.034 167.697C253.789 168.001 254.474 168.458 255.044 169.039C255.614 169.62 256.057 170.313 256.346 171.074L258.178 175.891C258.204 175.958 258.207 176.032 258.187 176.101C258.167 176.171 258.125 176.231 258.067 176.275C258.009 176.318 257.939 176.341 257.867 176.341C257.795 176.341 257.725 176.317 257.667 176.274L252.697 172.52C252.444 172.329 252.142 172.211 251.825 172.18C251.509 172.149 251.19 172.206 250.904 172.345C250.26 172.658 249.549 172.808 248.834 172.782C248.119 172.757 247.42 172.556 246.8 172.199L244.754 171.017L248.683 165.945Z" fill="white"/>
<path d="M252.653 170.446C253.251 170.698 253.924 170.703 254.526 170.458C255.127 170.214 255.606 169.741 255.859 169.144L260.553 158.027L256.044 156.125L251.35 167.242C251.097 167.839 251.093 168.513 251.337 169.113C251.582 169.714 252.055 170.194 252.653 170.446Z" fill="#FFDC0D"/>
<path d="M253.279 167.7L249.236 177.277L250.138 177.657L254.182 168.081L253.279 167.7Z" fill="#FFDC0D"/>
<path d="M247.918 176.391L247.537 177.293L251.314 178.885L251.695 177.983L247.918 176.391Z" fill="#FFDC0D"/>
<path d="M249.072 166.214L222.791 148.807L217.531 111.79C217.503 111.429 217.452 111.07 217.378 110.716C216.49 106.544 212.494 103.41 207.696 103.41H180.496C176.29 103.41 172.755 105.802 171.32 109.118L147.311 143.762C146.686 144.531 146.224 145.42 145.956 146.374C145.687 147.328 145.616 148.328 145.748 149.31C145.88 150.292 146.212 151.237 146.723 152.087C147.234 152.936 147.914 153.672 148.72 154.25L178.382 178.003L176.075 197.641H217.558V160.605L245.449 171.721L249.072 166.214ZM162.868 146.348L172.979 131.701L177.227 165.658L163.191 150.692C162.593 150.146 162.226 149.392 162.166 148.584C162.105 147.776 162.357 146.976 162.868 146.348Z" fill="#090909"/>
<path d="M218.221 198.304H175.329L177.68 178.291L148.305 154.767C147.432 154.136 146.697 153.335 146.144 152.411C145.591 151.487 145.233 150.46 145.09 149.393C144.947 148.326 145.023 147.241 145.314 146.204C145.605 145.168 146.103 144.201 146.78 143.364L170.738 108.794C172.359 105.118 176.182 102.747 180.496 102.747H207.696C212.716 102.747 217.061 106.04 218.027 110.578C218.107 110.961 218.162 111.348 218.192 111.739L223.406 148.419L249.989 166.026L245.706 172.537L218.221 161.583V198.304ZM176.821 196.978H216.895V159.627L245.192 170.904L248.154 166.402L222.176 149.195L216.874 111.883C216.847 111.536 216.799 111.192 216.729 110.852C215.893 106.924 212.094 104.073 207.696 104.073H180.496C176.687 104.073 173.325 106.156 171.929 109.381L171.865 109.495L147.826 144.18C147.258 144.879 146.838 145.687 146.594 146.554C146.35 147.421 146.286 148.329 146.406 149.222C146.526 150.114 146.827 150.973 147.292 151.745C147.756 152.517 148.374 153.186 149.106 153.711L179.083 177.715L176.821 196.978ZM178.138 167.6L162.724 151.163C162.013 150.504 161.577 149.6 161.505 148.633C161.433 147.666 161.729 146.708 162.335 145.951L173.422 129.893L178.138 167.6ZM172.537 133.509L163.382 146.766C162.979 147.263 162.78 147.896 162.828 148.535C162.875 149.173 163.165 149.77 163.638 150.202L163.675 150.238L176.315 163.717L172.537 133.509Z" fill="white"/>
<path d="M200.065 73.1416H199.307C198.21 73.1416 197.124 73.3575 196.111 73.7768C195.098 74.1962 194.178 74.8109 193.403 75.5858C192.627 76.3607 192.012 77.2807 191.593 78.2931C191.173 79.3056 190.957 80.3908 190.957 81.4867V91.4367C190.957 92.4517 191.332 93.4309 192.011 94.186L189.901 103.523L199.715 110.595L204.143 103.523L202.141 95.4768C203.886 95.2121 205.478 94.3312 206.629 92.9938C207.78 91.6565 208.414 89.9513 208.415 88.1872V81.4867C208.415 80.3908 208.199 79.3056 207.779 78.2931C207.359 77.2807 206.744 76.3607 205.969 75.5858C205.194 74.8109 204.273 74.1962 203.26 73.7768C202.247 73.3574 201.161 73.1416 200.065 73.1416Z" fill="white"/>
<path d="M199.902 111.547L189.158 103.804L191.292 94.3577C190.645 93.5211 190.294 92.4938 190.294 91.4366V81.4866C190.296 79.0983 191.247 76.8086 192.937 75.1199C194.626 73.4311 196.917 72.4812 199.307 72.4785H200.065C202.455 72.4812 204.746 73.4311 206.435 75.1198C208.125 76.8086 209.076 79.0983 209.078 81.4866V88.1872C209.068 89.9826 208.46 91.7236 207.351 93.1362C206.242 94.5489 204.695 95.553 202.953 95.9909L204.855 103.636L199.902 111.547ZM190.645 103.241L199.529 109.643L203.431 103.41L201.322 94.9302L202.042 94.8212C203.626 94.5725 205.071 93.7686 206.117 92.5532C207.163 91.3379 207.742 89.7903 207.752 88.1872V81.4866C207.749 79.4499 206.939 77.4973 205.498 76.0572C204.057 74.617 202.103 73.807 200.065 73.8047H199.307C197.269 73.807 195.315 74.6171 193.874 76.0572C192.434 77.4973 191.623 79.4499 191.621 81.4866V91.4366C191.622 92.2884 191.937 93.11 192.506 93.7441L192.733 93.9988L190.645 103.241Z" fill="#090909"/>
<path d="M191.48 87.7875C190.737 87.7867 190.025 87.4914 189.499 86.9665C188.974 86.4416 188.679 85.7299 188.678 84.9875V77.7766C188.68 76.6618 189.116 75.5916 189.894 74.7929C189.982 73.9795 190.367 73.2269 190.974 72.6788C191.582 72.1308 192.371 71.8256 193.189 71.8215C193.354 71.8216 193.518 71.834 193.681 71.8588C193.978 71.2238 194.45 70.6866 195.042 70.31C195.634 69.9334 196.321 69.733 197.022 69.7323C197.383 69.732 197.742 69.7853 198.087 69.8905C198.482 69.4626 198.96 69.1208 199.493 68.8867C200.026 68.6525 200.602 68.531 201.184 68.5298C201.736 68.5279 202.284 68.6358 202.794 68.8473C203.304 69.0588 203.768 69.3696 204.157 69.7617C204.813 69.4336 205.537 69.2631 206.272 69.2639C206.46 69.264 206.648 69.2749 206.835 69.2967C207.782 69.4092 208.674 69.805 209.392 70.4323C210.111 71.0595 210.624 71.889 210.863 72.8122C211.102 73.7354 211.057 74.7092 210.734 75.6064C210.41 76.5035 209.823 77.2821 209.049 77.8403C208.972 78.3344 208.73 78.7881 208.363 79.1276C207.934 79.522 207.373 79.7418 206.789 79.7441C206.465 79.7446 206.145 79.6745 205.85 79.5386C205.556 79.4027 205.295 79.2043 205.085 78.9571L204.651 78.457C204.567 78.4261 204.484 78.3927 204.401 78.3566C203.922 78.9547 203.251 79.3683 202.501 79.5269C201.751 79.6855 200.97 79.5791 200.29 79.2261C199.982 79.4749 199.632 79.6666 199.257 79.7922V81.2386C199.254 82.1587 198.929 83.0487 198.338 83.7542C197.747 84.4596 196.927 84.9359 196.021 85.1004V87.7875H191.48Z" fill="#090909"/>
<path d="M201.184 69.1928C201.733 69.1929 202.275 69.3208 202.767 69.5666C203.258 69.8123 203.686 70.1691 204.015 70.6086C204.683 70.1632 205.469 69.926 206.272 69.927C206.434 69.927 206.596 69.9364 206.758 69.9552C207.598 70.0553 208.385 70.414 209.012 70.9817C209.639 71.5493 210.073 72.2977 210.255 73.1231C210.437 73.9486 210.358 74.8102 210.028 75.5886C209.698 76.3669 209.134 77.0234 208.415 77.4672C208.416 77.6802 208.374 77.8914 208.292 78.0883C208.211 78.2851 208.091 78.4639 207.94 78.614C207.789 78.7642 207.609 78.8828 207.411 78.963C207.214 79.0431 207.002 79.0832 206.789 79.0809C206.56 79.081 206.334 79.0311 206.126 78.9347C205.918 78.8382 205.734 78.6976 205.586 78.5225L205.035 77.8878C204.733 77.7906 204.443 77.6582 204.172 77.4934C203.996 77.8389 203.746 78.1414 203.439 78.3794C203.133 78.6174 202.778 78.7851 202.399 78.8706C202.021 78.956 201.628 78.9572 201.249 78.8739C200.87 78.7907 200.514 78.6251 200.206 78.3889C199.792 78.8664 199.219 79.1795 198.594 79.2714V81.2387C198.593 82.0987 198.253 82.9238 197.647 83.5344C197.041 84.1449 196.218 84.4915 195.358 84.4985V87.1245H191.479C190.912 87.1245 190.368 86.8994 189.967 86.4986C189.566 86.0978 189.341 85.5543 189.341 84.9875V77.7766C189.341 77.2699 189.448 76.7688 189.654 76.3061C189.861 75.8434 190.163 75.4293 190.54 75.091C190.546 74.6684 190.653 74.2534 190.852 73.8807C191.052 73.508 191.338 73.1886 191.686 72.9492C192.035 72.7099 192.435 72.5575 192.855 72.505C193.275 72.4525 193.701 72.5014 194.097 72.6475C194.21 72.2196 194.415 71.8216 194.698 71.4816C194.981 71.1417 195.336 70.8682 195.737 70.6805C196.138 70.4928 196.575 70.3954 197.017 70.3954C197.46 70.3953 197.897 70.4926 198.298 70.6802C198.626 70.2203 199.058 69.8453 199.56 69.5865C200.062 69.3278 200.619 69.1928 201.184 69.1928ZM201.184 67.8667C199.961 67.8687 198.784 68.3287 197.885 69.1559C197.601 69.0981 197.312 69.069 197.022 69.0692C196.275 69.0698 195.54 69.2625 194.889 69.6286C194.238 69.9948 193.692 70.5222 193.304 71.1601C193.265 71.159 193.227 71.1584 193.189 71.1584C192.246 71.163 191.335 71.5004 190.617 72.1111C189.899 72.7218 189.42 73.5665 189.265 74.4959C188.461 75.4001 188.016 76.5671 188.014 77.7766V84.9875C188.015 85.9057 188.381 86.786 189.03 87.4352C189.68 88.0845 190.561 88.4497 191.479 88.4507H196.685V85.6199C197.62 85.3284 198.438 84.7465 199.02 83.9586C199.602 83.1707 199.917 82.218 199.92 81.2387V80.2378C200.074 80.1645 200.223 80.0814 200.366 79.989C201.05 80.2562 201.795 80.3289 202.518 80.1989C203.242 80.069 203.915 79.7415 204.463 79.2528L204.584 79.3916C204.855 79.7109 205.193 79.9672 205.574 80.1426C205.955 80.318 206.37 80.4083 206.789 80.4071C207.439 80.4071 208.071 80.1931 208.586 79.7982C209.102 79.4033 209.474 78.8495 209.643 78.2226C210.476 77.5584 211.095 76.6627 211.42 75.6481C211.745 74.6335 211.763 73.5454 211.471 72.5207C211.179 71.4961 210.59 70.5807 209.779 69.8897C208.967 69.1988 207.969 68.7633 206.911 68.6379C206.699 68.6133 206.485 68.6009 206.272 68.6008C205.591 68.6002 204.916 68.7286 204.283 68.9793C203.412 68.2566 202.315 67.8628 201.184 67.8667Z" fill="white"/>
<path d="M197.335 85.4018C197.374 85.8496 197.278 86.2991 197.058 86.6911C196.837 87.0832 196.504 87.3996 196.101 87.5989C195.697 87.7982 195.243 87.871 194.798 87.8078C194.352 87.7447 193.936 87.5485 193.605 87.2449C193.273 86.9414 193.04 86.5448 192.938 86.1069C192.836 85.6691 192.868 85.2106 193.031 84.7915C193.194 84.3724 193.48 84.0123 193.851 83.7584C194.222 83.5045 194.661 83.3686 195.111 83.3686C195.676 83.3447 196.226 83.5453 196.643 83.9263C197.06 84.3074 197.308 84.8379 197.335 85.4018ZM186.546 173.953L190.898 175.705C191.653 176.009 192.337 176.466 192.907 177.047C193.477 177.628 193.921 178.32 194.21 179.081L196.042 183.899C196.068 183.966 196.071 184.04 196.051 184.109C196.031 184.178 195.989 184.239 195.931 184.282C195.873 184.325 195.803 184.349 195.731 184.349C195.659 184.349 195.589 184.325 195.531 184.282L190.561 180.528C190.307 180.336 190.005 180.218 189.689 180.188C189.372 180.157 189.053 180.214 188.767 180.353C188.123 180.665 187.412 180.815 186.697 180.79C185.982 180.764 185.283 180.564 184.663 180.206L182.617 179.025L186.546 173.953Z" fill="white"/>
<path d="M181.374 181.549L175.877 176.847L176.74 175.839L181.143 179.606L184.826 174.529L175.829 165.138L176.788 164.22L186.55 174.411L181.374 181.549Z" fill="white"/>
<path d="M218.221 148.68H216.894V160.605H218.221V148.68Z" fill="white"/>
<path d="M82.6816 168.642L85.9313 167.068C86.4954 166.795 86.9968 166.408 87.404 165.932C87.8112 165.456 88.1155 164.901 88.2976 164.301L89.4512 160.505C89.4673 160.452 89.4657 160.395 89.4467 160.343C89.4276 160.291 89.3921 160.246 89.3456 160.216C89.299 160.186 89.2439 160.172 89.1885 160.176C89.1331 160.18 89.0805 160.201 89.0387 160.238L85.4189 163.382C85.2342 163.542 85.0086 163.649 84.7672 163.689C84.5258 163.729 84.2779 163.702 84.0509 163.611C83.54 163.404 82.9862 163.326 82.4381 163.384C81.89 163.441 81.3643 163.631 80.907 163.939L79.3975 164.954L82.6816 168.642Z" fill="white"/>
<path d="M80.6505 167.047L84.3889 163.819L74.2572 150.154L72.0262 118.097L61.4814 123.262L68.1467 158.657L80.6505 167.047Z" fill="#3A61DF"/>
<path d="M29.094 254.768L29.0944 254.738L29.0914 254.709L21.5957 182.052H70.3951V254.736L63.4441 326.142H58.7071L57.8386 254.754L57.8382 254.715L57.8318 254.677L48.5387 199.389L48.4686 198.972H48.0457H43.891H43.4065L43.3912 199.456L41.6515 254.721L32.844 326.142H28.108L29.094 254.768Z" fill="white" stroke="#090909"/>
<path d="M69.2892 333.814L62.2422 331.537L64.0827 328.62L74.023 333.399V333.814H69.2892ZM61.0743 332.21L61.5678 333.814H58.7158V328.477H62.991L61.0528 331.548L60.9302 331.742L60.7091 332.092L61.0743 332.21Z" fill="white" stroke="#090909"/>
<path d="M63.7475 331.661L63.9137 328.919L63.7475 328.813L62.2005 328.83L60.953 330.765L63.7475 331.661Z" fill="white"/>
<path d="M38.6773 333.814L31.6304 331.537L33.4709 328.62L43.4116 333.399V333.814H38.6773ZM30.4625 332.21L30.956 333.814H28.104V328.477H32.3791L30.441 331.548L30.3183 331.742L30.0973 332.092L30.4625 332.21Z" fill="white" stroke="#090909"/>
<path d="M33.1143 331.647L33.2805 328.904L33.1143 328.799L31.5674 328.816L30.3198 330.751L33.1143 331.647Z" fill="white"/>
<path d="M24.0258 242.851L17.7617 179.815H76.5152L74.1258 242.851H24.0258Z" fill="#090909"/>
<path d="M75.8259 180.478L73.4865 242.188H24.626L18.4941 180.478H75.8259ZM77.2041 179.151H17.0288L23.4243 243.514H74.7641L77.2041 179.151Z" fill="#090909"/>
<path d="M48.2446 86.7184H41.8198V90.8697C40.8519 90.9136 39.9182 91.2407 39.1346 91.8103C38.351 92.3798 37.752 93.1669 37.4119 94.0737C37.0719 94.9805 37.0057 95.9671 37.2216 96.9112C37.4375 97.8553 37.926 98.7152 38.6265 99.3842C39.327 100.053 40.2086 100.502 41.162 100.675C42.1154 100.847 43.0985 100.737 43.9894 100.356C44.8802 99.9751 45.6397 99.3413 46.1734 98.5331C46.7071 97.7248 46.9916 96.7777 46.9916 95.8093C46.9903 95.2497 46.8895 94.6948 46.6939 94.1704H48.2446V86.7184Z" fill="#090909"/>
<path d="M41.8205 101.412C40.3535 101.474 38.9207 100.958 37.831 99.974C36.7413 98.9903 36.0818 97.6182 35.9948 96.1532C35.9078 94.6882 36.4001 93.2477 37.3658 92.1421C38.3314 91.0365 39.693 90.3543 41.1571 90.2425V86.0552H48.9092V94.8334H47.5651C47.6256 95.1551 47.6561 95.4817 47.6562 95.809C47.6234 97.3247 46.9908 98.7655 45.8969 99.8158C44.803 100.866 43.3371 101.44 41.8205 101.412ZM41.8205 91.5326C40.9838 91.5764 40.1782 91.8644 39.5035 92.361C38.8288 92.8576 38.3146 93.541 38.0245 94.3267C37.7344 95.1124 37.6812 95.9658 37.8714 96.7814C38.0617 97.597 38.487 98.3389 39.0948 98.9154C39.7026 99.4919 40.4662 99.8776 41.2911 100.025C42.1159 100.172 42.9659 100.074 43.7358 99.7438C44.5057 99.4132 45.1617 98.8643 45.6226 98.1649C46.0836 97.4656 46.3293 96.6465 46.3292 95.809C46.3278 95.3278 46.2409 94.8507 46.0726 94.3998L45.7433 93.5072H47.5823V87.3814H42.484V91.5326H41.8205ZM71.9539 117.747C71.4488 115.309 70.1181 113.119 68.1861 111.547C66.2541 109.975 63.8389 109.117 61.3475 109.117H33.4689C30.6072 109.117 27.8619 110.249 25.8339 112.267C25.8166 112.254 25.7735 112.323 25.7735 112.323C24.6199 113.483 23.7449 114.89 23.2144 116.437L4.76839 146.088C4.17834 146.674 3.70975 147.37 3.38946 148.138C3.06917 148.905 2.90348 149.728 2.90187 150.559C2.90026 151.39 3.06276 152.214 3.38007 152.982C3.69739 153.751 4.16327 154.449 4.75105 155.038L15.7626 163.712L13.0161 181.552H38.4093L42.4234 184.714L46.1604 181.552H79.1821L71.9539 117.747Z" fill="white"/>
<path d="M42.4378 185.57L38.1788 182.215H12.2423L15.0476 163.994L4.28112 155.506C2.97909 154.203 2.24472 152.439 2.23784 150.598C2.23097 148.756 2.95215 146.986 4.24441 145.674L22.6115 116.15C23.1729 114.555 24.078 113.103 25.2628 111.896C25.3113 111.832 25.3695 111.775 25.4351 111.729C27.5784 109.625 30.4642 108.448 33.4685 108.454H61.347C63.9887 108.462 66.5477 109.376 68.5963 111.043C70.645 112.71 72.0593 115.029 72.6031 117.613L72.6126 117.673L79.9244 182.215H46.4033L42.4378 185.57ZM13.7892 180.889H38.6389L42.408 183.858L45.917 180.889H78.4389L71.2978 117.853C70.811 115.574 69.5583 113.53 67.7479 112.061C65.9376 110.592 63.6787 109.787 61.347 109.78H33.4685C32.1378 109.778 30.8197 110.038 29.5897 110.545C28.3598 111.053 27.2421 111.798 26.3007 112.738L26.1383 112.899C25.109 113.968 24.3253 115.249 23.8417 116.652L23.7775 116.787L5.29058 146.504L5.23551 146.558C4.17348 147.613 3.57276 149.045 3.56482 150.541C3.55689 152.038 4.14239 153.476 5.19318 154.542L16.477 163.431L13.7892 180.889Z" fill="#090909"/>
<path d="M58.2998 202.419L40.8096 188.469L62.2977 161.558C66.1521 156.731 81.2219 145.885 86.0517 149.737C90.8814 153.589 83.6423 170.681 79.7879 175.508L58.2998 202.419Z" fill="#FFDC0D"/>
<path d="M97.82 139.165L93.7549 135.923L81.5887 151.16L85.6539 154.402L97.82 139.165Z" fill="#FFDC0D"/>
<path d="M96.8935 130.928L92.8218 136.028L97.9241 140.097L101.996 134.998L96.8935 130.928Z" fill="#090909"/>
<path d="M96.9989 131.86L101.064 135.102L97.82 139.166L93.7545 135.923L96.9989 131.86ZM96.7894 129.996L95.9617 131.033L92.7174 135.096L91.8897 136.132L92.9268 136.96L96.9923 140.202L98.0294 141.029L98.8571 139.993L102.102 135.93L102.929 134.893L101.892 134.066L97.8266 130.823L96.7894 129.996ZM46.4463 181.41L49.6625 183.724C50.186 184.069 50.6325 184.518 50.9739 185.043C51.3154 185.569 51.5444 186.159 51.6466 186.777L52.2938 190.691C52.3028 190.746 52.2938 190.802 52.2681 190.851C52.2424 190.9 52.2014 190.94 52.1513 190.964C52.1012 190.988 52.0446 190.994 51.9903 190.983C51.9359 190.972 51.8866 190.944 51.8498 190.902L48.6721 187.312C48.5099 187.129 48.3002 186.994 48.0661 186.923C47.8321 186.851 47.5828 186.845 47.3458 186.907C46.8121 187.044 46.2529 187.049 45.7169 186.921C45.181 186.793 44.6847 186.535 44.2715 186.17L43.3037 185.345L46.4463 181.41Z" fill="white"/>
<mask id="path-76-inside-1_166_1552" fill="white">
<path fill-rule="evenodd" clip-rule="evenodd" d="M124.62 55.1303C129.942 49.8116 137.446 48.0028 144.252 49.7039C148.929 47.1945 154.833 47.4376 159.374 50.8134C165.276 55.2009 166.769 63.3135 163.019 69.4704C163.093 69.5823 163.165 69.6957 163.235 69.8108C166.725 75.499 164.941 82.9378 159.249 86.4258C156.179 88.3072 152.6 88.6549 149.406 87.6833C145.898 89.6728 141.932 90.5539 138.017 90.3268L101.064 135.102L96.999 131.86L123.692 83.3271C116.569 75.2206 116.878 62.8678 124.62 55.1303Z"/>
</mask>
<path fill-rule="evenodd" clip-rule="evenodd" d="M124.62 55.1303C129.942 49.8116 137.446 48.0028 144.252 49.7039C148.929 47.1945 154.833 47.4376 159.374 50.8134C165.276 55.2009 166.769 63.3135 163.019 69.4704C163.093 69.5823 163.165 69.6957 163.235 69.8108C166.725 75.499 164.941 82.9378 159.249 86.4258C156.179 88.3072 152.6 88.6549 149.406 87.6833C145.898 89.6728 141.932 90.5539 138.017 90.3268L101.064 135.102L96.999 131.86L123.692 83.3271C116.569 75.2206 116.878 62.8678 124.62 55.1303Z" fill="white"/>
<path d="M144.252 49.7039L144.009 50.6741L144.384 50.7678L144.724 50.5851L144.252 49.7039ZM124.62 55.1303L125.327 55.8376V55.8376L124.62 55.1303ZM159.374 50.8134L159.971 50.0109V50.0109L159.374 50.8134ZM163.019 69.4704L162.165 68.9501L161.835 69.4917L162.184 70.021L163.019 69.4704ZM163.235 69.8108L162.383 70.3338L162.383 70.3338L163.235 69.8108ZM159.249 86.4258L158.727 85.5732L159.249 86.4258ZM149.406 87.6833L149.697 86.7266L149.286 86.6016L148.913 86.8135L149.406 87.6833ZM138.017 90.3268L138.075 89.3285L137.569 89.2991L137.246 89.6903L138.017 90.3268ZM101.064 135.102L100.441 135.884L101.21 136.497L101.836 135.739L101.064 135.102ZM96.999 131.86L96.1228 131.378L95.7167 132.116L96.3755 132.642L96.999 131.86ZM123.692 83.3271L124.568 83.809L124.906 83.1942L124.443 82.667L123.692 83.3271ZM144.494 48.7338C137.362 46.9511 129.494 48.8459 123.913 54.423L125.327 55.8376C130.39 50.7774 137.53 49.0545 144.009 50.6741L144.494 48.7338ZM159.971 50.0109C155.107 46.3952 148.785 46.1369 143.779 48.8227L144.724 50.5851C149.073 48.252 154.559 48.4799 158.777 51.616L159.971 50.0109ZM163.873 69.9906C167.89 63.3965 166.291 54.7094 159.971 50.0109L158.777 51.616C164.261 55.6924 165.649 63.2305 162.165 68.9501L163.873 69.9906ZM164.088 69.2879C164.011 69.1634 163.933 69.0407 163.853 68.9197L162.184 70.021C162.252 70.1238 162.318 70.228 162.383 70.3338L164.088 69.2879ZM159.772 87.2784C165.934 83.5018 167.867 75.4471 164.088 69.2878L162.383 70.3338C165.584 75.5508 163.947 82.3737 158.727 85.5732L159.772 87.2784ZM149.115 88.64C152.571 89.6913 156.448 89.3155 159.772 87.2784L158.727 85.5732C155.911 87.2989 152.629 87.6185 149.697 86.7266L149.115 88.64ZM137.96 91.3251C142.061 91.5631 146.22 90.6399 149.899 88.5531L148.913 86.8135C145.576 88.7056 141.802 89.5447 138.075 89.3285L137.96 91.3251ZM101.836 135.739L138.789 90.9633L137.246 89.6903L100.293 134.466L101.836 135.739ZM96.3755 132.642L100.441 135.884L101.688 134.32L97.6226 131.078L96.3755 132.642ZM122.816 82.8452L96.1228 131.378L97.8752 132.342L124.568 83.809L122.816 82.8452ZM123.913 54.423C115.796 62.5357 115.472 75.4871 122.941 83.9872L124.443 82.667C117.666 74.9542 117.961 63.1999 125.327 55.8376L123.913 54.423Z" fill="#090909" mask="url(#path-76-inside-1_166_1552)"/>
<path d="M45.1074 82.4949V95.9017C45.1076 96.2961 45.1831 96.6868 45.3296 97.053L42.332 109.117L53.2422 117.131C53.5172 117.331 53.8423 117.452 54.1816 117.479C54.5209 117.506 54.8611 117.439 55.1645 117.285C55.4678 117.13 55.7226 116.895 55.9006 116.605C56.0785 116.315 56.1727 115.982 56.1727 115.642V109.117L53.4765 99.0207H53.8633C54.5954 99.0207 55.3203 98.8766 55.9966 98.5966C56.673 98.3166 57.2875 97.9062 57.8051 97.3889C58.3228 96.8715 58.7334 96.2573 59.0135 95.5814C59.2937 94.9054 59.4379 94.1809 59.4379 93.4493V82.4949H45.1074Z" fill="white"/>
<path d="M54.3273 118.15C53.7966 118.149 53.2798 117.98 52.8517 117.667L41.5815 109.388L44.6374 97.0895C44.5094 96.7066 44.4442 96.3055 44.4443 95.9017V81.832H60.1017V93.4492C60.0998 95.0205 59.5052 96.5332 58.4365 97.6856C57.3678 98.8379 55.9036 99.5452 54.3361 99.6661L56.8366 109.03V115.642C56.8359 116.307 56.5713 116.944 56.1008 117.414C55.6304 117.884 54.9926 118.149 54.3273 118.15ZM43.0834 108.845L53.6355 116.597C53.8117 116.724 54.0198 116.801 54.2368 116.818C54.4538 116.835 54.6713 116.792 54.8653 116.693C55.0592 116.594 55.2221 116.444 55.3358 116.258C55.4495 116.073 55.5097 115.859 55.5097 115.642V109.204L52.6133 98.3577H53.8638C55.1658 98.3562 56.4141 97.8385 57.3348 96.9184C58.2555 95.9982 58.7733 94.7506 58.7748 93.4493V83.1582H45.7712V95.9017C45.7715 96.2122 45.831 96.5199 45.9466 96.8081L46.0252 97.006L43.0834 108.845Z" fill="#090909"/>
<path d="M45.2856 91.9774C46.0274 91.9774 46.6288 91.3764 46.6288 90.6349C46.6288 89.8934 46.0274 89.2924 45.2856 89.2924C44.5438 89.2924 43.9424 89.8934 43.9424 90.6349C43.9424 91.3764 44.5438 91.9774 45.2856 91.9774Z" fill="white"/>
<path d="M41.8208 86.7183H56.5462C57.7583 86.7183 58.9206 86.2371 59.7777 85.3805C60.6347 84.524 61.1162 83.3623 61.1162 82.1509C61.1162 80.9396 60.6347 79.7779 59.7777 78.9213C58.9206 78.0648 57.7583 77.5836 56.5462 77.5836H50.9607C48.5366 77.5836 46.2119 78.546 44.4978 80.2591C42.7837 81.9722 41.8208 84.2956 41.8208 86.7183Z" fill="#090909"/>
<path d="M56.5462 87.3815H41.1572V86.7184C41.1602 84.1208 42.194 81.6304 44.0319 79.7935C45.8697 77.9567 48.3616 76.9235 50.9607 76.9205H56.5462C57.9342 76.9205 59.2654 77.4716 60.2468 78.4525C61.2283 79.4334 61.7797 80.7638 61.7797 82.151C61.7797 83.5382 61.2283 84.8686 60.2468 85.8495C59.2654 86.8304 57.9342 87.3815 56.5462 87.3815ZM42.5099 86.0553H56.5462C57.5823 86.0553 58.5759 85.644 59.3086 84.9118C60.0412 84.1796 60.4527 83.1865 60.4527 82.151C60.4527 81.1155 60.0412 80.1225 59.3086 79.3903C58.5759 78.6581 57.5823 78.2467 56.5462 78.2467H50.9607C48.8282 78.2494 46.7748 79.0542 45.209 80.501C43.6431 81.9479 42.6796 83.9308 42.5099 86.0553Z" fill="white"/>
<path d="M460.191 329.21L451.551 257.852L448.02 204.985H445.205L438.189 257.82L437.336 329.21H430.582L423.757 257.804V186.335H473.352L465.979 257.803L466.947 329.21H460.191Z" fill="#090909"/>
<path d="M472.617 186.998L465.315 257.773L466.275 328.547H460.779L452.209 257.772L448.64 204.322H444.624L437.526 257.773L436.681 328.547H431.185L424.42 257.773V186.998H472.617ZM474.087 185.672H423.093V257.836L423.099 257.899L429.864 328.673L429.979 329.873H437.992L438.008 328.563L438.852 257.868L445.787 205.649H447.399L450.885 257.861L450.888 257.896L450.892 257.932L459.461 328.706L459.603 329.873H467.62L467.602 328.529L466.643 257.832L473.937 187.134L474.087 185.672V185.672Z" fill="white"/>
<path d="M448.817 85.3599C448.817 85.6664 448.908 85.966 449.079 86.2208C449.249 86.4757 449.491 86.6743 449.775 86.7916C450.058 86.9089 450.37 86.9396 450.67 86.8798C450.971 86.82 451.247 86.6724 451.464 86.4557C451.681 86.239 451.829 85.9628 451.888 85.6622C451.948 85.3616 451.918 85.05 451.8 84.7669C451.683 84.4837 451.484 84.2417 451.229 84.0714C450.974 83.9011 450.674 83.8102 450.368 83.8102C450.164 83.8102 449.963 83.8503 449.775 83.9282C449.586 84.0061 449.415 84.1202 449.271 84.2641C449.128 84.408 449.013 84.5789 448.935 84.7669C448.857 84.9549 448.817 85.1564 448.817 85.3599Z" fill="white"/>
<path d="M450.507 334.674H455.643L460.778 333.018V328.547L455.643 331.031L450.507 332.242V334.674Z" fill="#090909"/>
<path d="M462.378 334.674H466.272V328.547H460.78V333.018L462.378 334.674Z" fill="white"/>
<path d="M420.913 334.674H426.048L431.184 333.018V328.547L426.048 331.031L420.913 332.242V334.674Z" fill="#090909"/>
<path d="M432.783 334.674H436.678V328.547H431.185V333.018L432.783 334.674Z" fill="#090909"/>
<path d="M476.998 207.412L474.685 211.151C474.284 211.8 474.021 212.525 473.914 213.281C473.806 214.036 473.856 214.805 474.06 215.54L475.354 220.196C475.372 220.261 475.411 220.319 475.465 220.36C475.518 220.401 475.584 220.423 475.652 220.424C475.719 220.425 475.785 220.403 475.84 220.363C475.894 220.323 475.934 220.266 475.953 220.202L477.621 214.607C477.706 214.321 477.868 214.065 478.09 213.866C478.312 213.667 478.584 213.533 478.877 213.479C479.538 213.358 480.158 213.076 480.684 212.66C481.21 212.243 481.626 211.704 481.895 211.09L482.784 209.061L476.998 207.412Z" fill="#F997BD"/>
<path d="M374.418 183.379L372.834 183.813C372.266 183.969 371.668 183.984 371.092 183.855C370.517 183.726 369.982 183.459 369.534 183.076C369.238 182.822 368.877 182.655 368.492 182.594C368.106 182.532 367.711 182.578 367.351 182.727L362.557 184.704L364.982 181.302L364.982 181.302C365.385 180.737 365.9 180.261 366.496 179.905C367.092 179.548 367.755 179.319 368.444 179.231L368.38 178.735L368.444 179.231L372.431 178.721L374.418 183.379Z" stroke="black"/>
<path d="M423.66 187.661L416.278 148.98L412.533 156.701C412.056 157.683 411.342 158.53 410.456 159.167L374.819 184.73L371.957 178.022L399.682 150.649L412.137 115.704C412.174 115.6 412.21 115.5 412.251 115.409C413.422 112.179 415.558 109.387 418.37 107.412C421.183 105.436 424.534 104.372 427.972 104.364H469.065C471.526 104.364 473.957 104.907 476.183 105.954C478.41 107.001 480.378 108.527 481.946 110.422C483.515 112.317 484.645 114.534 485.257 116.916C485.869 119.298 485.948 121.786 485.487 124.202L473.377 187.661H423.66Z" fill="#090909"/>
<path d="M469.065 105.027C471.428 105.027 473.762 105.548 475.9 106.554C478.039 107.56 479.928 109.024 481.435 110.844C482.941 112.664 484.027 114.794 484.615 117.081C485.202 119.369 485.278 121.758 484.835 124.078L472.828 186.998H424.209L416.555 146.89L411.936 156.412C411.507 157.295 410.866 158.057 410.068 158.628L375.104 183.709L372.744 178.177L400.256 151.015L412.7 116.1C412.72 116.038 412.744 115.979 412.765 115.918L412.867 115.632C413.986 112.526 416.038 109.84 418.741 107.942C421.444 106.044 424.668 105.026 427.971 105.027L469.065 105.027ZM469.065 103.701H427.971C424.397 103.71 420.912 104.816 417.988 106.869C415.063 108.923 412.84 111.824 411.619 115.181C411.579 115.294 411.543 115.395 411.515 115.473L411.49 115.542C411.475 115.584 411.459 115.626 411.445 115.668L399.107 150.284L371.811 177.234L371.169 177.868L371.523 178.697L373.884 184.229L374.533 185.751L375.878 184.787L410.842 159.706C411.818 159.005 412.604 158.071 413.13 156.991L416.002 151.07L422.905 187.247L423.111 188.325H473.925L474.131 187.247L486.138 124.326C486.618 121.815 486.536 119.228 485.9 116.751C485.264 114.275 484.088 111.969 482.457 109.999C480.826 108.029 478.78 106.443 476.465 105.354C474.15 104.265 471.623 103.701 469.065 103.701V103.701Z" fill="white"/>
<path d="M477.314 94.2417H485.371L494.297 127.886L477.314 128.379V94.2417Z" fill="#090909"/>
<path d="M484.86 94.9047L493.44 127.247L477.977 127.696V94.9047H484.86ZM485.881 93.5786H476.65V129.062L478.015 129.022L493.479 128.573L495.152 128.524L494.723 126.907L486.143 94.5648L485.881 93.5786Z" fill="white"/>
<path d="M457.789 187.49H504.931L497.686 257.714L497.683 257.743L497.684 257.772L498.637 328.039H494.09L485.576 257.726L483.895 204.299L483.879 203.814H483.395H479.379H478.956L478.886 204.232L469.902 257.682L469.895 257.72L469.895 257.759L469.055 328.039H464.508L457.789 257.741V187.49Z" fill="white" stroke="#090909"/>
<path d="M464.754 335.337L465.387 333.28L459.023 335.337H453.118V333.069L463.903 327.884H470.211V335.337H464.754Z" fill="#090909"/>
<path d="M469.547 328.547V334.674H465.652L466.396 332.257L458.918 334.674H453.782V333.485L464.054 328.547H469.547ZM470.874 327.221H463.752L463.479 327.352L453.207 332.29L452.455 332.652V336H459.127L459.326 335.936L464.378 334.303L463.856 336H470.874V327.221Z" fill="white"/>
<path d="M494.348 335.337L494.981 333.28L488.617 335.337H482.712V333.069L493.497 327.884H499.805V335.337H494.348Z" fill="#090909"/>
<path d="M499.142 328.547V334.674H495.247L495.99 332.257L488.512 334.674H483.376V333.485L493.649 328.547H499.142ZM500.469 327.221H493.346L493.073 327.352L482.801 332.29L482.049 332.652V336H488.722L488.921 335.936L493.972 334.303L493.45 336H500.469V327.221Z" fill="white"/>
<path d="M397.256 100.55L396.197 100.016L396.197 100.016C395.794 99.8127 395.447 99.5141 395.187 99.1462C394.927 98.7782 394.76 98.352 394.703 97.905L394.703 97.905C394.661 97.5789 394.53 97.2707 394.324 97.0146C394.117 96.7585 393.845 96.5643 393.535 96.4536C393.535 96.4536 393.535 96.4536 393.535 96.4536L389.997 95.1879L392.887 94.5521L392.887 94.5521C393.411 94.4367 393.954 94.4309 394.481 94.5353C395.008 94.6396 395.507 94.8517 395.948 95.1582L395.948 95.1582L398.503 96.9353L397.256 100.55ZM389.139 95.3769L389.139 95.3769L389.139 95.3769ZM472.022 123.272V117.464H483.378L474.061 124.307C474.061 124.307 474.061 124.307 474.061 124.307C473.869 124.447 473.643 124.53 473.407 124.549C473.171 124.568 472.935 124.521 472.724 124.414C472.513 124.307 472.335 124.143 472.212 123.942L471.785 124.203L472.212 123.942C472.088 123.74 472.022 123.508 472.022 123.272Z" fill="white" stroke="#090909"/>
<mask id="path-102-inside-2_166_1552" fill="white">
<path fill-rule="evenodd" clip-rule="evenodd" d="M474.132 107.192C472.639 107.104 471.225 106.472 470.162 105.409C469.013 104.261 468.367 102.703 468.367 101.079V91.2267H482.22V97.8097C482.501 97.8474 482.763 97.976 482.966 98.1783C483.209 98.4217 483.346 98.7519 483.346 99.0962C483.346 99.3529 483.27 99.6039 483.127 99.8173C482.984 100.031 482.781 100.197 482.544 100.295C482.44 100.339 482.331 100.368 482.22 100.383V103.775C482.22 104.234 482.128 104.683 481.954 105.098L484.902 116.964H471.522L474.132 107.192Z"/>
</mask>
<path fill-rule="evenodd" clip-rule="evenodd" d="M474.132 107.192C472.639 107.104 471.225 106.472 470.162 105.409C469.013 104.261 468.367 102.703 468.367 101.079V91.2267H482.22V97.8097C482.501 97.8474 482.763 97.976 482.966 98.1783C483.209 98.4217 483.346 98.7519 483.346 99.0962C483.346 99.3529 483.27 99.6039 483.127 99.8173C482.984 100.031 482.781 100.197 482.544 100.295C482.44 100.339 482.331 100.368 482.22 100.383V103.775C482.22 104.234 482.128 104.683 481.954 105.098L484.902 116.964H471.522L474.132 107.192Z" fill="white"/>
<path d="M474.132 107.192L475.098 107.45L475.414 106.266L474.191 106.194L474.132 107.192ZM470.162 105.409L470.869 104.702L470.162 105.409ZM468.367 91.2267V90.2267H467.367V91.2267H468.367ZM482.22 91.2267H483.22V90.2267H482.22V91.2267ZM482.22 97.8097H481.22V98.6843L482.087 98.8008L482.22 97.8097ZM482.966 98.1783L483.672 97.471L483.672 97.471L482.966 98.1783ZM483.346 99.0962H484.346V99.0961L483.346 99.0962ZM483.127 99.8173L482.296 99.2616L482.296 99.2616L483.127 99.8173ZM482.544 100.295L482.927 101.219H482.927L482.544 100.295ZM482.22 100.383L482.087 99.3916L481.22 99.5081V100.383H482.22ZM481.954 105.098L481.032 104.712L480.904 105.018L480.984 105.34L481.954 105.098ZM484.902 116.964V117.964H486.181L485.873 116.723L484.902 116.964ZM471.522 116.964L470.556 116.706L470.22 117.964H471.522V116.964ZM474.191 106.194C472.942 106.12 471.758 105.591 470.869 104.702L469.455 106.117C470.692 107.353 472.336 108.088 474.073 108.191L474.191 106.194ZM470.869 104.702C469.907 103.741 469.367 102.438 469.367 101.079H467.367C467.367 102.968 468.118 104.781 469.455 106.117L470.869 104.702ZM469.367 101.079V91.2267H467.367V101.079H469.367ZM468.367 92.2267H482.22V90.2267H468.367V92.2267ZM481.22 91.2267V97.8097H483.22V91.2267H481.22ZM483.672 97.471C483.314 97.1129 482.85 96.8853 482.353 96.8186L482.087 98.8008C482.152 98.8094 482.212 98.8391 482.259 98.8856L483.672 97.471ZM484.346 99.0961C484.346 98.4865 484.104 97.9019 483.672 97.471L482.259 98.8856C482.315 98.9415 482.346 99.0173 482.346 99.0962L484.346 99.0961ZM483.958 100.373C484.211 99.9952 484.346 99.5508 484.346 99.0962H482.346C482.346 99.155 482.328 99.2126 482.296 99.2616L483.958 100.373ZM482.927 101.219C483.347 101.046 483.706 100.751 483.958 100.373L482.296 99.2616C482.263 99.3105 482.216 99.3488 482.162 99.3715L482.927 101.219ZM482.353 101.374C482.549 101.347 482.742 101.296 482.927 101.219L482.162 99.3715C482.138 99.3814 482.113 99.3881 482.087 99.3916L482.353 101.374ZM481.22 100.383V103.775H483.22V100.383H481.22ZM481.22 103.775C481.22 104.1 481.155 104.418 481.032 104.712L482.877 105.485C483.101 104.948 483.22 104.367 483.22 103.775H481.22ZM485.873 116.723L482.925 104.857L480.984 105.34L483.932 117.205L485.873 116.723ZM471.522 117.964H484.902V115.964H471.522V117.964ZM473.166 106.934L470.556 116.706L472.489 117.222L475.098 107.45L473.166 106.934Z" fill="#090909" mask="url(#path-102-inside-2_166_1552)"/>
<path d="M471.648 96.1279C470.377 96.1279 469.158 95.6234 468.26 94.7253C467.361 93.8272 466.856 92.6092 466.856 91.3391C466.856 90.069 467.361 88.8509 468.26 87.9529C469.158 87.0548 470.377 86.5502 471.648 86.5502H476.694C479.058 86.5529 481.326 87.4929 482.998 89.1642C484.67 90.8354 485.611 93.1013 485.613 95.4648V96.1279H471.648Z" fill="#090909"/>
<path d="M476.693 87.2132C477.778 87.2132 478.851 87.4266 479.853 87.8413C480.855 88.256 481.765 88.8638 482.532 89.6301C483.298 90.3963 483.906 91.306 484.321 92.3071C484.736 93.3083 484.95 94.3813 484.95 95.4649H471.648C470.553 95.4649 469.503 95.0302 468.729 94.2565C467.955 93.4827 467.52 92.4333 467.52 91.339C467.52 90.2448 467.955 89.1954 468.729 88.4216C469.503 87.6479 470.553 87.2132 471.648 87.2132H476.693ZM476.693 85.887H471.648C470.201 85.887 468.814 86.4614 467.791 87.4839C466.768 88.5063 466.193 89.8931 466.193 91.339C466.193 92.785 466.768 94.1718 467.791 95.1942C468.814 96.2167 470.201 96.7911 471.648 96.7911H486.277V95.4649C486.274 92.9256 485.263 90.4911 483.467 88.6955C481.67 86.8999 479.234 85.8899 476.693 85.887ZM523.609 148.536C516.729 141.537 496.423 120.213 496.423 120.213C495.458 119.184 494.291 118.364 492.995 117.805C491.699 117.246 490.301 116.959 488.89 116.963H467.818C467.208 116.963 466.599 117.017 465.998 117.122L435.975 119.484L399.1 96.7407L397.543 101.254L429.22 129.02C431.505 131.022 434.428 132.145 437.466 132.188L458.501 132.481L463.623 151.252L446.116 182.323C445.848 182.8 445.709 183.338 445.713 183.885C445.718 184.432 445.865 184.968 446.142 185.44C446.418 185.912 446.813 186.303 447.287 186.575C447.762 186.847 448.299 186.991 448.846 186.991H453.298L456.979 246.892H499.753L506.376 186.991H507.877C508.425 186.991 508.962 186.847 509.437 186.575C509.912 186.302 510.307 185.91 510.583 185.438C510.859 184.965 511.006 184.429 511.01 183.882C511.014 183.335 510.874 182.796 510.605 182.32L508.544 178.673C513.638 170.902 520.076 161.361 523.626 157.189C525.818 154.613 525.98 150.948 523.609 148.536ZM510.001 154.928L503.561 169.855L493.047 151.252L495.603 141.945L509.844 153.667C510.029 153.816 510.148 154.031 510.177 154.266C510.206 154.501 510.143 154.738 510.001 154.928Z" fill="white"/>
<path d="M500.347 247.556H456.354L452.673 187.654H448.846C448.183 187.654 447.532 187.48 446.957 187.15C446.382 186.821 445.903 186.346 445.568 185.774C445.234 185.202 445.055 184.553 445.05 183.89C445.044 183.228 445.212 182.575 445.538 181.998L462.91 151.164L457.992 133.137L437.456 132.851C434.261 132.805 431.186 131.624 428.782 129.519L396.77 101.459L398.742 95.7414L436.138 118.806L464.655 116.563C465.268 116.515 465.642 116.485 465.885 116.479C466.522 116.359 467.169 116.299 467.818 116.3H488.889C490.392 116.294 491.88 116.598 493.259 117.193C494.639 117.788 495.88 118.662 496.906 119.759C497.106 119.97 517.284 141.157 524.082 148.072C526.62 150.653 526.641 154.668 524.131 157.618C520.61 161.757 514.18 171.292 509.32 178.699L511.182 181.994C511.508 182.571 511.678 183.223 511.673 183.886C511.668 184.549 511.49 185.2 511.155 185.772C510.821 186.345 510.342 186.82 509.767 187.15C509.192 187.48 508.54 187.654 507.877 187.654H506.969L500.347 247.556ZM457.602 246.229H499.158L505.781 186.327H507.877C508.308 186.327 508.732 186.215 509.106 186C509.481 185.785 509.792 185.476 510.009 185.104C510.227 184.731 510.343 184.308 510.346 183.877C510.349 183.446 510.239 183.021 510.027 182.646L507.767 178.648L507.989 178.31C512.894 170.826 519.501 161.013 523.12 156.759C525.175 154.345 525.181 151.082 523.136 149.001C516.33 142.079 496.145 120.884 495.942 120.671C495.04 119.705 493.948 118.936 492.734 118.412C491.52 117.888 490.211 117.621 488.889 117.627H467.818C467.246 117.627 466.676 117.677 466.113 117.776L466.048 117.784C465.907 117.795 436.026 120.145 436.026 120.145L435.81 120.162L399.456 97.7402L398.315 101.049L429.658 128.522C431.824 130.419 434.595 131.484 437.475 131.525L459.009 131.824L464.334 151.34L446.694 182.649C446.483 183.024 446.373 183.449 446.377 183.88C446.38 184.31 446.496 184.733 446.714 185.105C446.932 185.477 447.243 185.786 447.617 186C447.991 186.215 448.415 186.327 448.846 186.327H453.921L457.602 246.229ZM503.64 171.345L492.335 151.34L495.234 140.783L510.266 153.155C510.572 153.402 510.774 153.754 510.832 154.143C510.891 154.531 510.802 154.928 510.582 155.253L503.64 171.345ZM493.759 151.164L503.48 168.365L509.422 154.593L509.47 154.53C509.509 154.478 509.527 154.412 509.519 154.347C509.511 154.283 509.478 154.224 509.427 154.183L495.971 143.108L493.759 151.164Z" fill="#090909"/>
<path d="M393.425 95.9907C393.736 95.9857 394.043 95.9194 394.329 95.7956C394.615 95.6719 394.873 95.4931 395.09 95.2695C395.306 95.0459 395.477 94.7819 395.591 94.4925C395.706 94.203 395.762 93.8939 395.757 93.5827L395.568 81.8922L390.826 81.9689L391.015 93.6594C391.02 93.9705 391.087 94.2777 391.211 94.5633C391.334 94.8488 391.513 95.1073 391.737 95.3237C391.961 95.5402 392.225 95.7106 392.514 95.825C392.804 95.9394 393.113 95.9957 393.425 95.9907Z" fill="#FFDC0D"/>
<path d="M393.861 93.2983L392.913 93.3127L393.066 103.384L394.014 103.37L393.861 93.2983Z" fill="#FFDC0D"/>
<mask id="path-109-inside-3_166_1552" fill="white">
<path fill-rule="evenodd" clip-rule="evenodd" d="M443.842 97.0417C442.361 96.7874 440.984 96.0815 439.908 95.0058C438.536 93.6347 437.765 91.7751 437.765 89.836V78.0745H454.304V93.0542C454.304 93.5726 454.206 94.0808 454.019 94.554L457.083 105.027C457.083 105.755 456.939 106.476 456.661 107.149C456.382 107.822 455.973 108.433 455.458 108.948C454.942 109.463 454.331 109.872 453.658 110.151C452.984 110.429 452.263 110.573 451.534 110.573H446.88C446.151 110.573 445.43 110.429 444.757 110.151C444.083 109.872 443.472 109.463 442.956 108.948C442.441 108.433 442.032 107.822 441.753 107.149C441.475 106.476 441.331 105.755 441.331 105.027L443.842 97.0417Z"/>
</mask>
<path fill-rule="evenodd" clip-rule="evenodd" d="M443.842 97.0417C442.361 96.7874 440.984 96.0815 439.908 95.0058C438.536 93.6347 437.765 91.7751 437.765 89.836V78.0745H454.304V93.0542C454.304 93.5726 454.206 94.0808 454.019 94.554L457.083 105.027C457.083 105.755 456.939 106.476 456.661 107.149C456.382 107.822 455.973 108.433 455.458 108.948C454.942 109.463 454.331 109.872 453.658 110.151C452.984 110.429 452.263 110.573 451.534 110.573H446.88C446.151 110.573 445.43 110.429 444.757 110.151C444.083 109.872 443.472 109.463 442.956 108.948C442.441 108.433 442.032 107.822 441.753 107.149C441.475 106.476 441.331 105.755 441.331 105.027L443.842 97.0417Z" fill="white"/>
<path d="M443.842 97.0417L444.796 97.3416L445.139 96.2498L444.011 96.0561L443.842 97.0417ZM439.908 95.0058L440.615 94.2985H440.615L439.908 95.0058ZM437.765 78.0745V77.0745H436.765V78.0745H437.765ZM454.304 78.0745H455.304V77.0745H454.304V78.0745ZM454.019 94.554L453.089 94.1874L452.964 94.506L453.06 94.8347L454.019 94.554ZM457.083 105.027L458.083 105.027V104.884L458.043 104.746L457.083 105.027ZM456.661 107.149L457.584 107.532L457.584 107.532L456.661 107.149ZM455.458 108.948L454.751 108.241H454.751L455.458 108.948ZM453.658 110.151L453.275 109.227L453.275 109.227L453.658 110.151ZM451.534 110.573L451.534 109.573H451.534V110.573ZM446.88 110.573V109.573H446.88L446.88 110.573ZM444.757 110.151L445.139 109.227L445.139 109.227L444.757 110.151ZM442.956 108.948L443.663 108.241L443.663 108.241L442.956 108.948ZM441.753 107.149L440.83 107.532H440.83L441.753 107.149ZM441.331 105.027L440.377 104.727L440.331 104.874L440.331 105.027L441.331 105.027ZM444.011 96.0561C442.733 95.8366 441.544 95.2271 440.615 94.2985L439.201 95.7131C440.424 96.9359 441.99 97.7382 443.672 98.0272L444.011 96.0561ZM440.615 94.2985C439.43 93.1149 438.765 91.5097 438.765 89.836H436.765C436.765 92.0405 437.641 94.1545 439.201 95.7131L440.615 94.2985ZM438.765 89.836V78.0745H436.765V89.836H438.765ZM437.765 79.0745H454.304V77.0745H437.765V79.0745ZM453.304 78.0745V93.0542H455.304V78.0745H453.304ZM453.304 93.0542C453.304 93.4459 453.23 93.8299 453.089 94.1874L454.95 94.9206C455.182 94.3318 455.304 93.6993 455.304 93.0542H453.304ZM458.043 104.746L454.979 94.2732L453.06 94.8347L456.123 105.308L458.043 104.746ZM457.584 107.532C457.914 106.738 458.083 105.887 458.083 105.027L456.083 105.027C456.083 105.624 455.965 106.215 455.737 106.766L457.584 107.532ZM456.165 109.656C456.773 109.048 457.255 108.326 457.584 107.532L455.737 106.766C455.508 107.318 455.173 107.819 454.751 108.241L456.165 109.656ZM454.04 111.075C454.835 110.746 455.556 110.264 456.165 109.656L454.751 108.241C454.328 108.663 453.827 108.998 453.275 109.227L454.04 111.075ZM451.534 111.573C452.394 111.573 453.246 111.403 454.04 111.075L453.275 109.227C452.723 109.455 452.132 109.573 451.534 109.573L451.534 111.573ZM446.88 111.573H451.534V109.573H446.88V111.573ZM444.374 111.075C445.169 111.403 446.02 111.573 446.88 111.573L446.88 109.573C446.283 109.573 445.691 109.455 445.139 109.227L444.374 111.075ZM442.249 109.656C442.858 110.264 443.579 110.746 444.374 111.075L445.139 109.227C444.587 108.998 444.086 108.663 443.663 108.241L442.249 109.656ZM440.83 107.532C441.159 108.326 441.641 109.048 442.249 109.656L443.663 108.241C443.241 107.819 442.906 107.318 442.677 106.766L440.83 107.532ZM440.331 105.027C440.331 105.887 440.5 106.738 440.83 107.532L442.677 106.766C442.449 106.215 442.331 105.624 442.331 105.027L440.331 105.027ZM442.888 96.7417L440.377 104.727L442.285 105.327L444.796 97.3416L442.888 96.7417Z" fill="#090909" mask="url(#path-109-inside-3_166_1552)"/>
<path d="M395.525 103.048L391.554 103.112L391.569 104.061L395.541 103.996L395.525 103.048Z" fill="#FFDC0D"/>
<path d="M496.288 188.022L494.097 190.739C493.717 191.21 493.439 191.756 493.279 192.34C493.12 192.924 493.084 193.535 493.172 194.134L493.732 197.929C493.74 197.982 493.765 198.031 493.803 198.069C493.841 198.106 493.89 198.131 493.944 198.138C493.997 198.145 494.051 198.134 494.098 198.108C494.144 198.082 494.181 198.041 494.203 197.992L496.068 193.75C496.163 193.533 496.317 193.347 496.511 193.213C496.705 193.078 496.933 192.999 497.17 192.985C497.701 192.955 498.218 192.795 498.673 192.518C499.129 192.242 499.509 191.859 499.782 191.401L500.683 189.891L496.288 188.022Z" fill="white"/>
<path d="M493.98 198.803C493.938 198.803 493.897 198.801 493.855 198.795C493.659 198.77 493.476 198.681 493.335 198.542C493.195 198.403 493.103 198.222 493.076 198.026L492.516 194.231C492.415 193.542 492.457 192.839 492.641 192.166C492.824 191.494 493.144 190.866 493.581 190.323L496.086 187.215L501.641 189.578L500.352 191.741C500.024 192.292 499.566 192.753 499.018 193.086C498.469 193.418 497.848 193.611 497.207 193.648C497.093 193.654 496.983 193.692 496.889 193.757C496.795 193.822 496.721 193.912 496.676 194.017L494.81 198.259C494.74 198.421 494.624 198.559 494.477 198.656C494.329 198.752 494.157 198.804 493.98 198.803ZM496.49 188.828L494.614 191.155C494.292 191.556 494.056 192.018 493.92 192.515C493.785 193.011 493.754 193.529 493.828 194.038L494.177 196.402L495.461 193.483C495.605 193.154 495.837 192.872 496.132 192.667C496.427 192.462 496.773 192.343 497.131 192.324C497.555 192.3 497.966 192.172 498.329 191.952C498.692 191.732 498.995 191.426 499.212 191.062L499.724 190.204L496.49 188.828Z" fill="#090909"/>
<path d="M502.372 191.52L494.121 187.855L503.392 168.573L504.588 169.147L495.909 187.197L501.787 189.808L507.96 178.358L509.128 178.988L502.372 191.52Z" fill="#090909"/>
<path d="M495.015 186.327H452.44V187.654H495.015V186.327Z" fill="#090909"/>
<path d="M506.375 186.327H504.056V187.654H506.375V186.327Z" fill="#090909"/>
<path d="M368.422 180.403C368.734 180.402 369.042 180.34 369.329 180.221C369.617 180.101 369.878 179.926 370.098 179.706C370.318 179.485 370.492 179.224 370.61 178.936C370.729 178.648 370.79 178.34 370.789 178.028L370.768 166.336L366.026 166.345L366.047 178.037C366.048 178.666 366.299 179.268 366.744 179.712C367.19 180.155 367.793 180.404 368.422 180.403Z" fill="#FFDC0D"/>
<path d="M368.901 177.717H367.953V187.789H368.901V177.717Z" fill="#FFDC0D"/>
<path d="M370.421 187.489L366.449 187.496L366.451 188.445L370.423 188.438L370.421 187.489Z" fill="#FFDC0D"/>
<path d="M95.3505 199.411C95.6619 199.411 95.9701 199.349 96.2576 199.229C96.5451 199.11 96.8062 198.935 97.026 198.714C97.2458 198.494 97.4199 198.232 97.5386 197.944C97.6572 197.657 97.718 197.348 97.7174 197.037L97.6965 185.345L92.9541 185.354L92.9751 197.045C92.9762 197.674 93.2271 198.276 93.6726 198.72C94.1181 199.164 94.7217 199.412 95.3505 199.411Z" fill="#FFDC0D"/>
<path d="M95.8296 196.726H94.8813V206.798H95.8296V196.726Z" fill="#FFDC0D"/>
<path d="M97.3505 206.498L93.3784 206.505L93.3802 207.454L97.3523 207.446L97.3505 206.498Z" fill="#FFDC0D"/>
<path d="M261.067 135.746H259.74C259.74 130.65 258.485 128.167 257.157 125.538C255.818 122.885 254.432 120.143 254.432 114.732C254.432 109.32 255.818 106.578 257.157 103.926C258.485 101.297 259.74 98.8133 259.74 93.7178C259.74 88.6228 258.485 86.1399 257.157 83.5111C255.818 80.8594 254.432 78.1172 254.432 72.7067C254.432 67.2958 255.818 64.5538 257.157 61.9019C258.485 59.273 259.74 56.7899 259.74 51.6949H261.067C261.067 57.1059 259.682 59.8478 258.342 62.4998C257.014 65.1286 255.759 67.6118 255.759 72.7067C255.759 77.8014 257.014 80.2845 258.342 82.9132C259.681 85.5649 261.067 88.307 261.067 93.7178C261.067 99.1291 259.682 101.872 258.342 104.524C257.014 107.153 255.759 109.636 255.759 114.732C255.759 119.827 257.014 122.311 258.342 124.94C259.682 127.592 261.067 130.334 261.067 135.746Z" fill="#090909"/>
<path d="M279.57 20.3221C279.57 33.2262 271.174 48.4511 260.818 48.4511C250.461 48.4511 242.065 33.2262 242.065 20.3221C242.065 7.41792 250.461 1.72095 260.818 1.72095C271.174 1.72095 279.57 7.41788 279.57 20.3221Z" fill="#FFDC0D"/>
<path d="M264.48 52.5712H257.154L258.919 47.0313H262.716L264.48 52.5712Z" fill="#FFDC0D"/>
<path d="M382.484 151.368H381.157C381.157 146.272 379.903 143.789 378.575 141.16C377.235 138.508 375.85 135.765 375.85 130.354C375.85 124.942 377.235 122.2 378.575 119.548C379.903 116.919 381.157 114.435 381.157 109.34C381.157 104.245 379.903 101.762 378.575 99.1334C377.235 96.4817 375.85 93.7395 375.85 88.3288C375.85 82.9179 377.235 80.1759 378.575 77.524C379.903 74.8952 381.157 72.412 381.157 67.3171H382.484C382.484 72.728 381.099 75.47 379.759 78.1219C378.431 80.7508 377.176 83.2339 377.176 88.3288C377.176 93.4238 378.431 95.9069 379.759 98.5355C381.099 101.187 382.484 103.929 382.484 109.34C382.484 114.751 381.099 117.494 379.759 120.146C378.431 122.775 377.176 125.258 377.176 130.354C377.176 135.45 378.431 137.933 379.759 140.562C381.099 143.214 382.484 145.956 382.484 151.368Z" fill="#090909"/>
<path d="M400.988 35.9443C400.988 48.8485 392.592 64.0734 382.236 64.0734C371.879 64.0734 363.483 48.8485 363.483 35.9443C363.483 23.0401 371.879 17.3432 382.236 17.3432C392.592 17.3432 400.988 23.0402 400.988 35.9443Z" fill="#FFDC0D"/>
<path d="M385.898 68.1932H378.573L380.337 62.6533H384.134L385.898 68.1932Z" fill="#FFDC0D"/>
<path d="M328.209 207.01L326.333 208.182C325.437 206.748 325.798 205.482 326.061 204.557C326.3 203.714 326.4 203.283 326.04 202.707C325.68 202.132 325.249 202.032 324.386 201.878C323.439 201.709 322.142 201.478 321.245 200.044C320.35 198.612 320.71 197.345 320.974 196.42C321.214 195.578 321.313 195.148 320.954 194.573C320.594 193.998 320.163 193.898 319.301 193.745C318.354 193.576 317.056 193.344 316.16 191.911C315.265 190.479 315.625 189.212 315.889 188.287C316.129 187.445 316.228 187.015 315.869 186.44L317.744 185.269C318.64 186.701 318.279 187.968 318.016 188.893C317.776 189.735 317.677 190.165 318.036 190.74C318.395 191.315 318.826 191.415 319.689 191.569C320.636 191.737 321.933 191.969 322.829 193.402C323.725 194.834 323.364 196.101 323.101 197.026C322.861 197.868 322.762 198.298 323.121 198.873C323.481 199.449 323.912 199.548 324.775 199.702C325.722 199.871 327.019 200.103 327.915 201.536C328.811 202.969 328.451 204.236 328.188 205.161C327.948 206.004 327.849 206.435 328.209 207.01ZM51.4564 43.1105L49.5809 44.2818C48.6848 42.8486 49.0453 41.5817 49.3084 40.6568C49.548 39.814 49.6475 39.3832 49.2876 38.8077C48.9277 38.2321 48.4967 38.1325 47.6337 37.9784C46.6866 37.8093 45.3892 37.5778 44.4931 36.1446C43.5973 34.7119 43.9581 33.4454 44.2214 32.5207C44.4617 31.6782 44.5609 31.2479 44.2016 30.6732C43.842 30.0981 43.4111 29.9987 42.5483 29.8448C41.6012 29.6758 40.3039 29.4445 39.408 28.0116C38.5122 26.579 38.873 25.3125 39.1367 24.3875C39.3766 23.5453 39.4759 23.115 39.1165 22.5403L40.992 21.3691C41.8878 22.8017 41.527 24.0682 41.2637 24.9929C41.0234 25.8353 40.9242 26.2656 41.2835 26.8403C41.6431 27.4154 42.074 27.5148 42.9368 27.6687C43.8839 27.8377 45.1811 28.069 46.0771 29.5019C46.9728 30.9346 46.6121 32.2011 46.3488 33.1258C46.1085 33.9682 46.0092 34.3985 46.3686 34.9733C46.7285 35.5489 47.1595 35.6484 48.0224 35.8025C48.9696 35.9717 50.267 36.2032 51.1631 37.6363C52.0592 39.0695 51.6986 40.3364 51.4355 41.2614C51.1959 42.1042 51.0965 42.5349 51.4564 43.1105ZM473.269 176.589L471.219 175.759C471.854 174.193 473.092 173.741 473.996 173.411C474.819 173.11 475.226 172.937 475.481 172.308C475.736 171.679 475.564 171.272 475.182 170.483C474.763 169.618 474.189 168.432 474.823 166.866C475.458 165.3 476.695 164.848 477.599 164.518C478.423 164.218 478.829 164.046 479.084 163.418C479.339 162.789 479.166 162.382 478.784 161.594C478.365 160.728 477.791 159.543 478.425 157.977C479.06 156.411 480.298 155.959 481.202 155.63C482.025 155.329 482.431 155.157 482.686 154.529L484.736 155.359C484.101 156.924 482.864 157.376 481.96 157.706C481.137 158.006 480.73 158.178 480.475 158.807C480.221 159.435 480.393 159.842 480.775 160.631C481.194 161.496 481.768 162.681 481.134 164.247C480.499 165.813 479.262 166.265 478.358 166.595C477.534 166.895 477.128 167.067 476.873 167.696C476.618 168.325 476.791 168.732 477.172 169.52C477.591 170.386 478.166 171.572 477.531 173.138C476.896 174.704 475.658 175.157 474.755 175.487C473.931 175.788 473.524 175.96 473.269 176.589ZM390.837 259.581L389.408 261.269C388.117 260.177 388.074 258.861 388.042 257.9C388.013 257.024 387.976 256.583 387.458 256.145C386.939 255.707 386.498 255.743 385.63 255.86C384.676 255.987 383.37 256.163 382.079 255.071C380.788 253.98 380.745 252.664 380.714 251.703C380.685 250.827 380.648 250.387 380.131 249.949C379.613 249.511 379.172 249.548 378.303 249.665C377.35 249.793 376.044 249.968 374.753 248.877C373.463 247.785 373.42 246.469 373.388 245.508C373.36 244.633 373.323 244.193 372.805 243.755L374.234 242.068C375.524 243.159 375.567 244.475 375.599 245.436C375.627 246.311 375.664 246.751 376.182 247.189C376.7 247.627 377.14 247.59 378.009 247.474C378.963 247.346 380.269 247.171 381.559 248.262C382.85 249.353 382.893 250.669 382.924 251.63C382.953 252.506 382.99 252.946 383.507 253.384C384.026 253.822 384.466 253.785 385.335 253.669C386.289 253.541 387.595 253.366 388.886 254.458C390.177 255.549 390.22 256.866 390.252 257.827C390.281 258.702 390.318 259.143 390.837 259.581ZM132.36 249.681L130.292 248.898C130.891 247.318 132.118 246.837 133.014 246.487C133.83 246.167 134.233 245.985 134.474 245.351C134.714 244.716 134.533 244.313 134.133 243.533C133.694 242.677 133.093 241.505 133.692 239.925C134.29 238.345 135.517 237.865 136.413 237.514C137.23 237.195 137.632 237.014 137.872 236.38C138.113 235.746 137.931 235.343 137.531 234.563C137.092 233.708 136.491 232.536 137.09 230.956C137.688 229.376 138.915 228.896 139.811 228.546C140.627 228.227 141.03 228.045 141.27 227.411L143.338 228.194C142.74 229.774 141.513 230.254 140.617 230.604C139.801 230.923 139.398 231.105 139.158 231.738C138.918 232.373 139.099 232.776 139.499 233.555C139.938 234.411 140.539 235.583 139.941 237.163C139.342 238.743 138.115 239.223 137.219 239.573C136.403 239.892 136 240.074 135.76 240.707C135.52 241.342 135.701 241.745 136.101 242.525C136.54 243.381 137.141 244.553 136.542 246.133C135.943 247.714 134.716 248.194 133.82 248.545C133.004 248.864 132.601 249.046 132.36 249.681ZM247.254 276.321L245.186 275.539C245.785 273.958 247.012 273.478 247.908 273.127C248.724 272.808 249.127 272.626 249.368 271.991C249.608 271.356 249.427 270.953 249.027 270.174C248.588 269.318 247.987 268.146 248.586 266.565C249.184 264.985 250.411 264.505 251.307 264.155C252.123 263.836 252.526 263.654 252.766 263.021C253.007 262.386 252.825 261.983 252.425 261.204C251.986 260.348 251.385 259.176 251.984 257.596C252.582 256.016 253.809 255.536 254.705 255.186C255.521 254.867 255.924 254.686 256.164 254.052L258.232 254.835C257.634 256.414 256.407 256.894 255.511 257.245C254.695 257.564 254.292 257.745 254.052 258.379C253.812 259.013 253.993 259.416 254.393 260.196C254.832 261.051 255.433 262.223 254.835 263.803C254.236 265.383 253.009 265.863 252.113 266.213C251.297 266.532 250.894 266.714 250.654 267.348C250.413 267.983 250.595 268.386 250.995 269.165C251.434 270.021 252.035 271.193 251.436 272.774C250.837 274.354 249.61 274.835 248.714 275.185C247.898 275.505 247.495 275.687 247.254 276.321ZM467.067 34.099L464.999 33.3163C465.598 31.7358 466.825 31.2555 467.721 30.9048C468.537 30.5852 468.94 30.4035 469.181 29.7687C469.421 29.134 469.24 28.7309 468.84 27.9511C468.401 27.0953 467.8 25.9232 468.399 24.3427C468.997 22.7627 470.224 22.2829 471.12 21.9325C471.937 21.6136 472.339 21.432 472.579 20.7982C472.82 20.164 472.638 19.761 472.238 18.9815C471.799 18.1259 471.198 16.954 471.797 15.3738C472.395 13.7939 473.622 13.3141 474.518 12.9638C475.334 12.6447 475.737 12.4632 475.977 11.8294L478.046 12.6121C477.447 14.192 476.22 14.6718 475.324 15.0222C474.508 15.3412 474.105 15.5227 473.865 16.1565C473.625 16.7907 473.806 17.1936 474.206 17.9731C474.645 18.8288 475.246 20.0007 474.648 21.5809C474.049 23.1608 472.822 23.6406 471.926 23.991C471.11 24.31 470.707 24.4916 470.467 25.1254C470.227 25.7601 470.408 26.1632 470.808 26.943C471.247 27.7988 471.848 28.9709 471.249 30.5514C470.65 32.1319 469.423 32.6121 468.527 32.9629C467.711 33.2825 467.308 33.4643 467.067 34.099ZM302.816 68.1923L300.923 69.3357C300.049 67.8894 300.428 66.6279 300.705 65.707C300.957 64.8679 301.063 64.4386 300.711 63.8578C300.36 63.2769 299.931 63.171 299.07 63.004C298.125 62.8209 296.832 62.5703 295.957 61.124C295.082 59.6782 295.462 58.4172 295.739 57.4965C295.992 56.6576 296.097 56.2288 295.746 55.6489C295.395 55.0685 294.966 54.9627 294.106 54.7961C293.161 54.6131 291.867 54.3626 290.993 52.9166C290.118 51.4709 290.498 50.2098 290.775 49.2889C291.028 48.4503 291.133 48.0216 290.783 47.4416L292.675 46.2983C293.55 47.744 293.17 49.005 292.893 49.9256C292.64 50.7645 292.535 51.1933 292.885 51.7732C293.236 52.3536 293.666 52.4594 294.526 52.626C295.471 52.809 296.764 53.0594 297.639 54.5055C298.514 55.9513 298.134 57.2123 297.857 58.1329C297.604 58.9718 297.499 59.4006 297.849 59.9806C298.201 60.5615 298.63 60.6673 299.491 60.8342C300.435 61.0173 301.729 61.268 302.604 62.7143C303.479 64.1606 303.099 65.422 302.823 66.343C302.571 67.1821 302.465 67.6114 302.816 68.1923ZM188.989 23.6588L186.801 23.3365C187.048 21.6645 188.144 20.933 188.944 20.3989C189.673 19.9122 190.028 19.6485 190.127 18.977C190.226 18.3056 189.962 17.9506 189.405 17.2743C188.793 16.5321 187.955 15.5156 188.202 13.8437C188.448 12.1724 189.544 11.4414 190.344 10.9076C191.074 10.4215 191.428 10.158 191.527 9.48756C191.626 8.81665 191.362 8.46189 190.805 7.78589C190.193 7.04389 189.355 6.02764 189.602 4.35603C189.848 2.68473 190.944 1.95369 191.744 1.41999C192.473 0.933856 192.828 0.67043 192.927 0L195.115 0.32244C194.868 1.9937 193.772 2.72473 192.972 3.25848C192.243 3.74457 191.888 4.00804 191.789 4.67847C191.69 5.34938 191.954 5.70414 192.512 6.3801C193.123 7.12214 193.962 8.13839 193.715 9.81C193.468 11.4813 192.372 12.2123 191.572 12.7461C190.843 13.2322 190.489 13.4957 190.39 14.1662C190.291 14.8376 190.554 15.1925 191.112 15.8688C191.723 16.611 192.562 17.6275 192.315 19.2994C192.068 20.9713 190.972 21.7028 190.172 22.2369C189.443 22.7237 189.088 22.9874 188.989 23.6588ZM109.287 260.701L107.649 262.186C106.513 260.933 106.644 259.623 106.739 258.666C106.826 257.794 106.848 257.352 106.392 256.849C105.936 256.346 105.494 256.325 104.617 256.325C103.655 256.326 102.337 256.328 101.202 255.075C100.067 253.823 100.198 252.513 100.293 251.556C100.381 250.685 100.403 250.244 99.9472 249.741C99.4916 249.239 99.0499 249.217 98.1734 249.218C97.2114 249.219 95.8936 249.221 94.7584 247.969C93.6234 246.717 93.7545 245.406 93.8505 244.45C93.9377 243.578 93.9593 243.137 93.5039 242.635L95.1428 241.151C96.2778 242.403 96.1467 243.713 96.051 244.67C95.9635 245.541 95.9419 245.982 96.3973 246.484C96.8529 246.987 97.2946 247.009 98.171 247.008C99.133 247.007 100.451 247.005 101.586 248.257C102.721 249.509 102.59 250.819 102.494 251.776C102.407 252.648 102.385 253.089 102.841 253.591C103.297 254.094 103.738 254.116 104.615 254.115C105.577 254.114 106.895 254.113 108.031 255.365C109.166 256.618 109.035 257.928 108.94 258.885C108.853 259.757 108.831 260.198 109.287 260.701Z" fill="#090909"/>
<path d="M255.222 210.99L252.194 212.046L254.971 219.993L257.998 218.936L255.222 210.99Z" fill="#FFDC0D"/>
<path d="M3.02729 222.909L0 223.966L2.77635 231.913L5.80364 230.856L3.02729 222.909Z" fill="#FFDC0D"/>
<path d="M156.51 7.3277L153.483 8.38422L156.259 16.3309L159.287 15.2744L156.51 7.3277Z" fill="#FFDC0D"/>
<path d="M495.345 53.8985L488.859 59.2683L490.905 61.7362L497.39 56.3664L495.345 53.8985Z" fill="#FFDC0D"/>
<path d="M339.285 53.4398L334.523 60.3824L337.168 62.1944L341.93 55.2517L339.285 53.4398Z" fill="#FFDC0D"/>
<path d="M194.662 149.253L192.017 147.442L187.255 154.384L189.9 156.196L194.662 149.253Z" fill="#FFDC0D"/>
<path d="M512.073 256.892L507.311 263.834L509.956 265.646L514.718 258.704L512.073 256.892Z" fill="#FFDC0D"/>
<path d="M396.301 206.428L388.835 210.322L390.319 213.164L397.785 209.269L396.301 206.428Z" fill="#FFDC0D"/>
<path d="M33.855 213.574L26.389 217.468L27.8727 220.309L35.3387 216.415L33.855 213.574Z" fill="#FFDC0D"/>
<path d="M332.888 330.186L332.144 328.321L333.963 327.618L335.172 328.841L332.888 330.186Z" fill="#090909"/>
<path d="M435.657 73.5587L450.381 75.5322C453.48 75.9573 455.046 77.6195 455.046 80.1945V86.1017C455.046 86.4531 454.977 86.801 454.842 87.1256C454.708 87.4502 454.51 87.7451 454.262 87.9936C454.013 88.242 453.718 88.4391 453.393 88.5735C453.068 88.708 452.72 88.7772 452.369 88.7772H449.639V82.7706C449.639 82.0873 449.367 81.4321 448.884 80.949C448.4 80.4659 447.745 80.1945 447.061 80.1945H437.804L435.657 73.5587ZM433.747 71.9646L434.395 73.9667L436.542 80.6025L436.839 81.5206H447.061C447.393 81.521 447.711 81.6528 447.945 81.8871C448.18 82.1215 448.311 82.4392 448.312 82.7706V90.1034H452.369C453.43 90.1022 454.448 89.6802 455.199 88.93C455.949 88.1798 456.372 87.1627 456.373 86.1017V80.1945C456.373 76.903 454.255 74.7248 450.561 74.2183L435.834 72.2443L433.747 71.9646Z" fill="white"/>
<path d="M448.975 89.4402V82.7704C448.975 82.2632 448.773 81.777 448.414 81.4183C448.055 81.0597 447.569 80.858 447.061 80.8574H437.322L434.702 72.7615L450.469 74.8749C453.849 75.3383 455.709 77.2275 455.709 80.1943V86.1017C455.708 86.9868 455.356 87.8354 454.73 88.4613C454.104 89.0872 453.255 89.4393 452.369 89.4402H448.975Z" fill="#090909"/>
</svg>
