<svg width="16" height="16" viewBox="0 0 16 16" fill="none" xmlns="http://www.w3.org/2000/svg">
<path d="M14.3776 2.62889L12.9628 1.21414C12.5438 0.794784 11.9861 0.563477 11.3927 0.563477C10.7993 0.563477 10.2416 0.794444 9.82262 1.2138L1.95713 9.0786C1.92477 9.11096 1.8982 9.14741 1.87503 9.18522C1.86822 9.19612 1.86311 9.20702 1.85698 9.21861C1.84063 9.24995 1.827 9.28231 1.81678 9.3157C1.8144 9.32285 1.80963 9.32966 1.80792 9.33716L0.44256 14.3878C0.388396 14.5881 0.445286 14.802 0.591769 14.9485C0.701802 15.0582 0.849648 15.1181 1.00124 15.1181C1.05166 15.1181 1.10242 15.1113 1.15215 15.098L5.98577 13.7913C6.02426 13.7991 6.06378 13.8035 6.10296 13.8035C6.25148 13.8035 6.39933 13.747 6.51243 13.6339L14.3776 5.76943C14.7969 5.35008 15.0282 4.79208 15.0279 4.19899C15.0282 3.60591 14.7973 3.04825 14.3776 2.62889ZM6.1033 12.4055L3.18589 9.48807L9.39577 3.27819L12.3135 6.19526L6.1033 12.4055ZM1.82359 13.717L2.66502 10.6051L4.93552 12.8756L1.82359 13.717ZM13.5586 4.95049L13.1328 5.37631L10.2151 2.45925L10.6416 2.03308C11.0429 1.63178 11.7426 1.63178 12.1439 2.03308L13.5586 3.44818C13.7593 3.64883 13.87 3.9159 13.87 4.19967C13.87 4.48344 13.7596 4.74984 13.5586 4.95049Z" fill="black"/>
<path d="M9.31928 5.45312L5.68512 9.08728L6.50411 9.90627L10.1383 6.27211L9.31928 5.45312Z" fill="black"/>
</svg>
