<svg width="21" height="24" viewBox="0 0 21 24" fill="none" xmlns="http://www.w3.org/2000/svg">
<path d="M8.17797 8.56169C8.75987 6.56468 9.23569 5.07055 9.60544 4.07924C10.16 2.59231 11.4243 0.543635 11.4243 1.09052C11.4243 1.63742 13.4446 8.39864 13.7855 8.56169C14.1263 8.72466 20.0665 8.61365 19.9994 8.88912C19.9325 9.16459 20.0141 9.23371 19.2755 9.68541C18.7831 9.98647 17.0543 11.3046 14.089 13.6396C13.9143 13.7156 13.9321 13.9464 14.1423 14.3319C14.4576 14.9103 15.3648 18.0751 15.6921 19.0625C16.0195 20.05 16.6875 22.6996 16.3535 22.971C16.0195 23.2425 14.422 21.5278 14.089 21.145C13.756 20.7621 11.4243 16.1964 10.8195 16.1964C10.2147 16.1964 8.86242 18.2076 8.5662 18.5701C8.26991 18.9325 5.18307 22.6624 4.07621 22.8167C2.96926 22.971 3.32675 22.0279 4.07621 20.5452C4.57582 19.5567 5.571 17.2511 7.06183 13.6282C6.31305 13.2791 5.64902 13.0069 5.06975 12.8114C4.20091 12.5183 1.45693 11.5688 1.07336 11.4487C0.689773 11.3285 1.8923 10.7878 2.78328 10.2366C3.67429 9.68541 5.6402 8.88912 6.75634 8.88912" stroke="white" stroke-opacity="0.9" stroke-width="2" stroke-linecap="round" stroke-linejoin="round"/>
</svg>
