<svg width="289" height="45" viewBox="0 0 289 45" fill="none" xmlns="http://www.w3.org/2000/svg">
<rect y="2" width="49" height="41" fill="#DC3054"/>
<line x1="1.10573" y1="1.98641" x2="23.1057" y2="25.9864" stroke="white" stroke-width="3"/>
<line x1="22.9143" y1="27.965" x2="47.6996" y2="1.96503" stroke="white" stroke-width="3"/>
<path d="M56.3388 9.09091H63.3551L70.7656 27.1705H71.081L78.4915 9.09091H85.5078V36H79.9893V18.4854H79.766L72.8022 35.8686H69.0444L62.0806 18.4197H61.8572V36H56.3388V9.09091ZM95.4378 28.6158L102.704 15.8182H108.222V36H102.888V23.163L95.648 36H90.0901V15.8182H95.4378V28.6158ZM112.709 36V15.8182H118.307V23.6491H119.883L125.375 15.8182H131.945L124.81 25.8303L132.024 36H125.375L120.396 28.8391H118.307V36H112.709ZM134.389 43.5682V15.8182H139.907V19.2081H140.157C140.402 18.665 140.757 18.1132 141.221 17.5526C141.694 16.9832 142.307 16.5102 143.061 16.1335C143.823 15.7481 144.769 15.5554 145.899 15.5554C147.37 15.5554 148.728 15.9408 149.972 16.7116C151.216 17.4737 152.21 18.6256 152.955 20.1673C153.699 21.7002 154.071 23.6229 154.071 25.9354C154.071 28.1866 153.708 30.0874 152.981 31.6378C152.263 33.1795 151.282 34.3488 150.038 35.146C148.803 35.9343 147.419 36.3285 145.886 36.3285C144.8 36.3285 143.875 36.1489 143.113 35.7898C142.36 35.4306 141.743 34.9795 141.261 34.4364C140.779 33.8846 140.411 33.3284 140.157 32.7678H139.986V43.5682H134.389ZM139.868 25.9091C139.868 27.1091 140.034 28.1559 140.367 29.0494C140.7 29.9428 141.182 30.6392 141.813 31.1385C142.443 31.629 143.21 31.8743 144.112 31.8743C145.023 31.8743 145.794 31.6246 146.424 31.1254C147.055 30.6173 147.533 29.9165 147.857 29.0231C148.189 28.1209 148.356 27.0829 148.356 25.9091C148.356 24.7441 148.194 23.7192 147.87 22.8345C147.546 21.9498 147.068 21.2578 146.438 20.7585C145.807 20.2592 145.032 20.0096 144.112 20.0096C143.201 20.0096 142.43 20.2505 141.799 20.7322C141.178 21.214 140.7 21.8973 140.367 22.782C140.034 23.6667 139.868 24.709 139.868 25.9091ZM166.922 36.3942C164.881 36.3942 163.116 35.9606 161.627 35.0934C160.146 34.2174 159.003 32.9999 158.197 31.4407C157.391 29.8728 156.988 28.0552 156.988 25.9879C156.988 23.9032 157.391 22.0812 158.197 20.522C159.003 18.9541 160.146 17.7365 161.627 16.8693C163.116 15.9934 164.881 15.5554 166.922 15.5554C168.963 15.5554 170.723 15.9934 172.204 16.8693C173.693 17.7365 174.84 18.9541 175.646 20.522C176.452 22.0812 176.855 23.9032 176.855 25.9879C176.855 28.0552 176.452 29.8728 175.646 31.4407C174.84 32.9999 173.693 34.2174 172.204 35.0934C170.723 35.9606 168.963 36.3942 166.922 36.3942ZM166.948 32.0582C167.876 32.0582 168.652 31.7955 169.274 31.2699C169.895 30.7356 170.364 30.0085 170.679 29.0888C171.004 28.169 171.166 27.1223 171.166 25.9485C171.166 24.7747 171.004 23.728 170.679 22.8082C170.364 21.8885 169.895 21.1615 169.274 20.6271C168.652 20.0928 167.876 19.8256 166.948 19.8256C166.011 19.8256 165.222 20.0928 164.583 20.6271C163.952 21.1615 163.475 21.8885 163.151 22.8082C162.835 23.728 162.678 24.7747 162.678 25.9485C162.678 27.1223 162.835 28.169 163.151 29.0888C163.475 30.0085 163.952 30.7356 164.583 31.2699C165.222 31.7955 166.011 32.0582 166.948 32.0582ZM196.879 36L188.233 24.5295H186.289V36H180.6V9.09091H186.289V19.8388H187.432L196.367 9.09091H203.449L192.95 21.5732L203.935 36H196.879ZM205.337 36V31.4276L206.099 31.3619C207.08 31.283 207.873 30.9107 208.478 30.245C209.082 29.5705 209.533 28.4975 209.831 27.0259C210.138 25.5456 210.335 23.5572 210.422 21.0607L210.869 9.09091H229.132V36H223.601V13.6502H216.151L215.73 23.0185C215.59 26.0317 215.231 28.4931 214.653 30.4027C214.084 32.3123 213.173 33.7225 211.92 34.6335C210.676 35.5445 208.973 36 206.809 36H205.337ZM238.461 36H232.365L241.654 9.09091H248.986L258.262 36H252.165L245.425 15.2401H245.215L238.461 36ZM238.08 25.4229H252.481V29.864H238.08V25.4229ZM260.042 42.4908V31.467H261.869C262.491 31.0202 263.06 30.3896 263.577 29.5749C264.094 28.7515 264.536 27.6172 264.904 26.1719C265.272 24.7178 265.535 22.817 265.692 20.4695L266.454 9.09091H284.258V31.467H287.201V42.4645H281.735V36H265.508V42.4908H260.042ZM268.438 31.467H278.792V13.7816H271.579L271.158 20.4695C271.044 22.2476 270.856 23.8243 270.593 25.1996C270.339 26.5748 270.028 27.7792 269.66 28.8129C269.301 29.8377 268.894 30.7224 268.438 31.467Z" fill="black"/>
</svg>
