<svg width="96" height="85" viewBox="0 0 96 85" fill="none" xmlns="http://www.w3.org/2000/svg">
<path d="M25.5 4.5L5.5 16M3.91499 23.5C3.64347 19.9974 2.87874 12.523 4.00008 10C6.00008 2.99974 24.5001 3.00012 26 4.00012C26.6856 4.45716 30.8806 10.7897 34.6549 16M3.91499 23.5C3.96632 24.1622 4.00002 24.6824 4.00002 25.0004C4.00002 26.5391 7.97784 35.2758 11.0368 42M3.91499 23.5L31 12M34.6549 16C36.0632 17.9442 37.413 19.7322 38.5 21.0004L40.5 24.5L40.9121 25.0004M34.6549 16L9 33M11.0368 42C12.9477 46.2006 14.5001 49.6159 14.5001 50.0004C14.5001 51.0004 23.0001 60 24.5001 60.5C25.7001 60.9 33.3334 70.3337 40.5 73.5004L57.5 82L75.5 68.5L88 49.5C89.3333 43.1667 93 30.4 93 28C93 25.6 90.3334 13.667 89 8.00038L82.5 3.00012L75 2.5C72.3074 2.50006 63 2.50037 60.5 8.00038C58 13.5004 56 20.0002 55.5 22.5003C55.1 24.5004 51.8333 30 52 33C52.1667 36 47.5 33 47.5 33L40.9121 25.0004M11.0368 42C12.2074 41.6 31.4414 30.5003 40.9121 25.0004" stroke="#E85B5B" stroke-width="5"/>
<path d="M16.5 54L46 30M49.5 34.5L29.5 64.5L23 59L46 33.5M51 34.5L39.5 71M46 76L52 34.5M54 34.5L55.5 79.5M63 76L55.5 25M58.5 16.5C58.9 17.3 67.6667 52.1667 72 69.5M78.5 64.5C77.7 58.9 67.8333 24.1667 63 7.5M69.5 3.5L86.5 48.5M79.5 2.5L90.5 25.5C90.9 29.5 91.3333 32.5 91.5 33.5" stroke="#E85B5B" stroke-width="5"/>
</svg>
