<svg width="37" height="84" viewBox="0 0 37 84" fill="none" xmlns="http://www.w3.org/2000/svg">
<path d="M1.5 83.4999L14.5 56.9999M14.5 56.9999L26 83.4999M14.5 56.9999V42.2499M14.5 27.4999L9 27.0001L5 22.4999L3.5 16.5001L4.5 12.5001L5 8.99992L9 4.50005L9.75 4.00005M14.5 27.4999L20 27.0001L23 25.0001L27.5 22.4999C27.5 22.4999 32.5 12.0999 30.5 8.49992C28.5 4.89992 23 3.50005 23 3.50005M14.5 27.4999V42.2499M23 3.50005H18.5M23 3.50005L27 7.5C27.6667 8.5 29 10.6 29 11C29 11.4 29.3333 13.1667 29.5 14.0001M14.5 42.2499L29.5 33.0001M14.5 42.2499L4.5 33.0001M12 10V12V14.0001M22 10V12V14.0001M12.5 20.0001L15 21.5H19L21.5 20.0001M18.5 3.50005H14H10.5L9.75 4.00005M18.5 3.50005L20 2.00005H26L29.5 3.00005C30.3333 4.00005 32.1 6.10005 32.5 6.50005C32.9 6.90005 34.6667 11.6667 35.5 14.0001M18.5 3.50005L16.5 2.00005C15.1667 1.83339 12.3 1.50005 11.5 1.50005C10.5 1.50005 10 1.00005 9 1.50005C8 2.00005 6.5 3.50005 6 3.50005C5.5 3.50005 3.5 5 3.5 5.5C3.5 6 2 8.00011 1.5 9.50005C1 11 1 11.5001 1 12.5001M18.5 3.50005L11.5 5.5C10.6667 5.33334 8.9 6.30007 8.5 7.5C8 8.99992 8 10 7.5 11C7.1 11.8 6.66667 13.6667 6.5 14.5C6.5 14.6667 6.5 15.1 6.5 15.5M9.75 4.00005L6.5 6.50005C5.5 6.6667 3.5 7.1 3.5 7.5C3.5 8 3 10.5 3 11C3 11.5 1.5 15 1.5 15.5M27.5 6C28.3333 6.5 30.1 7.5 30.5 7.5C31 7.5 32.5 10.5 32.5 11C32.5 11.4 33.1667 14.1667 33.5 15.5L32.5 17" stroke="white" stroke-width="2"/>
</svg>
