<svg width="37" height="84" viewBox="0 0 37 84" fill="none" xmlns="http://www.w3.org/2000/svg">
<path d="M1.5 83.2221L14.5 56.7221M14.5 56.7221L26 83.2221M14.5 56.7221L15 36M14.5 27.2221L9 26.7222L5 22.2221L3.5 16.2222L4.5 12.2222L5 8.72209L9 4.22222L9.75 3.72222M14.5 27.2221L20 26.7222L23 24.7222L27.5 22.2221C27.5 22.2221 32.5 11.8221 30.5 8.22209C28.5 4.62209 23 3.22222 23 3.22222M14.5 27.2221L15 36M23 3.22222H18.5M23 3.22222L27 7.22217C27.6667 8.22217 29 10.3222 29 10.7222C29 11.1222 29.3333 12.8889 29.5 13.7222M15 36L21.5 53M15 36L8.5 52M12 9.72217V11.7222V13.7222M22 9.72217V11.7222V13.7222M12.5 19.7222L15 18.5H19L21.5 19.7222M18.5 3.22222H14H10.5L9.75 3.72222M18.5 3.22222L20 1.72222H26L29.5 2.72222C30.3333 3.72222 32.1 5.82222 32.5 6.22222C32.9 6.62222 34.6667 11.3889 35.5 13.7222M18.5 3.22222L16.5 1.72222C15.1667 1.55556 12.3 1.22222 11.5 1.22222C10.5 1.22222 10 0.722222 9 1.22222C8 1.72222 6.5 3.22222 6 3.22222C5.5 3.22222 3.5 4.72217 3.5 5.22217C3.5 5.72217 2 7.72228 1.5 9.22222C1 10.7222 1 11.2223 1 12.2222M18.5 3.22222L11.5 5.22217C10.6667 5.05551 8.9 6.02223 8.5 7.22217C8 8.72209 8 9.72217 7.5 10.7222C7.1 11.5222 6.66667 13.3888 6.5 14.2222C6.5 14.3888 6.5 14.8222 6.5 15.2222M9.75 3.72222L6.5 6.22222C5.5 6.38887 3.5 6.82217 3.5 7.22217C3.5 7.72217 3 10.2222 3 10.7222C3 11.2222 1.5 14.7222 1.5 15.2222M27.5 5.72217C28.3333 6.22217 30.1 7.22217 30.5 7.22217C31 7.22217 32.5 10.2222 32.5 10.7222C32.5 11.1222 33.1667 13.8888 33.5 15.2222L32.5 16.7222" stroke="white" stroke-width="2"/>
</svg>
