<svg width="35" height="84" viewBox="0 0 35 84" fill="none" xmlns="http://www.w3.org/2000/svg">
<path d="M1.50007 83.4999L14.5001 56.9999M14.5001 56.9999L26.0001 83.4999M14.5001 56.9999V42.2499M14.5001 27.4999L9.00007 27.0001L5.00007 22.4999L3.50007 16.5001L4.50007 12.5001L5.00007 8.99992L9.00007 4.50005L9.75007 4.00005M14.5001 27.4999L20.0001 27.0001L23.0001 25.0001L27.5001 22.4999C27.5001 22.4999 32.5001 12.0999 30.5001 8.49992C28.5001 4.89992 23.0001 3.50005 23.0001 3.50005M14.5001 27.4999V42.2499M23.0001 3.50005H18.5001M23.0001 3.50005L27.0001 7.5C27.6667 8.5 29.0001 10.6 29.0001 11C29.0001 11.4 28.8334 28.1666 29.0001 29M14.5001 42.2499L29.5001 33.0001M14.5001 42.2499L4.50007 33.0001M12.0001 10V12V14.0001M22.0001 10V12V14.0001M12.5001 20.0001L15.0001 21.5H19.0001L21.5001 20.0001M18.5001 3.50005H14.0001H10.5001L9.75007 4.00005M18.5001 3.50005L20.0001 2.00005H26.0001L29.5001 3.00005C30.3334 4.00005 32.1001 6.10005 32.5001 6.50005C32.9001 6.90005 32.1667 34.1667 33.0001 36.5M18.5001 3.50005L16.5001 2.00005C15.1667 1.83339 12.3001 1.50005 11.5001 1.50005C10.5001 1.50005 10.0001 1.00005 9.00007 1.50005C8.00007 2.00005 6.50007 3.50005 6.00007 3.50005C5.50007 3.50005 3.50007 5 3.50007 5.5C3.50007 6 2.00007 8.00011 1.50007 9.50005C1.00007 11 1.5 29.5001 1.5 30.5M18.5001 3.50005L11.5001 5.5C10.6667 5.33334 8.90007 6.30007 8.50007 7.5C8.00007 8.99992 8.00007 10 7.50007 11C7.10007 11.8 6.66674 13.6667 6.50007 14.5C6.50007 14.6667 7.00007 29.6 7.00007 30M9.75007 4.00005L6.50007 6.50005C5.50007 6.6667 3.50007 7.1 3.50007 7.5C3.50007 8 3.00007 10.5 3.00007 11C3.00007 11.5 3.50007 29.5 3.50007 30M27.5001 6C28.3334 6.5 30.1001 7.5 30.5001 7.5C31.0001 7.5 32.5001 10.5 32.5001 11C32.5001 11.4 33.1667 14.1667 33.5001 15.5V36.5M30.5001 11V28.5" stroke="white" stroke-width="2"/>
</svg>
