<svg width="35" height="84" viewBox="0 0 35 84" fill="none" xmlns="http://www.w3.org/2000/svg">
<path d="M1.22224 83.2221L14.2222 56.7221M14.2222 56.7221L25.7222 83.2221M14.2222 56.7221V41.9721M14.2222 27.2221L8.72224 26.7222L4.72224 22.2221L3.22224 16.2222L4.22224 12.2222L4.72224 8.72209L8.72224 4.22222L9.47224 3.72222M14.2222 27.2221L19.7222 26.7222L22.7222 24.7222L27.2222 22.2221C27.2222 22.2221 32.2222 11.8221 30.2222 8.22209C28.2222 4.62209 22.7222 3.22222 22.7222 3.22222M14.2222 27.2221V41.9721M22.7222 3.22222H18.2222M22.7222 3.22222L26.7222 7.22217C27.3889 8.22217 28.7222 10.3222 28.7222 10.7222C28.7222 11.1222 28.5556 27.8888 28.7222 28.7222M14.2222 41.9721L29.2222 32.7222M14.2222 41.9721L4.22224 32.7222M11.7222 9.72217V11.7222V13.7222M21.7222 9.72217V11.7222V13.7222M12.5 20.5L14.7222 18.6503L18.5 19L21 20.0719M18.2222 3.22222H13.7222H10.2222L9.47224 3.72222M18.2222 3.22222L19.7222 1.72222H25.7222L29.2222 2.72222C30.0556 3.72222 31.8222 5.82222 32.2222 6.22222C32.6222 6.62222 31.8889 33.8888 32.7222 36.2222M18.2222 3.22222L16.2222 1.72222C14.8889 1.55556 12.0222 1.22222 11.2222 1.22222C10.2222 1.22222 9.72224 0.722222 8.72224 1.22222C7.72224 1.72222 6.22224 3.22222 5.72224 3.22222C5.22224 3.22222 3.22224 4.72217 3.22224 5.22217C3.22224 5.72217 1.72224 7.72228 1.22224 9.22222C0.72224 10.7222 1.22217 29.2222 1.22217 30.2222M18.2222 3.22222L11.2222 5.22217C10.3889 5.05551 8.62224 6.02223 8.22224 7.22217C7.72224 8.72209 7.72224 9.72217 7.22224 10.7222C6.82224 11.5222 6.38891 13.3888 6.22224 14.2222C6.22224 14.3888 6.72224 29.3222 6.72224 29.7222M9.47224 3.72222L6.22224 6.22222C5.22224 6.38887 3.22224 6.82217 3.22224 7.22217C3.22224 7.72217 2.72224 10.2222 2.72224 10.7222C2.72224 11.2222 3.22224 29.2222 3.22224 29.7222M27.2222 5.72217C28.0556 6.22217 29.8222 7.22217 30.2222 7.22217C30.7222 7.22217 32.2222 10.2222 32.2222 10.7222C32.2222 11.1222 32.8889 13.8888 33.2222 15.2222V36.2222M30.2222 10.7222V28.2222" stroke="white" stroke-width="2"/>
</svg>
