<svg width="25" height="24" viewBox="0 0 25 24" fill="none" xmlns="http://www.w3.org/2000/svg">
<path d="M17.0747 15.2078L16.468 15.8118C16.468 15.8118 15.024 17.2465 11.084 13.3291C7.14399 9.41181 8.58799 7.97714 8.58799 7.97714L8.96933 7.59581C9.91199 6.65981 10.0013 5.15581 9.17866 4.05714L7.49866 1.81314C6.47999 0.453143 4.51333 0.273143 3.34666 1.43314L1.25333 3.51314C0.675992 4.08914 0.289325 4.83314 0.335992 5.65981C0.455992 7.77581 1.41333 12.3265 6.75199 17.6358C12.4147 23.2651 17.728 23.4891 19.9 23.2865C20.588 23.2225 21.1853 22.8731 21.6667 22.3931L23.56 20.5105C24.84 19.2398 24.48 17.0598 22.8427 16.1705L20.296 14.7851C19.2213 14.2025 17.9147 14.3731 17.0747 15.2078Z" fill="white"/>
</svg>
