<svg width="32" height="32" viewBox="0 0 32 32" fill="none" xmlns="http://www.w3.org/2000/svg">
<path d="M13.3334 19.9998L20.2534 15.9998L13.3334 11.9998V19.9998ZM28.7467 9.55984C28.92 10.1865 29.04 11.0265 29.12 12.0932C29.2134 13.1598 29.2534 14.0798 29.2534 14.8798L29.3334 15.9998C29.3334 18.9198 29.12 21.0665 28.7467 22.4398C28.4134 23.6398 27.64 24.4132 26.44 24.7465C25.8134 24.9198 24.6667 25.0398 22.9067 25.1198C21.1734 25.2132 19.5867 25.2532 18.12 25.2532L16 25.3332C10.4134 25.3332 6.93335 25.1198 5.56002 24.7465C4.36002 24.4132 3.58669 23.6398 3.25335 22.4398C3.08002 21.8132 2.96002 20.9732 2.88002 19.9065C2.78669 18.8398 2.74669 17.9198 2.74669 17.1198L2.66669 15.9998C2.66669 13.0798 2.88002 10.9332 3.25335 9.55984C3.58669 8.35984 4.36002 7.5865 5.56002 7.25317C6.18669 7.07984 7.33335 6.95984 9.09335 6.87984C10.8267 6.7865 12.4134 6.7465 13.88 6.7465L16 6.6665C21.5867 6.6665 25.0667 6.87984 26.44 7.25317C27.64 7.5865 28.4134 8.35984 28.7467 9.55984Z" fill="white"/>
</svg>
