<svg width="25" height="21" fill="none" xmlns="http://www.w3.org/2000/svg"><path d="M25 2.41c-.92.408-1.907.683-2.945.808A5.142 5.142 0 0024.31.379a10.24 10.24 0 01-3.257 1.244 5.13 5.13 0 00-8.74 4.68A14.566 14.566 0 011.74.943a5.13 5.13 0 00-.694 2.579 5.13 5.13 0 002.281 4.27 5.116 5.116 0 01-2.323-.642v.066a5.131 5.131 0 004.115 5.03 5.166 5.166 0 01-2.317.087 5.132 5.132 0 004.792 3.56 10.292 10.292 0 01-6.37 2.197c-.41 0-.819-.023-1.225-.071a14.506 14.506 0 007.861 2.304c9.436 0 14.595-7.815 14.595-14.593 0-.22-.006-.442-.016-.662a10.425 10.425 0 002.558-2.654L25 2.411z" fill="#fff"/></svg>