<svg width="732" height="830" viewBox="0 0 732 830" fill="none" xmlns="http://www.w3.org/2000/svg">
<g opacity="0.2">
<path d="M366.06 179.697C431.388 179.697 484.347 126.71 484.347 61.3483C484.347 -4.01363 431.388 -57 366.06 -57C300.732 -57 247.773 -4.01363 247.773 61.3483C247.773 126.71 300.732 179.697 366.06 179.697Z" stroke="white" stroke-width="0.6" stroke-miterlimit="10"/>
<path d="M491.565 80.9017C491.78 11.5262 435.741 -44.8874 366.399 -45.1016C297.057 -45.3158 240.671 10.7504 240.457 80.1258C240.242 149.501 296.281 205.915 365.623 206.129C434.965 206.343 491.351 150.277 491.565 80.9017Z" stroke="white" stroke-width="0.6" stroke-miterlimit="10"/>
<path d="M366.305 233.745C440.233 233.612 500.056 173.519 499.923 99.5231C499.79 25.5272 439.752 -34.3508 365.823 -34.218C291.895 -34.0852 232.072 26.0081 232.205 100.004C232.337 174 292.376 233.878 366.305 233.745Z" stroke="white" stroke-width="0.6" stroke-miterlimit="10"/>
<path d="M366.356 262.141C445.378 261.98 509.307 197.736 509.146 118.647C508.985 39.5587 444.796 -24.425 365.774 -24.2644C286.753 -24.1038 222.824 40.1403 222.985 119.229C223.146 198.318 287.335 262.302 366.356 262.141Z" stroke="white" stroke-width="0.6" stroke-miterlimit="10"/>
<path d="M366.06 291.267C450.578 291.267 519.094 222.696 519.094 138.11C519.094 53.5243 450.578 -15.0464 366.06 -15.0464C281.541 -15.0464 213.025 53.5243 213.025 138.11C213.025 222.696 281.541 291.267 366.06 291.267Z" stroke="white" stroke-width="0.6" stroke-miterlimit="10"/>
<path d="M366.06 320.945C456.38 320.945 529.598 247.672 529.598 157.285C529.598 66.8981 456.38 -6.375 366.06 -6.375C275.74 -6.375 202.522 66.8981 202.522 157.285C202.522 247.672 275.74 320.945 366.06 320.945Z" stroke="white" stroke-width="0.6" stroke-miterlimit="10"/>
<path d="M366.06 351.174C462.484 351.174 540.651 272.952 540.651 176.461C540.651 79.969 462.484 1.74707 366.06 1.74707C269.636 1.74707 191.469 79.969 191.469 176.461C191.469 272.952 269.636 351.174 366.06 351.174Z" stroke="white" stroke-width="0.6" stroke-miterlimit="10"/>
<path d="M552.025 195.991C552.228 93.1929 469.112 9.69392 366.381 9.49117C263.65 9.28842 180.206 92.4587 180.003 195.257C179.8 298.056 262.916 381.554 365.647 381.757C468.378 381.96 551.822 298.79 552.025 195.991Z" stroke="white" stroke-width="0.6" stroke-miterlimit="10"/>
<path d="M537.598 313.251C483.309 408.088 362.457 440.882 267.742 386.532C172.965 332.182 140.233 211.269 194.522 116.431C248.811 21.5939 369.663 -11.1992 464.439 43.1506C559.094 97.5005 591.887 218.414 537.598 313.251Z" stroke="white" stroke-width="0.6" stroke-miterlimit="10"/>
<path d="M366.06 443.935C481.911 443.935 575.826 349.965 575.826 234.047C575.826 118.129 481.911 24.1587 366.06 24.1587C250.209 24.1587 156.294 118.129 156.294 234.047C156.294 349.965 250.209 443.935 366.06 443.935Z" stroke="white" stroke-width="0.6" stroke-miterlimit="10"/>
<path d="M366.06 475.384C488.656 475.384 588.04 375.918 588.04 253.221C588.04 130.524 488.656 31.0586 366.06 31.0586C243.464 31.0586 144.081 130.524 144.081 253.221C144.081 375.918 243.464 475.384 366.06 475.384Z" stroke="white" stroke-width="0.6" stroke-miterlimit="10"/>
<path d="M366.06 507.017C495.536 507.017 600.497 401.974 600.497 272.397C600.497 142.819 495.536 37.7764 366.06 37.7764C236.584 37.7764 131.623 142.819 131.623 272.397C131.623 401.974 236.584 507.017 366.06 507.017Z" stroke="white" stroke-width="0.6" stroke-miterlimit="10"/>
<path d="M366.06 538.832C502.517 538.832 613.138 428.13 613.138 291.571C613.138 155.012 502.517 44.3096 366.06 44.3096C229.602 44.3096 118.982 155.012 118.982 291.571C118.982 428.13 229.602 538.832 366.06 538.832Z" stroke="white" stroke-width="0.6" stroke-miterlimit="10"/>
<path d="M366.06 570.772C509.533 570.772 625.84 454.355 625.84 310.748C625.84 167.14 509.533 50.7236 366.06 50.7236C222.587 50.7236 106.28 167.14 106.28 310.748C106.28 454.355 222.587 570.772 366.06 570.772Z" stroke="white" stroke-width="0.6" stroke-miterlimit="10"/>
<path d="M366.06 602.771C516.649 602.771 638.725 480.613 638.725 329.923C638.725 179.233 516.649 57.0747 366.06 57.0747C215.471 57.0747 93.3948 179.233 93.3948 329.923C93.3948 480.613 215.471 602.771 366.06 602.771Z" stroke="white" stroke-width="0.6" stroke-miterlimit="10"/>
<path d="M366.06 635.015C523.799 635.015 651.671 507.033 651.671 349.159C651.671 191.286 523.799 63.3037 366.06 63.3037C208.321 63.3037 80.4485 191.286 80.4485 349.159C80.4485 507.033 208.321 635.015 366.06 635.015Z" stroke="white" stroke-width="0.6" stroke-miterlimit="10"/>
<path d="M366.06 667.259C531.016 667.259 664.74 533.426 664.74 368.335C664.74 203.244 531.016 69.4106 366.06 69.4106C201.104 69.4106 67.3801 203.244 67.3801 368.335C67.3801 533.426 201.104 667.259 366.06 667.259Z" stroke="white" stroke-width="0.6" stroke-miterlimit="10"/>
<path d="M366.06 699.562C538.301 699.562 677.93 559.851 677.93 387.508C677.93 215.166 538.301 75.4546 366.06 75.4546C193.818 75.4546 54.1892 215.166 54.1892 387.508C54.1892 559.851 193.818 699.562 366.06 699.562Z" stroke="white" stroke-width="0.6" stroke-miterlimit="10"/>
<path d="M366.06 731.99C545.586 731.99 691.121 586.346 691.121 406.685C691.121 227.024 545.586 81.3794 366.06 81.3794C186.534 81.3794 40.999 227.024 40.999 406.685C40.999 586.346 186.534 731.99 366.06 731.99Z" stroke="white" stroke-width="0.6" stroke-miterlimit="10"/>
<path d="M366.06 764.415C552.905 764.415 704.373 612.838 704.373 425.858C704.373 238.878 552.905 87.3013 366.06 87.3013C179.215 87.3013 27.7476 238.878 27.7476 425.858C27.7476 612.838 179.215 764.415 366.06 764.415Z" stroke="white" stroke-width="0.6" stroke-miterlimit="10"/>
<path d="M366.06 796.965C560.291 796.965 717.746 639.4 717.746 445.035C717.746 250.669 560.291 93.104 366.06 93.104C171.829 93.104 14.3738 250.669 14.3738 445.035C14.3738 639.4 171.829 796.965 366.06 796.965Z" stroke="white" stroke-width="0.6" stroke-miterlimit="10"/>
<path d="M366.06 829.512C567.677 829.512 731.12 665.96 731.12 464.208C731.12 262.456 567.677 98.9033 366.06 98.9033C164.443 98.9033 1 262.456 1 464.208C1 665.96 164.443 829.512 366.06 829.512Z" stroke="white" stroke-width="0.6" stroke-miterlimit="10"/>
</g>
</svg>
