<svg width="856" height="1597" viewBox="0 0 856 1597" fill="none" xmlns="http://www.w3.org/2000/svg">
<g opacity="0.2">
<path d="M798.042 1596.07C1238.24 1596.07 1595.08 1239 1595.08 798.533C1595.08 358.068 1238.24 1 798.042 1C357.848 1 1 358.068 1 798.533C1 1239 357.848 1596.07 798.042 1596.07Z" stroke="white" stroke-miterlimit="10"/>
<path d="M1576.81 781.366C1577.43 821.463 1575.96 860.457 1571.3 898.838C1559.65 993.87 1529.24 1085.1 1483.01 1166.28C1452.6 1219.49 1416.92 1268.42 1378.17 1313.91C1338.93 1359.9 1294.91 1401.1 1244.75 1436.78C1186.14 1478.35 1120.78 1511.46 1050.52 1533.53C1002.7 1548.49 953.159 1558.54 902.516 1563.57C870.267 1566.76 837.527 1567.62 804.174 1567C759.049 1566.02 714.537 1561.73 671.129 1554.37C645.991 1550.08 621.222 1544.93 597.065 1538.56C480.697 1508.02 373.28 1453.21 286.464 1373.51C259.119 1348.37 233.491 1321.39 209.335 1292.94C180.641 1258.98 154.277 1223.17 130.979 1185.53C107.804 1148.13 87.8163 1108.77 71.0171 1067.69C57.0382 1033.48 45.6344 997.916 37.2961 961.375C24.9113 907.053 19.1481 850.279 20.2517 792.034C20.9874 746.173 25.8922 701.294 33.6174 657.395C55.1989 535.631 99.4654 423.8 168.869 327.296C217.06 260.467 276.777 202.468 344.219 155.258C411.048 108.539 485.602 72.3657 565.306 47.9639C640.105 25.0337 719.81 12.1581 801.844 10.9319C937.096 8.84732 1064.38 42.4456 1176.09 102.776C1289.02 163.964 1385.16 252.865 1454.31 360.773C1532.3 482.046 1574.48 626.617 1576.81 781.366Z" stroke="white" stroke-miterlimit="10"/>
<path d="M1558.54 764.077C1559.77 803.439 1559.89 841.451 1556.46 879.096C1547.75 972.289 1518.94 1063.52 1472.59 1143.84C1441.93 1196.69 1406.74 1244.63 1370.32 1290.62C1333.78 1336.72 1293.19 1378.17 1244.51 1414.46C1187.61 1456.77 1122.99 1490 1052.97 1510.72C1005.52 1524.82 956.47 1533.53 906.808 1536.96C875.172 1539.05 843.167 1538.92 810.55 1537.45C766.651 1535.49 723.12 1530.83 680.448 1523.72C655.801 1519.67 631.522 1514.77 607.733 1508.88C493.818 1480.56 387.014 1430.28 303.018 1350.45C276.777 1325.44 252.13 1298.71 228.586 1270.63C200.506 1237.28 174.019 1202.57 150.599 1166.52C127.301 1130.59 107.068 1093.07 89.6556 1053.71C75.0636 1020.72 63.2919 986.268 54.9536 950.585C42.4462 897.612 37.5413 841.819 39.7485 784.678C41.4652 739.921 46.8606 696.022 54.7084 652.859C76.5351 533.18 114.793 423.188 182.358 327.42C229.077 261.449 288.548 204.553 355.255 159.306C421.47 114.304 494.921 80.337 573.522 57.0389C647.217 35.3348 725.818 22.3373 805.89 19.8848C936.85 15.8383 1060.33 46.9839 1169.46 104.616C1279.7 162.984 1373.75 249.065 1440.7 354.274C1516.12 473.095 1553.88 614.111 1558.54 764.077Z" stroke="white" stroke-miterlimit="10"/>
<path d="M1540.4 746.909C1542.24 785.657 1543.95 822.689 1541.74 859.598C1536.1 951.074 1508.64 1042.3 1462.29 1121.64C1431.38 1174.12 1396.56 1221.09 1362.72 1267.56C1328.87 1313.79 1291.6 1355.48 1244.39 1392.27C1189.21 1435.31 1125.2 1468.66 1055.55 1488.16C1008.34 1501.4 959.904 1508.64 911.223 1510.6C880.199 1511.7 849.053 1510.35 816.926 1508.27C774.254 1505.45 731.581 1500.3 689.767 1493.55C665.611 1489.63 641.7 1485.22 618.402 1479.7C507.061 1453.7 400.625 1407.96 319.572 1327.89C294.312 1303 270.768 1276.39 247.715 1248.92C220.248 1216.06 193.762 1182.58 170.218 1148.13C146.675 1113.79 126.32 1077.99 108.417 1040.22C93.3344 1008.34 81.0723 975.108 72.734 940.406C60.1039 888.659 56.0573 833.97 59.2455 778.054C61.8206 734.278 67.9517 691.484 75.7996 649.057C97.7489 531.34 130.244 423.432 195.724 328.4C240.971 263.165 300.198 207.617 366.168 164.086C431.771 120.923 504.241 89.0419 581.615 66.9699C654.207 46.3695 731.582 33.4944 809.814 29.6932C936.36 23.5621 1056.04 52.3784 1162.84 107.313C1270.38 162.861 1362.35 246.244 1427.09 348.633C1499.93 464.265 1533.28 601.602 1540.4 746.909Z" stroke="white" stroke-miterlimit="10"/>
<path d="M1522.13 729.742C1524.7 767.877 1527.89 803.805 1526.91 840.102C1524.21 929.738 1498.34 1021.09 1451.86 1099.45C1420.72 1151.56 1386.38 1197.42 1354.87 1244.39C1323.72 1290.74 1289.88 1332.55 1244.02 1370.07C1190.56 1413.73 1127.28 1447.33 1057.88 1465.47C1011.04 1477.86 963.092 1483.74 915.392 1484.11C884.859 1484.36 854.571 1481.78 823.18 1478.96C781.734 1475.16 740.043 1469.77 698.842 1463.14C675.176 1459.34 651.755 1455.3 628.824 1450.39C519.936 1426.6 413.991 1385.52 335.881 1305.21C311.724 1280.44 289.284 1254.07 266.722 1226.97C239.99 1194.72 213.381 1162.48 189.715 1129.49C166.049 1096.63 145.449 1062.66 126.933 1026.61C111.237 995.954 98.6073 963.827 90.269 930.106C77.5163 879.709 74.2055 826 78.4973 771.188C81.8081 728.516 88.6749 686.579 96.6453 645.01C118.717 529.378 145.449 423.432 208.844 329.013C252.62 264.514 311.602 210.316 376.959 168.625C441.826 127.301 513.437 97.3812 589.585 76.6581C661.074 57.1612 737.345 44.4081 813.616 39.3806C935.87 31.2875 1051.62 57.7739 1155.98 109.888C1260.7 162.738 1350.82 243.178 1413.24 342.747C1483.74 455.437 1512.81 588.972 1522.13 729.742Z" stroke="white" stroke-miterlimit="10"/>
<path d="M1503.85 712.576C1507.04 750.098 1511.82 785.045 1512.07 820.606C1512.32 908.403 1488.04 999.756 1441.44 1077.25C1410.05 1129 1376.2 1173.88 1347.02 1221.33C1318.57 1267.68 1288.04 1309.87 1243.65 1348C1191.9 1392.39 1129.37 1426.11 1060.21 1443.03C1013.73 1454.56 966.28 1459.1 919.561 1457.87C889.641 1457.14 860.089 1453.33 829.311 1449.78C789.091 1445.12 748.381 1439.23 707.916 1432.86C684.74 1429.18 661.687 1425.62 639.247 1421.08C532.934 1399.63 427.479 1363.08 352.189 1282.52C329.136 1257.88 307.677 1231.76 285.728 1205.15C259.61 1173.51 233.001 1142.37 209.089 1110.97C185.301 1079.71 164.455 1047.46 145.326 1013.12C129.017 983.693 116.019 952.669 107.681 919.929C94.9285 870.88 92.3535 818.153 97.7488 764.567C101.918 722.876 109.52 682.043 117.491 641.21C139.685 527.539 160.409 423.556 222.087 329.995C264.269 266.109 323.005 213.259 387.75 173.407C452.004 133.8 522.634 106.088 597.556 86.4682C667.941 68.0749 742.985 55.445 817.417 49.0686C935.256 39.0136 1047.33 62.8021 1149.23 112.464C1251.38 162.248 1339.3 240.113 1399.5 336.985C1467.56 446.609 1492.33 576.465 1503.85 712.576Z" stroke="white" stroke-miterlimit="10"/>
<path d="M1485.58 695.409C1489.39 732.318 1495.88 766.161 1497.23 801.109C1500.67 887.067 1477.61 978.543 1430.89 1055.06C1399.26 1106.44 1365.78 1150.21 1339.17 1198.16C1313.42 1244.51 1286.32 1287.06 1243.41 1325.69C1193.38 1370.81 1131.57 1404.53 1062.78 1420.23C1016.55 1430.77 969.713 1434.08 923.975 1431.26C894.669 1429.55 865.975 1424.64 835.81 1420.35C796.816 1414.71 757.087 1408.46 717.357 1402.45C694.55 1398.89 672.11 1395.7 650.038 1391.66C546.177 1372.4 441.213 1340.52 368.743 1259.71C346.794 1235.19 326.316 1209.19 304.857 1183.08C279.352 1151.93 252.743 1122.01 228.709 1092.09C204.798 1062.42 183.584 1031.88 164.087 999.143C147.166 970.818 133.922 941.02 125.339 909.261C112.586 861.439 110.624 809.937 117.123 757.332C122.151 716.745 130.366 676.893 138.459 636.796C160.777 525.21 175.614 423.188 235.331 330.241C275.919 267.091 334.532 215.589 398.54 177.576C462.181 139.809 531.83 114.181 605.526 95.7879C674.93 78.4982 748.749 65.9901 821.218 58.3876C934.643 46.3706 1043.04 67.7072 1142.37 114.671C1241.81 161.758 1327.77 236.68 1385.65 330.731C1451.37 437.657 1471.97 563.958 1485.58 695.409Z" stroke="white" stroke-miterlimit="10"/>
<path d="M1467.31 678.118C1471.85 714.415 1479.82 747.277 1482.4 781.489C1488.77 865.73 1467.31 957.083 1420.47 1032.74C1388.59 1083.63 1355.48 1126.3 1331.33 1174.98C1308.27 1221.33 1284.48 1264.25 1243.04 1303.49C1194.72 1349.23 1133.54 1383.19 1065.11 1397.54C1019.13 1407.23 972.902 1409.07 928.267 1404.78C899.574 1402.08 871.616 1396.07 842.064 1390.92C804.296 1384.42 765.425 1377.68 726.554 1371.91C704.237 1368.6 682.165 1365.78 660.584 1362.1C559.298 1345.06 454.701 1317.96 385.175 1236.78C364.206 1212.38 344.832 1186.63 323.986 1161C299.094 1130.47 272.485 1101.78 248.329 1073.33C224.172 1045.13 202.836 1016.43 182.726 985.409C165.191 958.31 151.58 929.616 142.996 898.838C130.121 852.364 129.018 801.844 136.497 750.465C142.261 710.858 151.335 672.11 159.305 632.748C181.745 523.124 190.696 423.188 248.574 330.976C287.69 268.561 346.058 218.286 409.331 182.113C472.359 146.184 541.027 122.641 613.497 105.474C681.797 89.4105 754.389 76.9031 825.019 67.9517C934.153 54.0954 1038.63 72.8567 1135.62 117.123C1232.37 161.39 1316.24 233.491 1371.91 324.845C1435.19 428.828 1451.62 551.45 1467.31 678.118Z" stroke="white" stroke-miterlimit="10"/>
<path d="M1449.04 660.952C1454.19 696.635 1463.76 728.393 1467.56 761.869C1477 844.271 1457.01 935.747 1410.05 1010.42C1378.04 1060.94 1345.3 1102.51 1323.6 1151.81C1303.24 1198.04 1282.77 1241.32 1242.79 1281.3C1196.07 1327.77 1135.74 1361.86 1067.57 1374.98C1021.95 1383.81 976.212 1384.3 932.559 1378.41C904.478 1374.73 877.379 1367.62 848.44 1361.74C811.899 1354.38 774.009 1347.27 735.873 1341.63C714.047 1338.44 692.465 1335.98 671.374 1332.8C572.663 1317.84 468.435 1295.52 401.851 1214.1C381.986 1189.82 363.716 1164.31 343.238 1139.05C318.959 1109.01 292.35 1081.54 267.948 1054.69C243.669 1028.08 221.965 1001.11 201.364 971.799C183.216 945.925 169.237 918.335 160.654 888.538C147.656 843.413 147.288 793.874 155.872 743.599C162.493 705.095 172.18 667.328 180.273 628.702C202.836 521.163 206.024 423.065 261.817 331.589C299.462 269.91 357.585 220.984 420.244 186.527C482.536 152.316 550.346 130.857 621.59 114.917C688.786 99.9567 760.152 87.6944 828.943 77.2716C933.662 61.576 1034.46 77.762 1128.88 119.331C1222.93 160.777 1304.72 230.058 1358.18 318.591C1419 420 1431.38 539.065 1449.04 660.952Z" stroke="white" stroke-miterlimit="10"/>
<path d="M1430.77 643.784C1436.66 678.854 1447.69 709.632 1452.72 742.372C1465.11 822.934 1446.84 914.533 1399.63 988.228C1367.38 1038.5 1335 1078.72 1315.75 1128.63C1297.97 1174.86 1281.05 1218.51 1242.55 1258.98C1197.54 1306.19 1137.95 1340.4 1070.02 1352.17C1024.65 1360.02 979.401 1359.16 936.851 1351.93C909.261 1347.14 883.02 1339.05 854.694 1332.43C819.379 1324.21 782.47 1316.61 745.07 1311.21C723.734 1308.15 702.52 1306.19 681.92 1303.49C585.661 1290.74 481.923 1273.2 418.283 1191.41C399.521 1167.26 382.232 1141.87 362.367 1117.23C338.701 1087.8 312.092 1061.43 287.568 1036.17C263.166 1011.04 241.094 985.899 220.126 958.309C201.364 933.539 187.018 907.175 178.434 878.359C165.314 834.46 165.681 786.025 175.491 736.976C182.971 699.454 193.394 662.79 201.487 624.9C224.295 519.322 221.474 423.31 275.428 332.569C311.602 271.626 369.356 224.049 431.403 191.431C493.082 159.059 559.911 139.684 629.928 124.97C696.021 111.114 766.161 98.9747 833.112 87.3256C933.417 69.7906 1030.41 83.4014 1122.38 122.273C1213.73 160.898 1293.56 227.36 1344.69 313.195C1402.81 411.17 1411.15 526.557 1430.77 643.784Z" stroke="white" stroke-miterlimit="10"/>
<path d="M1412.62 626.617C1419.25 661.074 1431.75 690.748 1438.01 722.875C1453.33 801.598 1436.66 893.32 1389.33 966.034C1356.83 1015.94 1324.7 1054.94 1308.15 1105.58C1292.94 1151.68 1279.46 1195.83 1242.42 1236.91C1199.14 1284.73 1140.28 1319.19 1072.59 1329.73C1027.59 1336.72 982.834 1334.51 941.265 1325.68C914.288 1319.92 888.906 1310.72 861.193 1303.24C827.227 1294.17 791.053 1286.08 754.512 1281.05C733.666 1278.11 712.943 1276.51 692.711 1274.31C599.027 1263.76 495.657 1251.01 434.959 1168.97C417.302 1144.94 400.993 1119.8 381.741 1095.52C358.688 1066.71 332.08 1041.45 307.433 1017.78C282.908 994.238 260.468 970.817 239.009 944.821C219.513 921.278 204.921 896.017 196.337 868.182C183.094 825.632 184.32 778.3 195.111 730.233C203.326 693.814 214.485 658.131 222.701 620.976C245.631 517.483 237.048 423.432 288.917 333.428C323.619 273.22 381.128 226.87 442.439 196.092C503.505 165.559 569.353 148.269 638.021 134.658C703.011 122.028 771.924 110.011 837.159 96.8901C933.05 77.6385 1026.24 88.5521 1115.88 124.726C1204.53 160.531 1282.28 224.172 1331.2 307.187C1386.63 402.219 1391.04 514.05 1412.62 626.617Z" stroke="white" stroke-miterlimit="10"/>
<path d="M1394.35 609.449C1401.71 643.293 1415.69 671.864 1423.17 703.378C1441.44 780.262 1426.23 872.106 1378.9 943.84C1346.16 993.256 1314.4 1031.15 1300.3 1082.52C1287.67 1128.51 1277.74 1173.14 1242.06 1214.83C1200.49 1263.39 1142.36 1297.97 1074.92 1307.17C1030.29 1313.3 986.022 1309.62 945.434 1299.32C919.07 1292.58 894.423 1282.28 867.324 1274.06C834.584 1264.13 799.391 1255.54 763.586 1250.76C743.23 1248.06 722.998 1246.84 703.133 1245C612.025 1236.66 509.022 1228.69 451.267 1146.29C434.591 1122.5 419.386 1097.49 400.625 1073.7C378.307 1045.37 351.453 1021.46 326.684 999.265C301.914 977.193 279.229 955.611 257.28 931.332C237.17 909.015 222.21 884.858 213.504 858.004C200.26 816.803 202.1 770.452 213.994 723.61C223.068 688.173 234.962 653.593 243.178 617.297C266.231 515.766 251.884 423.8 301.669 334.409C334.899 274.937 392.164 229.935 452.739 200.996C513.069 172.18 578.059 157.098 645.501 144.713C709.387 133.186 777.197 121.414 840.47 106.945C931.945 85.9766 1021.46 94.1923 1108.52 127.668C1194.36 160.653 1270.26 221.474 1316.86 301.791C1370.44 393.39 1370.93 501.542 1394.35 609.449Z" stroke="white" stroke-miterlimit="10"/>
<path d="M1376.08 592.159C1384.17 625.39 1399.63 652.979 1408.33 683.757C1429.55 758.802 1415.93 850.646 1368.36 921.522C1335.37 970.57 1303.86 1007.23 1292.33 1059.23C1282.28 1105.09 1275.78 1150.21 1241.57 1192.39C1201.71 1241.57 1144.33 1276.39 1077.13 1284.36C1032.74 1289.63 989.087 1284.61 949.48 1272.71C923.73 1264.99 899.818 1253.58 873.332 1244.63C841.818 1233.96 807.607 1224.89 772.537 1220.23C752.672 1217.65 732.807 1216.8 713.433 1215.45C624.777 1209.19 522.143 1206.13 467.454 1123.36C451.881 1099.69 437.779 1074.8 419.508 1051.62C397.804 1023.91 370.95 1001.1 346.058 980.503C321.166 960.025 298.113 940.16 275.795 917.598C254.95 896.384 239.745 873.454 231.038 847.581C217.673 807.606 220.248 762.358 233.368 716.62C243.178 682.286 255.931 648.566 264.146 613.128C287.322 513.681 267.089 423.676 315.034 335.021C346.794 276.285 403.69 232.632 463.775 205.41C523.492 178.433 587.5 165.312 653.716 154.276C716.499 143.853 783.082 132.327 844.516 116.386C931.578 93.8238 1017.29 99.2191 1102.02 130.12C1185.16 160.407 1258.98 218.285 1303.37 295.782C1354.26 384.56 1350.94 489.157 1376.08 592.159Z" stroke="white" stroke-miterlimit="10"/>
<path d="M1357.81 574.993C1366.64 607.61 1383.56 634.097 1393.49 664.139C1417.77 737.467 1405.63 829.311 1357.93 899.083C1324.7 947.764 1293.44 983.202 1284.61 1035.93C1277 1081.67 1274.18 1127.16 1241.44 1170.08C1203.31 1219.98 1146.66 1254.93 1079.83 1261.55C1035.81 1265.97 992.644 1259.47 954.018 1246.1C928.88 1237.4 905.827 1224.89 879.954 1215.08C849.667 1203.55 816.436 1193.99 782.102 1189.7C762.605 1187.24 743.353 1186.88 724.347 1185.9C638.266 1181.85 535.877 1183.69 484.253 1100.43C469.661 1076.88 456.663 1052.24 438.883 1029.43C417.792 1002.21 390.938 980.627 365.923 961.62C340.908 942.614 317.365 924.711 294.68 903.62C273.098 883.632 257.648 861.684 248.942 836.914C235.453 798.288 238.764 754.021 252.988 709.51C263.656 676.156 277.022 643.539 285.36 608.837C308.658 511.352 282.663 423.433 328.523 335.39C358.811 277.39 415.462 234.963 474.811 209.58C533.915 184.32 596.943 173.406 661.932 163.474C723.611 154.155 788.969 142.996 848.563 125.461C931.21 101.305 1013.12 103.88 1095.4 132.083C1175.84 159.55 1247.57 214.607 1289.88 289.407C1338.07 375.733 1331.08 476.65 1357.81 574.993Z" stroke="white" stroke-miterlimit="10"/>
<path d="M1339.54 557.826C1349.23 589.831 1367.5 615.335 1378.66 644.642C1405.88 716.131 1395.21 807.975 1347.51 876.888C1314.04 925.201 1282.89 959.413 1276.76 1012.88C1271.61 1058.37 1272.34 1104.47 1241.08 1148.01C1204.66 1198.65 1148.74 1233.72 1082.16 1239.11C1038.38 1242.67 995.832 1234.82 958.187 1219.86C933.54 1210.17 911.345 1196.69 886.085 1186.02C857.024 1173.76 824.652 1163.58 791.176 1159.53C772.169 1157.2 753.286 1157.2 734.77 1156.83C651.264 1154.87 549.12 1161.62 500.562 1077.99C486.951 1054.69 475.057 1030.17 457.89 1007.85C437.412 981.239 410.557 960.885 385.297 943.227C360.16 925.815 336.249 909.628 313.073 890.254C290.756 871.493 275.06 850.648 266.354 826.859C252.743 789.582 256.79 746.418 272.117 702.888C283.521 670.638 297.745 639.002 306.084 605.035C329.504 509.636 297.745 423.678 341.644 336.371C370.46 279.107 426.866 238.028 485.48 214.485C543.848 191.064 606.017 182.235 669.78 173.529C730.355 165.436 794.487 154.4 852.242 135.516C930.474 109.766 1008.58 109.643 1088.53 135.025C1166.28 159.672 1236.05 211.91 1276.02 284.011C1321.88 366.781 1311.22 464.143 1339.54 557.826Z" stroke="white" stroke-miterlimit="10"/>
<path d="M1321.27 540.661C1331.82 572.052 1351.44 596.454 1363.82 625.147C1393.98 694.796 1384.91 786.763 1337.09 854.695C1303.37 902.64 1272.34 935.503 1269.03 989.702C1266.21 1035.07 1270.75 1081.67 1240.83 1125.81C1206.13 1177.07 1150.83 1212.38 1084.61 1216.43C1041.2 1219.13 999.142 1209.81 962.478 1193.38C938.445 1182.59 916.986 1168.12 892.461 1156.71C864.626 1143.71 833.235 1132.92 800.495 1129.12C781.979 1126.92 763.586 1127.28 745.56 1127.41C664.63 1127.65 562.731 1139.3 517.238 1055.18C504.731 1032.01 493.817 1007.6 477.263 985.778C457.399 959.782 430.545 940.53 405.162 924.467C379.779 908.526 355.5 894.302 332.079 876.522C309.026 859.11 293.085 839.245 284.379 816.314C270.646 780.386 275.428 738.205 291.982 695.9C304.121 664.632 319.081 634.099 327.542 600.868C351.086 507.43 313.441 423.557 355.377 336.863C382.722 280.334 438.883 240.605 496.76 218.778C554.515 197.196 615.704 190.452 678.241 182.973C737.713 175.983 800.618 165.438 856.533 144.837C930.474 117.615 1004.78 114.549 1082.16 137.234C1157.08 159.183 1224.89 208.478 1262.66 277.759C1305.7 357.954 1291.47 451.637 1321.27 540.661Z" stroke="white" stroke-miterlimit="10"/>
<path d="M1303 523.492C1314.4 554.27 1335.37 577.691 1348.98 605.649C1382.09 673.458 1374.37 765.425 1326.67 832.499C1292.7 879.954 1261.68 911.713 1261.19 966.647C1260.7 1011.89 1268.91 1058.98 1240.58 1103.62C1207.6 1155.61 1153.03 1191.05 1087.06 1193.87C1043.9 1195.71 1002.45 1184.91 966.77 1167.01C943.35 1155.24 922.749 1139.79 898.715 1127.4C872.106 1113.67 841.696 1102.27 809.691 1098.83C791.666 1096.87 773.641 1097.61 756.106 1098.1C677.628 1100.43 576.097 1117.1 533.67 1032.5C522.143 1009.57 512.456 985.286 496.27 963.95C477.018 938.445 450.164 920.419 424.659 905.949C399.153 891.603 374.384 879.218 350.595 863.032C326.807 846.846 310.62 828.085 301.792 806.136C287.935 771.434 293.453 730.355 311.111 689.154C324.109 658.989 339.804 629.438 348.143 596.943C371.931 505.59 328.401 423.678 368.375 337.72C394.249 281.927 450.041 243.424 507.429 223.559C564.57 203.694 624.778 199.035 686.089 192.781C744.457 186.895 806.136 176.717 860.212 154.523C929.738 125.952 1000.25 119.821 1075.29 139.808C1147.51 158.937 1213.36 205.411 1248.8 271.995C1289.39 349.124 1271.85 439.005 1303 523.492Z" stroke="white" stroke-miterlimit="10"/>
<path d="M1284.73 506.203C1296.99 536.368 1319.19 558.685 1334.15 586.03C1370.2 652.123 1364.07 743.966 1316.24 810.182C1282.03 857.269 1251.13 887.802 1253.46 943.472C1255.3 988.597 1267.19 1036.17 1240.34 1081.42C1208.95 1134.15 1155.24 1169.83 1089.52 1171.18C1046.72 1172.16 1005.76 1159.9 971.062 1140.53C948.255 1127.77 928.39 1111.34 905.092 1098.1C879.709 1083.63 850.28 1071.73 819.011 1068.42C801.476 1066.58 783.941 1067.69 766.774 1068.67C690.871 1073.08 589.463 1094.67 550.224 1009.69C539.678 986.88 531.095 962.847 515.522 941.879C496.883 916.986 470.029 900.064 444.279 887.189C418.651 874.314 393.39 863.891 369.234 849.176C344.709 834.339 328.278 816.558 319.449 795.59C305.47 762.237 311.724 722.14 330.485 682.165C344.219 652.981 360.65 624.533 369.111 592.774C393.023 503.382 343.729 423.555 381.619 338.21C406.021 283.153 461.568 245.999 518.22 227.851C574.748 209.825 633.975 207.251 694.059 202.223C751.324 197.441 811.899 187.876 864.013 163.965C929.248 134.045 995.832 124.971 1068.42 142.138C1137.95 158.569 1201.71 202.101 1234.94 265.864C1273.2 340.296 1252.23 426.376 1284.73 506.203Z" stroke="white" stroke-miterlimit="10"/>
<path d="M1266.58 489.036C1279.82 518.465 1303.24 539.924 1319.43 566.41C1358.42 630.664 1353.89 722.631 1305.94 787.866C1271.49 834.585 1240.46 864.014 1245.74 920.175C1249.9 965.3 1265.6 1013.12 1240.09 1059.11C1210.42 1112.45 1157.45 1148.37 1091.97 1148.5C1049.42 1148.62 1009.07 1135.01 975.354 1114.04C953.159 1100.31 934.03 1082.89 911.345 1068.67C887.066 1053.46 858.618 1040.96 828.085 1037.89C811.04 1036.17 793.873 1037.65 777.197 1039.12C703.869 1045.62 602.583 1072.23 566.532 986.758C556.968 964.196 549.488 940.162 534.405 919.807C516.38 895.405 489.526 879.832 463.653 868.428C437.779 857.147 412.274 848.563 387.75 835.443C362.367 821.954 345.69 805.155 336.984 785.168C322.883 753.164 329.749 714.048 349.859 675.177C364.329 647.096 381.619 619.629 390.079 588.605C414.113 501.299 359.056 423.433 394.862 338.824C417.792 284.625 473.094 248.697 529.01 232.388C584.803 216.202 643.048 215.712 702.029 211.788C758.19 208.109 817.662 199.035 867.814 173.407C928.88 142.261 991.417 129.999 1061.56 144.468C1128.26 158.202 1190.19 198.79 1221.09 259.855C1257.02 331.344 1232.74 413.746 1266.58 489.036Z" stroke="white" stroke-miterlimit="10"/>
<path d="M1248.31 471.869C1262.53 500.563 1287.18 521.163 1304.59 546.914C1346.41 609.451 1343.46 701.295 1295.4 765.671C1260.7 811.9 1229.67 840.226 1237.76 897.122C1244.26 942.124 1263.64 990.438 1239.6 1036.91C1211.65 1090.99 1159.41 1127.16 1094.17 1125.81C1051.99 1125.08 1012.14 1109.99 979.4 1087.68C957.819 1072.84 939.426 1054.57 917.476 1039.49C894.423 1023.67 866.956 1010.43 837.159 1007.73C820.605 1006.13 803.929 1007.97 787.62 1009.93C716.867 1018.52 615.581 1050.15 582.841 964.196C574.258 941.756 567.881 917.968 553.412 897.981C536.122 874.192 509.145 859.723 483.15 849.913C457.154 840.103 431.158 833.481 406.266 821.955C380.147 809.815 363.225 793.997 354.519 774.99C340.295 744.335 347.898 706.2 369.111 668.555C384.316 641.455 402.342 615.091 410.925 584.804C435.082 499.459 374.261 423.679 408.105 339.683C429.564 286.22 484.621 251.518 539.801 237.048C594.981 222.579 652.245 224.295 710 221.598C765.057 219.145 823.548 210.562 871.616 183.217C928.39 150.845 987.003 135.518 1054.81 147.167C1118.82 158.08 1178.66 195.97 1207.35 254.093C1240.83 322.516 1213.36 400.994 1248.31 471.869Z" stroke="white" stroke-miterlimit="10"/>
<path d="M1230.04 454.701C1245.24 482.659 1271.12 502.278 1289.76 527.416C1334.51 588.114 1333.16 680.08 1284.97 743.476C1250.03 789.336 1218.88 816.559 1230.04 874.068C1238.75 919.071 1262.04 967.751 1239.48 1014.84C1213.24 1069.53 1161.74 1105.95 1096.87 1103.37C1054.94 1101.78 1015.7 1085.22 983.937 1061.43C962.969 1045.62 945.189 1026.36 923.975 1010.42C902.026 993.87 875.662 980.014 846.601 977.561C830.415 976.212 814.228 978.42 798.41 980.872C730.11 991.418 628.947 1028.2 599.517 941.756C591.915 919.561 586.765 895.895 572.663 876.398C555.987 853.223 528.887 839.857 502.769 831.641C476.65 823.425 450.164 818.766 424.904 808.711C398.05 797.92 380.883 783.083 372.176 765.057C357.83 735.751 366.168 698.597 388.485 662.055C404.426 635.937 423.31 610.554 431.893 581.124C456.172 497.864 389.834 424.169 421.348 340.786C441.458 288.058 496.025 254.705 550.714 241.952C605.281 229.322 661.564 233.123 718.093 231.652C772.047 230.303 829.556 222.456 875.539 193.149C928.267 159.673 982.711 141.157 1048.07 149.986C1109.38 158.202 1167.13 193.149 1193.62 248.574C1224.64 313.686 1193.99 388.24 1230.04 454.701Z" stroke="white" stroke-miterlimit="10"/>
<path d="M1211.77 437.413C1227.96 464.635 1255.05 483.396 1274.92 507.798C1322.62 566.656 1322.86 658.746 1274.55 721.16C1239.36 766.653 1208.09 792.771 1222.19 850.771C1233.11 895.773 1260.2 944.822 1239.11 992.522C1214.59 1047.95 1163.82 1084.49 1099.2 1080.57C1057.63 1078.11 1018.88 1060.09 988.106 1034.83C967.751 1018.03 950.707 997.918 930.229 980.874C909.383 963.584 884.001 949.237 855.798 946.907C840.102 945.681 824.406 948.256 809.079 951.198C743.353 963.829 642.19 1005.64 615.949 918.704C609.327 896.632 605.281 873.089 591.793 854.082C575.729 831.397 548.63 819.257 522.388 812.636C496.147 805.892 469.171 803.317 443.665 794.611C415.953 785.292 398.663 771.312 389.834 754.268C375.365 726.31 384.316 690.137 407.982 654.822C424.781 629.684 444.278 605.405 452.984 576.711C477.386 495.413 405.162 423.802 434.836 341.032C453.475 289.041 507.797 256.913 561.75 246.122C615.581 235.332 671.006 241.095 726.309 240.85C779.159 240.605 835.687 233.493 879.709 202.224C928.39 167.645 978.665 146.063 1041.69 151.949C1100.18 157.59 1156.1 189.472 1180.25 242.076C1208.46 304.859 1174.61 375.244 1211.77 437.413Z" stroke="white" stroke-miterlimit="10"/>
<path d="M407.369 744.088C416.198 760.152 433.733 773.272 462.181 781.12C488.177 788.354 515.399 788.968 541.885 794.118C568.372 799.268 595.349 810.182 610.799 832.254C623.674 850.77 626.617 874.19 632.258 896.016C654.943 983.446 756.228 936.482 819.501 921.89C834.461 918.457 849.666 915.514 864.871 916.618C892.339 918.58 916.618 933.662 936.36 951.687C956.102 969.59 972.411 990.681 992.276 1008.46C1022.07 1035.32 1060.21 1054.69 1101.53 1058C1165.91 1063.15 1215.94 1026.49 1238.75 970.325C1258.37 922.012 1227.46 872.596 1214.34 827.717C1197.18 769.103 1228.57 744.089 1264.01 698.964C1312.44 637.408 1310.6 545.44 1259.96 488.299C1238.87 464.633 1210.79 446.607 1193.5 420.244C1155.36 362.243 1192.27 295.905 1166.15 236.433C1144.2 186.526 1090.37 157.588 1034.58 154.645C974.005 151.457 928.022 176.349 883.265 212.032C841.573 245.262 785.903 251.638 734.034 250.657C680.08 249.676 625.636 241.706 572.418 250.78C519.2 259.854 465.124 290.632 447.957 341.888C420.367 423.922 498.355 493.572 473.83 572.785C465.124 600.743 444.769 623.919 427.234 648.075C402.464 682.287 392.9 717.357 407.369 744.088Z" stroke="white" stroke-miterlimit="10"/>
</g>
</svg>
