<svg width="1720" height="2246" viewBox="0 0 1720 2246" fill="none" xmlns="http://www.w3.org/2000/svg">
<g opacity="0.2">
<path d="M-567.26 1393.95C-586.118 1133.07 -142.257 888.397 424.133 847.454C990.523 806.511 1464.96 984.804 1483.82 1245.68C1502.68 1506.56 1058.82 1751.24 492.426 1792.18C-73.9641 1833.13 -548.402 1654.83 -567.26 1393.95Z" stroke="white" stroke-width="0.8" stroke-miterlimit="10"/>
<path d="M-529.404 1338.89C-536.804 1083.82 -93.8022 864.025 460.068 847.956C1013.94 831.888 1468.94 1025.63 1476.34 1280.7C1483.74 1535.76 1040.74 1755.56 486.865 1771.63C-67.005 1787.7 -522.005 1593.95 -529.404 1338.89Z" stroke="white" stroke-width="0.8" stroke-miterlimit="10"/>
<path d="M480.444 1752.4C-60.8089 1743.63 -496.307 1534.44 -492.268 1285.16C-488.23 1035.88 -46.1832 840.903 495.07 849.672C1036.32 858.441 1471.82 1067.63 1467.78 1316.92C1463.74 1566.2 1021.7 1761.17 480.444 1752.4Z" stroke="white" stroke-width="0.8" stroke-miterlimit="10"/>
<path d="M475.237 1732.73C-53.4435 1699.15 -469.484 1474.53 -454.015 1231.04C-438.547 987.547 2.57234 817.384 531.253 850.97C1059.93 884.555 1475.97 1109.17 1460.51 1352.66C1445.04 1596.16 1003.92 1766.32 475.237 1732.73Z" stroke="white" stroke-width="0.8" stroke-miterlimit="10"/>
<path d="M469.914 1712.24C-46.2273 1653.8 -442.829 1413.77 -415.921 1176.11C-389.012 938.458 51.2166 793.176 567.358 851.616C1083.5 910.056 1480.1 1150.09 1453.19 1387.74C1426.28 1625.4 986.056 1770.68 469.914 1712.24Z" stroke="white" stroke-width="0.8" stroke-miterlimit="10"/>
<path d="M463.311 1692.67C-40.2599 1609.37 -417.384 1353.83 -379.02 1121.9C-340.655 889.976 98.6701 769.49 602.241 852.788C1105.81 936.087 1482.94 1191.63 1444.57 1423.55C1406.21 1655.48 966.881 1775.97 463.311 1692.67Z" stroke="white" stroke-width="0.8" stroke-miterlimit="10"/>
<path d="M457.487 1672.71C-33.5471 1564.56 -391.242 1293.61 -341.446 1067.53C-291.651 841.443 146.779 745.841 637.813 853.994C1128.85 962.146 1486.54 1233.1 1436.75 1459.18C1386.95 1685.26 948.522 1780.86 457.487 1672.71Z" stroke="white" stroke-width="0.8" stroke-miterlimit="10"/>
<path d="M451.616 1653.29C-26.8188 1520.31 -365.021 1233.89 -303.78 1013.56C-242.538 793.219 194.957 722.401 673.392 855.379C1151.83 988.358 1490.03 1274.78 1428.79 1495.11C1367.55 1715.45 930.052 1786.27 451.616 1653.29Z" stroke="white" stroke-width="0.8" stroke-miterlimit="10"/>
<path d="M445.942 1632.66C-19.8814 1474.82 -338.59 1172.99 -265.913 958.495C-193.237 743.999 243.303 698.064 709.126 855.896C1174.95 1013.73 1493.66 1315.56 1420.98 1530.06C1348.3 1744.55 911.765 1790.49 445.942 1632.66Z" stroke="white" stroke-width="0.8" stroke-miterlimit="10"/>
<path d="M440.25 1612.97C-13.0388 1430.28 -312.313 1112.99 -228.196 904.274C-144.079 695.558 291.574 674.455 744.863 857.139C1198.15 1039.82 1497.43 1357.12 1413.31 1565.83C1329.19 1774.55 893.539 1795.65 440.25 1612.97Z" stroke="white" stroke-width="0.8" stroke-miterlimit="10"/>
<path d="M434.57 1593.22C-6.13037 1385.71 -285.912 1052.95 -190.34 849.984C-94.7689 647.019 339.964 650.706 780.665 858.22C1221.36 1065.73 1501.15 1398.49 1405.58 1601.46C1310 1804.43 875.27 1800.74 434.57 1593.22Z" stroke="white" stroke-width="0.8" stroke-miterlimit="10"/>
<path d="M428.53 1573.42C0.397085 1341.07 -259.922 992.86 -152.909 795.682C-45.8958 598.504 387.925 627.023 816.058 859.381C1244.19 1091.74 1504.51 1439.95 1397.5 1637.12C1290.48 1834.3 856.662 1805.78 428.53 1573.42Z" stroke="white" stroke-width="0.8" stroke-miterlimit="10"/>
<path d="M422.612 1553.14C7.05197 1295.92 -233.816 932.295 -115.383 740.951C3.05112 549.607 435.939 603.005 851.498 860.219C1267.06 1117.43 1507.93 1481.06 1389.49 1672.4C1271.06 1863.75 838.171 1810.35 422.612 1553.14Z" stroke="white" stroke-width="0.8" stroke-miterlimit="10"/>
<path d="M416.652 1533.61C13.6238 1251.54 -207.821 872.465 -77.9593 686.912C51.9025 501.36 483.895 579.599 886.923 861.665C1289.95 1143.73 1511.4 1522.81 1381.53 1708.36C1251.67 1893.91 819.68 1815.68 416.652 1533.61Z" stroke="white" stroke-width="0.8" stroke-miterlimit="10"/>
<path d="M410.78 1513.49C20.3253 1206.57 -181.633 812.009 -40.3068 632.217C101.02 452.426 532.114 555.485 922.569 862.406C1313.02 1169.33 1514.98 1563.89 1373.66 1743.68C1232.33 1923.47 801.235 1820.41 410.78 1513.49Z" stroke="white" stroke-width="0.8" stroke-miterlimit="10"/>
<path d="M405.549 1494.21C27.6377 1162.46 -154.916 752.492 -2.19594 578.52C150.524 404.548 580.687 532.45 958.598 864.197C1336.51 1195.94 1519.06 1605.91 1366.34 1779.88C1213.62 1953.86 783.46 1825.95 405.549 1494.21Z" stroke="white" stroke-width="0.8" stroke-miterlimit="10"/>
<path d="M399.551 1473.93C34.2467 1117.36 -128.823 691.974 35.3248 523.808C199.472 355.641 628.677 508.377 993.981 864.952C1359.29 1221.53 1522.35 1646.91 1358.21 1815.08C1194.06 1983.24 764.855 1830.51 399.551 1473.93Z" stroke="white" stroke-width="0.8" stroke-miterlimit="10"/>
<path d="M393.165 1454.04C40.3959 1072.6 -103.22 631.714 72.3907 469.307C248.001 306.9 676.337 484.467 1029.11 865.915C1381.88 1247.36 1525.49 1688.25 1349.88 1850.65C1174.27 2013.06 745.934 1835.49 393.165 1454.04Z" stroke="white" stroke-width="0.8" stroke-miterlimit="10"/>
<path d="M387.992 1434.28C47.8012 1028.01 -76.3829 571.726 110.618 415.14C297.619 258.554 724.993 460.961 1065.18 867.229C1405.37 1273.5 1529.56 1729.78 1342.56 1886.37C1155.56 2042.95 728.182 1840.55 387.992 1434.28Z" stroke="white" stroke-width="0.8" stroke-miterlimit="10"/>
<path d="M381.712 1414.68C54.0748 983.575 -50.6621 511.836 147.776 361.026C346.213 210.216 772.682 437.445 1100.32 868.555C1427.96 1299.66 1532.69 1771.4 1334.25 1922.21C1135.82 2073.02 709.349 1845.79 381.712 1414.68Z" stroke="white" stroke-width="0.8" stroke-miterlimit="10"/>
<path d="M376.201 1394.86C61.1568 938.946 -24.1089 451.794 185.754 306.774C395.618 161.755 821.139 413.785 1136.18 869.699C1451.23 1325.61 1536.49 1812.77 1326.63 1957.79C1116.77 2102.8 691.246 1850.77 376.201 1394.86Z" stroke="white" stroke-width="0.8" stroke-miterlimit="10"/>
<path d="M370.861 1374.75C68.3911 893.974 2.60552 391.356 223.925 252.116C445.245 112.876 869.86 389.742 1172.33 870.513C1474.8 1351.28 1540.59 1853.9 1319.27 1993.14C1097.95 2132.38 673.331 1855.52 370.861 1374.75Z" stroke="white" stroke-width="0.8" stroke-miterlimit="10"/>
</g>
</svg>
