<svg width="1858" height="2116" viewBox="0 0 1858 2116" fill="none" xmlns="http://www.w3.org/2000/svg">
<path d="M1547.64 1805.51C1727.37 1625.78 1538.36 1145.36 1125.47 732.468C712.581 319.576 232.162 130.566 52.4266 310.301C-127.309 490.036 61.7019 970.455 474.593 1383.35C887.484 1796.24 1367.9 1985.25 1547.64 1805.51Z" stroke="white" stroke-width="2" stroke-miterlimit="10"/>
<path d="M1451.17 1901.88C1630.91 1722.15 1441.9 1241.73 1029.01 828.838C616.116 415.947 135.698 226.937 -44.0373 406.672C-223.772 586.407 -34.7624 1066.83 378.129 1479.72C791.02 1892.61 1271.44 2081.62 1451.17 1901.88Z" stroke="white" stroke-width="2" stroke-miterlimit="10"/>
<path d="M1595.7 1757.39C1775.43 1577.66 1586.42 1097.24 1173.53 684.346C760.64 271.455 280.221 82.4446 100.486 262.18C-79.2495 441.915 109.761 922.334 522.652 1335.23C935.543 1748.12 1415.96 1937.13 1595.7 1757.39Z" stroke="white" stroke-width="2" stroke-miterlimit="10"/>
<path d="M1692.05 1660.9C1871.78 1481.17 1682.77 1000.75 1269.88 587.858C856.987 174.967 376.569 -14.0432 196.833 165.692C17.0982 345.427 206.109 825.846 619 1238.74C1031.89 1651.63 1512.31 1840.64 1692.05 1660.9Z" stroke="white" stroke-width="2" stroke-miterlimit="10"/>
<path d="M1740.34 1612.78C1920.07 1433.04 1731.06 952.622 1318.17 539.731C905.278 126.84 424.859 -62.1707 245.124 117.565C65.3889 297.3 254.399 777.718 667.291 1190.61C1080.18 1603.5 1560.6 1792.51 1740.34 1612.78Z" stroke="white" stroke-width="2" stroke-miterlimit="10"/>
<path d="M1643.87 1709.15C1823.61 1529.41 1634.6 1049 1221.71 636.105C808.814 223.213 328.395 34.203 148.66 213.938C-31.075 393.673 157.935 874.092 570.826 1286.98C983.718 1699.87 1464.14 1888.89 1643.87 1709.15Z" stroke="white" stroke-width="2" stroke-miterlimit="10"/>
<path d="M1499.35 1853.64C1679.08 1673.9 1490.07 1193.48 1077.18 780.593C664.291 367.702 183.872 178.691 4.13706 358.427C-175.598 538.162 13.4124 1018.58 426.304 1431.47C839.195 1844.36 1319.61 2033.37 1499.35 1853.64Z" stroke="white" stroke-width="2" stroke-miterlimit="10"/>
<path d="M1306.65 2046.37C1486.39 1866.64 1297.38 1386.22 884.485 973.329C471.593 560.437 -8.82549 371.427 -188.561 551.162C-368.296 730.897 -179.285 1211.32 233.606 1624.21C646.497 2037.1 1126.92 2226.11 1306.65 2046.37Z" stroke="white" stroke-width="2" stroke-miterlimit="10"/>
<path d="M1403.12 1950.01C1582.85 1770.27 1393.84 1289.85 980.949 876.96C568.057 464.069 87.6386 275.058 -92.0966 454.793C-271.832 634.529 -82.8213 1114.95 330.07 1527.84C742.961 1940.73 1223.38 2129.74 1403.12 1950.01Z" stroke="white" stroke-width="2" stroke-miterlimit="10"/>
<path d="M1354.83 1998.13C1534.56 1818.39 1345.55 1337.97 932.66 925.084C519.769 512.192 39.3498 323.182 -140.385 502.917C-320.121 682.652 -131.11 1163.07 281.781 1575.96C694.672 1988.85 1175.09 2177.86 1354.83 1998.13Z" stroke="white" stroke-width="2" stroke-miterlimit="10"/>
<path d="M1788.4 1564.65C1968.13 1384.92 1779.12 904.497 1366.23 491.606C953.337 78.7145 472.919 -110.296 293.183 69.4393C113.448 249.174 302.459 729.593 715.35 1142.48C1128.24 1555.38 1608.66 1744.39 1788.4 1564.65Z" stroke="white" stroke-width="2" stroke-miterlimit="10"/>
</svg>
