<svg width="1596" height="662" viewBox="0 0 1596 662" fill="none" xmlns="http://www.w3.org/2000/svg">
<g opacity="0.2">
<path d="M798.042 661.066C1238.24 661.066 1595.08 303.999 1595.08 -136.467C1595.08 -576.932 1238.24 -934 798.042 -934C357.848 -934 1 -576.932 1 -136.467C1 303.999 357.848 661.066 798.042 661.066Z" stroke="white" stroke-miterlimit="10"/>
<path d="M1576.81 -153.634C1577.43 -113.537 1575.96 -74.543 1571.3 -36.1624C1559.65 58.8696 1529.24 150.1 1483.01 231.276C1452.6 284.494 1416.92 333.42 1378.17 378.913C1338.93 424.896 1294.91 466.097 1244.75 501.78C1186.14 543.349 1120.78 576.457 1050.52 598.529C1002.7 613.489 953.159 623.543 902.516 628.571C870.267 631.759 837.527 632.617 804.174 632.004C759.049 631.023 714.537 626.731 671.129 619.374C645.991 615.082 621.222 609.932 597.065 603.556C480.697 573.023 373.28 518.211 286.464 438.507C259.119 413.369 233.491 386.392 209.335 357.944C180.641 323.978 154.277 288.173 130.979 250.528C107.804 213.128 87.8163 173.766 71.0171 132.688C57.0382 98.476 45.6344 62.9159 37.2961 26.3745C24.9113 -27.947 19.1481 -84.7209 20.2517 -142.966C20.9874 -188.827 25.8922 -233.706 33.6174 -277.605C55.1989 -399.369 99.4654 -511.2 168.869 -607.704C217.06 -674.533 276.777 -732.532 344.219 -779.742C411.048 -826.461 485.602 -862.634 565.306 -887.036C640.105 -909.966 719.81 -922.842 801.844 -924.068C937.096 -926.153 1064.38 -892.554 1176.09 -832.224C1289.02 -771.036 1385.16 -682.135 1454.31 -574.227C1532.3 -452.954 1574.48 -308.383 1576.81 -153.634Z" stroke="white" stroke-miterlimit="10"/>
<path d="M1558.54 -170.923C1559.77 -131.561 1559.89 -93.549 1556.46 -55.9041C1547.75 37.2886 1518.94 128.52 1472.59 208.837C1441.93 261.687 1406.74 309.633 1370.32 355.616C1333.78 401.722 1293.19 443.168 1244.51 479.464C1187.61 521.768 1122.99 554.998 1052.97 575.722C1005.52 589.823 956.47 598.529 906.808 601.963C875.172 604.047 843.167 603.924 810.55 602.453C766.651 600.491 723.12 595.832 680.448 588.719C655.801 584.673 631.522 579.769 607.733 573.883C493.818 545.557 387.014 495.281 303.018 415.455C276.777 390.44 252.13 363.709 228.586 335.628C200.506 302.275 174.019 267.573 150.599 231.522C127.301 195.594 107.068 158.072 89.6556 118.71C75.0636 85.7249 63.2919 51.2677 54.9536 15.5847C42.4462 -37.388 37.5413 -93.1805 39.7485 -150.322C41.4652 -195.079 46.8606 -238.978 54.7084 -282.141C76.5351 -401.82 114.793 -511.812 182.358 -607.58C229.077 -673.551 288.548 -730.447 355.255 -775.694C421.47 -820.696 494.921 -854.663 573.522 -877.961C647.217 -899.665 725.818 -912.663 805.89 -915.115C936.85 -919.162 1060.33 -888.016 1169.46 -830.384C1279.7 -772.016 1373.75 -685.935 1440.7 -580.726C1516.12 -461.905 1553.88 -320.889 1558.54 -170.923Z" stroke="white" stroke-miterlimit="10"/>
<path d="M1540.4 -188.091C1542.24 -149.343 1543.95 -112.311 1541.74 -75.4018C1536.1 16.0742 1508.64 107.305 1462.29 186.641C1431.38 239.123 1396.56 286.088 1362.72 332.562C1328.87 378.79 1291.6 420.481 1244.39 457.268C1189.21 500.308 1125.2 533.661 1055.55 553.158C1008.34 566.401 959.904 573.636 911.223 575.598C880.199 576.701 849.053 575.353 816.926 573.268C774.254 570.448 731.581 565.298 689.767 558.554C665.611 554.63 641.7 550.215 618.402 544.697C507.061 518.701 400.625 472.963 319.572 392.891C294.312 367.999 270.768 341.39 247.715 313.923C220.248 281.06 193.762 247.584 170.218 213.127C146.675 178.793 126.32 142.988 108.417 105.22C93.3344 73.3384 81.0723 40.1076 72.734 5.40563C60.1039 -46.3408 56.0573 -101.03 59.2455 -156.946C61.8206 -200.722 67.9517 -243.516 75.7996 -285.943C97.7489 -403.66 130.244 -511.568 195.724 -606.6C240.971 -671.835 300.198 -727.383 366.168 -770.914C431.771 -814.077 504.241 -845.958 581.615 -868.03C654.207 -888.631 731.582 -901.506 809.814 -905.307C936.36 -911.438 1056.04 -882.622 1162.84 -827.687C1270.38 -772.139 1362.35 -688.756 1427.09 -586.367C1499.93 -470.735 1533.28 -333.398 1540.4 -188.091Z" stroke="white" stroke-miterlimit="10"/>
<path d="M1522.13 -205.258C1524.7 -167.123 1527.89 -131.195 1526.91 -94.8984C1524.21 -5.2618 1498.34 86.0918 1451.86 164.447C1420.72 216.562 1386.38 262.422 1354.87 309.386C1323.72 355.738 1289.88 397.552 1244.02 435.074C1190.56 478.727 1127.28 512.325 1057.88 530.473C1011.04 542.858 963.092 548.744 915.392 549.112C884.859 549.357 854.571 546.783 823.18 543.962C781.734 540.161 740.043 534.765 698.842 528.144C675.176 524.342 651.755 520.296 628.824 515.391C519.936 491.602 413.991 450.524 335.881 370.206C311.724 345.437 289.284 319.074 266.722 291.974C239.99 259.725 213.381 227.475 189.715 194.49C166.049 161.627 145.449 127.661 126.933 91.6098C111.237 60.9543 98.6073 28.8274 90.269 -4.89361C77.5163 -55.2912 74.2055 -109 78.4973 -163.812C81.8081 -206.484 88.6749 -248.421 96.6453 -289.99C118.717 -405.622 145.449 -511.568 208.844 -605.987C252.62 -670.486 311.602 -724.684 376.959 -766.375C441.826 -807.699 513.437 -837.619 589.585 -858.342C661.074 -877.839 737.345 -890.592 813.616 -895.619C935.87 -903.712 1051.62 -877.226 1155.98 -825.112C1260.7 -772.262 1350.82 -691.822 1413.24 -592.253C1483.74 -479.563 1512.81 -346.028 1522.13 -205.258Z" stroke="white" stroke-miterlimit="10"/>
<path d="M1503.85 -222.424C1507.04 -184.902 1511.82 -149.955 1512.07 -114.394C1512.32 -26.5972 1488.04 64.756 1441.44 142.253C1410.05 194 1376.2 238.879 1347.02 286.334C1318.57 332.685 1288.04 374.867 1243.65 413.003C1191.9 457.392 1129.37 491.113 1060.21 508.034C1013.73 519.561 966.28 524.097 919.561 522.871C889.641 522.136 860.089 518.335 829.311 514.779C789.091 510.119 748.381 504.233 707.916 497.857C684.74 494.178 661.687 490.622 639.247 486.085C532.934 464.626 427.479 428.085 352.189 347.522C329.136 322.875 307.677 296.757 285.728 270.148C259.61 238.511 233.001 207.365 209.089 175.974C185.301 144.706 164.455 112.456 145.326 78.1221C129.017 48.6928 116.019 17.669 107.681 -15.071C94.9285 -64.1198 92.3535 -116.847 97.7488 -170.433C101.918 -212.124 109.52 -252.957 117.491 -293.79C139.685 -407.461 160.409 -511.444 222.087 -605.005C264.269 -668.891 323.005 -721.741 387.75 -761.593C452.004 -801.2 522.634 -828.912 597.556 -848.532C667.941 -866.925 742.985 -879.555 817.417 -885.931C935.256 -895.986 1047.33 -872.198 1149.23 -822.536C1251.38 -772.752 1339.3 -694.887 1399.5 -598.015C1467.56 -488.391 1492.33 -358.535 1503.85 -222.424Z" stroke="white" stroke-miterlimit="10"/>
<path d="M1485.58 -239.591C1489.39 -202.682 1495.88 -168.839 1497.23 -133.891C1500.67 -47.9335 1477.61 43.5427 1430.89 120.059C1399.26 171.437 1365.78 215.213 1339.17 263.158C1313.42 309.509 1286.32 352.06 1243.41 390.685C1193.38 435.81 1131.57 469.531 1062.78 485.226C1016.55 495.772 969.713 499.083 923.975 496.263C894.669 494.546 865.975 489.641 835.81 485.349C796.816 479.709 757.087 473.455 717.357 467.447C694.55 463.891 672.11 460.703 650.038 456.656C546.177 437.404 441.213 405.523 368.743 324.715C346.794 300.19 326.316 274.195 304.857 248.076C279.352 216.93 252.743 187.011 228.709 157.091C204.798 127.416 183.584 96.8833 164.087 64.1432C147.166 35.8176 133.922 6.02024 125.339 -25.7388C112.586 -73.5614 110.624 -125.063 117.123 -177.668C122.151 -218.255 130.366 -258.107 138.459 -298.204C160.777 -409.79 175.614 -511.812 235.331 -604.759C275.919 -667.909 334.532 -719.411 398.54 -757.424C462.181 -795.191 531.83 -820.819 605.526 -839.212C674.93 -856.502 748.749 -869.01 821.218 -876.612C934.643 -888.629 1043.04 -867.293 1142.36 -820.329C1241.81 -773.242 1327.77 -698.32 1385.65 -604.269C1451.37 -497.343 1471.97 -371.042 1485.58 -239.591Z" stroke="white" stroke-miterlimit="10"/>
<path d="M1467.31 -256.882C1471.85 -220.585 1479.82 -187.723 1482.4 -153.511C1488.77 -69.2701 1467.31 22.0831 1420.47 97.7409C1388.59 148.629 1355.48 191.301 1331.33 239.982C1308.27 286.333 1284.48 329.251 1243.04 368.49C1194.72 414.228 1133.54 448.194 1065.11 462.541C1019.13 472.228 972.902 474.068 928.267 469.776C899.574 467.078 871.616 461.07 842.064 455.92C804.296 449.421 765.425 442.676 726.554 436.913C704.237 433.602 682.165 430.782 660.584 427.103C559.298 410.059 454.701 382.96 385.175 301.784C364.206 277.382 344.832 251.632 323.986 226.004C299.094 195.471 272.485 166.777 248.329 138.329C224.172 110.126 202.836 81.4323 182.726 50.409C165.191 23.3095 151.58 -5.38395 142.996 -36.1621C130.121 -82.6358 129.018 -133.156 136.497 -184.535C142.261 -224.142 151.335 -262.89 159.305 -302.252C181.745 -411.876 190.696 -511.812 248.574 -604.024C287.69 -666.439 346.058 -716.714 409.331 -752.887C472.359 -788.816 541.027 -812.359 613.497 -829.526C681.797 -845.59 754.389 -858.097 825.019 -867.048C934.153 -880.905 1038.63 -862.143 1135.62 -817.877C1232.37 -773.61 1316.24 -701.509 1371.91 -610.155C1435.19 -506.172 1451.62 -383.55 1467.31 -256.882Z" stroke="white" stroke-miterlimit="10"/>
<path d="M1449.04 -274.048C1454.19 -238.365 1463.76 -206.607 1467.56 -173.131C1477 -90.7289 1457.01 0.747324 1410.05 75.4241C1378.04 125.944 1345.3 167.513 1323.6 216.808C1303.24 263.036 1282.77 306.321 1242.79 346.296C1196.07 392.77 1135.74 426.858 1067.57 439.979C1021.95 448.808 976.212 449.298 932.559 443.413C904.478 439.734 877.379 432.622 848.44 426.736C811.899 419.379 774.009 412.267 735.873 406.626C714.047 403.438 692.465 400.985 671.374 397.797C572.663 382.837 468.435 360.52 401.851 279.099C381.986 254.82 363.716 229.314 343.238 204.054C318.959 174.012 292.35 146.545 267.948 119.69C243.669 93.0814 221.965 66.1053 201.364 36.7986C183.216 10.9254 169.237 -16.665 160.654 -46.4621C147.656 -91.587 147.288 -141.126 155.872 -191.401C162.493 -229.905 172.18 -267.672 180.273 -306.298C202.836 -413.837 206.024 -511.935 261.817 -603.411C299.462 -665.09 357.585 -714.016 420.244 -748.473C482.536 -782.684 550.346 -804.143 621.59 -820.083C688.786 -835.043 760.152 -847.306 828.943 -857.728C933.662 -873.424 1034.46 -857.238 1128.88 -815.669C1222.93 -774.223 1304.72 -704.942 1358.18 -616.409C1419 -515 1431.38 -395.935 1449.04 -274.048Z" stroke="white" stroke-miterlimit="10"/>
<path d="M1430.77 -291.216C1436.66 -256.146 1447.69 -225.368 1452.72 -192.628C1465.11 -112.066 1446.84 -20.4673 1399.63 53.2285C1367.38 103.503 1335 143.724 1315.75 193.631C1297.97 239.859 1281.05 283.513 1242.55 323.978C1197.54 371.187 1137.95 405.399 1070.02 417.17C1024.65 425.018 979.401 424.16 936.851 416.926C909.261 412.143 883.02 404.05 854.694 397.428C819.379 389.213 782.47 381.61 745.07 376.215C723.734 373.149 702.52 371.187 681.92 368.49C585.661 355.737 481.923 338.202 418.283 256.413C399.521 232.257 382.232 206.874 362.367 182.227C338.701 152.798 312.092 126.434 287.568 101.174C263.166 76.0366 241.094 50.8986 220.126 23.3087C201.364 -1.46093 187.018 -27.8249 178.434 -56.641C165.314 -100.54 165.681 -148.975 175.491 -198.024C182.971 -235.546 193.394 -272.21 201.487 -310.1C224.295 -415.678 221.474 -511.69 275.428 -602.431C311.602 -663.374 369.356 -710.951 431.403 -743.569C493.082 -775.941 559.911 -795.316 629.928 -810.03C696.021 -823.886 766.161 -836.025 833.112 -847.674C933.417 -865.209 1030.41 -851.599 1122.38 -812.727C1213.73 -774.102 1293.56 -707.64 1344.69 -621.805C1402.81 -523.83 1411.15 -408.443 1430.77 -291.216Z" stroke="white" stroke-miterlimit="10"/>
<path d="M1412.62 -308.383C1419.25 -273.926 1431.75 -244.252 1438.01 -212.125C1453.33 -133.402 1436.66 -41.6805 1389.33 31.0343C1356.83 80.9415 1324.7 119.935 1308.15 170.578C1292.94 216.684 1279.46 260.828 1242.42 301.906C1199.14 349.729 1140.28 384.185 1072.59 394.731C1027.59 401.72 982.834 399.513 941.265 390.685C914.288 384.921 888.906 375.725 861.193 368.245C827.227 359.171 791.053 351.078 754.512 346.05C733.666 343.107 712.943 341.513 692.711 339.306C599.027 328.761 495.657 316.008 434.959 233.973C417.302 209.94 400.993 184.802 381.741 160.523C358.688 131.707 332.08 106.447 307.433 82.7812C282.908 59.2378 260.468 35.8168 239.009 9.82099C219.513 -13.7224 204.921 -38.9825 196.337 -66.8177C183.094 -109.368 184.32 -156.7 195.111 -204.767C203.326 -241.186 214.485 -276.869 222.701 -314.024C245.631 -417.517 237.048 -511.568 288.917 -601.572C323.619 -661.78 381.128 -708.13 442.439 -738.908C503.505 -769.441 569.353 -786.731 638.021 -800.342C703.011 -812.972 771.924 -824.989 837.159 -838.11C933.05 -857.362 1026.24 -846.448 1115.88 -810.274C1204.53 -774.469 1282.28 -710.828 1331.2 -627.813C1386.63 -532.781 1391.04 -420.95 1412.62 -308.383Z" stroke="white" stroke-miterlimit="10"/>
<path d="M1394.35 -325.551C1401.71 -291.707 1415.69 -263.136 1423.17 -231.622C1441.44 -154.738 1426.23 -62.8943 1378.9 8.83957C1346.16 58.2562 1314.4 96.1463 1300.3 147.525C1287.67 193.508 1277.74 238.142 1242.06 279.834C1200.49 328.392 1142.36 362.972 1074.92 372.168C1030.29 378.299 986.022 374.621 945.434 364.32C919.07 357.576 894.423 347.276 867.324 339.06C834.584 329.128 799.391 320.545 763.586 315.763C743.23 313.065 722.998 311.838 703.133 309.999C612.025 301.661 509.022 293.69 451.267 211.288C434.591 187.5 419.386 162.485 400.625 138.697C378.307 110.371 351.453 86.4595 326.684 64.2649C301.914 42.193 279.229 20.611 257.28 -3.66811C237.17 -25.9853 222.21 -50.1416 213.504 -76.9958C200.26 -118.197 202.1 -164.548 213.994 -211.39C223.068 -246.827 234.962 -281.407 243.178 -317.703C266.231 -419.234 251.884 -511.2 301.669 -600.591C334.899 -660.063 392.164 -705.065 452.739 -734.004C513.069 -762.82 578.059 -777.902 645.501 -790.287C709.387 -801.814 777.197 -813.586 840.47 -828.055C931.945 -849.023 1021.46 -840.808 1108.52 -807.332C1194.36 -774.347 1270.26 -713.526 1316.86 -633.209C1370.44 -541.61 1370.93 -433.458 1394.35 -325.551Z" stroke="white" stroke-miterlimit="10"/>
<path d="M1376.08 -342.841C1384.17 -309.61 1399.63 -282.021 1408.33 -251.243C1429.55 -176.198 1415.93 -84.354 1368.36 -13.4785C1335.37 35.5703 1303.86 72.234 1292.33 124.226C1282.28 170.086 1275.78 215.212 1241.57 257.394C1201.71 306.565 1144.33 341.39 1077.13 349.36C1032.74 354.633 989.087 349.605 949.48 337.711C923.73 329.986 899.818 318.582 873.332 309.631C841.818 298.963 807.607 289.888 772.537 285.228C752.672 282.653 732.807 281.796 713.433 280.447C624.777 274.193 522.143 271.127 467.454 188.357C451.881 164.691 437.779 139.799 419.508 116.623C397.804 88.9106 370.95 66.1031 346.058 45.5026C321.166 25.0248 298.113 5.15996 275.795 -17.4025C254.95 -38.6161 239.745 -61.5459 231.038 -87.4192C217.673 -127.394 220.248 -172.642 233.368 -218.38C243.178 -252.714 255.931 -286.434 264.146 -321.872C287.322 -421.319 267.089 -511.324 315.034 -599.979C346.794 -658.715 403.69 -702.368 463.775 -729.59C523.492 -756.567 587.5 -769.688 653.716 -780.724C716.499 -791.147 783.082 -802.673 844.516 -818.614C931.578 -841.176 1017.29 -835.781 1102.02 -804.88C1185.16 -774.593 1258.98 -716.715 1303.37 -639.218C1354.26 -550.44 1350.94 -445.843 1376.08 -342.841Z" stroke="white" stroke-miterlimit="10"/>
<path d="M1357.81 -360.007C1366.64 -327.39 1383.56 -300.903 1393.49 -270.861C1417.77 -197.533 1405.63 -105.689 1357.93 -35.9174C1324.7 12.7635 1293.44 48.2017 1284.61 100.929C1277 146.667 1274.18 192.16 1241.44 235.078C1203.31 284.985 1146.66 319.931 1079.83 326.553C1035.81 330.967 992.644 324.469 954.018 311.103C928.88 302.397 905.827 289.889 879.954 280.08C849.667 268.553 816.436 258.989 782.102 254.697C762.605 252.244 743.353 251.876 724.347 250.895C638.266 246.849 535.877 248.689 484.253 165.428C469.661 141.885 456.663 117.237 438.883 94.4298C417.792 67.2077 390.938 45.6267 365.923 26.6203C340.908 7.61387 317.365 -10.2894 294.68 -31.3804C273.098 -51.3678 257.648 -73.3164 248.942 -98.0861C235.453 -136.712 238.764 -180.979 252.988 -225.49C263.656 -258.844 277.022 -291.461 285.36 -326.163C308.658 -423.648 282.663 -511.567 328.523 -599.61C358.811 -657.61 415.462 -700.037 474.811 -725.42C533.915 -750.68 596.943 -761.594 661.932 -771.526C723.611 -780.845 788.969 -792.004 848.563 -809.539C931.21 -833.695 1013.12 -831.12 1095.4 -802.917C1175.84 -775.45 1247.57 -720.393 1289.88 -645.593C1338.07 -559.267 1331.08 -458.35 1357.81 -360.007Z" stroke="white" stroke-miterlimit="10"/>
<path d="M1339.54 -377.174C1349.23 -345.169 1367.5 -319.665 1378.66 -290.358C1405.88 -218.869 1395.21 -127.025 1347.51 -58.1119C1314.04 -9.79889 1282.89 24.4129 1276.76 77.8761C1271.61 123.369 1272.34 169.475 1241.08 213.006C1204.66 263.649 1148.74 298.718 1082.16 304.114C1038.38 307.67 995.832 299.822 958.187 284.862C933.54 275.175 911.345 261.686 886.085 251.018C857.024 238.756 824.652 228.579 791.176 224.532C772.169 222.202 753.286 222.202 734.77 221.834C651.264 219.872 549.12 226.616 500.562 142.988C486.951 119.69 475.057 95.1654 457.89 72.8482C437.412 46.2392 410.557 25.8845 385.297 8.22695C360.16 -9.18537 336.249 -25.3716 313.073 -44.7458C290.756 -63.507 275.06 -84.3525 266.354 -108.141C252.743 -145.418 256.79 -188.582 272.117 -232.112C283.521 -264.362 297.745 -295.998 306.084 -329.965C329.504 -425.364 297.745 -511.322 341.644 -598.629C370.46 -655.893 426.866 -696.972 485.48 -720.515C543.848 -743.936 606.017 -752.765 669.78 -761.471C730.355 -769.564 794.487 -780.6 852.242 -799.484C930.474 -825.234 1008.58 -825.357 1088.53 -799.975C1166.28 -775.328 1236.05 -723.09 1276.02 -650.989C1321.88 -568.219 1311.22 -470.857 1339.54 -377.174Z" stroke="white" stroke-miterlimit="10"/>
<path d="M1321.27 -394.339C1331.82 -362.948 1351.44 -338.546 1363.82 -309.852C1393.98 -240.203 1384.91 -148.237 1337.09 -80.3045C1303.37 -32.3593 1272.34 0.503507 1269.03 54.7024C1266.21 100.073 1270.75 146.669 1240.83 190.813C1206.13 242.069 1150.83 277.384 1084.61 281.43C1041.2 284.128 999.142 274.809 962.478 258.377C938.445 247.586 916.986 233.117 892.461 221.713C864.626 208.715 833.235 197.925 800.495 194.123C781.979 191.916 763.586 192.284 745.56 192.407C664.63 192.652 562.731 204.301 517.238 120.183C504.731 97.0073 493.817 72.6051 477.263 50.7784C457.399 24.7826 430.545 5.53092 405.162 -10.5326C379.779 -26.4734 355.5 -40.6972 332.079 -58.4774C309.026 -75.8897 293.085 -95.7549 284.379 -118.685C270.646 -154.613 275.428 -196.795 291.982 -239.099C304.121 -270.368 319.081 -300.901 327.542 -334.131C351.086 -427.569 313.441 -511.443 355.377 -598.137C382.722 -654.665 438.883 -694.395 496.76 -716.222C554.515 -737.803 615.704 -744.547 678.241 -752.027C737.713 -759.016 800.618 -769.562 856.533 -790.162C930.474 -817.384 1004.78 -820.45 1082.16 -797.765C1157.08 -775.816 1224.89 -726.522 1262.66 -657.24C1305.7 -577.046 1291.47 -483.363 1321.27 -394.339Z" stroke="white" stroke-miterlimit="10"/>
<path d="M1303 -411.508C1314.4 -380.73 1335.37 -357.309 1348.98 -329.351C1382.09 -261.542 1374.37 -169.575 1326.67 -102.501C1292.7 -55.0462 1261.68 -23.2871 1261.19 31.6475C1260.7 76.895 1268.91 123.982 1240.58 168.617C1207.6 220.608 1153.03 256.046 1087.06 258.866C1043.9 260.706 1002.45 249.915 966.77 232.012C943.35 220.24 922.749 204.789 898.715 192.405C872.106 178.671 841.696 167.268 809.691 163.834C791.666 161.872 773.641 162.608 756.106 163.099C677.628 165.428 576.097 182.105 533.67 97.4954C522.143 74.5651 512.456 50.2864 496.27 28.9502C477.018 3.44481 450.164 -14.5811 424.659 -29.0505C399.153 -43.3973 374.384 -55.7821 350.595 -71.9682C326.807 -88.1543 310.62 -106.915 301.792 -128.864C287.935 -163.566 293.453 -204.645 311.111 -245.846C324.109 -276.011 339.804 -305.562 348.143 -338.057C371.931 -429.41 328.401 -511.322 368.375 -597.28C394.249 -653.073 450.041 -691.576 507.429 -711.441C564.57 -731.306 624.778 -735.965 686.089 -742.219C744.457 -748.105 806.136 -758.283 860.212 -780.477C929.738 -809.048 1000.25 -815.179 1075.29 -795.192C1147.51 -776.063 1213.36 -729.589 1248.8 -663.005C1289.39 -585.876 1271.85 -495.995 1303 -411.508Z" stroke="white" stroke-miterlimit="10"/>
<path d="M1284.73 -428.797C1296.99 -398.632 1319.19 -376.315 1334.15 -348.97C1370.2 -282.877 1364.07 -191.034 1316.24 -124.818C1282.03 -77.7311 1251.13 -47.1983 1253.46 8.47202C1255.3 53.5969 1267.19 101.174 1240.34 146.422C1208.95 199.149 1155.24 234.832 1089.52 236.181C1046.72 237.162 1005.76 224.9 971.062 205.526C948.255 192.773 928.39 176.342 905.092 163.099C879.709 148.629 850.28 136.735 819.011 133.424C801.476 131.584 783.941 132.688 766.774 133.669C690.871 138.084 589.463 159.665 550.224 74.6882C539.678 51.8805 531.095 27.847 515.522 6.87863C496.883 -18.0136 470.029 -34.9357 444.279 -47.811C418.651 -60.6863 393.39 -71.1089 369.234 -85.8235C344.709 -100.661 328.278 -118.442 319.449 -139.41C305.47 -172.763 311.724 -212.86 330.485 -252.835C344.219 -282.019 360.65 -310.467 369.111 -342.226C393.023 -431.618 343.729 -511.445 381.619 -596.79C406.021 -651.847 461.568 -689.001 518.22 -707.149C574.748 -725.175 633.975 -727.749 694.059 -732.777C751.324 -737.559 811.899 -747.124 864.013 -771.035C929.248 -800.955 995.832 -810.029 1068.42 -792.862C1137.95 -776.431 1201.71 -732.899 1234.94 -669.136C1273.2 -594.704 1252.23 -508.624 1284.73 -428.797Z" stroke="white" stroke-miterlimit="10"/>
<path d="M1266.58 -445.964C1279.82 -416.535 1303.24 -395.076 1319.43 -368.59C1358.42 -304.336 1353.89 -212.369 1305.94 -147.134C1271.49 -100.415 1240.46 -70.986 1245.74 -14.8251C1249.9 30.2998 1265.6 78.1225 1240.09 124.106C1210.42 177.446 1157.45 213.374 1091.97 213.497C1049.42 213.619 1009.07 200.008 975.354 179.04C953.159 165.306 934.03 147.894 911.345 133.67C887.066 118.465 858.618 105.957 828.085 102.892C811.04 101.175 793.873 102.647 777.197 104.118C703.869 110.617 602.583 137.226 566.532 51.7585C556.968 29.196 549.488 5.1619 534.405 -15.1933C516.38 -39.5951 489.526 -55.1681 463.653 -66.572C437.779 -77.8532 412.274 -86.4367 387.75 -99.5573C362.367 -113.046 345.69 -129.845 336.984 -149.832C322.883 -181.836 329.749 -220.952 349.859 -259.823C364.329 -287.904 381.619 -315.371 390.079 -346.395C414.113 -433.701 359.056 -511.567 394.862 -596.176C417.792 -650.375 473.094 -686.303 529.01 -702.612C584.803 -718.798 643.048 -719.288 702.029 -723.212C758.19 -726.891 817.662 -735.965 867.814 -761.593C928.88 -792.739 991.417 -805.001 1061.56 -790.532C1128.26 -776.798 1190.19 -736.21 1221.09 -675.145C1257.02 -603.656 1232.74 -521.254 1266.58 -445.964Z" stroke="white" stroke-miterlimit="10"/>
<path d="M1248.31 -463.131C1262.53 -434.437 1287.18 -413.837 1304.59 -388.086C1346.41 -325.549 1343.46 -233.705 1295.4 -169.329C1260.69 -123.1 1229.67 -94.7744 1237.76 -37.8778C1244.26 7.12443 1263.64 55.4378 1239.6 101.911C1211.65 155.988 1159.41 192.161 1094.17 190.812C1051.99 190.077 1012.14 174.994 979.4 152.676C957.819 137.839 939.426 119.569 917.476 104.486C894.423 88.6678 866.956 75.4251 837.159 72.7274C820.605 71.1333 803.928 72.9726 787.62 74.9345C716.867 83.518 615.581 115.154 582.841 29.196C574.257 6.75621 567.881 -17.032 553.412 -37.0194C536.122 -60.808 509.145 -75.2772 483.15 -85.0869C457.154 -94.8967 431.158 -101.519 406.266 -113.045C380.147 -125.185 363.225 -141.003 354.519 -160.01C340.295 -190.665 347.897 -228.8 369.111 -266.445C384.316 -293.545 402.342 -319.909 410.925 -350.196C435.082 -435.541 374.261 -511.321 408.105 -595.317C429.564 -648.78 484.621 -683.482 539.801 -697.952C594.981 -712.421 652.245 -710.705 710 -713.402C765.057 -715.855 823.548 -724.438 871.616 -751.783C928.39 -784.155 987.003 -799.482 1054.81 -787.833C1118.82 -776.92 1178.66 -739.03 1207.35 -680.907C1240.83 -612.484 1213.36 -534.006 1248.31 -463.131Z" stroke="white" stroke-miterlimit="10"/>
<path d="M1230.04 -480.299C1245.24 -452.341 1271.12 -432.722 1289.76 -407.584C1334.51 -346.886 1333.16 -254.92 1284.97 -191.524C1250.03 -145.664 1218.88 -118.441 1230.04 -60.9317C1238.75 -15.9294 1262.04 32.7512 1239.48 79.838C1213.24 134.527 1161.74 170.947 1096.87 168.371C1054.94 166.777 1015.7 150.224 983.937 126.435C962.969 110.617 945.189 91.3647 923.975 75.4238C902.026 58.8699 875.662 45.0137 846.601 42.5612C830.415 41.2124 814.228 43.4198 798.41 45.8723C730.11 56.4178 628.947 93.2043 599.517 6.75585C591.915 -15.4387 586.765 -39.105 572.663 -58.6018C555.987 -81.7774 528.887 -95.1435 502.769 -103.359C476.65 -111.575 450.164 -116.234 424.904 -126.289C398.05 -137.08 380.883 -151.917 372.176 -169.943C357.83 -199.249 366.168 -236.403 388.485 -272.945C404.426 -299.063 423.31 -324.446 431.893 -353.876C456.172 -437.136 389.834 -510.831 421.348 -594.214C441.458 -646.942 496.025 -680.295 550.714 -693.048C605.281 -705.678 661.564 -701.877 718.093 -703.348C772.047 -704.697 829.556 -712.544 875.539 -741.851C928.267 -775.327 982.711 -793.843 1048.07 -785.014C1109.38 -776.798 1167.13 -741.851 1193.62 -686.426C1224.64 -621.314 1193.99 -546.76 1230.04 -480.299Z" stroke="white" stroke-miterlimit="10"/>
<path d="M1211.77 -497.587C1227.96 -470.365 1255.05 -451.604 1274.92 -427.202C1322.62 -368.344 1322.86 -276.254 1274.55 -213.84C1239.36 -168.347 1208.09 -142.229 1222.19 -84.2289C1233.11 -39.2267 1260.2 9.82208 1239.11 57.522C1214.59 112.947 1163.82 149.489 1099.2 145.565C1057.63 143.113 1018.88 125.087 988.106 99.8267C967.751 83.0275 950.707 62.918 930.229 45.8735C909.383 28.5838 884.001 14.2368 855.798 11.907C840.102 10.6808 824.406 13.2556 809.079 16.1985C743.353 28.8285 642.19 70.6431 615.949 -16.2959C609.327 -38.3678 605.281 -61.9115 591.793 -80.9179C575.729 -103.603 548.63 -115.743 522.388 -122.364C496.147 -129.108 469.171 -131.683 443.665 -140.389C415.953 -149.708 398.663 -163.688 389.834 -180.732C375.365 -208.69 384.316 -244.863 407.982 -280.178C424.781 -305.316 444.278 -329.595 452.984 -358.289C477.386 -439.587 405.162 -511.198 434.836 -593.968C453.475 -645.959 507.797 -678.087 561.75 -688.878C615.581 -699.668 671.006 -693.905 726.309 -694.15C779.159 -694.395 835.687 -701.507 879.709 -732.776C928.39 -767.355 978.665 -788.937 1041.69 -783.051C1100.18 -777.41 1156.1 -745.528 1180.25 -692.924C1208.46 -630.141 1174.61 -559.756 1211.77 -497.587Z" stroke="white" stroke-miterlimit="10"/>
<path d="M407.369 -190.912C416.198 -174.848 433.733 -161.728 462.181 -153.88C488.177 -146.646 515.399 -146.032 541.885 -140.882C568.372 -135.732 595.349 -124.818 610.799 -102.746C623.674 -84.2304 626.617 -60.8102 632.258 -38.9835C654.943 48.4459 756.228 1.48227 819.501 -13.1097C834.461 -16.5431 849.666 -19.486 864.871 -18.3824C892.339 -16.4204 916.618 -1.33807 936.36 16.6873C956.102 34.5901 972.411 55.6812 992.276 73.4614C1022.07 100.316 1060.21 119.69 1101.53 123C1165.91 128.15 1215.94 91.4862 1238.75 35.3254C1258.37 -12.9877 1227.46 -62.4037 1214.34 -107.283C1197.18 -165.897 1228.57 -190.911 1264.01 -236.036C1312.44 -297.592 1310.6 -389.56 1259.96 -446.701C1238.87 -470.367 1210.79 -488.393 1193.5 -514.756C1155.36 -572.757 1192.27 -639.095 1166.15 -698.567C1144.2 -748.474 1090.37 -777.412 1034.58 -780.355C974.005 -783.543 928.022 -758.651 883.265 -722.968C841.573 -689.738 785.903 -683.362 734.034 -684.343C680.08 -685.324 625.636 -693.294 572.418 -684.22C519.2 -675.146 465.124 -644.368 447.957 -593.112C420.367 -511.078 498.355 -441.428 473.83 -362.215C465.124 -334.257 444.769 -311.081 427.234 -286.925C402.464 -252.713 392.9 -217.643 407.369 -190.912Z" stroke="white" stroke-miterlimit="10"/>
</g>
</svg>
