<svg width="86" height="86" viewBox="0 0 86 86" fill="none" xmlns="http://www.w3.org/2000/svg">
<g clip-path="url(#clip0_1_396)">
<path d="M42.9995 0C19.2521 0 0.000488281 19.2522 0.000488281 42.9996C0.000488281 66.7464 19.2521 86 42.9995 86C66.7469 86 85.9999 66.7464 85.9999 42.9996C85.9999 19.2522 66.7469 0 42.9995 0ZM43.0003 15.1035L68.446 30.9706H17.5547L43.0003 15.1035ZM68.763 56.3085H68.7605C68.7605 58.8535 66.6979 60.9158 64.1531 60.9158H21.8476C19.3025 60.9158 17.2402 58.8533 17.2402 56.3085V31.9803C17.2402 31.7111 17.2677 31.4494 17.3125 31.1922L41.6243 46.3522C41.6541 46.3708 41.686 46.3834 41.7166 46.4006C41.7487 46.4184 41.7814 46.4356 41.8141 46.4519C41.9858 46.5405 42.1627 46.6119 42.3436 46.6586C42.3622 46.6638 42.3808 46.6661 42.3995 46.6704C42.5979 46.7171 42.7988 46.7463 42.9995 46.7463H43.0009C43.0023 46.7463 43.0038 46.7463 43.0038 46.7463C43.2044 46.7463 43.4054 46.718 43.6038 46.6704C43.6224 46.6658 43.641 46.6638 43.6597 46.6586C43.8403 46.6119 44.0166 46.5405 44.1892 46.4519C44.2218 46.4356 44.2545 46.4184 44.2866 46.4006C44.317 46.3834 44.3491 46.3708 44.3789 46.3522L68.6908 31.1922C68.7355 31.4494 68.763 31.7105 68.763 31.9803V56.3085Z" fill="#249842"/>
</g>
<defs>
<clipPath id="clip0_1_396">
<rect width="86" height="86" fill="white"/>
</clipPath>
</defs>
</svg>
