<svg width="554" height="554" viewBox="0 0 554 554" fill="none" xmlns="http://www.w3.org/2000/svg">
<path d="M93.7993 120.413L84.2788 136.903L78.0001 133.278L87.5206 116.788L93.7993 120.413Z" fill="#FFDC0D"/>
<path d="M103.333 7.47303L108.261 25.8652L101.258 27.7417L96.3296 9.34946L103.333 7.47303Z" fill="#FFDC0D"/>
<path d="M246.797 196.785L263.287 206.305L259.662 212.584L243.172 203.063L246.797 196.785Z" fill="#FFDC0D"/>
<path d="M256.195 394.553L237.803 399.481L235.926 392.478L254.319 387.55L256.195 394.553Z" fill="#FFDC0D"/>
<path d="M227.081 668.55H229.481C229.481 659.517 231.75 655.114 234.152 650.454C236.576 645.752 239.081 640.891 239.081 631.298C239.081 621.705 236.576 616.843 234.152 612.142C231.75 607.481 229.481 603.079 229.481 594.045C229.481 585.013 231.75 580.612 234.152 575.952C236.576 571.251 239.081 566.39 239.081 556.798C239.081 547.206 236.576 542.345 234.152 537.644C231.75 532.984 229.481 528.582 229.481 519.55H227.081C227.081 529.142 229.586 534.003 232.01 538.704C234.412 543.364 236.681 547.766 236.681 556.798C236.681 565.83 234.412 570.232 232.01 574.892C229.587 579.592 227.081 584.454 227.081 594.045C227.081 603.638 229.586 608.5 232.01 613.201C234.412 617.862 236.681 622.265 236.681 631.298C236.681 640.331 234.412 644.733 232.01 649.394C229.586 654.095 227.081 658.957 227.081 668.55Z" fill="white"/>
<path d="M194.081 464.588C194.081 487.508 209.08 514.55 227.581 514.55C246.083 514.55 261.081 487.508 261.081 464.588C261.081 441.669 246.083 431.55 227.581 431.55C209.079 431.55 194.081 441.668 194.081 464.588Z" fill="#FFDC0D"/>
<path d="M221.741 523.643H235.081L231.868 513.55H224.954L221.741 523.643Z" fill="#FFDC0D"/>
<path d="M39 567H41.6C41.6 555.299 44.0582 549.597 46.6604 543.56C49.2858 537.47 52 531.173 52 518.747C52 506.321 49.2858 500.024 46.6604 493.934C44.0582 487.897 41.6 482.195 41.6 470.494C41.6 458.795 44.0582 453.094 46.6604 447.057C49.2858 440.968 52 434.672 52 422.248C52 409.823 49.2858 403.527 46.6604 397.438C44.0582 391.401 41.6 385.699 41.6 374H39C39 386.425 41.7142 392.721 44.3396 398.81C46.9418 404.847 49.4 410.549 49.4 422.248C49.4 433.947 46.9418 439.648 44.3396 445.684C41.7146 451.773 39 458.07 39 470.494C39 482.92 41.7142 489.217 44.3396 495.307C46.9418 501.344 49.4 507.047 49.4 518.747C49.4 530.448 46.9418 536.15 44.3396 542.187C41.7142 548.277 39 554.574 39 567Z" fill="white"/>
<path d="M-4.57764e-05 308.297C-4.57764e-05 335.177 17.4791 366.892 39.0405 366.892C60.602 366.892 78.0811 335.177 78.0811 308.297C78.0811 281.417 60.6021 269.55 39.0405 269.55C17.479 269.55 -4.57764e-05 281.417 -4.57764e-05 308.297Z" fill="#FFDC0D"/>
<path d="M30.4938 377.699H45.7456L42.0715 366.159H34.167L30.4938 377.699Z" fill="#FFDC0D"/>
<path d="M135.481 583.731H137.897C137.897 574.447 140.182 569.923 142.6 565.133C145.04 560.301 147.562 555.305 147.562 545.445C147.562 535.586 145.04 530.59 142.6 525.758C140.182 520.968 137.897 516.444 137.897 507.16C137.897 497.878 140.182 493.354 142.6 488.564C145.04 483.733 147.562 478.737 147.562 468.88C147.562 459.021 145.04 454.026 142.6 449.194C140.182 444.405 137.897 439.881 137.897 430.598H135.481C135.481 440.456 138.003 445.452 140.443 450.284C142.861 455.073 145.146 459.597 145.146 468.88C145.146 478.162 142.861 482.686 140.443 487.475C138.004 492.306 135.481 497.302 135.481 507.16C135.481 517.019 138.003 522.015 140.443 526.847C142.861 531.637 145.146 536.162 145.146 545.445C145.146 554.729 142.861 559.254 140.443 564.044C138.003 568.876 135.481 573.872 135.481 583.731Z" fill="white"/>
<path d="M101.789 373.439C101.789 396.95 117.077 424.688 135.935 424.688C154.793 424.688 170.081 396.95 170.081 373.439C170.081 349.929 154.793 339.55 135.935 339.55C117.076 339.55 101.789 349.929 101.789 373.439Z" fill="#FFDC0D"/>
<path d="M128.552 434.015H141.892L138.679 423.922H131.765L128.552 434.015Z" fill="#FFDC0D"/>
<path d="M203.195 87.5285L199.837 91.2336C198.7 90.2027 197.701 90.2516 195.729 90.4478L195.728 90.4479C193.563 90.6636 190.599 90.959 187.766 88.3922C184.934 85.8256 184.936 82.8467 184.938 80.6714L184.938 80.6702C184.94 78.6883 184.891 77.6895 183.753 76.6585C182.617 75.6291 181.619 75.6778 179.647 75.8757L179.646 75.8758C177.482 76.0919 174.519 76.3878 171.687 73.8221C168.855 71.2558 168.858 68.2769 168.861 66.102L168.861 66.1013C168.863 64.1198 168.813 63.1212 167.677 62.0911C166.541 61.0617 165.543 61.1105 163.571 61.3084L163.571 61.3085C161.407 61.5247 158.443 61.8208 155.611 59.2549L158.969 55.5498C160.105 56.5792 161.102 56.5304 163.073 56.3332C165.238 56.1163 168.202 55.8199 171.034 58.386C173.866 60.9523 173.863 63.9312 173.861 66.1063L173.861 66.1068C173.859 68.0883 173.908 69.0869 175.045 70.117C176.181 71.1464 177.178 71.0977 179.15 70.8998L179.151 70.8997C181.315 70.6835 184.279 70.3874 187.11 72.9534C189.943 75.5201 189.94 78.4992 189.938 80.6744L189.938 80.6753C189.937 82.6572 189.986 83.6562 191.124 84.6871C192.261 85.718 193.26 85.669 195.232 85.4728L195.233 85.4727C197.398 85.257 200.362 84.9616 203.195 87.5285Z" fill="white"/>
<path d="M332.918 171.754L328.716 174.464C327.884 173.174 326.907 172.963 324.951 172.642L324.95 172.642C322.804 172.29 319.864 171.808 317.792 168.595C315.72 165.383 316.494 162.506 317.059 160.406L317.059 160.405C317.573 158.491 317.784 157.513 316.952 156.223C316.121 154.934 315.145 154.723 313.189 154.404L313.188 154.404C311.042 154.053 308.103 153.571 306.032 150.36C303.96 147.148 304.734 144.272 305.3 142.172L305.3 142.171C305.815 140.257 306.026 139.28 305.194 137.991C304.363 136.703 303.387 136.492 301.431 136.172L301.431 136.172C299.284 135.821 296.345 135.34 294.274 132.129L298.476 129.419C299.307 130.707 300.283 130.918 302.238 131.238C304.385 131.589 307.325 132.069 309.396 135.281C311.468 138.493 310.694 141.37 310.128 143.47L310.128 143.47C309.613 145.384 309.402 146.361 310.234 147.65C311.065 148.939 312.041 149.15 313.997 149.469L313.997 149.469C316.144 149.82 319.083 150.301 321.154 153.513C323.226 156.725 322.452 159.602 321.887 161.703L321.887 161.704C321.373 163.618 321.162 164.595 321.994 165.886C322.826 167.176 323.804 167.387 325.759 167.708L325.76 167.708C327.907 168.06 330.847 168.542 332.918 171.754Z" fill="white"/>
<path d="M230.236 298.439L227.952 302.887C226.586 302.185 225.634 302.491 223.78 303.191L223.779 303.191C221.744 303.96 218.957 305.012 215.557 303.266C212.156 301.52 211.388 298.642 210.827 296.54L210.826 296.539C210.315 294.625 210.009 293.673 208.643 292.971C207.279 292.271 206.328 292.576 204.475 293.278L204.474 293.278C202.439 294.047 199.653 295.1 196.254 293.354C192.855 291.608 192.087 288.73 191.526 286.629L191.526 286.628C191.015 284.714 190.709 283.762 189.344 283.061C187.981 282.361 187.03 282.666 185.176 283.367L185.176 283.368C183.141 284.137 180.355 285.19 176.956 283.444L179.24 278.996C180.604 279.697 181.555 279.391 183.408 278.691C185.443 277.921 188.229 276.867 191.628 278.613C195.028 280.359 195.796 283.237 196.357 285.339L196.357 285.339C196.868 287.254 197.174 288.206 198.538 288.906C199.902 289.607 200.853 289.301 202.707 288.6L202.707 288.6C204.742 287.831 207.528 286.778 210.927 288.523C214.327 290.269 215.096 293.148 215.657 295.249L215.657 295.25C216.169 297.165 216.475 298.117 217.841 298.818C219.206 299.52 220.159 299.214 222.013 298.514L222.013 298.514C224.048 297.745 226.835 296.693 230.236 298.439Z" fill="white"/>
<path d="M186.388 201.078L183.03 204.783C181.893 203.753 180.894 203.801 178.922 203.998L178.921 203.998C176.756 204.213 173.792 204.509 170.959 201.942C168.127 199.375 168.129 196.396 168.131 194.221L168.131 194.22C168.133 192.238 168.083 191.239 166.946 190.208C165.81 189.179 164.812 189.228 162.84 189.425L162.839 189.426C160.675 189.642 157.711 189.938 154.88 187.372C152.048 184.806 152.051 181.827 152.053 179.652L152.053 179.651C152.056 177.67 152.006 176.671 150.87 175.641C149.734 174.612 148.736 174.66 146.764 174.858L146.763 174.858C144.6 175.074 141.636 175.371 138.804 172.805L142.162 169.1C143.298 170.129 144.295 170.08 146.266 169.883C148.431 169.666 151.395 169.37 154.227 171.936C157.059 174.502 157.056 177.481 157.054 179.656L157.054 179.657C157.052 181.638 157.101 182.637 158.237 183.667C159.373 184.696 160.371 184.648 162.343 184.45L162.344 184.45C164.508 184.233 167.471 183.937 170.303 186.503C173.136 189.07 173.133 192.049 173.131 194.224L173.131 194.225C173.129 196.207 173.179 197.206 174.317 198.237C175.454 199.268 176.453 199.219 178.425 199.023L178.426 199.023C180.591 198.807 183.555 198.511 186.388 201.078Z" fill="white"/>
<path d="M356.725 43.2046L352.523 45.9145C351.691 44.6242 350.713 44.4129 348.758 44.092L348.757 44.0919C346.61 43.74 343.67 43.2581 341.599 40.0456C339.527 36.8333 340.3 33.9566 340.865 31.8559L340.866 31.8548C341.38 29.9409 341.591 28.9633 340.759 27.673C339.928 26.3846 338.952 26.1735 336.996 25.8542L336.995 25.8541C334.848 25.5027 331.909 25.0216 329.838 21.8104C327.767 18.5985 328.541 15.722 329.106 13.6218L329.106 13.6211C329.621 11.7077 329.832 10.7304 329.001 9.44117C328.17 8.15283 327.194 7.94176 325.238 7.62255L325.237 7.62245C323.091 7.27121 320.152 6.79015 318.081 3.57886L322.283 0.868949C323.113 2.15729 324.09 2.36837 326.045 2.68807C328.192 3.03883 331.132 3.51967 333.203 6.73128C335.274 9.94315 334.5 12.8197 333.935 14.9201L333.935 14.9206C333.42 16.834 333.209 17.8113 334.04 19.1005C334.871 20.3889 335.848 20.6001 337.803 20.9193L337.804 20.9194C339.95 21.2706 342.89 21.7517 344.961 24.9631C347.033 28.1755 346.259 31.0524 345.694 33.153L345.694 33.1538C345.179 35.0678 344.968 36.0455 345.801 37.3357C346.633 38.626 347.61 38.8372 349.566 39.1581L349.567 39.1582C351.713 39.5101 354.653 39.992 356.725 43.2046Z" fill="white"/>
<path d="M461.583 129.809L456.589 130.055C456.513 128.521 455.772 127.849 454.239 126.594L454.238 126.593C452.555 125.215 450.25 123.328 450.062 119.51C449.874 115.692 451.983 113.588 453.522 112.051L453.523 112.05C454.925 110.65 455.597 109.909 455.521 108.375C455.446 106.844 454.706 106.173 453.172 104.918L453.171 104.918C451.488 103.54 449.183 101.654 448.995 97.8376C448.807 94.0203 450.916 91.9162 452.455 90.3799L452.456 90.3794C453.859 88.9798 454.53 88.2389 454.454 86.7067C454.379 85.1755 453.639 84.5047 452.105 83.2502L452.104 83.2498C450.421 81.8726 448.116 79.9863 447.928 76.1697L452.922 75.9238C452.998 77.455 453.738 78.1259 455.271 79.3803C456.955 80.7576 459.26 82.6439 459.448 86.4609C459.636 90.2782 457.528 92.3823 455.988 93.9187L455.988 93.9191C454.585 95.3187 453.914 96.0595 453.989 97.5918C454.065 99.1229 454.804 99.794 456.339 101.048L456.339 101.049C458.022 102.426 460.327 104.312 460.515 108.129C460.703 111.947 458.595 114.052 457.055 115.588L457.055 115.589C455.652 116.989 454.981 117.731 455.056 119.264C455.132 120.797 455.873 121.469 457.406 122.725L457.406 122.725C459.09 124.103 461.395 125.991 461.583 129.809Z" fill="white"/>
<path d="M434.521 283.87V283.87L434.53 283.87C441.746 284.104 448.969 284.804 456.249 285.51C456.251 285.51 456.253 285.51 456.255 285.51L472.792 287.232L470.573 305.426L455.137 303.922L455.127 303.921L455.116 303.921C454.043 303.831 452.93 303.733 451.787 303.632C444.034 302.95 434.901 302.147 427.378 302.984C422.696 303.478 419.107 304.99 416.719 307.794C414.344 310.582 413.37 314.401 413.37 319.054V319.093V319.132V319.172V319.212V319.253V319.295V319.337V319.38V319.423V319.467V319.511V319.556V319.601V319.647V319.693V319.74V319.787V319.835V319.883V319.932V319.981V320.031V320.082V320.133V320.184V320.236V320.288V320.341V320.394V320.448V320.502V320.557V320.612V320.668V320.724V320.781V320.838V320.895V320.953V321.012V321.071V321.13V321.19V321.25V321.311V321.372V321.434V321.496V321.559V321.622V321.685V321.749V321.813V321.878V321.943V322.008V322.074V322.141V322.208V322.275V322.343V322.411V322.479V322.548V322.617V322.687V322.757V322.827V322.898V322.969V323.041V323.113V323.186V323.258V323.331V323.405V323.479V323.553V323.628V323.703V323.778V323.854V323.93V324.007V324.084V324.161V324.238V324.316V324.395V324.473V324.552V324.632V324.711V324.791V324.871V324.952V325.033V325.114V325.196V325.278V325.36V325.443V325.526V325.609V325.693V325.776V325.861V325.945V326.03V326.115V326.2V326.286V326.372V326.458V326.545V326.632V326.719V326.806V326.894V326.982V327.07V327.159V327.247V327.336V327.426V327.515V327.605V327.695V327.786V327.876V327.967V328.058V328.15V328.241V328.333V328.425V328.518V328.61V328.703V328.796V328.89V328.983V329.077V329.171V329.265V329.359V329.454V329.549V329.644V329.739V329.835V329.93V330.026V330.122V330.219V330.315V330.412V330.509V330.606V330.703V330.801V330.898V330.996V331.094V331.192V331.29V331.389V331.488V331.586V331.685V331.785V331.884V331.983V332.083V332.183V332.283V332.383V332.483V332.584V332.684V332.785V332.886V332.987V333.088V333.189V333.29V333.392V333.493V333.595V333.697V333.799V333.901V334.003V334.105V334.208V334.31V334.413V334.516V334.618V334.721V334.824V334.928V335.031V335.134V335.237V335.341V335.444V335.548V335.652V335.755V335.859V335.963V336.067V336.171V336.275V336.379V336.484V336.588V336.692V336.797V336.901V337.005V337.11V337.215V337.319V337.424V337.528V337.633V337.738V337.843V337.948V338.052V338.157V338.262V338.367V338.472V338.577V338.682V338.787V338.892V338.996V339.101V339.206V339.311V339.416V339.521V339.626V339.731V339.836V339.941V340.046V340.15V340.255V340.36V340.465V340.57V340.674V340.779V340.883V340.988V341.093V341.197V341.302V341.406V341.51V341.615V341.719V341.823V341.927V342.031V342.135V342.239V342.343V342.447V342.551V342.654V342.758V342.861V342.965V343.068V343.171V343.274V343.378V343.481V343.583V343.686V343.789V343.891V343.994V344.096V344.198V344.301V344.403V344.505V344.606V344.708V344.81V344.911V345.012V345.113V345.214V345.315V345.416V345.517V345.617V345.717V345.818V345.918V346.018V346.117V346.217V346.316V346.416V346.515V346.614V346.712V346.811V346.909V347.008V347.106V347.204V347.301V347.399V347.496V347.594V347.69V347.787V347.884V347.98V348.076V348.173V348.268V348.364V348.459V348.554V348.649V348.744V348.839V348.933V349.027V349.121V349.215V349.308V349.401V349.494V349.587V349.68V349.772V349.864V349.956V350.047V350.138V350.229V350.32V350.411V350.501V350.591V350.681V350.77V350.859V350.948V351.037V351.125V351.213V351.301V351.389V351.476V351.563V351.65V351.736V351.822V351.908V351.994V352.079V352.164V352.249V352.333V352.417V352.501V352.584V352.667V352.75V352.832V352.915V352.996V353.078V353.159V353.24V353.32V353.401V353.48V353.56V353.639V353.718V353.796V353.874V353.952V354.03V354.107V354.183V354.26V354.336V354.411V354.487V354.561V354.636V354.71V354.784V354.857V354.93V355.003V355.075V355.147V355.218V355.29V355.36V355.43V355.5V355.57V355.639V355.708V355.776V355.844V355.911V355.978V356.045V356.111V356.177V356.242V356.307V356.372V356.436V356.499V356.563V356.625V356.688V356.75V356.811V356.872V356.933V356.993V357.052V357.112V357.17V357.229V357.286V357.344V357.401V357.457V357.513V357.569V357.624V357.678V357.732V357.786V357.839V357.891V357.944V357.995V358.046V358.097V358.147V358.197V358.246V358.294V358.343V358.39V358.437V358.484V358.53V358.575V358.621V358.665V358.709V358.752V358.795V358.838V358.88V358.921V358.962V359.002V359.042V359.081V359.119V359.158V359.195V359.232V359.268V359.304V359.34V359.374V359.408V359.442V359.475V359.507V359.539V359.571V359.601V359.631V359.661V359.69V359.718V359.746V359.773V359.8V359.826V359.851V359.876V359.9V359.924V359.947V359.969C413.37 367.262 419.089 372.521 427.07 372.521H427.096L427.121 372.52L455.042 371.579L456.492 371.53V370.08V347.741V346.241H454.992H431.528C431.425 346.241 431.321 346.199 431.253 346.137C431.222 346.109 431.2 346.078 431.184 346.042C431.169 346.008 431.151 345.951 431.151 345.86V336.69V327.519C431.151 327.412 431.194 327.306 431.257 327.238C431.285 327.207 431.316 327.185 431.351 327.17C431.384 327.155 431.439 327.138 431.528 327.138H462.5C470.668 327.138 481.98 328.875 491.266 331.151C495.907 332.288 499.98 333.545 502.865 334.758C504.317 335.369 505.398 335.94 506.092 336.441C506.36 336.634 506.537 336.794 506.648 336.914C506.615 336.948 506.575 336.988 506.526 337.032C506.198 337.333 505.644 337.705 504.831 338.13C503.217 338.974 500.851 339.883 497.953 340.783C492.176 342.578 484.513 344.267 477.072 345.316L475.782 345.497V346.801V389.122L432.626 391.626C421.774 392.087 409.124 389.746 401.106 382.381C395.181 376.883 392.203 368.651 392.203 357.147V323.522C392.203 312.234 393.165 303.5 397.565 297.101C401.751 291.144 408.418 287.533 415.703 285.707L415.703 285.707L415.716 285.704C421.877 284.104 428.529 283.639 434.521 283.87Z" stroke="#FFDC0D" stroke-width="3"/>
<path d="M439.5 226.5C501.786 226.5 552.5 277.089 552.5 339.751C552.5 402.412 501.786 453.001 439.5 453.001C377.214 453.001 326.5 402.412 326.5 339.751C326.5 277.322 377.216 226.5 439.5 226.5ZM439.5 431.546C490.073 431.546 531.098 390.426 531.098 339.751C531.098 289.08 490.313 247.955 439.735 247.955C389.161 247.955 348.136 289.075 348.136 339.751C348.136 390.421 388.922 431.546 439.5 431.546Z" stroke="#FFDC0D" stroke-width="3"/>
</svg>
