<svg width="19" height="18" viewBox="0 0 19 18" fill="none" xmlns="http://www.w3.org/2000/svg">
<g id="Group">
<path id="Subtract" d="M17.5993 5.97088C17.5285 5.04327 16.8205 3.85401 16.1124 3.28317C15.3162 2.69898 14.4889 2.15904 13.6343 1.66579C12.7861 1.15914 11.9116 0.698634 11.0145 0.286255C10.5353 0.089258 10.0215 -0.007836 9.50404 0.00083399C8.98639 -0.0101267 8.4721 0.0870537 7.99355 0.286255C7.09663 0.698927 6.22215 1.15942 5.3738 1.66579C4.00493 2.49827 2.89566 3.28317 2.89566 3.28317C2.40806 3.69443 2.01944 4.20454 1.75154 4.77485C1.60946 5.0773 1.84905 5.39995 2.18321 5.39995H2.5622C2.93374 5.39995 3.26562 5.18653 3.49081 4.89101C3.65193 4.67958 3.83698 4.48522 4.04355 4.31219C4.04355 4.31219 4.95945 3.66856 6.0897 2.98593C6.79016 2.57071 7.5122 2.19311 8.25277 1.85471C8.6479 1.69137 9.07254 1.61168 9.49995 1.62067C9.9272 1.61356 10.3515 1.69318 10.7471 1.85471C11.4878 2.19287 12.2099 2.57048 12.9102 2.98593C13.6159 3.3904 14.2989 3.83315 14.9563 4.31219C15.541 4.78028 16.1256 5.75546 16.184 6.51611C16.184 6.51611 16.3204 7.64733 16.3399 8.98724C16.3387 9.81474 16.2932 10.6416 16.2035 11.4642C16.0676 12.3256 15.6245 13.1085 14.9563 13.6681C14.9563 13.6681 14.0405 14.3313 12.9102 15.0139C12.2097 15.4291 11.4877 15.8067 10.7471 16.1451C10.352 16.3085 9.92736 16.3881 9.49995 16.3792C9.0731 16.3881 8.64885 16.3105 8.25277 16.151C7.51209 15.8128 6.79003 15.4352 6.0897 15.0197C4.95945 14.3566 4.04355 13.674 4.04355 13.674C3.85811 13.5255 3.67267 13.326 3.5034 13.0985C3.28527 12.8053 2.95677 12.5999 2.59137 12.5999H2.19654C1.85811 12.5999 1.62092 12.9291 1.77212 13.2319C2.06366 13.8157 2.47966 14.3646 2.89566 14.7C2.89566 14.7 4.00493 15.5325 5.3738 16.3412C6.22199 16.8478 7.09649 17.3083 7.99355 17.7207C8.47325 17.9153 8.98707 18.0099 9.50404 17.999C10.0217 18.0099 10.536 17.9128 11.0145 17.7136C11.9114 17.3009 12.7859 16.8404 13.6343 16.334C15.0032 15.5016 16.1124 14.6929 16.1124 14.6929C16.9216 14.0103 17.4582 13.0556 17.6229 12.0052C17.7315 11.002 17.7867 9.9936 17.7881 8.98445C17.7645 7.35042 17.5993 5.97088 17.5993 5.97088Z" fill="url(#paint0_linear_2003_30)"/>
<g id="1">
<path id="Rectangle 1486" d="M1.21997 7.02125C1.21997 6.82243 1.38115 6.66125 1.57997 6.66125H7.15996C7.35878 6.66125 7.51996 6.82243 7.51996 7.02125V8.10124C7.51996 8.30006 7.35878 8.46124 7.15996 8.46124H1.21997V7.02125Z" fill="#0066B3"/>
<path id="Rectangle 1487" d="M1.21983 9.54102H12.5598C12.7586 9.54102 12.9198 9.70219 12.9198 9.90101V10.981C12.9198 11.1798 12.7586 11.341 12.5598 11.341H1.57983C1.381 11.341 1.21983 11.1798 1.21983 10.981V9.54102Z" fill="#EE2F53"/>
</g>
</g>
<defs>
<linearGradient id="paint0_linear_2003_30" x1="9.65039" y1="0" x2="9.65039" y2="17.9998" gradientUnits="userSpaceOnUse">
<stop stop-color="#0066B3"/>
<stop offset="0.354167" stop-color="#0066B3"/>
<stop offset="0.6875" stop-color="#EE2F53"/>
<stop offset="1" stop-color="#EE2F53"/>
</linearGradient>
</defs>
</svg>
