<svg width="50" height="49" viewBox="0 0 50 49" fill="none" xmlns="http://www.w3.org/2000/svg">
<path d="M22 9.25V33.25" stroke="#222829" stroke-width="2" stroke-miterlimit="10"/>
<path d="M25 13.75V36.25" stroke="#222829" stroke-width="2" stroke-miterlimit="10"/>
<path d="M15.25 16H13.75" stroke="#222829" stroke-width="2" stroke-miterlimit="10"/>
<path d="M28 22C29.65 22 31 20.65 31 19C31 17.35 29.65 16 28 16H16.75" stroke="#222829" stroke-width="2" stroke-miterlimit="10"/>
<path d="M22 22H28C30.475 22 32.5 24.025 32.5 26.5C32.5 28.975 30.475 31 28 31H18.25" stroke="#222829" stroke-width="2" stroke-miterlimit="10"/>
<path d="M19.75 22H18.25" stroke="#222829" stroke-width="2" stroke-miterlimit="10"/>
<path d="M16.75 22H15.25" stroke="#222829" stroke-width="2" stroke-miterlimit="10"/>
<path d="M26.5 44.5H28" stroke="#222829" stroke-width="2" stroke-miterlimit="10"/>
<path d="M29.5 44.5H31" stroke="#222829" stroke-width="2" stroke-miterlimit="10"/>
<path d="M32.5 44.5H34" stroke="#222829" stroke-width="2" stroke-miterlimit="10"/>
<path d="M48.25 25.75V27.25" stroke="#222829" stroke-width="2" stroke-miterlimit="10"/>
<path d="M45.25 28.75V30.25" stroke="#222829" stroke-width="2" stroke-miterlimit="10"/>
<path d="M45.25 31.75V33.25" stroke="#222829" stroke-width="2" stroke-miterlimit="10"/>
<path d="M1 1H25C37.825 1 48.25 11.425 48.25 24.25" stroke="#222829" stroke-width="2" stroke-miterlimit="10"/>
<path d="M42.25 24.25C42.25 33.775 34.525 41.5 25 41.5" stroke="#222829" stroke-width="2" stroke-miterlimit="10"/>
<path d="M25 10C32.875 10 39.25 16.375 39.25 24.25C39.25 32.125 32.875 38.5 25 38.5C17.125 38.5 10.75 32.125 10.75 24.25" stroke="#222829" stroke-width="2" stroke-miterlimit="10"/>
<path d="M1.75 19.75V18.25" stroke="#222829" stroke-width="2" stroke-miterlimit="10"/>
<path d="M1.75 16.75V15.25" stroke="#222829" stroke-width="2" stroke-miterlimit="10"/>
<path d="M45.25 27.25V24.25C45.25 13.075 36.175 4 25 4C13.825 4 4.75 13.075 4.75 24.25C4.75 35.425 13.825 44.5 25 44.5" stroke="#222829" stroke-width="2" stroke-miterlimit="10"/>
<path d="M1.75 21.25V24.25C1.75 37.075 12.175 47.5 25 47.5H49" stroke="#222829" stroke-width="2" stroke-miterlimit="10"/>
</svg>
