<svg width="47" height="50" viewBox="0 0 47 50" fill="none" xmlns="http://www.w3.org/2000/svg">
<path d="M18.8065 11.8387C28.6407 11.8387 36.6129 9.41238 36.6129 6.41935C36.6129 3.42633 28.6407 1 18.8065 1C8.97222 1 1 3.42633 1 6.41935C1 9.41238 8.97222 11.8387 18.8065 11.8387Z" stroke="#222829" stroke-width="2" stroke-miterlimit="10" stroke-linejoin="round"/>
<path d="M18.8065 21.1291C8.97419 21.1291 1 18.7291 1 15.7098V6.41943" stroke="#222829" stroke-width="2" stroke-miterlimit="10" stroke-linejoin="round"/>
<path d="M36.6129 6.41943V14.1614" stroke="#222829" stroke-width="2" stroke-miterlimit="10" stroke-linejoin="round"/>
<path d="M18.8065 30.4193C8.97419 30.4193 1 28.0193 1 24.9999V19.5806" stroke="#222829" stroke-width="2" stroke-miterlimit="10" stroke-linejoin="round"/>
<path d="M18.8065 39.7096C8.97419 39.7096 1 37.3096 1 34.2902V28.8708" stroke="#222829" stroke-width="2" stroke-miterlimit="10" stroke-linejoin="round"/>
<path d="M28.0968 48.2259C25.3871 48.7678 22.2129 49.0001 18.8065 49.0001C8.97419 49.0001 1 46.6001 1 43.5807V38.1614" stroke="#222829" stroke-width="2" stroke-miterlimit="10" stroke-linejoin="round"/>
<path d="M18.8066 21.1292H20.355" stroke="#222829" stroke-width="2" stroke-miterlimit="10" stroke-linejoin="round"/>
<path d="M18.8066 30.4194H20.355" stroke="#222829" stroke-width="2" stroke-miterlimit="10" stroke-linejoin="round"/>
<path d="M18.8066 39.7097H20.355" stroke="#222829" stroke-width="2" stroke-miterlimit="10" stroke-linejoin="round"/>
<path d="M45.9034 39.7097L34.2905 49L22.6776 39.7097V16.4839L28.8712 18.8065L31.1937 16.4839H37.3873L39.7099 18.8065L45.9034 16.4839V39.7097Z" stroke="#222829" stroke-width="2" stroke-miterlimit="10" stroke-linejoin="round"/>
<path d="M39.7095 25V26.5484" stroke="#222829" stroke-width="2" stroke-miterlimit="10" stroke-linejoin="round"/>
<path d="M39.7095 34.2903V35.8387" stroke="#222829" stroke-width="2" stroke-miterlimit="10" stroke-linejoin="round"/>
<path d="M36.6128 25V26.5484" stroke="#222829" stroke-width="2" stroke-miterlimit="10" stroke-linejoin="round"/>
<path d="M36.6128 28.0967V29.6451" stroke="#222829" stroke-width="2" stroke-miterlimit="10" stroke-linejoin="round"/>
<path d="M36.6128 34.2903V35.8387" stroke="#222829" stroke-width="2" stroke-miterlimit="10" stroke-linejoin="round"/>
<path d="M36.6128 37.3872V38.9356" stroke="#222829" stroke-width="2" stroke-miterlimit="10" stroke-linejoin="round"/>
<path d="M39.7095 28.0967V29.6451" stroke="#222829" stroke-width="2" stroke-miterlimit="10" stroke-linejoin="round"/>
<path d="M28.8708 25V26.5484" stroke="#222829" stroke-width="2" stroke-miterlimit="10" stroke-linejoin="round"/>
<path d="M28.8708 34.2903V35.8387" stroke="#222829" stroke-width="2" stroke-miterlimit="10" stroke-linejoin="round"/>
<path d="M31.9675 25V26.5484" stroke="#222829" stroke-width="2" stroke-miterlimit="10" stroke-linejoin="round"/>
<path d="M31.9675 28.0967V29.6451" stroke="#222829" stroke-width="2" stroke-miterlimit="10" stroke-linejoin="round"/>
<path d="M31.9675 34.2903V35.8387" stroke="#222829" stroke-width="2" stroke-miterlimit="10" stroke-linejoin="round"/>
<path d="M31.9675 37.3872V38.9356" stroke="#222829" stroke-width="2" stroke-miterlimit="10" stroke-linejoin="round"/>
<path d="M28.8708 28.0967V29.6451" stroke="#222829" stroke-width="2" stroke-miterlimit="10" stroke-linejoin="round"/>
<path d="M36.6128 31.1936V32.742" stroke="#222829" stroke-width="2" stroke-miterlimit="10" stroke-linejoin="round"/>
<path d="M39.7095 31.1936V32.742" stroke="#222829" stroke-width="2" stroke-miterlimit="10" stroke-linejoin="round"/>
<path d="M31.9675 31.1936V32.742" stroke="#222829" stroke-width="2" stroke-miterlimit="10" stroke-linejoin="round"/>
<path d="M28.8708 31.1936V32.742" stroke="#222829" stroke-width="2" stroke-miterlimit="10" stroke-linejoin="round"/>
<path d="M28.8708 18.8064V21.9032" stroke="#222829" stroke-width="2" stroke-miterlimit="10" stroke-linejoin="round"/>
<path d="M39.7095 18.8064V21.9032" stroke="#222829" stroke-width="2" stroke-miterlimit="10" stroke-linejoin="round"/>
<path d="M19.5807 16.4839H18.0323" stroke="#222829" stroke-width="2" stroke-miterlimit="10" stroke-linejoin="round"/>
<path d="M19.5807 25.7742H18.0323" stroke="#222829" stroke-width="2" stroke-miterlimit="10" stroke-linejoin="round"/>
<path d="M19.5807 35.0645H18.0323" stroke="#222829" stroke-width="2" stroke-miterlimit="10" stroke-linejoin="round"/>
<path d="M19.5807 44.3547H18.0323" stroke="#222829" stroke-width="2" stroke-miterlimit="10" stroke-linejoin="round"/>
</svg>
