<svg width="50" height="46" viewBox="0 0 50 46" fill="none" xmlns="http://www.w3.org/2000/svg">
<path d="M16 41.3501L19.75 33.8501" stroke="#222829" stroke-width="2" stroke-miterlimit="10"/>
<path d="M30.25 33.8501L34 41.3501" stroke="#222829" stroke-width="2" stroke-miterlimit="10"/>
<path d="M38.5 44.5H49" stroke="#222829" stroke-width="2" stroke-miterlimit="10"/>
<path d="M17.5 44.5H1" stroke="#222829" stroke-width="2" stroke-miterlimit="10"/>
<path d="M13.75 44.5V41.5H36.25V44.5H19" stroke="#222829" stroke-width="2" stroke-miterlimit="10"/>
<path d="M38.5 41.5H40" stroke="#222829" stroke-width="2" stroke-miterlimit="10"/>
<path d="M41.5 41.5H43" stroke="#222829" stroke-width="2" stroke-miterlimit="10"/>
<path d="M1.75 25.75V1H22.75" stroke="#222829" stroke-width="2" stroke-miterlimit="10"/>
<path d="M25 20.5V1H48.25V28H1.75V34H48.25V30.25" stroke="#222829" stroke-width="2" stroke-miterlimit="10"/>
<path d="M28.75 16.6001L25 20.3501L21.25 16.6001" stroke="#222829" stroke-width="2" stroke-miterlimit="10"/>
<path d="M22 12.8501C22 9.9251 24.325 7.6001 27.25 7.6001C30.175 7.6001 32.5 9.9251 32.5 12.8501C35.425 12.8501 37.75 15.2501 37.75 18.1751C37.75 21.1001 35.425 23.5001 32.5 23.5001H16.75C14.275 23.5001 12.25 21.4001 12.25 18.9251C12.25 16.4501 14.275 14.3501 16.75 14.3501C16.75 12.2501 18.4 10.6001 20.5 10.6001" stroke="#222829" stroke-width="2" stroke-miterlimit="10"/>
<path d="M5.5 5.5H14.5" stroke="#222829" stroke-width="2" stroke-miterlimit="10"/>
<path d="M5.5 8.5H7" stroke="#222829" stroke-width="2" stroke-miterlimit="10"/>
<path d="M8.5 8.5H10" stroke="#222829" stroke-width="2" stroke-miterlimit="10"/>
<path d="M5.5 11.5H7" stroke="#222829" stroke-width="2" stroke-miterlimit="10"/>
</svg>
