<svg width="50" height="50" viewBox="0 0 50 50" fill="none" xmlns="http://www.w3.org/2000/svg">
<path d="M45.9524 31.4762H17.762V17.762H48.2382V29.1905" stroke="#222829" stroke-width="2" stroke-miterlimit="10"/>
<path d="M49 31.4761H47.4762" stroke="#222829" stroke-width="2" stroke-miterlimit="10"/>
<path d="M20.8096 25.3809H45.9524" stroke="#222829" stroke-width="2" stroke-miterlimit="10"/>
<path d="M20.8096 28.4285H32.2381" stroke="#222829" stroke-width="2" stroke-miterlimit="10"/>
<path d="M3.28577 28.4285H12.4286" stroke="#222829" stroke-width="2" stroke-miterlimit="10"/>
<path d="M45.9524 14.7143H34.5238V1H48.2381V12.4286" stroke="#222829" stroke-width="2" stroke-miterlimit="10"/>
<path d="M49 14.7144H47.4762" stroke="#222829" stroke-width="2" stroke-miterlimit="10"/>
<path d="M12.4286 14.7143H1V1H14.7143V12.4286" stroke="#222829" stroke-width="2" stroke-miterlimit="10"/>
<path d="M15.4762 14.7144H13.9524" stroke="#222829" stroke-width="2" stroke-miterlimit="10"/>
<path d="M3.28577 4.04761H12.4286" stroke="#222829" stroke-width="2" stroke-miterlimit="10"/>
<path d="M45.9524 48.2382H34.5238V34.5239H48.2381V45.9525" stroke="#222829" stroke-width="2" stroke-miterlimit="10"/>
<path d="M49 48.238H47.4762" stroke="#222829" stroke-width="2" stroke-miterlimit="10"/>
<path d="M36.8096 45.1904H45.9524" stroke="#222829" stroke-width="2" stroke-miterlimit="10"/>
<path d="M29.1905 48.2382H17.762V34.5239H31.4762V45.9525" stroke="#222829" stroke-width="2" stroke-miterlimit="10"/>
<path d="M32.238 48.238H30.7142" stroke="#222829" stroke-width="2" stroke-miterlimit="10"/>
<path d="M12.4286 48.2382H1V17.762H14.7143V45.9524" stroke="#222829" stroke-width="2" stroke-miterlimit="10"/>
<path d="M15.4762 48.238H13.9524" stroke="#222829" stroke-width="2" stroke-miterlimit="10"/>
<path d="M3.28577 31.4761H12.4286" stroke="#222829" stroke-width="2" stroke-miterlimit="10"/>
<path d="M3.28577 34.5239H12.4286" stroke="#222829" stroke-width="2" stroke-miterlimit="10"/>
<path d="M3.28577 37.5715H12.4286" stroke="#222829" stroke-width="2" stroke-miterlimit="10"/>
<path d="M3.28577 40.6191H12.4286" stroke="#222829" stroke-width="2" stroke-miterlimit="10"/>
<path d="M3.28577 43.6667H12.4286" stroke="#222829" stroke-width="2" stroke-miterlimit="10"/>
<path d="M24.6191 1L26.2953 6.33333H31.4762L27.362 9.53333L29.1905 14.7143L24.6191 11.5143L20.0477 14.7143L21.8762 9.53333L17.762 6.33333H22.9429L24.6191 1Z" stroke="#222829" stroke-width="2" stroke-miterlimit="10" stroke-linejoin="round"/>
<path d="M3.28577 20.8096H4.80958" stroke="#222829" stroke-width="2" stroke-miterlimit="10"/>
<path d="M3.28577 23.8572H4.80958" stroke="#222829" stroke-width="2" stroke-miterlimit="10"/>
<path d="M6.33337 20.8096H7.85718" stroke="#222829" stroke-width="2" stroke-miterlimit="10"/>
<path d="M36.8096 4.04761H38.3334" stroke="#222829" stroke-width="2" stroke-miterlimit="10"/>
<path d="M39.8572 4.04761H41.381" stroke="#222829" stroke-width="2" stroke-miterlimit="10"/>
<path d="M42.9048 4.04761H44.4286" stroke="#222829" stroke-width="2" stroke-miterlimit="10"/>
<path d="M28.4286 37.5715H20.8096V40.6192H28.4286V37.5715Z" stroke="#222829" stroke-width="2" stroke-miterlimit="10"/>
<path d="M20.8096 20.8096H22.3334" stroke="#222829" stroke-width="2" stroke-miterlimit="10"/>
<path d="M23.8572 20.8096H25.381" stroke="#222829" stroke-width="2" stroke-miterlimit="10"/>
<path d="M26.9048 20.8096H28.4286" stroke="#222829" stroke-width="2" stroke-miterlimit="10"/>
</svg>
