<svg width="86" height="86" viewBox="0 0 86 86" fill="none" xmlns="http://www.w3.org/2000/svg">
<g clip-path="url(#clip0_1_760)">
<path fill-rule="evenodd" clip-rule="evenodd" d="M42.9998 0C66.7481 0 85.9998 19.2517 85.9998 43C85.9998 66.7483 66.7481 86 42.9998 86C19.2516 86 0 66.7483 0 43C0 19.2517 19.2516 0 42.9998 0ZM25.3791 34.8612C24.3923 34.8612 23.5873 35.666 23.5873 36.6528V63.619C23.5873 64.6058 24.3923 65.4106 25.3791 65.4106H60.6208C61.6076 65.4106 62.4123 64.6057 62.4123 63.619V36.653C62.4123 35.6661 61.6076 34.8614 60.6208 34.8614H58.0723V29.2118C58.0723 25.0638 56.3775 21.2951 53.647 18.5646C50.9165 15.8339 47.1477 14.1393 42.9998 14.1393C38.852 14.1393 35.0831 15.8341 32.3526 18.5644C29.6221 21.2949 27.9273 25.0638 27.9273 29.2116V34.8612H25.3791ZM33.6606 34.8612H52.3391V29.2116C52.3391 26.6464 51.2874 24.3121 49.5933 22.6182C47.8993 20.924 45.565 19.8724 42.9998 19.8724C40.4346 19.8724 38.1003 20.924 36.4064 22.618C34.7124 24.3121 33.6608 26.6464 33.6608 29.2116V34.8612H33.6606ZM45.8666 55.2088V47.4821C45.8666 45.899 44.5831 44.6155 42.9998 44.6155C41.4167 44.6155 40.1333 45.899 40.1333 47.4821V55.2088C40.1333 56.7921 41.4167 58.0754 42.9998 58.0754C44.5831 58.0754 45.8666 56.7919 45.8666 55.2088Z" fill="#249842"/>
</g>
<defs>
<clipPath id="clip0_1_760">
<rect width="86" height="86" fill="white"/>
</clipPath>
</defs>
</svg>
