<svg width="67" height="19" viewBox="0 0 67 19" fill="none" xmlns="http://www.w3.org/2000/svg">
<path d="M0.571023 18V15.0341L1.06534 14.9915C1.7017 14.9403 2.21591 14.6989 2.60795 14.267C3 13.8295 3.29261 13.1335 3.4858 12.179C3.68466 11.2188 3.8125 9.92898 3.86932 8.30966L4.15909 0.545454H16.0057V18H12.4176V3.50284H7.58523L7.3125 9.57955C7.22159 11.5341 6.98864 13.1307 6.61364 14.3693C6.24432 15.608 5.65341 16.5227 4.84091 17.1136C4.03409 17.7045 2.92898 18 1.52557 18H0.571023ZM35.0881 9.27273C35.0881 11.1761 34.7273 12.7955 34.0057 14.1307C33.2898 15.4659 32.3125 16.4858 31.0739 17.1903C29.8409 17.8892 28.4545 18.2386 26.9148 18.2386C25.3636 18.2386 23.9716 17.8864 22.7386 17.1818C21.5057 16.4773 20.5313 15.4574 19.8153 14.1222C19.0994 12.7869 18.7415 11.1705 18.7415 9.27273C18.7415 7.36932 19.0994 5.75 19.8153 4.41477C20.5313 3.07955 21.5057 2.0625 22.7386 1.36364C23.9716 0.659091 25.3636 0.306818 26.9148 0.306818C28.4545 0.306818 29.8409 0.659091 31.0739 1.36364C32.3125 2.0625 33.2898 3.07955 34.0057 4.41477C34.7273 5.75 35.0881 7.36932 35.0881 9.27273ZM31.3466 9.27273C31.3466 8.03977 31.1619 7 30.7926 6.15341C30.429 5.30682 29.9148 4.66477 29.25 4.22727C28.5852 3.78977 27.8068 3.57102 26.9148 3.57102C26.0227 3.57102 25.2443 3.78977 24.5795 4.22727C23.9148 4.66477 23.3977 5.30682 23.0284 6.15341C22.6648 7 22.483 8.03977 22.483 9.27273C22.483 10.5057 22.6648 11.5455 23.0284 12.392C23.3977 13.2386 23.9148 13.8807 24.5795 14.3182C25.2443 14.7557 26.0227 14.9744 26.9148 14.9744C27.8068 14.9744 28.5852 14.7557 29.25 14.3182C29.9148 13.8807 30.429 13.2386 30.7926 12.392C31.1619 11.5455 31.3466 10.5057 31.3466 9.27273ZM49.4041 0.545454V3.58807H41.5121V18H37.8217V0.545454H49.4041ZM67.0099 9.27273C67.0099 11.1761 66.6491 12.7955 65.9276 14.1307C65.2116 15.4659 64.2344 16.4858 62.9957 17.1903C61.7628 17.8892 60.3764 18.2386 58.8366 18.2386C57.2855 18.2386 55.8935 17.8864 54.6605 17.1818C53.4276 16.4773 52.4531 15.4574 51.7372 14.1222C51.0213 12.7869 50.6634 11.1705 50.6634 9.27273C50.6634 7.36932 51.0213 5.75 51.7372 4.41477C52.4531 3.07955 53.4276 2.0625 54.6605 1.36364C55.8935 0.659091 57.2855 0.306818 58.8366 0.306818C60.3764 0.306818 61.7628 0.659091 62.9957 1.36364C64.2344 2.0625 65.2116 3.07955 65.9276 4.41477C66.6491 5.75 67.0099 7.36932 67.0099 9.27273ZM63.2685 9.27273C63.2685 8.03977 63.0838 7 62.7145 6.15341C62.3509 5.30682 61.8366 4.66477 61.1719 4.22727C60.5071 3.78977 59.7287 3.57102 58.8366 3.57102C57.9446 3.57102 57.1662 3.78977 56.5014 4.22727C55.8366 4.66477 55.3196 5.30682 54.9503 6.15341C54.5866 7 54.4048 8.03977 54.4048 9.27273C54.4048 10.5057 54.5866 11.5455 54.9503 12.392C55.3196 13.2386 55.8366 13.8807 56.5014 14.3182C57.1662 14.7557 57.9446 14.9744 58.8366 14.9744C59.7287 14.9744 60.5071 14.7557 61.1719 14.3182C61.8366 13.8807 62.3509 13.2386 62.7145 12.392C63.0838 11.5455 63.2685 10.5057 63.2685 9.27273Z" fill="black"/>
</svg>
