<svg width="216" height="117" viewBox="0 0 216 117" fill="none" xmlns="http://www.w3.org/2000/svg">
<path fill-rule="evenodd" clip-rule="evenodd" d="M0 87H30.0521V92.9999H0V87ZM24.7931 99V105H5.63478V99H24.7931ZM0 117H30.0521V111H0V117Z" fill="#D7B369"/>
<path fill-rule="evenodd" clip-rule="evenodd" d="M185.948 87H216V92.9999H185.948V87ZM210.741 99V105H191.583V99H210.741ZM185.948 117H216V111H185.948V117Z" fill="#D7B369"/>
<path fill-rule="evenodd" clip-rule="evenodd" d="M66.115 95.4853L61.3493 100.243L57.0993 104.485L52.8493 100.243L48.0836 95.4853V117H42.0732V87H48.0836L57.0993 95.9999L66.115 87H72.1254V117H66.115V95.4853Z" fill="#D7B369"/>
<path fill-rule="evenodd" clip-rule="evenodd" d="M105.182 99H90.1563H84.1458V105V117H90.1563V105H105.182C110.162 105 114.198 100.971 114.198 95.9999C114.198 91.0293 110.162 87 105.182 87H84.1458V92.9999H105.182C106.842 92.9999 108.188 94.3431 108.188 95.9999C108.188 97.6568 106.842 99 105.182 99V99Z" fill="#D7B369"/>
<path fill-rule="evenodd" clip-rule="evenodd" d="M126.219 87H132.23V117H126.219V87Z" fill="#D7B369"/>
<path fill-rule="evenodd" clip-rule="evenodd" d="M158.548 105L166.965 117H174.303L165.872 104.981C170.578 104.68 174.303 100.774 174.303 95.9999C174.303 91.0293 170.266 87 165.287 87H144.25V92.9999H165.287C166.947 92.9999 168.292 94.3431 168.292 95.9999C168.292 97.6568 166.947 99 165.287 99H150.261H144.25V105V117H150.261V105H158.548Z" fill="#D7B369"/>
<path fill-rule="evenodd" clip-rule="evenodd" d="M69.1196 39.0001L108.187 0L147.255 39.0001L108.187 78.0001L69.1196 39.0001ZM93.1614 48.0001H123.214V54.0001H93.1614V48.0001ZM93.1614 24.0001H123.214V30H93.1614V24.0001ZM99.7354 36.0001H114.949V42H99.7354V36.0001Z" fill="#D7B369"/>
<rect x="68.7441" y="37.8857" width="78.887" height="2.22857" fill="black"/>
</svg>
