<svg width="39" height="14" fill="none" xmlns="http://www.w3.org/2000/svg"><path d="M3.158 7.033L2.115 8.117V11H.99V2.469h1.125v4.219l3.791-4.22h1.36L3.908 6.237 7.53 11H6.182L3.158 7.033zM9.521 11H8.437V4.66h1.084V11zM8.35 2.979c0-.176.052-.325.158-.446.11-.12.27-.181.48-.181.211 0 .371.06.48.181a.64.64 0 01.165.446.62.62 0 01-.164.439c-.11.117-.27.176-.48.176-.212 0-.372-.059-.481-.176a.632.632 0 01-.158-.44zm3.931 7.136h3.71V11h-5.034v-.797l3.498-4.646H11.01V4.66h4.805v.768l-3.534 4.687zm8.848.258c-.422.496-1.041.744-1.858.744-.675 0-1.19-.195-1.546-.586-.352-.394-.53-.976-.534-1.746V4.66h1.084v4.096c0 .96.391 1.441 1.172 1.441.828 0 1.38-.308 1.653-.926v-4.61h1.084V11h-1.032l-.023-.627zm4.476-2.309l-.68.71V11h-1.083V2h1.084v5.443l.58-.697L27.48 4.66h1.32l-2.468 2.65L29.086 11h-1.271l-2.21-2.936z" fill="#A8A8A8"/><g clip-path="url(#clip0_11_8)" fill="#A8A8A8"><path d="M34.5 11.009a4.219 4.219 0 001.104-8.291.563.563 0 00-.541-.718h-1.126a.562.562 0 00-.54.718 4.219 4.219 0 001.103 8.291zm3.656-4.219a3.657 3.657 0 11-7.313 0 3.657 3.657 0 017.313 0z"/><path d="M33.904 6.185l2.784-1.592-1.592 2.785-2.784 1.591 1.591-2.784z"/></g><defs><clipPath id="clip0_11_8"><path fill="#fff" transform="translate(30 2)" d="M0 0h9v9H0z"/></clipPath></defs></svg>