<svg width="86" height="86" viewBox="0 0 86 86" fill="none" xmlns="http://www.w3.org/2000/svg">
<g clip-path="url(#clip0_1_943)">
<circle cx="43" cy="43" r="43" fill="#249842"/>
<path d="M59.7795 60.975C61.9161 60.975 63.7203 59.0361 63.2463 56.6583C63.2093 56.4915 61.4329 48.4805 61.5462 48.9917V29.8916C61.5462 27.2083 59.3628 25.025 56.6795 25.025H29.3128C26.6294 25.025 24.4462 27.2083 24.4462 29.8916V48.9917C24.4096 49.1585 22.6508 57.1688 22.7629 56.6583C22.2658 58.9304 24.0143 60.975 26.2128 60.975H59.7795ZM27.7796 47.525V29.8916C27.7796 29.0448 28.466 28.3583 29.3129 28.3583H56.6795C57.5264 28.3583 58.2129 29.0449 58.2129 29.8917V47.525H27.7796Z" fill="white"/>
<path d="M44.7099 38.1151L45.5038 42.291C45.576 42.6725 45.2873 43.023 44.8955 43.023H41.1115C40.7197 43.023 40.431 42.6725 40.5032 42.291L41.2971 38.1151C40.2661 37.5275 39.5649 36.4139 39.5649 35.1251C39.5649 33.2279 41.1012 31.6917 42.9983 31.6917C44.9058 31.6917 46.4421 33.2279 46.4421 35.1251C46.4421 36.4036 45.7513 37.5275 44.7099 38.1151Z" fill="white"/>
</g>
<defs>
<clipPath id="clip0_1_943">
<rect width="86" height="86" fill="white"/>
</clipPath>
</defs>
</svg>
