<svg width="55" height="55" viewBox="0 0 55 55" fill="none" xmlns="http://www.w3.org/2000/svg">
<path fill-rule="evenodd" clip-rule="evenodd" d="M27.5 5C15.0736 5 5 15.0736 5 27.5C5 39.9264 15.0736 50 27.5 50C39.9264 50 50 39.9264 50 27.5C50 15.0736 39.9264 5 27.5 5ZM0 27.5C0 12.3122 12.3122 0 27.5 0C42.6878 0 55 12.3122 55 27.5C55 42.6878 42.6878 55 27.5 55C12.3122 55 0 42.6878 0 27.5Z" fill="white"/>
<path fill-rule="evenodd" clip-rule="evenodd" d="M21.3204 15.2958C22.1332 14.8608 23.1196 14.9085 23.8868 15.4199L38.8868 25.4199C39.5822 25.8835 40 26.6641 40 27.5C40 28.3359 39.5822 29.1165 38.8868 29.5801L23.8868 39.5801C23.1196 40.0916 22.1332 40.1392 21.3204 39.7042C20.5075 39.2691 20 38.422 20 37.5V17.5C20 16.578 20.5075 15.7309 21.3204 15.2958ZM25 22.1713V32.8287L32.9931 27.5L25 22.1713Z" fill="white"/>
</svg>
