<svg width="86" height="86" viewBox="0 0 86 86" fill="none" xmlns="http://www.w3.org/2000/svg">
<g clip-path="url(#clip0_1_578)">
<path d="M43 0C31.5957 0 20.6585 4.53034 12.5944 12.5944C4.53034 20.6585 0 31.5957 0 43C0 54.4043 4.53034 65.3415 12.5944 73.4056C20.6585 81.4697 31.5957 86 43 86C54.4043 86 65.3415 81.4697 73.4056 73.4056C81.4697 65.3415 86 54.4043 86 43C86 31.5957 81.4697 20.6585 73.4056 12.5944C65.3415 4.53034 54.4043 0 43 0V0ZM39.1866 24.94C40.7118 24.94 42.2028 25.3923 43.471 26.2397C44.7392 27.087 45.7276 28.2914 46.3113 29.7006C46.895 31.1097 47.0477 32.6603 46.7501 34.1562C46.4526 35.6521 45.7181 37.0262 44.6396 38.1047C43.5611 39.1832 42.187 39.9177 40.6911 40.2152C39.1951 40.5128 37.6446 40.3601 36.2354 39.7764C34.8263 39.1927 33.6219 38.2043 32.7745 36.9361C31.9272 35.6679 31.4749 34.1769 31.4749 32.6517C31.4741 31.6388 31.6731 30.6357 32.0604 29.6997C32.4477 28.7637 33.0157 27.9133 33.7319 27.197C34.4482 26.4808 35.2986 25.9128 36.2346 25.5255C37.1705 25.1382 38.1737 24.9393 39.1866 24.94ZM54.6043 57.6257C54.6043 58.0767 54.5155 58.5233 54.3429 58.9399C54.1703 59.3566 53.9174 59.7352 53.5984 60.0541C53.2795 60.373 52.9009 60.626 52.4843 60.7986C52.0676 60.9712 51.621 61.06 51.17 61.06H27.1975C26.2867 61.06 25.4131 60.6982 24.7691 60.0541C24.125 59.41 23.7632 58.5365 23.7632 57.6257C23.7624 55.756 24.1301 53.9046 24.8452 52.1772C25.5604 50.4497 26.6089 48.8802 27.9309 47.5581C29.2529 46.2361 30.8225 45.1876 32.5499 44.4725C34.2774 43.7574 36.1288 43.3897 37.9984 43.3904H40.3747C42.2439 43.3904 44.0947 43.7586 45.8215 44.4741C47.5483 45.1896 49.1172 46.2382 50.4386 47.5602C51.76 48.8821 52.808 50.4514 53.5228 52.1785C54.2376 53.9056 54.6051 55.7565 54.6043 57.6257ZM66.7632 40.7368H61.6711V45.8289H57.0146V40.7368H51.9225V36.0634H57.0146V30.9713H61.6711V36.0634H66.7632V40.7368Z" fill="#249842"/>
</g>
<defs>
<clipPath id="clip0_1_578">
<rect width="86" height="86" fill="white"/>
</clipPath>
</defs>
</svg>
