<svg width="22" height="14" viewBox="0 0 22 14" fill="none" xmlns="http://www.w3.org/2000/svg">
<path d="M11 0.442978C6.79667 0.442978 2.98486 2.74266 0.172139 6.47796C-0.0573796 6.78398 -0.0573796 7.21152 0.172139 7.51754C2.98486 11.2573 6.79667 13.557 11 13.557C15.2033 13.557 19.0151 11.2573 21.8279 7.52204C22.0574 7.21602 22.0574 6.78848 21.8279 6.48246C19.0151 2.74266 15.2033 0.442978 11 0.442978ZM11.3015 11.6174C8.5113 11.7929 6.20712 9.4932 6.38263 6.69848C6.52664 4.39429 8.39429 2.52664 10.6985 2.38263C13.4887 2.20712 15.7929 4.5068 15.6174 7.30152C15.4689 9.60121 13.6012 11.4689 11.3015 11.6174ZM11.162 9.4842C9.65889 9.5787 8.41679 8.34111 8.5158 6.83799C8.59231 5.59589 9.60039 4.59231 10.8425 4.5113C12.3456 4.41679 13.5877 5.65439 13.4887 7.15751C13.4077 8.40411 12.3996 9.40769 11.162 9.4842Z" fill="#1C1C1C"/>
</svg>
