<svg width="27" height="25" viewBox="0 0 27 25" fill="none" xmlns="http://www.w3.org/2000/svg">
<g id="Group 49">
<path id="Vector" d="M2.20882e-05 12.3333C2.19352e-05 14.0833 1.41669 15 3.33335 15L8.91669 15C8.50002 16.5 8.33335 17.9167 8.33335 19.1667C8.33335 24 9.66669 25 10.8334 25C11.5834 25 12.1667 24.9167 12.9167 24.5C13.1667 24.3333 13.25 24.1667 13.3334 23.9167L14.1667 19.4167C15.0834 17.0833 17.3334 15 19.1667 13.5833L19.1667 1.66667C18.5 1.66667 17.8334 1.33333 17 0.916666C16.0834 0.5 15.1667 -3.49691e-07 14.1667 -4.37114e-07L6.25002 -1.12921e-06C4.58336 -1.27492e-06 3.33336 1.33333 3.33336 2.5C3.33336 2.75 3.33335 2.91667 3.41669 3.08333C2.41669 3.5 1.66669 4.33333 1.66669 5.41667C1.66669 5.91667 1.75002 6.33333 1.91669 6.75C1.25002 7.16667 0.666689 7.91667 0.666688 8.75C0.666688 9.25 0.91669 9.75 1.16669 10.1667C0.500024 10.6667 2.2161e-05 11.5 2.20882e-05 12.3333ZM1.75002 12.3333C1.75002 11.25 2.83335 11.1667 3.00002 10.6667C3.16669 10.0833 2.33335 9.91667 2.33335 8.91667C2.33335 7.91667 3.58336 7.91666 3.75002 7.33333C3.91669 6.66666 3.33336 6.5 3.33336 5.5L3.33336 5.33333C3.50002 4.5 4.75002 4.41667 5.00002 4.08333C5.25002 3.66667 5.00002 3.5 5.00002 2.58333C5.00002 2.08333 5.58336 1.75 6.25002 1.75L14.1667 1.75C14.8334 1.75 15.5 2.08333 16.3334 2.5C17 2.83333 17.6667 3.16667 18.3334 3.33333L18.3334 12.0833C16.25 13.6667 13.5834 16 12.5834 18.9167L12.5834 19.0833L11.8334 23.25C11.5 23.3333 11.25 23.3333 10.8334 23.3333C10.6667 23.3333 10 22.3333 10 19.1667C10 17.9167 10.25 16.5833 10.6667 15L10.8334 15C11.3334 15 11.6667 14.6667 11.6667 14.1667C11.6667 13.6667 11.3334 13.3333 10.8334 13.3333L3.33336 13.3333C2.50002 13.3333 1.75002 12.9167 1.75002 12.3333Z" fill="#1C1C1C"/>
<path id="Vector_2" d="M20 -5.82818e-07L25 -1.45705e-07C25.9167 -6.55671e-08 26.6667 0.75 26.6667 1.66667L26.6667 13.3333C26.6667 14.25 25.9167 15 25 15L20 15C19.0834 15 18.3334 14.25 18.3334 13.3333L18.3334 1.66667C18.3334 0.749999 19.0834 -6.62956e-07 20 -5.82818e-07ZM25 13.3333L25 1.66667L20 1.66667L20 13.3333L25 13.3333Z" fill="#1C1C1C"/>
</g>
</svg>
