<svg width="50" height="50" viewBox="0 0 50 50" fill="none" xmlns="http://www.w3.org/2000/svg">
<g id=".">
<g id="Group 48">
<path id="Vector" d="M38.6667 23.6667C38.6667 21.9167 37.25 21 35.3333 21H29.75C30.1667 19.5 30.3333 18.0833 30.3333 16.8333C30.3333 12 29 11 27.8333 11C27.0833 11 26.5 11.0833 25.75 11.5C25.5 11.6667 25.4167 11.8333 25.3333 12.0833L24.5 16.5833C23.5833 18.9167 21.3333 21 19.5 22.4167V34.3333C20.1667 34.3333 20.8333 34.6667 21.6667 35.0833C22.5833 35.5 23.5 36 24.5 36H32.4167C34.0833 36 35.3333 34.6667 35.3333 33.5C35.3333 33.25 35.3333 33.0833 35.25 32.9167C36.25 32.5 37 31.6667 37 30.5833C37 30.0833 36.9167 29.6667 36.75 29.25C37.4167 28.8333 38 28.0833 38 27.25C38 26.75 37.75 26.25 37.5 25.8333C38.1667 25.3333 38.6667 24.5 38.6667 23.6667ZM36.9167 23.6667C36.9167 24.75 35.8333 24.8333 35.6667 25.3333C35.5 25.9167 36.3333 26.0833 36.3333 27.0833C36.3333 28.0833 35.0833 28.0833 34.9167 28.6667C34.75 29.3333 35.3333 29.5 35.3333 30.5V30.6667C35.1667 31.5 33.9167 31.5833 33.6667 31.9167C33.4167 32.3333 33.6667 32.5 33.6667 33.4167C33.6667 33.9167 33.0833 34.25 32.4167 34.25H24.5C23.8333 34.25 23.1667 33.9167 22.3333 33.5C21.6667 33.1667 21 32.8333 20.3333 32.6667V23.9167C22.4167 22.3333 25.0833 20 26.0833 17.0833V16.9167L26.8333 12.75C27.1667 12.6667 27.4167 12.6667 27.8333 12.6667C28 12.6667 28.6667 13.6667 28.6667 16.8333C28.6667 18.0833 28.4167 19.4167 28 21H27.8333C27.3333 21 27 21.3333 27 21.8333C27 22.3333 27.3333 22.6667 27.8333 22.6667H35.3333C36.1667 22.6667 36.9167 23.0833 36.9167 23.6667Z" fill="#1C1C1C"/>
<path id="Vector_2" d="M18.6667 36H13.6667C12.75 36 12 35.25 12 34.3333V22.6667C12 21.75 12.75 21 13.6667 21H18.6667C19.5833 21 20.3333 21.75 20.3333 22.6667V34.3333C20.3333 35.25 19.5833 36 18.6667 36ZM13.6667 22.6667V34.3333H18.6667V22.6667H13.6667Z" fill="#1C1C1C"/>
</g>
</g>
</svg>
