<svg width="8" height="10" viewBox="0 0 8 10" fill="none" xmlns="http://www.w3.org/2000/svg">
<path fill-rule="evenodd" clip-rule="evenodd" d="M6.24999 2.5315C6.24999 4.129 5.28499 5.5 3.99999 5.5C2.71399 5.5 1.74999 4.129 1.74999 2.531C1.74999 0.934 2.57999 0 3.99999 0C5.41999 0 6.24999 0.9335 6.24999 2.5315ZM0.050987 9.071C0.243487 9.3 1.07249 10 3.99999 10C6.92749 10 7.75599 9.3 7.94899 9.0715C7.96689 9.04954 7.98011 9.02415 7.98785 8.99689C7.99559 8.96964 7.99768 8.94109 7.99399 8.913C7.94999 8.472 7.55299 6.5 3.99999 6.5C0.446987 6.5 0.0499869 8.472 0.00548692 8.913C0.00186588 8.94112 0.00403411 8.96969 0.0118587 8.99695C0.0196832 9.02421 0.0329988 9.04908 0.050987 9.071Z" fill="white"/>
</svg>
