<svg width="16" height="16" viewBox="0 0 16 16" fill="none" xmlns="http://www.w3.org/2000/svg">
<path fill-rule="evenodd" clip-rule="evenodd" d="M10.7619 9.77674C12.4457 7.56125 12.276 4.38775 10.2528 2.36538C8.04443 0.15783 4.46392 0.15783 2.25553 2.36538C0.0471463 4.57292 0.0471463 8.15207 2.25553 10.3596C4.27892 12.3822 7.45417 12.5517 9.67055 10.8679L13.7257 14.9213L13.8047 14.9903C14.107 15.2203 14.5402 15.1973 14.8163 14.9213C15.1174 14.6203 15.1174 14.1323 14.8163 13.8312L10.7619 9.77674ZM2.98256 3.09213C4.78942 1.28595 7.71892 1.28595 9.52578 3.09213C11.3326 4.8983 11.3326 7.82669 9.52578 9.63286C7.71892 11.439 4.78942 11.439 2.98256 9.63286C1.17569 7.82669 1.17569 4.8983 2.98256 3.09213Z" fill="white" fill-opacity="0.5"/>
</svg>
